<?xml version="1.0" encoding="UTF-8" standalone="no"?>
<!-- Created with Inkscape (http://www.inkscape.org/) -->

<svg
   width="29.048698mm"
   height="32.700676mm"
   viewBox="0 0 29.048699 32.700677"
   version="1.1"
   id="svg1"
   xml:space="preserve"
   xmlns="http://www.w3.org/2000/svg"
   xmlns:svg="http://www.w3.org/2000/svg"><defs
     id="defs1" /><g
     id="layer1"
     transform="translate(-20.557501,-287.06558)"><g
       id="g32" /><path
       style="fill:#000000"
       d="m 31.380579,318.44334 c 0.68069,-4.25136 0.68149,-4.30062 0.0838,-5.21287 -1.56816,-2.39331 -4.7863,-2.92189 -8.492955,-1.39497 -1.164166,0.47956 -2.241906,0.87267 -2.394978,0.87357 -0.153071,9e-4 0.638451,-0.74508 1.758938,-1.65773 2.267363,-1.84679 3.426429,-3.10636 4.602983,-5.00211 1.604742,-2.58566 0.821469,-6.69218 -2.153671,-11.29128 -1.570087,-2.42711 -1.594311,-2.50632 -0.882858,-2.88708 0.635193,-0.33994 0.919135,-0.19625 2.1562,1.09116 2.267501,2.3598 4.613921,3.01324 7.096041,1.97614 1.54763,-0.64664 2.45201,-1.86464 3.58387,-4.82666 0.85502,-2.23757 1.86109,-3.45977 2.40238,-2.91848 0.11565,0.11565 0.11293,1.69226 -0.006,3.50357 -0.17418,2.65164 -0.0976,3.60416 0.39302,4.88885 0.65712,1.72064 2.93189,3.94755 4.41181,4.31898 0.82247,0.20643 3.66284,-0.23407 5.04968,-0.78313 0.33955,-0.13443 0.61736,-0.10175 0.61736,0.0726 0,0.17437 -0.87671,0.74701 -1.94824,1.27254 -1.07153,0.52553 -2.65903,1.61069 -3.52777,2.41147 -1.52815,1.4086 -1.57955,1.52375 -1.57955,3.53904 0,2.27616 0.59283,4.02933 1.97547,5.84207 0.97089,1.2729 0.99935,2.10917 0.0912,2.681 -0.46356,0.2919 -0.98807,2.2e-4 -2.62806,-1.46149 -1.71517,-1.52871 -2.27016,-1.82617 -3.40713,-1.82617 -2.83257,0 -4.57984,1.83821 -5.02988,5.29167 -0.28649,2.19845 -0.65661,2.82222 -1.6746,2.82222 -0.62154,0 -0.68273,-0.16288 -0.497,-1.32292 z m 4.9734,-7.48779 c 1.42072,-0.54016 0.9992,-2.47818 -0.53902,-2.47818 -0.66659,0 -1.02552,0.68918 -1.02552,1.96913 0,0.94229 0.22903,1.0168 1.56454,0.50905 z m -3.69362,-1.04388 c 0.89108,-1.66499 -0.37561,-2.50305 -1.81474,-1.20065 -0.60552,0.54799 -0.60954,0.62892 -0.0613,1.23472 0.75594,0.83531 1.4172,0.8233 1.87604,-0.0341 z m 0.0751,-4.19076 c 0.38785,-0.39275 -0.64775,-2.44588 -1.45037,-2.87542 -0.82279,-0.44035 -0.78986,-0.48706 -1.43671,2.03797 -0.21435,0.83676 -0.47805,1.75153 -0.586,2.03283 -0.1522,0.39664 0.18878,0.34705 1.51885,-0.22088 0.94331,-0.40279 1.82271,-0.84132 1.95423,-0.9745 z m 6.64004,0.24033 c 0,-0.82018 -0.14027,-1.03637 -0.61331,-0.94527 -0.7578,0.14594 -1.0012,1.20374 -0.43418,1.88696 0.59396,0.71568 1.04749,0.30795 1.04749,-0.94169 z m 0.0877,-3.17767 c 1.11539,-0.45793 2.0282,-1.02904 2.02847,-1.26914 5.5e-4,-0.49245 -2.68599,-2.29309 -3.50493,-2.34915 -0.62656,-0.0429 -1.38463,1.89696 -1.41356,3.61719 -0.0136,0.81121 0.119,1.12905 0.42106,1.00898 0.24254,-0.0964 1.35357,-0.54996 2.46896,-1.00788 z m -4.61382,-3.59071 c 0.34706,-1.26191 0.4687,-2.31406 0.28868,-2.49711 -0.46734,-0.47524 -3.67734,0.95655 -3.82166,1.7046 -0.12408,0.64315 2.37439,3.53209 2.7392,3.16729 0.1067,-0.1067 0.4639,-1.17535 0.79378,-2.37478 z"
       id="path1" /></g></svg>
