<?xml version="1.0" encoding="UTF-8" standalone="no"?>
<!-- Created with Inkscape (http://www.inkscape.org/) -->

<svg
   width="24.102659mm"
   height="30.285473mm"
   viewBox="0 0 24.10266 30.285474"
   version="1.1"
   id="svg1"
   xml:space="preserve"
   sodipodi:docname="hd_3.svg"
   inkscape:version="1.3 (0e150ed6c4, 2023-07-21)"
   xmlns:inkscape="http://www.inkscape.org/namespaces/inkscape"
   xmlns:sodipodi="http://sodipodi.sourceforge.net/DTD/sodipodi-0.dtd"
   xmlns="http://www.w3.org/2000/svg"
   xmlns:svg="http://www.w3.org/2000/svg"><sodipodi:namedview
     id="namedview1"
     pagecolor="#ffffff"
     bordercolor="#666666"
     borderopacity="1.0"
     inkscape:showpageshadow="2"
     inkscape:pageopacity="0.0"
     inkscape:pagecheckerboard="0"
     inkscape:deskcolor="#d1d1d1"
     inkscape:document-units="mm"
     inkscape:zoom="0.66517117"
     inkscape:cx="45.101173"
     inkscape:cy="339.01049"
     inkscape:window-width="2560"
     inkscape:window-height="1371"
     inkscape:window-x="0"
     inkscape:window-y="32"
     inkscape:window-maximized="1"
     inkscape:current-layer="layer1" /><defs
     id="defs1" /><g
     id="layer1"
     transform="translate(-23.03052,-29.459141)"><g
       id="g32" /><path
       style="fill:#000000"
       d="m 40.173529,59.600613 c 0,-0.0792 0.79499,-2.399167 1.76664,-5.155489 2.71343,-7.697263 3.26692,-10.189434 3.09303,-13.926905 -0.18834,-4.04805 -1.12368,-6.309408 -3.4895,-8.436481 -2.07097,-1.86198 -3.52253,-2.215264 -6.06505,-1.476133 -2.63043,0.764688 -5.1829,3.527136 -5.1829,5.60928 0,0.480373 -1.144353,2.567186 -2.598793,4.739107 -1.88976,2.821974 -2.66428,4.317474 -2.83882,5.481373 -0.39666,2.645131 0.43969,7.664799 1.27707,7.664799 0.20398,0 1.00295,-0.57105 1.77549,-1.269001 2.603653,-2.352235 5.755273,-3.012819 6.796013,-1.42445 0.41555,0.634207 0.46191,1.05729 0.19326,1.763889 -0.43733,1.150254 -0.83534,1.173686 -1.54478,0.09095 -1.42553,-2.175637 -4.109683,-1.303134 -6.296603,2.046759 -0.83288,1.275799 -1.69801,2.319635 -1.9225,2.319635 -0.56392,0 -1.43195,-2.302441 -1.91603,-5.082223 -0.71457,-4.103391 0.62889,-8.904122 3.39667,-12.137645 0.66527,-0.777218 1.21113,-1.626013 1.21302,-1.886212 0.009,-1.203409 1.847503,-4.189004 3.717373,-6.035969 2.96127,-2.925009 5.5649,-3.637024 9.27291,-2.535864 6.40658,1.90255 8.10679,9.875224 4.31917,20.253553 -1.78021,4.877906 -3.9673,9.541027 -4.47491,9.541027 -0.26992,0 -0.49076,-0.0648 -0.49076,-0.143996 z m -4.23333,-18.315344 c 0,-0.847215 1.31314,-2.35455 2.05121,-2.35455 0.56767,0 0.52567,0.548896 -0.15113,1.975158 -0.67802,1.428824 -1.90008,1.672835 -1.90008,0.379392 z"
       id="path2" /></g></svg>
