<?xml version="1.0" encoding="UTF-8" standalone="no"?>
<!-- Created with Inkscape (http://www.inkscape.org/) -->

<svg
   width="15.490302mm"
   height="23.332485mm"
   viewBox="0 0 15.490302 23.332486"
   version="1.1"
   id="svg1"
   xml:space="preserve"
   sodipodi:docname="hd_4.svg"
   inkscape:version="1.3 (0e150ed6c4, 2023-07-21)"
   xmlns:inkscape="http://www.inkscape.org/namespaces/inkscape"
   xmlns:sodipodi="http://sodipodi.sourceforge.net/DTD/sodipodi-0.dtd"
   xmlns="http://www.w3.org/2000/svg"
   xmlns:svg="http://www.w3.org/2000/svg"><sodipodi:namedview
     id="namedview1"
     pagecolor="#ffffff"
     bordercolor="#666666"
     borderopacity="1.0"
     inkscape:showpageshadow="2"
     inkscape:pageopacity="0.0"
     inkscape:pagecheckerboard="0"
     inkscape:deskcolor="#d1d1d1"
     inkscape:document-units="mm"
     inkscape:zoom="0.66517117"
     inkscape:cx="28.564076"
     inkscape:cy="191.67999"
     inkscape:window-width="2560"
     inkscape:window-height="1371"
     inkscape:window-x="0"
     inkscape:window-y="32"
     inkscape:window-maximized="1"
     inkscape:current-layer="layer1" /><defs
     id="defs1" /><g
     id="layer1"
     transform="translate(-27.336698,-69.118155)"><g
       id="g32" /><path
       style="fill:#000000"
       d="m 31.201519,91.813953 c -1.45536,-0.88751 -2.82511,-2.57619 -3.39423,-4.18453 -0.30432,-0.86003 -0.47104,-3.01911 -0.47059,-6.09438 6.2e-4,-4.21788 0.0933,-4.96422 0.81023,-6.52639 1.99981,-4.3574 3.77461,-5.8432 7.03498,-5.88943 3.23636,-0.0459 5.20104,1.38546 6.64489,4.84107 1.42014,3.39888 1.31217,9.55949 -0.22312,12.73097 -2.17747,4.49805 -7.29431,7.01791 -10.40216,5.12269 z m 7.44466,-4.40213 c 2.4583,-2.53805 3.17149,-4.6313 2.67169,-7.84159 -0.70266,-4.5133 -3.23782,-7.56019 -6.29044,-7.56019 -2.83088,0 -4.77209,1.6366 -6.07652,5.12301 -2.30718,6.16649 0.61752,12.1631 5.93227,12.1631 1.879,0 1.99335,-0.0573 3.763,-1.88433 z m -4.99197,-0.25963 c -3.31082,-0.96103 -4.78084,-5.87032 -2.85375,-9.53042 1.34308,-2.55089 3.79839,-3.09478 6.03364,-1.33654 2.05892,1.61955 2.87833,6.66868 1.40558,8.66112 -0.70958,0.95997 -2.84325,2.61995 -3.28293,2.55409 -0.11683,-0.0175 -0.70297,-0.17421 -1.30254,-0.34825 z m 3.34609,-3.92434 c 0.96203,-0.94056 1.12002,-1.30924 0.94485,-2.20486 -0.45234,-2.31269 -2.69028,-4.09907 -4.38749,-3.50219 -2.07116,0.72839 -3.06101,4.90474 -1.46818,6.19453 0.48528,0.39296 1.36732,0.64193 2.27419,0.64193 1.19103,0 1.7079,-0.2214 2.63663,-1.12941 z"
       id="path4" /></g></svg>
