<?xml version="1.0" encoding="UTF-8" standalone="no"?>
<!-- Created with Inkscape (http://www.inkscape.org/) -->

<svg
   width="24.694441mm"
   height="21.729458mm"
   viewBox="0 0 24.694441 21.729459"
   version="1.1"
   id="svg1"
   xml:space="preserve"
   xmlns="http://www.w3.org/2000/svg"
   xmlns:svg="http://www.w3.org/2000/svg"><defs
     id="defs1" /><g
     id="layer1"
     transform="translate(-22.73463,-216.78914)"><g
       id="g32" /><path
       style="fill:#000000"
       d="m 36.6279,237.90182 c -2.59512,-1.17848 -3.0429,-2.47035 -2.04547,-5.90136 0.43969,-1.5125 0.4681,-2.03201 0.13319,-2.43555 -0.60779,-0.73235 -1.1498,-0.64824 -3.51433,0.54538 -3.30959,1.67067 -4.38617,1.36929 -4.28897,-1.20069 0.0707,-1.86991 -0.89749,-3.20847 -2.07907,-2.8743 -0.37813,0.10693 -1.00501,0.2845 -1.39307,0.39459 -0.38805,0.11009 -0.70555,0.0445 -0.70555,-0.1458 0,-0.34746 4.10569,-1.81825 5.07565,-1.81825 1.01059,0 1.62712,1.06462 1.62712,2.80968 0,2.22616 0.56946,2.42533 3.12145,1.09176 2.87705,-1.50343 4.08552,-1.55438 4.70339,-0.19829 0.31883,0.69974 0.27064,1.31274 -0.23429,2.9804 -0.72923,2.4085 -0.423,3.73445 1.14784,4.97007 1.07926,0.84895 3.47764,0.92263 4.5934,0.14112 1.73796,-1.21731 2.85036,-4.75787 2.22479,-7.08106 -0.47858,-1.7773 -1.70166,-2.9157 -4.79685,-4.46474 -3.69682,-1.85013 -4.72638,-3.22516 -3.81848,-5.09977 0.95893,-1.97997 6.18672,-3.55329 8.22508,-2.47535 1.42363,0.75285 1.2802,1.5129 -0.44292,2.34705 -1.87359,0.90699 -3.03899,1.01527 -2.37991,0.22112 0.66795,-0.80482 0.16186,-1.59199 -1.02353,-1.59199 -0.67375,0 -1.23949,0.27139 -1.58043,0.75815 -1.01376,1.44734 0.67574,3.39865 4.67831,5.4033 2.98706,1.49604 3.57382,2.32806 3.57382,5.06757 0,4.08569 -2.25373,7.05462 -6.48382,8.54137 -2.39091,0.84034 -2.50032,0.84074 -4.31735,0.0156 z"
       id="path3" /></g></svg>
