<?xml version="1.0" encoding="UTF-8" standalone="no"?>
<!-- Created with Inkscape (http://www.inkscape.org/) -->

<svg
   width="7.9783163mm"
   height="13.856342mm"
   viewBox="0 0 7.9783162 13.856342"
   version="1.1"
   id="svg1"
   xmlns="http://www.w3.org/2000/svg"
   xmlns:svg="http://www.w3.org/2000/svg">
  <defs
     id="defs1" />
  <g
     id="layer1"
     transform="translate(-37.979203,-59.15842)">
    <g
       id="g487"
       transform="translate(-915.82866,-102.49326)"
       style="fill:#000000;fill-opacity:0.694922;stroke:#000000;stroke-opacity:0.574656">
      <path
         style="fill:#000000;fill-opacity:0.694922;stroke:#000000;stroke-width:1;stroke-linecap:round;stroke-linejoin:round;stroke-miterlimit:2;stroke-dasharray:none;stroke-opacity:0.574656;paint-order:markers stroke fill"
         id="path449"
         d="m 957.1574,169.97674 c -0.0422,-0.31348 -0.007,-0.063 -0.0669,-0.43903 -0.0185,-0.115 -0.0288,-0.2315 -0.0541,-0.34519 -0.0966,-0.4342 -0.27755,-0.83656 -0.45688,-1.24079 -0.31764,-0.6152 -0.69869,-1.20246 -1.18132,-1.70244 -0.32779,-0.33958 -0.45182,-0.41267 -0.82756,-0.70199 -0.0818,-0.0695 -0.16354,-0.13906 -0.24529,-0.20859 0,0 -0.0177,-0.009 -0.0177,-0.009 v 0 c 0.0599,0.0592 0.11978,0.11843 0.17965,0.17764 0.0341,0.0616 0.0614,0.1275 0.10242,0.18469 0.047,0.0656 0.54314,0.65313 0.55428,0.66729 0.32012,0.40739 0.59793,0.84408 0.83568,1.30442 0.0701,0.14261 0.14693,0.28211 0.21032,0.42783 0.10972,0.25222 0.1865,0.51371 0.2704,0.77484 0.0797,0.24804 0.1524,0.49387 0.17585,0.75495 z" />
      <path
         style="fill:#000000;fill-opacity:0.694922;stroke:#000000;stroke-width:1;stroke-linecap:round;stroke-linejoin:round;stroke-miterlimit:2;stroke-dasharray:none;stroke-opacity:0.574656;paint-order:markers stroke fill"
         id="path450"
         d="m 958.54588,170.19562 c -0.0298,-0.14035 -0.0634,-0.28802 -0.0815,-0.42957 -0.0148,-0.11661 -0.0212,-0.23418 -0.0331,-0.35111 -0.0514,-0.49894 -0.10675,-0.99644 -0.1503,-1.49622 -0.11497,-1.34486 -0.26035,-2.68633 -0.43487,-4.02469 -0.022,-0.15919 -0.10872,-0.83238 -0.15616,-1.0139 -0.0375,-0.14328 -0.10094,-0.27845 -0.15065,-0.41794 -0.0357,-0.10001 -0.0703,-0.20036 -0.10549,-0.30053 0,0 -0.0175,-0.01 -0.0175,-0.01 v 0 c -0.0662,0.13412 -0.18542,0.35512 -0.20584,0.49801 -0.0277,0.19354 0.0257,0.76951 0.0377,0.93625 0.12624,1.34623 0.27821,2.69012 0.37899,4.0387 0.0476,0.49159 0.0796,0.98971 0.16688,1.47653 0.0188,0.10445 0.0467,0.20701 0.0693,0.3107 0.12859,0.59183 -0.01,-0.0241 0.10123,0.46604 z" />
      <path
         style="fill:#000000;fill-opacity:0.694922;stroke:#000000;stroke-width:1;stroke-linecap:round;stroke-linejoin:round;stroke-miterlimit:2;stroke-dasharray:none;stroke-opacity:0.574656;paint-order:markers stroke fill"
         id="path451"
         d="m 960.04101,170.17562 c 0.0663,-0.95586 0.29588,-1.89077 0.5542,-2.81008 0.1538,-0.56769 0.35192,-1.12191 0.52628,-1.68306 0.0422,-0.13595 0.0903,-0.27096 0.11639,-0.41091 0.0222,-0.11863 0.0183,-0.24065 0.0274,-0.36097 0.007,-0.0913 0.014,-0.18269 0.0209,-0.27404 0,0 -0.018,-0.009 -0.018,-0.009 v 0 c -0.13306,0.10865 -0.36468,0.28705 -0.46286,0.41917 -0.0836,0.11243 -0.14383,0.24084 -0.20482,0.36695 -0.24596,0.50881 -0.42182,1.05204 -0.59648,1.58781 -0.25082,0.91661 -0.51612,1.84508 -0.51831,2.8034 z" />
      <path
         style="fill:#000000;fill-opacity:0.694922;stroke:#000000;stroke-width:1;stroke-linecap:round;stroke-linejoin:round;stroke-miterlimit:2;stroke-dasharray:none;stroke-opacity:0.574656;paint-order:markers stroke fill"
         id="path478"
         d="m 958.18678,171.53183 c -0.41291,0.0361 -0.7883,0.21834 -1.06669,0.52815 -0.0575,0.064 -0.1043,0.1367 -0.15645,0.20505 -0.2449,0.42253 -0.25524,0.90826 -0.0846,1.36236 0.0347,0.0922 0.0854,0.17752 0.12803,0.26628 0.34086,0.50331 0.86741,0.99914 1.49,1.09771 0.26445,0.0419 0.31144,0.0137 0.57116,-0.0274 0.0891,-0.0355 0.18179,-0.063 0.2672,-0.10659 0.25678,-0.13111 0.54493,-0.35583 0.66617,-0.62561 0.11324,-0.25196 0.0953,-0.46368 0.1053,-0.7304 -0.0295,-0.11451 -0.0379,-0.23672 -0.0887,-0.34355 -0.1888,-0.39742 -0.82386,-0.83324 -1.08497,-0.98252 -0.0469,-0.0268 -0.0788,0.0739 -0.11827,0.11088 0,0 0.0127,0.0154 0.0127,0.0154 v 0 c 0.17309,0.11322 0.32594,0.2662 0.51929,0.33965 0.12573,0.0478 -0.17496,-0.24675 -0.30884,-0.25971 -0.21122,-0.0205 0.65471,0.54536 0.28725,0.56806 0,0.11537 0.0161,0.23141 0.004,0.3461 -0.0285,0.26199 -0.16436,0.70557 -0.34838,0.90405 -0.13745,0.14825 -0.26421,0.17829 -0.44307,0.25228 -0.0868,0.0119 -0.17269,0.0337 -0.26022,0.0358 -0.17391,0.004 -0.3888,-0.0347 -0.54898,-0.10217 -0.0901,-0.038 -0.29451,-0.234 -0.25548,-0.14433 0.056,0.12855 0.18449,0.22661 0.31435,0.27952 0.0857,0.0349 -0.11266,-0.14686 -0.16896,-0.22029 -0.043,-0.0826 -0.0929,-0.16203 -0.12901,-0.24792 -0.13597,-0.32375 -0.16952,-0.70416 -0.0474,-1.03865 0.0276,-0.0757 0.0723,-0.14403 0.10842,-0.21604 0.052,-0.0627 0.0989,-0.12995 0.1559,-0.1881 0.28109,-0.28673 0.64971,-0.44697 1.05098,-0.4454 z" />
    </g>
  </g>
</svg>
