<?xml version="1.0" encoding="UTF-8" standalone="no"?>
<!-- Created with Inkscape (http://www.inkscape.org/) -->

<svg
   width="16.302502mm"
   height="11.300376mm"
   viewBox="0 0 16.302501 11.300376"
   version="1.1"
   id="svg1"
   xmlns="http://www.w3.org/2000/svg"
   xmlns:svg="http://www.w3.org/2000/svg">
  <defs
     id="defs1" />
  <g
     id="layer1"
     transform="translate(-125.86396,-59.635384)">
    <g
       id="g490"
       transform="translate(-875.48414,-101.74021)"
       style="fill:#000000;fill-opacity:0.694922;stroke:#000000;stroke-opacity:0.574656">
      <path
         style="fill:#000000;fill-opacity:0.694922;stroke:#000000;stroke-width:1;stroke-linecap:round;stroke-linejoin:round;stroke-miterlimit:2;stroke-dasharray:none;stroke-opacity:0.574656;paint-order:markers stroke fill"
         id="path458"
         d="m 1005.1259,168.069 c -0.4468,-0.0291 -0.8009,-0.4682 -1.1406,-0.66549 -0.055,-0.0321 -0.3657,-0.0362 -0.4175,-0.027 -0.091,0.0161 -0.1761,0.0558 -0.2641,0.0838 -0.096,0.0493 -0.1975,0.0891 -0.288,0.14781 -0.3579,0.23213 -0.7368,0.65509 -0.9366,1.03254 -0.049,0.0934 -0.083,0.1944 -0.1244,0.2916 -0.046,0.2033 -0.1052,0.4163 -0.1066,0.62699 0,0.29118 0.095,0.65319 0.2161,0.91606 0.045,0.0975 0.1042,0.18773 0.1564,0.28159 0.3139,0.45385 0.7174,0.85005 1.2116,1.10021 0.1178,0.0597 0.236,0.12155 0.3622,0.16054 0.3323,0.10268 0.6438,0.12067 0.9862,0.15832 0.1785,-0.008 0.3584,-0.002 0.5355,-0.025 0.6629,-0.0878 1.341,-0.37545 1.8287,-0.8395 0.1089,-0.1036 0.1974,-0.22672 0.296,-0.34008 0.3426,-0.53012 0.5485,-1.14311 0.4553,-1.78199 -0.067,-0.45926 -0.1691,-0.58678 -0.3702,-0.99758 -0.1246,-0.1493 -0.2391,-0.30752 -0.3736,-0.44789 -0.1407,-0.14691 -0.2932,-0.28276 -0.4503,-0.41201 -0.5947,-0.48918 -1.0551,-0.9198 -1.7181,-1.24163 -0.4587,-0.22266 -0.592,-0.23163 -1.0761,-0.35579 -0.4456,-0.072 -0.8761,-0.0616 -1.2972,0.10986 -0.1103,0.0449 -0.4301,0.19911 -0.4939,0.33546 -0.04,0.0859 -0.012,0.18922 -0.018,0.28383 -0.023,0.0561 -0.045,0.11222 -0.068,0.16833 0,0 0.014,0.0144 0.014,0.0144 v 0 c 0.049,-0.0318 0.097,-0.0636 0.1461,-0.0954 0.109,7.9e-4 0.2189,0.0163 0.3269,0.002 0.1011,-0.0131 0.1956,-0.0579 0.2945,-0.0831 0.1158,-0.0295 0.2313,-0.062 0.3493,-0.0807 0.462,-0.0733 0.9318,-0.0545 1.3923,0.019 0.4842,0.13231 0.5961,0.13756 1.0544,0.36877 0.1754,0.0885 0.3158,0.25861 0.5082,0.29842 0.1006,0.0208 -0.2864,-0.29032 -0.2,-0.23463 0.3476,0.22417 0.5654,0.53154 0.8242,0.84171 0.1948,0.35194 0.3334,0.54087 0.4204,0.93957 0.034,0.15673 0.04,0.31898 0.043,0.47939 0.01,0.51236 -0.1174,0.82337 -0.3833,1.25365 -0.2471,0.30825 -0.2927,0.4073 -0.62,0.64258 -0.5603,0.40279 -1.2317,0.57427 -1.9114,0.61569 -0.1568,-0.0142 -0.3147,-0.0186 -0.4703,-0.0425 -0.2406,-0.0369 -0.5616,-0.12518 -0.7851,-0.22717 -0.1113,-0.0508 -0.2035,-0.22226 -0.3189,-0.18163 -0.096,0.0339 0.1474,0.29418 0.2156,0.21801 0.069,-0.0771 -0.1287,-0.16223 -0.193,-0.24334 -0.051,-0.0887 -0.1086,-0.17359 -0.1522,-0.26595 -0.1375,-0.29091 -0.1696,-0.54217 -0.161,-0.85942 0,-0.0891 0,-0.17932 0.015,-0.26711 0.017,-0.0971 0.056,-0.18922 0.083,-0.28383 0.043,-0.0902 0.079,-0.18398 0.1286,-0.27054 0.282,-0.49023 0.7318,-0.8575 1.2521,-1.06843 0.1831,-0.0544 0.3602,-0.12503 0.5557,-0.11899 0.065,0.002 0.2366,0.0905 0.1897,0.0454 -1.3444,-1.2935 -0.5815,-0.44389 -0.4941,-0.29695 0.034,0.0577 0.058,0.1212 0.087,0.1818 z" />
      <path
         style="fill:#000000;fill-opacity:0.694922;stroke:#000000;stroke-width:1;stroke-linecap:round;stroke-linejoin:round;stroke-miterlimit:2;stroke-dasharray:none;stroke-opacity:0.574656;paint-order:markers stroke fill"
         id="path459"
         d="m 1011.7616,167.72388 c 0.2307,-0.2373 0.5189,-0.45499 0.8525,-0.51969 0.2985,-0.0579 0.4478,-0.0123 0.7419,0.0289 0.3497,0.0631 0.6406,0.20046 0.8618,0.48511 0.064,0.0828 0.2309,0.1861 0.165,0.26758 -0.2122,0.26246 -0.2885,-0.95639 -0.1635,0.11342 -0.01,0.58955 -0.1943,1.16983 -0.5212,1.66195 -0.058,0.0868 -0.1265,0.16576 -0.1897,0.24865 -0.5073,0.54966 -0.9705,0.67663 -1.6797,0.81073 -0.3598,0.0538 -0.7146,0.0397 -1.0686,-0.0417 -0.1167,-0.0268 -0.2346,-0.0527 -0.3459,-0.0967 -0.2771,-0.10951 -0.3538,-0.1983 -0.5843,-0.38125 0.1396,0.13833 0.231,0.35729 0.4189,0.41499 0.13,0.0399 -0.1535,-0.22619 -0.2087,-0.35043 -0.1973,-0.44409 -0.2374,-0.96313 -0.1686,-1.43989 0.027,-0.18668 0.085,-0.36757 0.1273,-0.55135 0.1684,-0.43752 0.244,-0.69579 0.4952,-1.0974 0.365,-0.58356 0.8515,-1.11299 1.4107,-1.51497 0.1798,-0.12925 0.3775,-0.2316 0.5662,-0.3474 0.5533,-0.22255 0.6874,-0.3294 1.2877,-0.36495 0.6445,-0.0382 1.2981,0.13123 1.8861,0.38157 0.1698,0.0723 0.33,0.16526 0.4951,0.24788 1.1932,0.74966 -0.2832,-0.19312 0.7094,0.48287 0.054,0.0366 0.115,0.0612 0.1705,0.0952 0.04,0.0248 0.071,0.0902 0.1171,0.0809 0.034,-0.007 -0.01,-0.0676 -0.015,-0.10144 0,0 -0.01,-0.0179 -0.01,-0.0179 v 0 c -0.078,-0.12126 -0.1487,-0.24717 -0.2333,-0.36378 -0.061,-0.084 -0.1319,-0.16026 -0.2021,-0.23664 -0.092,-0.10043 -0.1817,-0.20463 -0.2851,-0.29353 -0.1825,-0.15676 -0.5176,-0.34064 -0.7139,-0.45672 -0.1668,-0.0786 -0.3292,-0.16742 -0.5005,-0.23579 -0.3743,-0.14943 -0.845,-0.28871 -1.2459,-0.32885 -0.7036,-0.0704 -1.372,0.0701 -2.0062,0.37375 -0.5299,0.33213 -0.688,0.39472 -1.1454,0.82753 -0.3539,0.3349 -0.5902,0.64329 -0.8553,1.04846 -0.1286,0.19666 -0.2569,0.39466 -0.3631,0.60433 -0.092,0.18205 -0.1534,0.37818 -0.2301,0.56727 -0.047,0.18643 -0.1103,0.36959 -0.1422,0.55929 -0.083,0.49039 -0.047,1.00263 0.1225,1.47087 0.048,0.13108 0.089,0.2706 0.1771,0.37896 0.2734,0.33758 0.5974,0.63082 0.8962,0.94623 0.093,0.0729 0.1799,0.15512 0.2798,0.21859 0.5062,0.3215 1.1184,0.37781 1.7008,0.31587 0.1128,-0.0224 0.2276,-0.0363 0.3385,-0.0671 0.5287,-0.14674 0.9773,-0.47036 1.2902,-0.91799 0.063,-0.0974 0.1321,-0.19147 0.19,-0.29223 0.3029,-0.5276 0.4494,-1.12811 0.4328,-1.73498 -0.081,-0.62123 -0.01,-0.36414 -0.4712,-1.18227 -0.052,-0.0908 -0.111,-0.17983 -0.1868,-0.25165 -0.2583,-0.24444 -0.6304,-0.31844 -0.9557,-0.42072 -0.3375,-0.0197 -0.4762,-0.052 -0.808,0.0219 -0.3527,0.0786 -0.6526,0.29447 -0.9077,0.54059 z" />
      <path
         style="fill:#000000;fill-opacity:0.694922;stroke:#000000;stroke-width:1;stroke-linecap:round;stroke-linejoin:round;stroke-miterlimit:2;stroke-dasharray:none;stroke-opacity:0.574656;paint-order:markers stroke fill"
         id="path460"
         d="m 1007.1732,163.20311 c -0.057,0.0995 -0.1275,0.19247 -0.171,0.29857 -0.1577,0.38409 -0.2085,0.80543 -0.031,1.19263 0.1573,0.34252 0.7499,0.79671 0.9017,0.93899 0.1033,0.0213 0.2043,0.0627 0.3098,0.064 0.4173,0.005 0.847,-0.27892 1.0926,-0.59773 0.06,-0.0775 0.1034,-0.16608 0.155,-0.24912 0.074,-0.21924 0.1353,-0.3421 0.1349,-0.57777 0,-0.79387 -0.8711,-1.38312 -1.3386,-1.84023 -0.6138,-0.35133 -1.3672,-0.6618 -2.0908,-0.51976 -0.1222,0.024 -0.2369,0.0774 -0.3553,0.11613 -0.2255,0.17161 -0.3894,0.24009 -0.4734,0.5407 -0.091,0.32466 -0.011,0.71529 0.02,1.03592 0.014,0.15438 0.026,0.30908 0.038,0.46362 0,0 0.016,0.0116 0.016,0.0116 v 0 c 0.025,-0.12667 0.027,-0.26012 0.075,-0.38001 0.048,-0.12037 0.1305,-0.2247 0.2082,-0.32839 0.2163,-0.28838 0.4818,-0.52699 0.8075,-0.68315 0.1123,-0.0341 0.2212,-0.0826 0.3369,-0.1023 0.5292,-0.09 1.1717,0.0799 1.6271,0.34874 0.1265,0.0746 0.2381,0.17207 0.3571,0.2581 -0.1159,-0.12972 -0.2201,-0.27093 -0.3477,-0.38917 -0.089,-0.0826 0.1709,0.17627 0.2316,0.28153 0.1421,0.24648 0.1572,0.59515 0.1036,0.86738 -0.018,0.0935 -0.055,0.18248 -0.082,0.27372 -0.044,0.0927 -0.078,0.1904 -0.1311,0.27797 -0.1975,0.32516 -0.5004,0.56398 -0.8921,0.57799 -0.086,0.003 -0.17,-0.0183 -0.2551,-0.0274 0.085,0.11793 0.1726,0.23372 0.2543,0.35378 0.062,0.0912 -0.148,-0.16753 -0.1953,-0.26717 -0.1765,-0.37159 -0.1448,-0.8049 0.014,-1.17394 0.047,-0.10817 0.1215,-0.20174 0.1822,-0.3026 z" />
    </g>
  </g>
</svg>
