<?xml version="1.0" encoding="UTF-8" standalone="no"?>
<!-- Created with Inkscape (http://www.inkscape.org/) -->

<svg
   width="18.27282mm"
   height="19.415537mm"
   viewBox="0 0 18.272819 19.415537"
   version="1.1"
   id="svg1"
   xmlns="http://www.w3.org/2000/svg"
   xmlns:svg="http://www.w3.org/2000/svg">
  <defs
     id="defs1" />
  <g
     id="layer1"
     transform="translate(-182.75062,-56.226499)">
    <g
       id="g492"
       transform="translate(-815.70023,-122.38152)"
       style="fill:#ffffff;fill-opacity:0.75;stroke:#dddddd;stroke-opacity:0.9">
      <path

         id="path471"
         d="m 1009.3077,182.82971 c -0.7745,0.7373 -1.5736,1.44756 -2.3777,2.15242 -1.3871,1.17139 -2.834,2.26977 -4.2805,3.36624 -1.2261,0.94833 -2.4498,1.9025 -3.59004,2.95379 -0.0362,0.15388 -0.0724,0.30776 -0.10861,0.46165 0,0 0.0148,0.0135 0.0148,0.0135 v 0 c 0.18294,-0.0312 0.36587,-0.0624 0.54883,-0.0937 1.23952,-0.92755 2.39782,-1.95517 3.61242,-2.91435 1.4093,-1.1432 2.8393,-2.26095 4.2367,-3.41868 0.8206,-0.69158 1.6466,-1.37759 2.4246,-2.11757 z" />
      <path

         id="path472"
         d="m 1011.4656,184.82305 c -0.6585,0.65316 -1.2946,1.32872 -1.9396,1.99522 -1.0164,1.0189 -2.0091,2.06154 -3.033,3.07306 -0.6431,0.63539 -1.0977,1.0624 -1.7518,1.68501 -0.7941,0.74971 -1.6027,1.48323 -2.4226,2.20457 -0.2083,0.18335 -0.4397,0.34335 -0.6257,0.54935 -0.4715,0.70249 -0.2142,0.40296 -0.7468,0.91951 0,0 0.015,0.0128 0.015,0.0128 v 0 c 0.6446,-0.44273 0.2795,-0.22708 1.1122,-0.6177 0.2335,-0.15223 0.4283,-0.35686 0.6389,-0.53943 0.8266,-0.71659 1.6374,-1.4523 2.4359,-2.19989 1.6219,-1.5466 3.2312,-3.10607 4.819,-4.6876 0.6345,-0.63993 1.2699,-1.2787 1.8911,-1.93145 z" />
      <path

         id="path473"
         d="m 1013.9105,188.15971 c -0.189,0.0982 -0.2846,0.13547 -0.4549,0.28519 -0.1278,0.1124 -0.7447,0.75036 -0.8245,0.83252 -0.8528,0.87772 -0.2709,0.2874 -1.2094,1.22991 -1.5329,1.50078 -3.1447,2.92064 -4.7872,4.29989 -0.5532,0.49114 -1.15,0.93487 -1.6889,1.44251 -0.1125,0.10593 -0.2315,0.208 -0.3227,0.33269 -0.7441,1.01704 0.2672,-0.15654 -0.3057,0.49118 0,0 0.013,0.0149 0.013,0.0149 v 0 c 0.6901,-0.38303 -0.5064,0.25748 0.568,-0.19788 0.1447,-0.0613 0.2749,-0.15337 0.4055,-0.24088 0.635,-0.42551 1.2043,-0.94315 1.7932,-1.4272 1.6299,-1.42886 3.2628,-2.85639 4.7948,-4.39155 0.549,-0.54888 0.6567,-0.65201 1.1827,-1.19475 0.1678,-0.17315 0.3346,-0.34734 0.5007,-0.52216 0.3045,-0.32058 0.4413,-0.4459 0.686,-0.80604 0.064,-0.0949 0.1135,-0.19951 0.1702,-0.29926 z" />
      <path

         id="path474"
         d="m 1006.0983,183.58845 c 0.6677,0.58178 1.2653,1.24192 1.8727,1.88541 0.8086,0.86137 1.5768,1.75916 2.3662,2.63778 0.3504,0.38994 1.0136,1.11506 1.3653,1.50034 0.8515,0.93773 1.6969,1.88352 2.677,2.6912 0.2081,0.17156 0.4096,0.35516 0.6407,0.49443 0.2288,0.13793 0.4865,0.22109 0.7297,0.33163 0.1526,0.1191 0.3052,0.23819 0.4578,0.35728 0,0 0.016,-0.0118 0.016,-0.0118 v 0 c -0.1322,-0.13291 -0.2643,-0.26582 -0.3964,-0.39874 -0.1,-0.19603 -0.1723,-0.40876 -0.2998,-0.58808 -0.1479,-0.20797 -0.3434,-0.37753 -0.5187,-0.56306 -0.8707,-0.92218 -1.7791,-1.8087 -2.6332,-2.74667 -1.2816,-1.3654 -2.5689,-2.72568 -3.8096,-4.12872 -0.5866,-0.65086 -1.1773,-1.29906 -1.8076,-1.90829 z" />
      <path

         id="path475"
         d="m 1004.6507,185.33297 c 0.1732,0.35143 0.4341,0.64069 0.6686,0.95008 0.7908,1.04321 -0.3686,-0.44447 0.6213,0.81636 0.3075,0.34284 0.5749,0.7186 0.8708,1.07095 0.1608,0.19144 0.3321,0.37378 0.4958,0.56271 0.5138,0.59287 1.0179,1.19451 1.525,1.79306 0.1643,0.20671 0.3228,0.41815 0.4929,0.62013 0.1648,0.19576 0.3449,0.37832 0.5114,0.57259 0.159,0.1853 0.8492,1.03536 1.0054,1.22671 0.5826,0.71367 0.3868,0.47497 0.9719,1.17931 0.2262,0.27342 0.6565,0.80635 0.9117,1.06663 0.1694,0.17279 0.3547,0.32926 0.532,0.49389 0,0 0.016,0.0119 0.016,0.0119 v 0 c -0.032,-0.0939 -0.047,-0.19566 -0.097,-0.28171 -0.1029,-0.17886 -0.6029,-0.78705 -0.7038,-0.91279 -0.6582,-0.81315 -1.3402,-1.60794 -1.9894,-2.42827 -0.1716,-0.21683 -0.3285,-0.44526 -0.5051,-0.65805 -0.169,-0.20363 -0.3539,-0.39352 -0.5308,-0.59028 -0.518,-0.60274 -1.0371,-1.20457 -1.5544,-1.80797 -0.1628,-0.18993 -0.3202,-0.38455 -0.4871,-0.57096 -0.1578,-0.17641 -0.3298,-0.33994 -0.4868,-0.51719 -0.1458,-0.16468 -0.2807,-0.33873 -0.4211,-0.5081 -0.1754,-0.2177 -0.4761,-0.57957 -0.6432,-0.82446 -0.2221,-0.32552 -0.3793,-0.69581 -0.6577,-0.98163 z" />
      <path

         id="path476"
         d="m 1002.5824,186.87507 c 0.5392,0.82593 1.078,1.65215 1.6029,2.48723 0.2634,0.41467 0.6674,1.06022 0.9469,1.46119 0.1641,0.23546 0.3452,0.45875 0.5104,0.69352 0.1679,0.23878 0.3243,0.48549 0.4885,0.7268 0.7508,1.10288 0.2334,0.30331 0.9444,1.43305 0.3453,0.62775 0.8338,1.15223 1.2624,1.71974 0.116,0.15353 0.2207,0.31522 0.3338,0.47084 0.2589,0.35606 0.345,0.46052 0.6078,0.79661 0.2235,0.30613 0.4935,0.57314 0.7544,0.84659 0,0 0.015,0.013 0.015,0.013 v 0 c -0.035,-0.16161 -0.078,-0.23878 -0.2111,-0.37918 -0.1544,-0.22307 -0.3076,-0.44688 -0.463,-0.66923 -0.1121,-0.16041 -0.2314,-0.31596 -0.3382,-0.47999 -0.4012,-0.61643 -0.7296,-1.28069 -1.1915,-1.85761 -0.7581,-1.06582 -0.2279,-0.29864 -0.9588,-1.41615 -0.1604,-0.24521 -0.3299,-0.4845 -0.4857,-0.73264 -0.1607,-0.25594 -0.3047,-0.52207 -0.4637,-0.77915 -0.3036,-0.49124 -0.6325,-0.96652 -0.9347,-1.45866 -0.5487,-0.85829 -1.0842,-1.72594 -1.6953,-2.5423 z" />
      <path
         style="fill:#000000;fill-opacity:0.694922;stroke:#000000;stroke-width:1;stroke-linecap:round;stroke-linejoin:round;stroke-miterlimit:2;stroke-dasharray:none;stroke-opacity:0.574656;paint-order:markers stroke fill"
         id="path477"
         d="m 1007.6456,179.11541 c -0.058,0.005 -0.1197,-0.005 -0.1745,0.0146 -0.4357,0.15932 -0.6162,0.68388 -0.6573,1.1013 -0.013,0.13456 0,0.27043 0,0.40565 0.024,0.12518 0.033,0.25405 0.071,0.37554 0.1744,0.55224 0.7914,0.91682 1.2627,1.13326 0.145,0.0666 0.4314,-0.19022 0.509,-0.24724 0.059,-0.0897 0.1338,-0.17099 0.1781,-0.26897 0.1296,-0.28676 0.1509,-0.67907 -0.015,-0.95821 -0.1912,-0.32272 -0.9844,-0.78988 -1.09,-0.86491 -0.017,0.0589 -0.034,0.1177 -0.052,0.17655 0,0 0.015,0.013 0.015,0.013 v 0 c 0.1601,0.0961 0.3201,0.1923 0.4802,0.28845 -0.116,-0.11207 -0.232,-0.22411 -0.348,-0.33622 -0.065,-0.0626 0.1434,0.11339 0.1944,0.18767 0.1838,0.26809 0.1821,0.60721 0.058,0.89817 -0.038,0.089 -0.1028,0.16396 -0.1541,0.24594 -0.065,0.0523 -0.1204,0.11858 -0.1943,0.15697 -0.4184,0.21748 -0.3446,-0.28814 0.2379,0.56074 0.054,0.0792 -0.1713,-0.0959 -0.2333,-0.16934 -0.1721,-0.20385 -0.1854,-0.4097 -0.2426,-0.65891 0,-0.13128 -0.018,-0.26284 -0.01,-0.39383 0.026,-0.36702 0.1784,-0.89545 0.5983,-0.99127 0.047,-0.0106 0.095,0.007 0.1428,0.01 z" />
    </g>
  </g>
</svg>
