<?xml version="1.0" encoding="UTF-8" standalone="no"?>
<!-- Created with Inkscape (http://www.inkscape.org/) -->

<svg
   width="13.817741mm"
   height="10.421049mm"
   viewBox="0 0 13.817741 10.421049"
   version="1.1"
   id="svg1"
   xmlns="http://www.w3.org/2000/svg"
   xmlns:svg="http://www.w3.org/2000/svg">
  <defs
     id="defs1" />
  <g
     id="layer1"
     transform="translate(-63.536282,-60.876067)">
    <g
       id="g489"
       transform="translate(-919.7788,-105.18184)"
       style="fill:#ffffff;fill-opacity:0.75;stroke:#dddddd;stroke-opacity:0.9">
      <path

         id="path455"
         d="m 990.15774,166.55784 c 0.0108,0.0978 0.0257,0.19525 0.0329,0.29341 0.005,0.0742 0.0363,0.86133 0.0379,0.89987 0.0217,0.50313 0.0432,1.00576 0.0571,1.50918 0.009,0.0757 0.0786,0.68419 0.0985,0.77382 0.14933,0.49814 0.0952,0.26795 0.17611,0.68723 0,0 0.014,0.0141 0.014,0.0141 v 0 c 0.0151,-0.0604 0.0212,-0.12378 0.0454,-0.18118 0.027,-0.0643 0.0895,-0.1125 0.10639,-0.18017 0.0282,-0.11308 0.032,-0.7061 0.0334,-0.7825 -0.0415,-0.47927 -0.0806,-0.95856 -0.11372,-1.43849 -0.0114,-0.1662 -0.0491,-0.71729 -0.0526,-0.90199 -0.003,-0.10991 0.005,-0.21981 0.007,-0.32971 z" />
      <path

         id="path456"
         d="m 987.21298,166.56128 c 0.0246,0.0568 0.0456,0.11524 0.0739,0.1703 0.038,0.0741 0.0862,0.14278 0.12464,0.2167 0.1043,0.20049 0.23995,0.51394 0.33409,0.7087 0.40778,0.84366 0.0628,0.0701 0.46175,0.99766 0.0898,0.18278 0.18442,0.36326 0.26935,0.54834 0.0911,0.19858 0.17375,0.40096 0.25866,0.60228 0.25236,0.59839 0.49419,1.20283 0.67669,1.82696 0.0552,0.18872 0.098,0.38084 0.14701,0.57126 0.13142,0.62772 0.20849,1.29213 -0.18185,1.85006 -0.24612,0.35178 -0.44088,0.44711 -0.78616,0.69817 -0.18169,0.0888 -0.35557,0.19577 -0.54509,0.2664 -0.8468,0.31562 -1.80187,0.34322 -2.64007,-0.0182 -0.19978,-0.0862 -0.37806,-0.21545 -0.56708,-0.32318 0.0281,0.0221 0.10068,0.0979 0.0842,0.0662 -0.0989,-0.19039 -0.24736,-0.35369 -0.33515,-0.54943 -0.23654,-0.52734 -0.29818,-1.14348 -0.0563,-1.68031 0.0576,-0.12775 0.15888,-0.23086 0.23831,-0.34628 0.32263,-0.22818 0.36004,-0.30835 0.7657,-0.37551 0.13243,-0.0219 0.26845,-0.003 0.40264,-0.006 0.0977,-0.002 0.19828,-0.0319 0.29292,-0.008 0.11494,0.0294 0.21077,0.10895 0.31616,0.16343 0,0 -0.0122,-0.0159 -0.0122,-0.0159 v 0 c -0.19394,-0.12285 -0.72345,-0.46666 -0.8958,-0.53185 -0.2912,-0.11013 -0.67132,-0.12492 -0.96594,-0.0115 -0.14964,0.0576 -0.27106,0.17132 -0.40658,0.25698 -0.10068,0.14206 -0.22831,0.26843 -0.30202,0.42617 -0.24204,0.51796 -0.14976,1.16186 0.0547,1.67208 0.0796,0.19859 0.16391,0.40248 0.3006,0.56706 0.29556,0.35586 0.65566,0.65271 0.98348,0.97907 0.18558,0.1118 0.35647,0.25275 0.55673,0.3354 0.85458,0.35265 1.85934,0.19274 2.68957,-0.14121 0.19537,-0.0786 0.37778,-0.18626 0.56666,-0.2794 0.35166,-0.25846 0.56388,-0.3618 0.80211,-0.73392 0.38841,-0.60673 0.28626,-1.34203 0.14478,-2.00359 -0.0577,-0.18548 -0.10861,-0.37319 -0.17301,-0.55643 -0.35253,-1.00281 -0.87619,-1.93166 -1.27891,-2.9129 -0.38339,-0.78424 -0.12555,-0.23054 -0.45459,-1.00369 -0.084,-0.19744 -0.22979,-0.51266 -0.30842,-0.72227 -0.0324,-0.0862 -0.054,-0.17614 -0.086,-0.26245 -0.0206,-0.0559 -0.048,-0.10919 -0.0721,-0.16378 z" />
      <path

         id="path457"
         d="m 993.39965,166.56609 c -0.32607,0.61042 -0.62198,1.23622 -0.89826,1.87058 -0.23191,0.54218 -0.42826,1.1004 -0.54724,1.67902 -0.0797,0.38787 -0.0799,0.4953 -0.11938,0.89234 -0.009,0.1587 -0.018,0.31738 -0.0262,0.47611 -0.009,0.17256 -0.023,0.34497 -0.0257,0.51774 -0.0103,0.66775 0.08,1.32924 0.19823,1.98434 0.0887,0.39916 0.1824,0.8224 0.44453,1.15127 0.2518,0.31587 0.84481,0.62202 1.1105,0.74775 0.11216,0.0531 0.24369,0.0469 0.3655,0.0703 0.12819,0.008 0.25617,0.026 0.38455,0.023 0.44989,-0.0103 1.08463,-0.18429 1.47317,-0.41724 0.10898,-0.0654 0.20539,-0.14966 0.30811,-0.22449 0.27418,-0.26783 0.43812,-0.58736 0.51556,-0.96124 0.0257,-0.12375 0.0544,-0.2497 0.049,-0.37596 -0.009,-0.21066 -0.1539,-0.57968 -0.21875,-0.76734 -0.33518,-0.5903 -0.79524,-1.19536 -1.45505,-1.42556 -0.16346,-0.057 -0.4993,-0.12998 -0.67977,-0.0905 -0.0937,0.0205 -0.16949,0.0898 -0.25424,0.13466 -0.0695,0.0674 -0.13906,0.13471 -0.2086,0.20206 0,0 0.0143,0.014 0.0143,0.014 v 0 c 0.11729,-0.0144 0.23458,-0.0288 0.3519,-0.0431 0.42682,0.0793 0.84251,0.15995 1.22856,0.3719 0.13322,0.0731 0.30404,0.3848 0.37939,0.25283 0.08,-0.14007 -0.1764,-0.28327 -0.31303,-0.36903 -0.11316,-0.0711 0.15896,0.2148 0.23844,0.3222 0.0556,0.1267 0.13171,0.24626 0.1668,0.3801 0.038,0.14501 0.0467,0.29706 0.05,0.44692 0.0111,0.5062 -0.18399,0.97329 -0.49109,1.36594 -0.0816,0.0696 -0.15799,0.14597 -0.24493,0.20882 -0.52745,0.38125 -1.158,0.51741 -1.79991,0.51633 -0.11898,-0.0251 -0.27275,-0.16311 -0.35692,-0.0754 -0.0715,0.0745 0.32271,0.25107 0.22812,0.20962 -0.10734,-0.0471 -0.19068,-0.13945 -0.26834,-0.22724 -0.27561,-0.31158 -0.39372,-0.73238 -0.51186,-1.11888 -0.0332,-0.16595 -0.0728,-0.33073 -0.0996,-0.49784 -0.0807,-0.50469 -0.0828,-1.00582 -0.0968,-1.51468 -0.004,-0.14955 -0.0182,-0.29881 -0.019,-0.44841 0,-0.15546 0.01,-0.31077 0.0145,-0.46616 0.0372,-0.39603 0.0365,-0.49973 0.1134,-0.88684 0.1134,-0.57101 0.31049,-1.12299 0.52772,-1.66153 0.29326,-0.65413 0.61475,-1.29336 0.95652,-1.92341 z" />
    </g>
  </g>
</svg>
