<?xml version="1.0" encoding="UTF-8" standalone="no"?>
<!-- Created with Inkscape (http://www.inkscape.org/) -->

<svg
   width="16.2451mm"
   height="10.141674mm"
   viewBox="0 0 16.2451 10.141674"
   version="1.1"
   id="svg1"
   xmlns="http://www.w3.org/2000/svg"
   xmlns:svg="http://www.w3.org/2000/svg">
  <defs
     id="defs1" />
  <g
     id="layer1"
     transform="translate(-92.75977,-59.386334)">
    <g
       id="g488"
       transform="translate(-838.15508,-99.510944)"
       style="fill:#ffffff;fill-opacity:0.75;stroke:#dddddd;stroke-opacity:0.9">
      <path

         id="path479"
         d="m 937.73507,164.7048 c -0.3734,0.2208 -0.66571,0.55326 -0.87765,0.92952 -0.052,0.0924 -0.0931,0.19066 -0.13964,0.28599 -0.17442,0.47405 -0.25271,0.99712 -0.0659,1.48153 0.0355,0.0922 0.0876,0.17719 0.13137,0.26578 0.26339,0.39968 0.64442,0.73474 1.12596,0.834 0.10554,0.0217 0.21418,0.0239 0.32128,0.0358 0.5266,0.0168 0.99539,-0.10642 1.50442,-0.2666 0.0923,-0.0291 0.17926,-0.076 0.25967,-0.12979 0.22786,-0.15257 0.25164,-0.22482 0.4069,-0.43984 0.2182,-0.56433 0.24267,-1.2014 -0.0969,-1.72735 -0.0633,-0.0981 -0.14898,-0.17969 -0.22349,-0.26954 -0.2907,-0.23571 -0.60754,-0.4117 -0.99399,-0.41378 -0.14594,-8e-4 -0.63981,0.0778 -0.82806,0.10616 0,0 -0.018,0.009 -0.018,0.009 v 0 c 0.0818,-0.004 0.16579,-0.0319 0.24546,-0.0128 0.0518,0.0125 0.078,0.0737 0.12351,0.10145 0.0732,0.0446 0.1557,0.0721 0.23037,0.11413 0.28085,0.15822 0.23913,0.14605 0.4781,0.36817 0.0705,0.0855 0.1483,0.16548 0.21138,0.25659 0.26013,0.37571 0.4328,0.86767 0.33882,1.32576 -0.0206,0.1011 -0.0649,0.19594 -0.0974,0.29391 -0.13329,0.18196 -0.16557,0.26662 -0.36531,0.38201 -0.0831,0.048 -0.28612,0.0156 -0.26646,0.10965 0.0193,0.0924 0.36603,-0.0208 0.27795,-0.0548 -0.19688,-0.0761 -0.43059,0.1781 -0.63085,0.0541 -0.10186,-0.01 -0.20495,-0.0108 -0.30559,-0.0293 -0.47027,-0.0865 -0.85019,-0.38665 -1.11054,-0.77701 -0.0425,-0.085 -0.0935,-0.16625 -0.12766,-0.25492 -0.18272,-0.47402 -0.10422,-0.99269 0.0729,-1.45353 0.0471,-0.0929 0.0884,-0.189 0.14134,-0.27872 0.21376,-0.36229 0.52867,-0.64793 0.90199,-0.83897 z" />
      <path

         id="path480"
         d="m 932.03875,165.92932 c -0.17245,0.21835 -0.32311,0.46785 -0.32607,0.75633 -0.003,0.22765 0.0452,0.30038 0.12129,0.50654 0.17973,0.33525 0.42272,0.63865 0.77983,0.79488 0.0788,0.0345 0.1606,0.0679 0.24606,0.0776 0.26755,0.0304 0.53782,0.028 0.80674,0.0421 0.34108,-0.0973 0.64143,-0.30115 0.76243,-0.65013 0.0792,-0.2284 0.0535,-0.3216 0.0455,-0.55955 -0.0973,-0.48028 -0.22937,-0.79463 -0.77954,-0.84648 -0.71427,-0.0673 -0.5575,-0.13209 -0.89607,0.14758 0,0 0.0196,0.004 0.0196,0.004 v 0 c 0.11843,-0.0312 0.25419,-0.0244 0.35529,-0.0935 0.037,-0.0253 -0.15828,-0.0646 -0.11396,-0.0715 0.2187,-0.0338 0.44627,0.32076 0.51581,0.47585 0.0382,0.0853 0.0565,0.17823 0.0847,0.26735 0.0127,0.0948 0.0349,0.18891 0.0382,0.28455 0.0109,0.31482 -0.0926,0.66937 -0.38312,0.83634 -0.0643,0.0369 -0.1388,0.0522 -0.2082,0.0783 0.10316,0.0253 0.22199,0.0157 0.30949,0.0759 0.0714,0.0491 -0.17431,-0.0132 -0.25678,-0.0397 -0.25958,-0.0834 -0.49178,-0.29366 -0.63828,-0.51855 -0.0533,-0.0818 -0.0885,-0.17399 -0.13277,-0.26098 -0.0561,-0.199 -0.1107,-0.32553 -0.10266,-0.53216 0.0106,-0.27269 0.16074,-0.50731 0.33324,-0.7062 z" />
      <path

         id="path481"
         d="m 944.65427,165.78077 c -0.32546,0.13287 -0.66455,0.27525 -0.8509,0.59331 -0.0401,0.0684 -0.0646,0.14485 -0.0969,0.21728 -0.0156,0.0873 -0.0388,0.17348 -0.0465,0.26176 -0.0265,0.30239 0.0899,0.62365 0.25786,0.87018 0.0433,0.0635 0.0959,0.12014 0.14381,0.1802 0.0557,0.0483 0.10726,0.10195 0.16716,0.14496 0.30528,0.21913 0.83786,0.28618 1.15673,0.31223 0.0621,0.005 0.39526,-0.11521 0.45291,-0.13491 0.29165,-0.12381 0.55862,-0.31038 0.69255,-0.60889 0.11525,-0.2569 0.10004,-0.3622 0.12896,-0.64932 -0.0217,-0.1273 -0.0251,-0.25921 -0.0655,-0.3819 -0.0763,-0.23193 -0.24019,-0.5048 -0.46104,-0.63132 -0.35833,-0.20527 -0.6345,-0.18557 -1.02984,-0.22008 0,0 0.019,0.006 0.019,0.006 v 0 c 0.18293,0.0352 0.0994,-0.009 0.23238,0.15458 0.0658,0.0811 0.1414,0.15517 0.19783,0.24308 0.17468,0.27206 0.16733,0.35388 0.24689,0.66836 0.008,0.11798 0.0312,0.236 0.0233,0.35396 -0.007,0.0985 -0.0374,0.19427 -0.067,0.28844 -0.0914,0.29106 -0.2567,0.52694 -0.54176,0.64855 -0.0632,0.018 -0.12449,0.0453 -0.18963,0.054 -0.0637,0.008 -0.24683,-0.038 -0.19288,-0.003 0.10631,0.0689 0.24408,0.0692 0.36287,0.11325 0.0638,0.0237 -0.13388,-0.0275 -0.19738,-0.0519 -0.16904,-0.0648 -0.21246,-0.11652 -0.35337,-0.22749 -0.0476,-0.0561 -0.10084,-0.10774 -0.14272,-0.16816 -0.22492,-0.32444 -0.30284,-0.7373 -0.19717,-1.11708 0.0302,-0.0622 0.0534,-0.12839 0.0906,-0.18668 0.18851,-0.29513 0.5207,-0.42241 0.82338,-0.5649 z" />
      <path

         id="path482"
         d="m 935.51776,167.66971 c 0.17177,-0.52847 0.13806,-1.0923 0.0815,-1.63635 -0.10316,-0.72952 -0.30758,-1.438 -0.54322,-2.13449 -0.0805,-0.23794 -0.15983,-0.47654 -0.2526,-0.70996 -0.0956,-0.24066 -0.2082,-0.47426 -0.31228,-0.71139 -0.32438,-0.68876 -0.73819,-1.32913 -1.25154,-1.89257 -0.15861,-0.17409 -0.30829,-0.3639 -0.50347,-0.49568 -0.2254,-0.15218 -0.49969,-0.21628 -0.73988,-0.34381 -0.195,-0.10354 -0.37563,-0.23213 -0.56346,-0.34819 0,0 -0.018,0.009 -0.018,0.009 v 0 c 0.91895,0.75568 0.057,-0.0358 0.80177,0.91867 0.14269,0.18289 0.32705,0.32968 0.47733,0.50638 0.49057,0.57683 0.87032,1.22779 1.18544,1.91444 0.10104,0.23685 0.20902,0.47086 0.30313,0.71054 0.3505,0.89253 0.62,1.82334 0.80677,2.76322 0.0381,0.28748 0.0616,0.40448 0.0703,0.68844 0.01,0.30802 -0.0276,0.61328 -0.0709,0.91744 z" />
      <path

         id="path483"
         d="m 942.25704,168.03103 c -0.0109,-0.4238 -0.0161,-0.85635 0.0493,-1.27669 0.0761,-0.48846 0.20577,-0.945 0.32747,-1.42437 0.341,-1.18832 0.79614,-2.34434 1.37901,-3.4354 0.1392,-0.26055 0.2821,-0.51968 0.4413,-0.76851 0.14542,-0.22727 0.31427,-0.43866 0.47138,-0.65799 0.39558,-0.75978 0.14023,-0.41436 0.77685,-1.02821 0,0 -0.0199,0.003 -0.0199,0.003 v 0 c -0.77991,0.68969 -0.3465,0.32394 -1.31027,1.08534 -0.44058,0.59998 -0.67447,0.88407 -1.04894,1.53678 -0.62264,1.0853 -1.05563,2.27257 -1.42422,3.46361 -0.0679,0.26085 -0.14552,0.51936 -0.20365,0.78255 -0.14007,0.63411 -0.20733,1.30953 -0.0443,1.94605 z" />
    </g>
  </g>
</svg>
