<?xml version="1.0" encoding="UTF-8" standalone="no"?>
<!-- Created with Inkscape (http://www.inkscape.org/) -->

<svg
   width="8.071003mm"
   height="12.062207mm"
   viewBox="0 0 8.0710028 12.062207"
   version="1.1"
   id="svg1"
   xmlns="http://www.w3.org/2000/svg"
   xmlns:svg="http://www.w3.org/2000/svg">
  <defs
     id="defs1" />
  <g
     id="layer1"
     transform="translate(-160.29353,-59.927997)">
    <g
       id="g491"
       transform="translate(-862.53366,-107.30176)"
       style="fill:#ffffff;fill-opacity:0.75;stroke:#dddddd;stroke-opacity:0.9">
      <path

         id="path461"
         d="m 1024.778,170.90318 c -0.2639,0.001 -0.5373,-0.0497 -0.797,0.0224 -0.1346,0.0374 -0.1648,0.0663 -0.2814,0.13697 -0.2848,0.26027 -0.3455,0.5142 -0.3724,0.88682 0,0.25613 0.051,0.51345 0.1892,0.73312 0.471,0.74594 0.2736,0.55471 0.6443,0.86583 0.3283,0.28382 0.7004,0.37844 1.13,0.33981 0.084,-0.008 0.167,-0.0271 0.2505,-0.0406 0.5249,-0.16108 0.8042,-0.48931 1.0364,-0.96681 0.097,-0.28912 0.1305,-0.63908 -0.066,-0.9001 -0.2295,-0.30502 -0.4746,-0.598 -0.7119,-0.897 -0.1964,-0.15062 -0.5156,-0.40895 -0.7633,-0.45315 -0.1631,-0.0291 -0.3032,0.014 -0.4606,0.045 -0.4076,0.23581 -0.056,-0.0237 -0.3416,0.40256 -0.048,0.0716 -0.122,0.12177 -0.183,0.18266 0,0 0.012,0.0159 0.012,0.0159 v 0 c 0.083,-0.0308 0.1604,-0.0885 0.2489,-0.0924 0.2224,-0.01 0.4349,0.13369 0.6627,0.0839 0.094,0.0148 0.1903,0.019 0.2819,0.0445 0.085,0.0238 0.1641,0.066 0.2446,0.10238 0.2813,0.12707 0.5449,0.29091 0.7701,0.50328 -0.1469,-0.20088 -0.2937,-0.40188 -0.4408,-0.60263 -0.038,-0.052 0.082,0.1 0.1136,0.15624 0.1282,0.23019 0.1257,0.49893 0.077,0.74934 -0.023,0.0701 -0.04,0.14266 -0.069,0.21043 -0.1636,0.37951 -0.4701,0.64865 -0.8562,0.78585 -0.5114,0.0959 -0.8664,0.09 -1.2716,-0.2703 -0.037,-0.0531 -0.142,-0.21479 -0.1094,-0.15928 0.082,0.13922 0.1673,0.27648 0.2572,0.41066 0.035,0.0529 -0.067,-0.10865 -0.094,-0.16651 -0.048,-0.10372 -0.084,-0.2392 -0.1009,-0.35148 -0.01,-0.0602 -0.011,-0.12142 -0.016,-0.18213 0.013,-0.31398 0.065,-0.62676 0.3283,-0.83064 0.1862,-0.11492 0.3095,-0.15304 0.5312,-0.11585 0.041,0.007 0.088,0.006 0.1211,0.0324 0.014,0.0107 -0.013,0.0318 -0.02,0.0478 z" />
      <path

         id="path462"
         d="m 1025.5335,168.51447 c -0.3067,0.10202 -0.5327,0.35771 -0.5745,0.68431 -0.01,0.0764 2e-4,0.15405 0,0.23108 0.021,0.076 0.032,0.15498 0.062,0.22789 0.1155,0.28389 0.5288,0.71938 0.6476,0.83949 0.1449,0.14649 0.5483,0.26022 0.7419,0.31675 0.4728,-0.005 0.9693,-0.0247 1.3862,-0.27735 0.2223,-0.13469 0.2679,-0.21969 0.4326,-0.41336 0.036,-0.0938 0.088,-0.18293 0.1076,-0.28136 0.05,-0.24912 -0.045,-0.64967 -0.201,-0.84831 -0.76,-0.97001 -0.5045,-0.78855 -1.1507,-1.12563 -0.313,-0.12899 -0.6581,-0.18456 -0.9917,-0.0924 -0.099,0.0272 -0.2175,0.0444 -0.2798,0.12545 -0.077,0.10056 -0.056,0.2481 -0.1,0.36744 -0.034,0.0948 -0.088,0.18141 -0.1315,0.27211 0,0 0.013,0.015 0.013,0.015 v 0 c 0.3206,-0.28655 0.085,-0.16424 0.5876,-0.15307 0.1136,0.003 0.2272,-0.0194 0.3407,-0.0137 0.3812,0.0191 0.7473,0.13901 1.1018,0.27028 0.5059,0.326 0.268,0.22196 -0.085,-0.3316 -0.054,-0.0848 0.1431,0.14527 0.1904,0.23401 0.1467,0.27525 0.071,0.58131 -0.01,0.86074 -0.046,0.0931 -0.078,0.19472 -0.1379,0.27941 -0.089,0.12472 -0.3339,0.33278 -0.4704,0.40268 -0.094,0.0479 -0.1971,0.074 -0.2983,0.10219 -0.096,0.0268 -0.194,0.0548 -0.2939,0.0623 -0.085,0.006 -0.1691,-0.014 -0.2537,-0.021 -0.2703,-0.0264 -0.3448,-0.007 -0.583,-0.12425 -0.076,-0.0374 -0.2002,-0.2227 -0.2121,-0.13902 -0.016,0.11408 0.1234,0.19482 0.1909,0.28819 0.091,0.12555 -0.3563,-0.51025 -0.2022,-0.41851 0,-0.0741 -0.02,-0.14822 -0.014,-0.22221 0.026,-0.33427 0.2251,-0.53501 0.5208,-0.65445 z" />
      <path

         id="path463"
         d="m 1027.4673,170.3671 c -0.1672,0.0655 -0.1539,0.0544 -0.325,0.14973 -0.063,0.035 -0.1181,0.0843 -0.1851,0.11019 -0.044,0.017 -0.098,-0.006 -0.1401,0.0157 -0.092,0.048 -0.2245,0.24272 -0.2782,0.31306 -0.041,0.0795 -0.092,0.15451 -0.1225,0.23838 -0.1494,0.40745 -0.1426,0.89639 0,1.30422 0.034,0.0975 0.087,0.18735 0.1312,0.28103 0.2859,0.52709 0.1568,0.34432 0.8559,1.01866 0.1419,0.13691 0.3875,0.27042 0.5678,0.34479 0.2507,0.10341 0.3199,0.10002 0.5811,0.14311 0.5429,0.033 0.8532,-0.12814 1.2128,-0.51525 0.2421,-0.31423 0.4535,-0.67023 0.568,-1.05308 0.027,-0.0908 0.043,-0.18458 0.065,-0.27688 0,-0.40195 -0.1244,-0.63841 -0.4002,-0.93297 -0.031,-0.0333 -0.7208,-0.99998 -1.1768,-0.92647 -0.1157,0.0187 -0.1951,0.12997 -0.2927,0.19496 0,0 0.011,0.0169 0.011,0.0169 v 0 c 0.1998,0.0887 0.4034,0.16909 0.5993,0.26597 0.1418,0.0701 0.2761,0.31426 0.4124,0.23427 0.1181,-0.0693 -0.1998,-0.21952 -0.2042,-0.35636 0,-0.10605 0.1436,0.15767 0.2007,0.24707 0.057,0.0888 0.1068,0.18379 0.139,0.28421 0.028,0.0883 0.027,0.18343 0.04,0.27514 -0.01,0.0809 -0.01,0.16337 -0.028,0.24265 -0.089,0.38113 -0.3626,0.75622 -0.5918,1.06614 -0.3442,0.36612 -0.6131,0.52511 -1.1296,0.53997 -0.2979,-0.0359 -0.5141,-0.076 -0.7793,-0.23261 -0.084,-0.0494 -0.2554,-0.26553 -0.2369,-0.17012 0.026,0.13281 0.1936,0.19288 0.2638,0.30852 0.057,0.0946 -0.1498,-0.16284 -0.2248,-0.24426 -0.053,-0.10071 -0.1158,-0.19691 -0.1594,-0.30214 -0.1624,-0.39241 -0.187,-0.8763 -0.038,-1.27734 0.032,-0.0862 0.085,-0.16329 0.1271,-0.24494 0.3263,-0.42943 0,-0.0177 0.3867,-0.45541 0.082,-0.0933 0.1492,-0.20009 0.2389,-0.28607 0.1335,-0.128 0.3274,-0.191 0.4914,-0.26696 z" />
      <path

         id="path464"
         d="m 1026.5061,174.10484 c -0.3012,-0.25879 -0.6642,-0.37232 -1.0589,-0.36874 -0.094,7.9e-4 -0.1876,0.0132 -0.2814,0.0198 -0.4441,0.11203 -0.7699,0.33514 -0.9611,0.7645 -0.1287,0.28914 -0.1317,0.45864 -0.1798,0.77243 -0.027,0.69073 0.067,1.3961 0.387,2.01752 0.052,0.10183 0.1185,0.19602 0.1777,0.29403 0.421,0.53538 0.9305,1.0524 1.6221,1.16148 0.1005,0.0159 0.2027,0.0305 0.3043,0.0246 0.1217,-0.007 0.2401,-0.0421 0.3602,-0.0632 0.6269,-0.16146 1.2231,-0.43566 1.7443,-0.82146 0.1119,-0.0828 0.2161,-0.17557 0.3241,-0.26336 0.3632,-0.34418 0.7229,-0.74059 0.8519,-1.23998 0.072,-0.27752 0.036,-0.38421 0.01,-0.66243 -0.2813,-0.68271 -0.146,-0.45138 -0.9883,-1.33888 -0.086,-0.0909 -0.1986,-0.15429 -0.3077,-0.21591 -0.1152,-0.065 -0.2389,-0.11434 -0.3621,-0.16239 -0.1231,-0.048 -0.2454,-0.14535 -0.376,-0.12531 -0.1135,0.0174 -0.175,0.14887 -0.2626,0.22331 0,0 0.012,0.0159 0.012,0.0159 v 0 c 0.2057,0.11299 0.4097,0.22918 0.6172,0.33896 0.4376,0.23162 0.4189,0.17754 0.8279,0.47101 0.1184,0.0849 0.3562,0.41973 0.3395,0.27506 -0.022,-0.18973 -0.2177,-0.31821 -0.3592,-0.4464 -0.083,-0.0754 0.1204,0.18983 0.1806,0.28475 0.018,0.10473 0.052,0.20795 0.054,0.31419 0.01,0.64538 -0.4666,1.17163 -0.8982,1.58944 -0.1059,0.0857 -0.2079,0.17658 -0.3179,0.25713 -0.5158,0.3779 -1.1117,0.64663 -1.7316,0.79711 -0.2961,0.0351 -0.6029,0.0962 -0.8969,0.009 -0.085,-0.0251 -0.2788,-0.18945 -0.2428,-0.10846 0.069,0.15508 0.2344,0.24568 0.3564,0.36373 0.083,0.08 -0.159,-0.16635 -0.2384,-0.24953 -0.069,-0.1006 -0.1452,-0.19644 -0.2064,-0.30181 -0.2584,-0.44446 -0.4146,-1.03789 -0.4528,-1.54889 -0.01,-0.13378 0,-0.26832 0,-0.40247 0.016,-0.11941 0.02,-0.24112 0.048,-0.35823 0.099,-0.4121 0.3553,-0.76902 0.7477,-0.94103 0.09,-0.0393 0.1859,-0.0603 0.2789,-0.0905 0.098,-0.0129 0.1946,-0.035 0.2931,-0.0386 0.3484,-0.0128 0.7005,0.10262 0.9305,0.37018 z" />
    </g>
  </g>
</svg>
