<?xml version="1.0" encoding="UTF-8" standalone="no"?>
<!-- Created with Inkscape (http://www.inkscape.org/) -->

<svg
   width="15.722385mm"
   height="16.509806mm"
   viewBox="0 0 15.722385 16.509806"
   version="1.1"
   id="svg1"
   xmlns="http://www.w3.org/2000/svg"
   xmlns:svg="http://www.w3.org/2000/svg">
  <defs
     id="defs1" />
  <g
     id="layer1"
     transform="translate(-35.293874,-50.206797)">
    <g
       id="g550"
       transform="matrix(0.6642697,0,0,0.6642697,-604.55282,-5.7763353)"
       style="fill:#000000;fill-opacity:0.720204;stroke:#000000;stroke-opacity:0.98632">
      <path
         style="fill:#000000;fill-opacity:0.720204;stroke:#000000;stroke-width:1;stroke-linecap:round;stroke-linejoin:round;stroke-miterlimit:2;stroke-dasharray:none;stroke-opacity:0.98632;paint-order:markers stroke fill"
         id="path531"
         d="m 972.94127,91.505406 c -0.11207,-0.0033 -0.22524,-0.02585 -0.33623,-0.0098 -0.80235,0.115999 -1.56083,0.594034 -2.13609,1.14391 -0.17359,0.165928 -0.32451,0.354052 -0.48678,0.531077 -0.44455,0.578146 -0.91125,1.323298 -1.07381,2.044369 -0.11467,0.508627 -0.10721,1.253821 -0.0169,1.764586 0.0512,0.290266 0.15856,0.567788 0.23783,0.851683 0.12859,0.260199 0.2354,0.532334 0.38574,0.780598 0.2603,0.429871 0.69471,0.960247 1.10783,1.256291 0.97894,0.70154 1.87635,1.46577 3.03806,1.77098 0.2577,0.0677 0.52551,0.0884 0.78824,0.13257 1.03564,0.0466 2.00822,-0.23333 2.87327,-0.80082 0.19481,-0.12781 0.39074,-0.25881 0.55806,-0.42097 0.15989,-0.15493 0.27718,-0.34848 0.41574,-0.52271 0.0905,-0.217766 0.20855,-0.426027 0.27152,-0.653283 0.26974,-0.973643 0.0542,-2.067944 -0.3482,-2.971266 -0.11559,-0.259508 -0.2645,-0.502859 -0.39676,-0.75429 -0.46805,-0.719238 -1.00817,-1.419873 -1.76165,-1.865611 -0.39775,-0.235281 -0.83109,-0.404344 -1.24661,-0.606518 0,0 0.0417,0.04311 0.0417,0.04311 v 0 c -0.0333,-0.06176 -0.16428,-0.213532 -0.10004,-0.185285 0.32062,0.140941 0.83574,1.0291 0.99783,1.306428 0.0977,0.216898 0.20788,0.428609 0.29318,0.650687 0.44783,1.165881 0.58899,2.428693 0.19796,3.629316 -0.25789,0.478893 -0.31263,0.681321 -0.72168,1.050126 -0.50133,0.452026 -1.19014,0.749316 -1.85928,0.822316 -0.24241,0.0265 -0.48773,-1.5e-4 -0.7316,-2.3e-4 -0.24272,-0.0492 -0.49098,-0.0765 -0.72821,-0.14769 -0.2558,-0.0768 -0.85503,-0.537982 -0.74512,-0.29456 0.15158,0.33576 0.55356,0.5176 0.90107,0.63994 0.25762,0.0907 -0.42786,-0.34221 -0.61646,-0.53975 -0.53533,-0.560679 -0.55959,-0.721786 -0.91561,-1.40003 -0.23014,-0.709774 -0.35992,-0.914532 -0.35446,-1.671574 0.007,-0.976817 0.47564,-1.842023 1.03198,-2.611093 0.1579,-0.167132 0.30218,-0.348271 0.47371,-0.501399 0.6864,-0.612801 1.60379,-1.028102 2.53293,-0.915712 z" />
      <path
         style="fill:#000000;fill-opacity:0.720204;stroke:#000000;stroke-width:1;stroke-linecap:round;stroke-linejoin:round;stroke-miterlimit:2;stroke-dasharray:none;stroke-opacity:0.98632;paint-order:markers stroke fill"
         id="path532"
         d="m 965.76966,96.315603 c -0.0285,-0.151591 -0.0732,-0.301019 -0.0854,-0.454771 -0.0543,-0.680704 0.18709,-1.423054 0.39902,-2.040869 0.38735,-1.129207 0.57071,-1.37015 1.13602,-2.433987 0.97157,-1.441749 2.1781,-2.665351 3.63249,-3.623503 0.50858,-0.33505 1.03127,-0.657749 1.59001,-0.900004 1.40396,-0.60869 2.01076,-0.583057 3.49107,-0.772499 1.27847,0.241478 1.94683,0.250148 3.08756,0.924703 0.45151,0.266994 0.93043,0.549656 1.23232,0.978607 0.10052,0.142803 -0.54689,-0.143894 -0.52308,0.0291 0.0741,0.538009 0.53697,0.949211 0.72776,1.457674 0.204,0.543605 0.30041,1.121709 0.45062,1.682562 0.36417,1.810809 0.44293,3.656854 0.39309,5.498592 -0.053,1.956615 -0.14439,1.993919 -0.2172,3.932662 -0.0238,0.63077 -0.0196,1.26227 -0.0294,1.8934 0.58754,2.33246 0.37807,1.22842 0.67591,3.30277 0,0 0.0531,0.0279 0.0531,0.0279 v 0 c 0.65045,-1.58187 0.25823,-0.76433 1.21399,-2.43436 0.0841,-0.59911 0.19867,-1.19473 0.25233,-1.79733 0.12504,-1.40417 0.0865,-2.402173 0.0282,-3.798197 -0.0786,-1.883587 -0.19706,-3.77327 -0.61783,-5.617403 -0.23357,-0.721553 -0.74263,-2.535997 -1.24899,-3.170626 -0.72046,-0.902917 -1.60552,-1.66248 -2.44758,-2.453196 -0.86918,-0.816178 -1.49482,-1.292852 -2.677,-1.585272 -0.55687,-0.137745 -1.14073,-0.122557 -1.71109,-0.183838 -1.4587,0.219422 -2.12672,0.224764 -3.51385,0.835004 -0.56854,0.250127 -1.10104,0.579803 -1.61891,0.922769 -1.51365,1.002429 -2.78058,2.283558 -3.83206,3.757927 -0.23585,0.423339 -0.49176,0.836099 -0.70753,1.270016 -0.65248,1.312135 -1.07629,2.671781 -1.16535,4.144111 -0.0293,0.484976 0.0967,0.962072 0.19857,1.429295 z" />
      <path
         style="fill:#000000;fill-opacity:0.720204;stroke:#000000;stroke-width:1;stroke-linecap:round;stroke-linejoin:round;stroke-miterlimit:2;stroke-dasharray:none;stroke-opacity:0.98632;paint-order:markers stroke fill"
         id="path533"
         d="m 977.37685,102.66658 c 0.75055,0.95713 1.37933,2.00172 2.08085,2.99357 0.1815,0.25663 0.37684,0.50319 0.56525,0.75479 0.91189,0.98747 0.47067,0.51741 1.32181,1.41186 0,0 0.0549,0.0243 0.0549,0.0243 v 0 c -0.0653,-0.52434 -0.0426,-0.24611 -0.0592,-0.83534 -0.0749,-0.21742 -0.13689,-0.4397 -0.22463,-0.65226 -0.44749,-1.08425 -1.07635,-2.07606 -1.81729,-2.98196 z" />
      <path
         style="fill:#000000;fill-opacity:0.720204;stroke:#000000;stroke-width:1;stroke-linecap:round;stroke-linejoin:round;stroke-miterlimit:2;stroke-dasharray:none;stroke-opacity:0.98632;paint-order:markers stroke fill"
         id="path534"
         d="m 984.35341,102.09851 c -0.9407,0.70671 -1.57953,1.69274 -2.23424,2.65014 -0.20281,0.29657 -0.43855,0.57367 -0.60479,0.89217 -0.17243,0.33036 -0.26985,0.69473 -0.40478,1.0421 0.27778,1.422 0.25714,0.77427 0.17396,1.93637 0,0 0.0587,0.0125 0.0587,0.0125 v 0 c 1.01018,-0.79218 0.40973,-0.45757 1.86044,-0.88944 0.23363,-0.21095 0.49599,-0.39388 0.70083,-0.63287 0.23291,-0.27175 0.39891,-0.59441 0.60309,-0.88838 0.63797,-0.91865 1.34186,-1.7934 1.89537,-2.76838 z" />
    </g>
  </g>
</svg>
