<?xml version="1.0" encoding="UTF-8" standalone="no"?>
<!-- Created with Inkscape (http://www.inkscape.org/) -->

<svg
   width="15.732825mm"
   height="18.810867mm"
   viewBox="0 0 15.732825 18.810867"
   version="1.1"
   id="svg1"
   xmlns="http://www.w3.org/2000/svg"
   xmlns:svg="http://www.w3.org/2000/svg">
  <defs
     id="defs1" />
  <g
     id="layer1"
     transform="translate(-97.133578,-49.056269)">
    <g
       id="g552"
       transform="matrix(0.55563762,0,0,0.55563762,-476.30735,10.977149)"
       style="fill:#000000;fill-opacity:0.720204;stroke:#000000;stroke-opacity:0.98632">
      <path
         style="fill:#000000;fill-opacity:0.720204;stroke:#000000;stroke-width:1;stroke-linecap:round;stroke-linejoin:round;stroke-miterlimit:2;stroke-dasharray:none;stroke-opacity:0.98632;paint-order:markers stroke fill"
         id="path538"
         d="m 1032.5412,87.756877 c 0.1829,0.758333 0.3157,1.524797 0.5966,2.256838 0.2233,0.58175 0.3603,0.802645 0.651,1.356227 0.1525,0.204666 0.287,0.424083 0.4576,0.613998 0.6303,0.701897 2.3089,1.748462 2.7084,1.977866 0.2495,0.143245 1.0215,0.20393 1.3064,0.149458 0.2288,-0.04375 0.4366,-0.162748 0.6549,-0.244121 0.1824,-0.119223 0.3814,-0.216172 0.5471,-0.357674 1.0998,-0.939332 1.2934,-2.488808 1.4741,-3.826809 0.086,-1.579975 -0.016,-3.162562 0.018,-4.743193 0.027,-1.250746 0.076,-1.515404 0.1942,-2.77268 0.3284,-2.087036 1.0594,-4.09748 2.3475,-5.792893 0.8816,-1.16046 1.3951,-1.514986 2.4819,-2.469716 1.6502,-1.243026 3.511,-2.148176 5.5308,-2.596904 0.8996,-0.199858 1.3179,-0.209529 2.2097,-0.287917 1.1428,-0.01392 2.3127,-0.01857 3.4192,0.301561 0.2126,0.09642 0.432,0.176432 0.6507,0.257567 0.011,0.0043 0.033,0.01201 0.04,0.02019 0,0.0037 0,0.01826 0,0.01471 0.087,-0.08663 0.3239,-0.16785 0.2534,-0.268743 -1.5542,-2.222336 -1.0629,-2.095296 -2.1935,-2.31235 -0.834,0.0078 -1.5463,0.475139 -2.2108,0.92951 -0.8976,0.674669 -1.732,1.452203 -2.4285,2.335774 -0.1603,0.203359 -0.3078,0.416555 -0.4617,0.624829 -0.7186,1.176113 -1.3816,2.404785 -1.831,3.712329 -0.097,0.281551 -0.1748,0.569185 -0.2623,0.853776 -0.4041,1.484397 -0.5205,3.04623 -0.4118,4.580247 0.023,0.320395 0.075,0.63803 0.1122,0.957046 0.2004,1.325853 0.5933,2.61199 1.0546,3.868023 0.1234,0.335965 0.242,0.674309 0.3867,1.00167 0.1465,0.331531 0.324,0.648518 0.4859,0.972778 0.7386,1.129855 1.6244,2.19084 2.7335,2.977602 2.729,1.935737 1.8786,1.490316 3.7071,2.314175 0.6717,0.247119 1.0191,0.407816 1.7132,0.541999 0.231,0.04465 0.4825,0.167138 0.7011,0.08042 0.1406,-0.05575 0.109,-0.282176 0.1635,-0.423265 0.1717,-0.03191 0.3435,-0.06382 0.5153,-0.09574 0,0 -0.046,-0.03812 -0.046,-0.03812 v 0 c -1.6524,-0.350367 -0.031,0.05504 -2.2265,-0.795539 -0.2889,-0.111884 -0.5952,-0.172146 -0.8911,-0.263948 -0.9724,-0.301734 -0.7912,-0.251151 -1.7472,-0.628997 -0.2784,-0.154985 -1.0218,-0.723196 -0.8352,-0.464952 0.2713,0.375391 0.732,0.567968 1.1066,0.840414 0.2735,0.198988 -0.5458,-0.400806 -0.8035,-0.619974 -0.543,-0.461796 -0.9936,-0.924533 -1.4348,-1.484355 -0.2115,-0.268322 -0.3958,-0.556961 -0.5938,-0.83544 -0.4301,-0.618022 -0.7483,-1.031047 -1.0934,-1.704232 -0.616,-1.201377 -0.9384,-2.52975 -1.2123,-3.842292 -0.074,-0.509656 -0.2083,-1.365017 -0.2443,-1.884976 -0.083,-1.19402 0.053,-2.395181 0.3385,-3.554868 0.077,-0.27328 0.1435,-0.549952 0.2319,-0.81984 0.4208,-1.284269 1.0268,-2.508983 1.7929,-3.621109 0.1385,-0.196871 0.2689,-0.399759 0.4156,-0.590611 0.6929,-0.901451 1.5625,-1.649613 2.5667,-2.18368 0.7366,-0.306393 1.5891,-0.644819 2.3729,-0.29749 0.9217,0.696093 -0.7419,-0.547436 -1.7508,-2.070973 -0.067,-0.101891 0.1893,-0.154683 0.2853,-0.230277 0.01,-0.0059 -0.01,0.0358 -0.011,0.02635 -0.1377,0.0236 -0.2792,0.0329 -0.4067,0.09616 -0.3466,0.02943 -0.6745,0.0099 -1.0225,-0.0041 -0.7363,-0.02964 -1.4742,-0.02384 -2.2086,0.04459 -0.955,0.109045 -1.2379,0.111434 -2.2044,0.354848 -2.0323,0.511861 -3.9053,1.468208 -5.5547,2.757916 -1.1904,1.062562 -1.5185,1.256033 -2.4977,2.528081 -1.3214,1.716495 -2.1313,3.708453 -2.5397,5.826493 -0.072,0.467905 -0.1655,0.933055 -0.2169,1.403715 -0.225,2.058011 -0.026,4.141187 -0.2991,6.195827 -0.1727,1.339927 -0.3614,2.834336 -1.4084,3.811945 -0.1463,0.136681 -0.3228,0.237069 -0.4842,0.355605 -0.4159,0.119822 -0.6274,0.220419 -1.0817,0.174183 -0.207,-0.02106 -0.7031,-0.337764 -0.6049,-0.154297 0.1918,0.358415 0.6293,0.514842 0.9389,0.778346 0.4044,0.344294 -1.7081,-1.349931 -1.1374,-1.115952 -0.1353,-0.22747 -0.2877,-0.445537 -0.4057,-0.682413 -0.1662,-0.333542 -0.4016,-1.028229 -0.5216,-1.386795 -0.1174,-0.350711 -0.2418,-0.699498 -0.342,-1.055518 -0.033,-0.115549 -0.052,-0.234413 -0.078,-0.351618 z" />
      <path
         style="fill:#000000;fill-opacity:0.720204;stroke:#000000;stroke-width:1;stroke-linecap:round;stroke-linejoin:round;stroke-miterlimit:2;stroke-dasharray:none;stroke-opacity:0.98632;paint-order:markers stroke fill"
         id="path539"
         d="m 1045.2667,91.432815 c -0.1304,0.04907 -0.2656,0.08693 -0.3912,0.14722 -0.7967,0.382392 -1.539,0.953746 -2.0994,1.635292 -0.1787,0.217331 -0.331,0.455138 -0.4964,0.682707 -0.6456,1.021908 -1.0818,2.187908 -1.1164,3.408134 -0.022,0.777918 0.065,0.937678 0.2409,1.674654 0.1461,0.230219 0.2645,0.480566 0.4383,0.690655 0.1772,0.214133 0.3717,0.423353 0.6064,0.572163 1.4217,0.9014 2.078,1.51689 3.5234,1.62574 0.8472,0.0638 1.0576,-0.0403 1.874,-0.21248 1.1473,-0.44094 2.2126,-1.00128 2.5297,-2.297684 0.2009,-0.821309 0.074,-1.318014 -0.012,-2.146059 -0.1214,-0.371314 -0.1999,-0.759465 -0.364,-1.113944 -0.2683,-0.579379 -0.9158,-1.494319 -1.4131,-1.906037 -0.988,-0.818065 -1.5023,-0.976847 -2.5989,-1.476489 0,0 0.046,0.03824 0.046,0.03824 v 0 c 0.211,0.09367 0.4409,0.152966 0.633,0.281027 0.1058,0.07051 0.159,0.198429 0.2369,0.298879 0.1841,0.237339 0.3934,0.457565 0.549,0.714454 0.4192,0.691891 0.4596,1.051936 0.6731,1.826366 0.032,0.345151 0.097,0.688837 0.096,1.035457 0,0.608809 -0.1105,1.338458 -0.4161,1.883415 -0.4051,0.722525 -1.1977,1.101104 -1.9142,1.420055 -0.6733,0.16765 -0.9659,0.29591 -1.6699,0.25108 -0.2796,-0.0178 -0.9019,-0.42153 -0.8268,-0.1516 0.1137,0.40827 0.6973,0.48795 1.0024,0.78213 0.3955,0.38134 -1.8155,-1.248242 -1.1597,-1.171037 -0.205,-0.713964 -0.2987,-0.872066 -0.3153,-1.63522 -0.025,-1.167423 0.3351,-2.291866 0.9544,-3.271729 0.1615,-0.220406 0.3101,-0.450979 0.4847,-0.66122 0.6101,-0.73452 1.376,-1.291116 2.21,-1.740511 z" />
    </g>
  </g>
</svg>
