<?xml version="1.0" encoding="UTF-8" standalone="no"?>
<!-- Created with Inkscape (http://www.inkscape.org/) -->

<svg
   width="210mm"
   height="297mm"
   viewBox="0 0 210 297"
   version="1.1"
   id="svg1"
   xmlns="http://www.w3.org/2000/svg"
   xmlns:svg="http://www.w3.org/2000/svg">
  <defs
     id="defs1" />
  <g
     id="layer1">
    <g
       id="g549"
       transform="matrix(0.63811252,0,0,0.63811252,-587.83844,1.6717727)"
       style="fill:#000000;fill-opacity:0.72020394;stroke:#000000;stroke-opacity:0.98631984">
      <path
         style="fill:#000000;fill-opacity:0.72020394;stroke:#000000;stroke-width:1;stroke-linecap:round;stroke-linejoin:round;stroke-miterlimit:2;stroke-dasharray:none;stroke-opacity:0.98631984;paint-order:markers stroke fill"
         id="path529"
         d="m 947.85298,90.635107 c -0.35288,-0.03001 -0.72017,-0.08097 -1.07172,-0.0024 -0.47837,0.106788 -0.90078,0.364083 -1.31358,0.613786 -0.68117,0.594357 -1.10725,1.357267 -1.28521,2.242034 -0.0414,0.20579 -0.0592,0.415629 -0.0888,0.623443 -0.0837,1.246283 0.13996,2.493364 0.7721,3.581786 0.11446,0.197075 0.25345,0.378857 0.38016,0.568288 0.41806,0.535747 0.93808,0.924909 1.52953,1.246955 1.7849,0.971851 1.76702,1.119971 3.3171,1.414871 0.98584,0.0831 2.06338,0.0513 2.9277,-0.49978 0.18095,-0.11539 0.3307,-0.27364 0.49607,-0.41046 0.33316,-0.385042 0.5548,-0.558937 0.70024,-1.074594 0.24633,-0.873403 0.0743,-1.88115 -0.1647,-2.733006 -0.0893,-0.318404 -0.21881,-0.624157 -0.32822,-0.936238 -0.40288,-0.838631 -0.90627,-1.794732 -1.66801,-2.372818 -0.38595,-0.292891 -0.8283,-0.502854 -1.24246,-0.754282 0,0 -0.0556,-0.02252 -0.0556,-0.02252 v 0 c -0.11396,0.394597 -0.0871,0.12342 0.26016,0.718569 0.49832,0.85404 0.33788,0.565292 0.75848,1.511633 0.43625,1.275826 0.986,2.840336 0.28454,4.132032 -0.0937,0.17262 -0.23117,0.317648 -0.34677,0.476472 -0.24145,0.227002 -0.56049,0.563746 -0.86857,0.715257 -0.61674,0.303294 -1.5271,0.262964 -2.18691,0.175453 -0.19146,-0.04214 -0.38574,-0.07315 -0.57441,-0.126421 -0.19368,-0.05468 -0.70038,-0.350848 -0.57074,-0.196911 0.23471,0.278707 0.62024,0.384337 0.91221,0.602354 0.17375,0.12975 -0.37711,-0.215123 -0.55661,-0.336815 -0.54716,-0.370946 -0.53869,-0.407752 -1.00123,-0.874893 -0.13272,-0.183483 -0.27919,-0.357743 -0.3981,-0.550447 -0.62044,-1.005485 -0.87505,-2.193184 -0.82819,-3.364232 0.0337,-0.197147 0.0564,-0.396518 0.1012,-0.591437 0.14462,-0.628512 0.43545,-1.327531 0.92601,-1.768075 0.11899,-0.106836 0.26072,-0.185232 0.39106,-0.27785 0.14017,-0.07257 0.27421,-0.158475 0.4205,-0.217717 0.64095,-0.259541 1.35327,-0.238784 2.02015,-0.108794 z" />
      <path
         style="fill:#000000;fill-opacity:0.72020394;stroke:#000000;stroke-width:1;stroke-linecap:round;stroke-linejoin:round;stroke-miterlimit:2;stroke-dasharray:none;stroke-opacity:0.98631984;paint-order:markers stroke fill"
         id="path530"
         d="m 943.84981,88.899639 c 1.18184,-0.97936 2.10642,-2.213441 2.99825,-3.450447 0.78949,-1.168897 1.47641,-2.405936 2.0551,-3.692239 0.0617,-0.137121 0.60434,-1.432693 0.68191,-1.617565 0.0847,-0.211243 0.1678,-0.423114 0.254,-0.633732 0.3269,-0.79855 0.0906,-0.187609 0.35224,-0.865524 0.008,-0.0208 0.12071,-0.35065 0.17069,-0.39003 0.0209,-0.0164 -0.005,0.05276 -0.007,0.07913 -0.47744,-0.326514 -0.91901,-0.713012 -1.43238,-0.979543 -0.0992,-0.0515 0.0955,0.202327 0.13603,0.306496 0.0625,0.160573 0.11334,0.325427 0.17272,0.48717 0.28014,0.76318 0.592,1.511173 0.91051,2.25898 0.75091,1.850671 1.72119,3.59944 2.80431,5.273813 0.55716,0.916421 1.31101,1.508236 2.1218,2.178492 0,0 0.0524,0.02921 0.0524,0.02921 v 0 c 0.29231,-0.266028 0.14708,-0.352909 -0.0693,-0.695582 -0.12121,-0.19195 -0.25411,-0.376256 -0.38116,-0.564383 -1.14919,-1.695873 -2.19022,-3.458352 -3.03004,-5.330613 -0.30739,-0.73343 -0.5929,-1.465082 -0.85648,-2.214951 -0.0525,-0.149519 -0.11155,-0.296783 -0.16134,-0.447244 -0.0342,-0.103291 -0.0116,-0.23845 -0.0904,-0.313619 -0.49077,-0.468997 -1.05399,-0.855773 -1.58099,-1.28366 -0.039,0.02975 -0.0904,0.04802 -0.11689,0.08924 -0.0308,0.04777 -0.0312,0.109249 -0.0462,0.164055 -0.0251,0.09224 -0.0492,0.1848 -0.0743,0.277063 -0.14483,0.532271 -0.27676,1.068846 -0.47125,1.58613 -0.095,0.25932 -0.18132,0.521988 -0.28498,0.777962 -0.64413,1.590429 -1.48752,3.094964 -2.44946,4.513371 -0.93332,1.28098 -1.89167,2.58219 -3.1599,3.555021 z" />
    </g>
    <g
       id="g550"
       transform="matrix(0.6642697,0,0,0.6642697,-604.55282,-5.7763353)"
       style="fill:#000000;fill-opacity:0.72020394;stroke:#000000;stroke-opacity:0.98631984">
      <path
         style="fill:#000000;fill-opacity:0.72020394;stroke:#000000;stroke-width:1;stroke-linecap:round;stroke-linejoin:round;stroke-miterlimit:2;stroke-dasharray:none;stroke-opacity:0.98631984;paint-order:markers stroke fill"
         id="path531"
         d="m 972.94127,91.505406 c -0.11207,-0.0033 -0.22524,-0.02585 -0.33623,-0.0098 -0.80235,0.115999 -1.56083,0.594034 -2.13609,1.14391 -0.17359,0.165928 -0.32451,0.354052 -0.48678,0.531077 -0.44455,0.578146 -0.91125,1.323298 -1.07381,2.044369 -0.11467,0.508627 -0.10721,1.253821 -0.0169,1.764586 0.0512,0.290266 0.15856,0.567788 0.23783,0.851683 0.12859,0.260199 0.2354,0.532334 0.38574,0.780598 0.2603,0.429871 0.69471,0.960247 1.10783,1.256291 0.97894,0.70154 1.87635,1.46577 3.03806,1.77098 0.2577,0.0677 0.52551,0.0884 0.78824,0.13257 1.03564,0.0466 2.00822,-0.23333 2.87327,-0.80082 0.19481,-0.12781 0.39074,-0.25881 0.55806,-0.42097 0.15989,-0.15493 0.27718,-0.34848 0.41574,-0.52271 0.0905,-0.217766 0.20855,-0.426027 0.27152,-0.653283 0.26974,-0.973643 0.0542,-2.067944 -0.3482,-2.971266 -0.11559,-0.259508 -0.2645,-0.502859 -0.39676,-0.75429 -0.46805,-0.719238 -1.00817,-1.419873 -1.76165,-1.865611 -0.39775,-0.235281 -0.83109,-0.404344 -1.24661,-0.606518 0,0 0.0417,0.04311 0.0417,0.04311 v 0 c -0.0333,-0.06176 -0.16428,-0.213532 -0.10004,-0.185285 0.32062,0.140941 0.83574,1.0291 0.99783,1.306428 0.0977,0.216898 0.20788,0.428609 0.29318,0.650687 0.44783,1.165881 0.58899,2.428693 0.19796,3.629316 -0.25789,0.478893 -0.31263,0.681321 -0.72168,1.050126 -0.50133,0.452026 -1.19014,0.749316 -1.85928,0.822316 -0.24241,0.0265 -0.48773,-1.5e-4 -0.7316,-2.3e-4 -0.24272,-0.0492 -0.49098,-0.0765 -0.72821,-0.14769 -0.2558,-0.0768 -0.85503,-0.537982 -0.74512,-0.29456 0.15158,0.33576 0.55356,0.5176 0.90107,0.63994 0.25762,0.0907 -0.42786,-0.34221 -0.61646,-0.53975 -0.53533,-0.560679 -0.55959,-0.721786 -0.91561,-1.40003 -0.23014,-0.709774 -0.35992,-0.914532 -0.35446,-1.671574 0.007,-0.976817 0.47564,-1.842023 1.03198,-2.611093 0.1579,-0.167132 0.30218,-0.348271 0.47371,-0.501399 0.6864,-0.612801 1.60379,-1.028102 2.53293,-0.915712 z" />
      <path
         style="fill:#000000;fill-opacity:0.72020394;stroke:#000000;stroke-width:1;stroke-linecap:round;stroke-linejoin:round;stroke-miterlimit:2;stroke-dasharray:none;stroke-opacity:0.98631984;paint-order:markers stroke fill"
         id="path532"
         d="m 965.76966,96.315603 c -0.0285,-0.151591 -0.0732,-0.301019 -0.0854,-0.454771 -0.0543,-0.680704 0.18709,-1.423054 0.39902,-2.040869 0.38735,-1.129207 0.57071,-1.37015 1.13602,-2.433987 0.97157,-1.441749 2.1781,-2.665351 3.63249,-3.623503 0.50858,-0.33505 1.03127,-0.657749 1.59001,-0.900004 1.40396,-0.60869 2.01076,-0.583057 3.49107,-0.772499 1.27847,0.241478 1.94683,0.250148 3.08756,0.924703 0.45151,0.266994 0.93043,0.549656 1.23232,0.978607 0.10052,0.142803 -0.54689,-0.143894 -0.52308,0.0291 0.0741,0.538009 0.53697,0.949211 0.72776,1.457674 0.204,0.543605 0.30041,1.121709 0.45062,1.682562 0.36417,1.810809 0.44293,3.656854 0.39309,5.498592 -0.053,1.956615 -0.14439,1.993919 -0.2172,3.932662 -0.0238,0.63077 -0.0196,1.26227 -0.0294,1.8934 0.58754,2.33246 0.37807,1.22842 0.67591,3.30277 0,0 0.0531,0.0279 0.0531,0.0279 v 0 c 0.65045,-1.58187 0.25823,-0.76433 1.21399,-2.43436 0.0841,-0.59911 0.19867,-1.19473 0.25233,-1.79733 0.12504,-1.40417 0.0865,-2.402173 0.0282,-3.798197 -0.0786,-1.883587 -0.19706,-3.77327 -0.61783,-5.617403 -0.23357,-0.721553 -0.74263,-2.535997 -1.24899,-3.170626 -0.72046,-0.902917 -1.60552,-1.66248 -2.44758,-2.453196 -0.86918,-0.816178 -1.49482,-1.292852 -2.677,-1.585272 -0.55687,-0.137745 -1.14073,-0.122557 -1.71109,-0.183838 -1.4587,0.219422 -2.12672,0.224764 -3.51385,0.835004 -0.56854,0.250127 -1.10104,0.579803 -1.61891,0.922769 -1.51365,1.002429 -2.78058,2.283558 -3.83206,3.757927 -0.23585,0.423339 -0.49176,0.836099 -0.70753,1.270016 -0.65248,1.312135 -1.07629,2.671781 -1.16535,4.144111 -0.0293,0.484976 0.0967,0.962072 0.19857,1.429295 z" />
      <path
         style="fill:#000000;fill-opacity:0.72020394;stroke:#000000;stroke-width:1;stroke-linecap:round;stroke-linejoin:round;stroke-miterlimit:2;stroke-dasharray:none;stroke-opacity:0.98631984;paint-order:markers stroke fill"
         id="path533"
         d="m 977.37685,102.66658 c 0.75055,0.95713 1.37933,2.00172 2.08085,2.99357 0.1815,0.25663 0.37684,0.50319 0.56525,0.75479 0.91189,0.98747 0.47067,0.51741 1.32181,1.41186 0,0 0.0549,0.0243 0.0549,0.0243 v 0 c -0.0653,-0.52434 -0.0426,-0.24611 -0.0592,-0.83534 -0.0749,-0.21742 -0.13689,-0.4397 -0.22463,-0.65226 -0.44749,-1.08425 -1.07635,-2.07606 -1.81729,-2.98196 z" />
      <path
         style="fill:#000000;fill-opacity:0.72020394;stroke:#000000;stroke-width:1;stroke-linecap:round;stroke-linejoin:round;stroke-miterlimit:2;stroke-dasharray:none;stroke-opacity:0.98631984;paint-order:markers stroke fill"
         id="path534"
         d="m 984.35341,102.09851 c -0.9407,0.70671 -1.57953,1.69274 -2.23424,2.65014 -0.20281,0.29657 -0.43855,0.57367 -0.60479,0.89217 -0.17243,0.33036 -0.26985,0.69473 -0.40478,1.0421 0.27778,1.422 0.25714,0.77427 0.17396,1.93637 0,0 0.0587,0.0125 0.0587,0.0125 v 0 c 1.01018,-0.79218 0.40973,-0.45757 1.86044,-0.88944 0.23363,-0.21095 0.49599,-0.39388 0.70083,-0.63287 0.23291,-0.27175 0.39891,-0.59441 0.60309,-0.88838 0.63797,-0.91865 1.34186,-1.7934 1.89537,-2.76838 z" />
    </g>
    <g
       id="g551"
       transform="matrix(0.64466899,0,0,0.64466899,-574.96141,-0.60712026)"
       style="fill:#000000;fill-opacity:0.72020394;stroke:#000000;stroke-opacity:0.98631984">
      <path
         style="fill:#000000;fill-opacity:0.72020394;stroke:#000000;stroke-width:1;stroke-linecap:round;stroke-linejoin:round;stroke-miterlimit:2;stroke-dasharray:none;stroke-opacity:0.98631984;paint-order:markers stroke fill"
         id="path535"
         d="m 994.04743,96.560557 c -0.12901,-0.768443 -0.0821,-1.569318 0.13136,-2.320155 0.19987,-0.702744 0.44337,-1.193176 0.73684,-1.860569 0.45879,-0.841846 0.97639,-1.66852 1.7221,-2.289344 0.28818,-0.239919 0.61499,-0.517401 1.0288,-0.369028 0.17841,0.06397 0.30157,0.229637 0.45233,0.344456 -0.39182,-0.252643 -0.73763,-0.918093 -1.17546,-0.757925 -0.35359,0.129344 0.38216,0.649568 0.54882,0.987163 0.1813,0.367263 0.33886,0.745998 0.4939,1.12509 0.51118,1.249754 0.39505,1.080275 0.83418,2.353617 0.12541,0.363717 0.26202,0.723485 0.39304,1.085226 0.50625,1.44168 1.01726,2.912935 1.84736,4.20802 0.1292,0.201443 0.2765,0.390591 0.4147,0.585888 0.1406,0.162624 0.2718,0.333761 0.4216,0.487874 0.7164,0.73695 2.8317,2.11218 2.9512,2.18994 0.1585,0.10315 0.3506,0.14733 0.5352,0.18818 0.5073,0.11222 0.639,0.0415 1.1478,-0.0383 0.1928,-0.0704 0.3939,-0.12137 0.5785,-0.21128 0.9366,-0.45626 1.5985,-1.30982 2.068,-2.21468 0.1437,-0.276948 0.2606,-0.566984 0.391,-0.850474 0.7357,-1.999867 1.1543,-4.098798 1.6147,-6.174558 0.2431,-1.213617 0.5475,-2.433399 0.6029,-3.674657 0.2063,-0.926433 0.8675,-0.920213 1.6844,-0.938663 0.4961,0.09207 0.6833,0.08925 1.1473,0.339921 0.2068,0.111715 0.7589,0.552667 0.5824,0.397484 -2.0252,-1.780276 -1.2799,-1.123675 -0.8383,-0.385622 0.1316,0.219969 0.237,0.454612 0.3555,0.681918 0.6561,1.585346 0.9331,3.293637 1.2128,4.977246 0.1177,0.604862 0.1505,1.221359 0.2275,1.830986 0.041,0.326538 0.118,0.652745 0.1846,0.975021 0.074,0.329787 0.1383,0.661345 0.2024,0.993058 0.3394,0.467511 0.9007,0.671587 1.3517,1.011732 0,0 0.052,0.02942 0.052,0.02942 v 0 c 0.3696,0.129734 0.7642,0.451438 1.1149,0.438352 0.032,-0.0013 0.059,-0.02652 0.088,-0.03978 -0.077,-0.336311 -0.1392,-0.675817 -0.2243,-1.010218 -0.08,-0.326166 -0.1446,-0.656966 -0.2263,-0.982472 -0.1406,-0.560197 -0.2964,-1.116606 -0.3753,-1.691167 -0.3121,-1.775423 -0.615,-3.574179 -1.4142,-5.209759 -0.1419,-0.246187 -0.2646,-0.504444 -0.4256,-0.738558 -0.1492,-0.216953 -0.3086,-0.431223 -0.5019,-0.610008 -0.5513,-0.509852 -1.821,-1.835793 -2.8659,-2.292564 -0.449,-0.196257 -0.7606,-0.230629 -1.2369,-0.324601 -0.1871,-0.0085 -0.3741,-0.03317 -0.5613,-0.0254 -0.5364,0.02225 -1.2039,0.168584 -1.5544,0.620567 -0.066,0.08481 -0.098,0.191172 -0.1465,0.286755 -0.039,0.106209 -0.091,0.208605 -0.1183,0.318624 -0.019,0.07546 -0.1399,0.974614 -0.1401,0.976202 -0.1273,0.817515 -0.2836,1.630645 -0.4284,2.445094 -0.4355,2.093582 -0.9132,4.190889 -1.6379,6.20563 -0.12,0.272621 -0.2237,0.553 -0.36,0.817864 -0.4226,0.821243 -1.0493,1.649787 -1.8947,2.070907 -0.1705,0.0849 -0.3569,0.13268 -0.5353,0.19902 -0.4839,0.0511 -0.5528,0.10564 -1.0258,-0.0278 -0.1604,-0.0453 -0.5857,-0.30177 -0.4632,-0.18867 0.4863,0.44886 1.0471,0.80948 1.5721,1.21231 0.1671,0.12819 -0.3418,-0.24742 -0.4982,-0.38836 -0.1672,-0.1506 -0.3136,-0.32279 -0.4703,-0.48417 -0.1464,-0.19138 -0.3021,-0.37593 -0.439,-0.57414 -0.8931,-1.292894 -1.4303,-2.78853 -2.0387,-4.22466 -0.4401,-1.148524 -0.9048,-2.287505 -1.37267,-3.425049 -0.0651,-0.158367 -0.79455,-1.925238 -0.95782,-2.115942 -0.66151,-0.772713 -1.45714,-1.419662 -2.18572,-2.129494 -0.18357,-0.0971 -0.34597,-0.256487 -0.55071,-0.291293 -0.42852,-0.07285 -0.82936,0.258776 -1.10762,0.509643 -0.73615,0.663689 -1.27095,1.519058 -1.77152,2.362441 -0.15613,0.32602 -0.32742,0.6452 -0.46836,0.978059 -0.46684,1.102455 -0.83447,2.308624 -0.62746,3.511957 z" />
      <path
         style="fill:#000000;fill-opacity:0.72020394;stroke:#000000;stroke-width:1;stroke-linecap:round;stroke-linejoin:round;stroke-miterlimit:2;stroke-dasharray:none;stroke-opacity:0.98631984;paint-order:markers stroke fill"
         id="path536"
         d="m 1015.8275,97.089221 c -3.1641,-1.844442 -1.594,-0.910945 -0.9699,-0.366742 0.371,0.323572 0.7078,0.678712 1.0413,1.039852 0.3559,0.349219 0.6239,0.767004 0.927,1.158359 0.9118,0.442442 1.7818,0.984433 2.7355,1.32732 0.106,0.0381 0.1373,-0.17876 0.2011,-0.271553 0.081,-0.117843 0.1563,-0.239591 0.2334,-0.36005 0.3111,-0.48577 0.6214,-0.970981 0.9403,-1.451708 0.1052,-0.154302 0.2296,-0.297101 0.3156,-0.462907 0.075,-0.144968 0.1168,-0.305295 0.1636,-0.461716 0.087,-0.291622 0.1675,-0.524915 -0.016,-0.815171 -0.1491,-0.236305 -0.3695,-0.419214 -0.5542,-0.628819 0,0 -0.05,-0.03366 -0.05,-0.03366 v 0 c -0.2671,-0.09565 -0.5225,-0.234413 -0.8014,-0.286954 -0.3419,-0.06443 -0.5348,0.09211 -0.7785,0.284038 -0.129,0.101542 -0.2631,0.200494 -0.3694,0.325517 -0.1212,0.14251 -0.2046,0.313214 -0.307,0.469823 -0.3476,0.524719 -0.6875,1.05691 -1.0531,1.569384 -0.088,0.123865 -0.176,0.248793 -0.2749,0.364382 -0.039,0.04578 -0.1885,0.08526 -0.1375,0.117395 0.8142,0.513205 1.6868,0.927214 2.5303,1.390822 -0.1617,-0.08434 -0.2708,-0.241321 -0.399,-0.370464 -0.2881,-0.290232 -0.5687,-0.586856 -0.8491,-0.884674 -1.3566,-1.334212 -2.4765,-2.1747 -4.2882,-3.02455 z" />
      <path
         style="fill:#000000;fill-opacity:0.72020394;stroke:#000000;stroke-width:1;stroke-linecap:round;stroke-linejoin:round;stroke-miterlimit:2;stroke-dasharray:none;stroke-opacity:0.98631984;paint-order:markers stroke fill"
         id="path537"
         d="m 1001.1849,80.681295 c -0.8566,0.160438 -1.50433,0.763547 -1.89684,1.527341 -0.10319,0.200774 -0.1687,0.418767 -0.25305,0.628147 -0.0909,0.576956 -0.17531,0.810115 -0.0752,1.3993 0.1075,0.632576 0.47016,1.415833 0.83719,1.939422 0.12644,0.180356 0.2842,0.336579 0.4263,0.50487 0.953,0.851408 1.5564,1.703276 2.6841,2.136037 1.0869,0.417076 2.1136,0.258889 3.2213,0.07094 0.98,-0.231619 1.7905,-0.741027 2.5176,-1.425102 0.3679,-0.346196 0.9143,-0.933331 1.1164,-1.419108 0.1277,-0.307062 0.1575,-0.646192 0.2363,-0.969288 -0.011,-0.323162 0.06,-0.659929 -0.034,-0.969486 -0.388,-1.285272 -3.1554,-3.069876 -3.4451,-3.212478 -0.314,-0.154594 -0.6294,0.307456 -0.9528,0.441333 -0.4206,0.174111 -0.8519,0.321347 -1.2778,0.482023 0,0 0.042,0.04299 0.042,0.04299 v 0 c 0.6024,0.04538 1.2203,-0.0069 1.8073,0.136139 1.2285,0.299431 3.1384,1.794499 1.036,-0.421635 -0.4192,-0.441862 1.507,1.88577 0.6242,1.717273 -0.045,0.278945 -0.036,0.572458 -0.1357,0.836829 -0.1015,0.268788 -0.2818,0.503005 -0.4563,0.731237 -0.5245,0.685893 -1.3721,1.371335 -2.1241,1.791113 -0.2302,0.128505 -0.4824,0.212955 -0.7236,0.319434 -0.2574,0.08034 -0.5094,0.181176 -0.7723,0.241011 -0.7027,0.159888 -1.4244,0.157285 -2.1066,-0.09023 -0.1924,-0.0698 -0.6594,-0.44177 -0.5528,-0.267049 0.2393,0.392382 0.654,0.645967 0.981,0.968952 -0.3887,-0.404694 -0.6154,-0.594789 -0.9062,-1.080617 -0.3548,-0.593008 -0.5653,-1.317686 -0.5472,-2.012786 0.01,-0.217977 0.063,-0.431456 0.095,-0.647184 0.074,-0.203536 0.1289,-0.415335 0.2227,-0.610613 0.3474,-0.722808 0.9656,-1.212573 1.7204,-1.448549 z" />
    </g>
    <g
       id="g552"
       transform="matrix(0.55563762,0,0,0.55563762,-476.30735,10.977149)"
       style="fill:#000000;fill-opacity:0.72020394;stroke:#000000;stroke-opacity:0.98631984">
      <path
         style="fill:#000000;fill-opacity:0.72020394;stroke:#000000;stroke-width:1;stroke-linecap:round;stroke-linejoin:round;stroke-miterlimit:2;stroke-dasharray:none;stroke-opacity:0.98631984;paint-order:markers stroke fill"
         id="path538"
         d="m 1032.5412,87.756877 c 0.1829,0.758333 0.3157,1.524797 0.5966,2.256838 0.2233,0.58175 0.3603,0.802645 0.651,1.356227 0.1525,0.204666 0.287,0.424083 0.4576,0.613998 0.6303,0.701897 2.3089,1.748462 2.7084,1.977866 0.2495,0.143245 1.0215,0.20393 1.3064,0.149458 0.2288,-0.04375 0.4366,-0.162748 0.6549,-0.244121 0.1824,-0.119223 0.3814,-0.216172 0.5471,-0.357674 1.0998,-0.939332 1.2934,-2.488808 1.4741,-3.826809 0.086,-1.579975 -0.016,-3.162562 0.018,-4.743193 0.027,-1.250746 0.076,-1.515404 0.1942,-2.77268 0.3284,-2.087036 1.0594,-4.09748 2.3475,-5.792893 0.8816,-1.16046 1.3951,-1.514986 2.4819,-2.469716 1.6502,-1.243026 3.511,-2.148176 5.5308,-2.596904 0.8996,-0.199858 1.3179,-0.209529 2.2097,-0.287917 1.1428,-0.01392 2.3127,-0.01857 3.4192,0.301561 0.2126,0.09642 0.432,0.176432 0.6507,0.257567 0.011,0.0043 0.033,0.01201 0.04,0.02019 0,0.0037 0,0.01826 0,0.01471 0.087,-0.08663 0.3239,-0.16785 0.2534,-0.268743 -1.5542,-2.222336 -1.0629,-2.095296 -2.1935,-2.31235 -0.834,0.0078 -1.5463,0.475139 -2.2108,0.92951 -0.8976,0.674669 -1.732,1.452203 -2.4285,2.335774 -0.1603,0.203359 -0.3078,0.416555 -0.4617,0.624829 -0.7186,1.176113 -1.3816,2.404785 -1.831,3.712329 -0.097,0.281551 -0.1748,0.569185 -0.2623,0.853776 -0.4041,1.484397 -0.5205,3.04623 -0.4118,4.580247 0.023,0.320395 0.075,0.63803 0.1122,0.957046 0.2004,1.325853 0.5933,2.61199 1.0546,3.868023 0.1234,0.335965 0.242,0.674309 0.3867,1.00167 0.1465,0.331531 0.324,0.648518 0.4859,0.972778 0.7386,1.129855 1.6244,2.19084 2.7335,2.977602 2.729,1.935737 1.8786,1.490316 3.7071,2.314175 0.6717,0.247119 1.0191,0.407816 1.7132,0.541999 0.231,0.04465 0.4825,0.167138 0.7011,0.08042 0.1406,-0.05575 0.109,-0.282176 0.1635,-0.423265 0.1717,-0.03191 0.3435,-0.06382 0.5153,-0.09574 0,0 -0.046,-0.03812 -0.046,-0.03812 v 0 c -1.6524,-0.350367 -0.031,0.05504 -2.2265,-0.795539 -0.2889,-0.111884 -0.5952,-0.172146 -0.8911,-0.263948 -0.9724,-0.301734 -0.7912,-0.251151 -1.7472,-0.628997 -0.2784,-0.154985 -1.0218,-0.723196 -0.8352,-0.464952 0.2713,0.375391 0.732,0.567968 1.1066,0.840414 0.2735,0.198988 -0.5458,-0.400806 -0.8035,-0.619974 -0.543,-0.461796 -0.9936,-0.924533 -1.4348,-1.484355 -0.2115,-0.268322 -0.3958,-0.556961 -0.5938,-0.83544 -0.4301,-0.618022 -0.7483,-1.031047 -1.0934,-1.704232 -0.616,-1.201377 -0.9384,-2.52975 -1.2123,-3.842292 -0.074,-0.509656 -0.2083,-1.365017 -0.2443,-1.884976 -0.083,-1.19402 0.053,-2.395181 0.3385,-3.554868 0.077,-0.27328 0.1435,-0.549952 0.2319,-0.81984 0.4208,-1.284269 1.0268,-2.508983 1.7929,-3.621109 0.1385,-0.196871 0.2689,-0.399759 0.4156,-0.590611 0.6929,-0.901451 1.5625,-1.649613 2.5667,-2.18368 0.7366,-0.306393 1.5891,-0.644819 2.3729,-0.29749 0.9217,0.696093 -0.7419,-0.547436 -1.7508,-2.070973 -0.067,-0.101891 0.1893,-0.154683 0.2853,-0.230277 0.01,-0.0059 -0.01,0.0358 -0.011,0.02635 -0.1377,0.0236 -0.2792,0.0329 -0.4067,0.09616 -0.3466,0.02943 -0.6745,0.0099 -1.0225,-0.0041 -0.7363,-0.02964 -1.4742,-0.02384 -2.2086,0.04459 -0.955,0.109045 -1.2379,0.111434 -2.2044,0.354848 -2.0323,0.511861 -3.9053,1.468208 -5.5547,2.757916 -1.1904,1.062562 -1.5185,1.256033 -2.4977,2.528081 -1.3214,1.716495 -2.1313,3.708453 -2.5397,5.826493 -0.072,0.467905 -0.1655,0.933055 -0.2169,1.403715 -0.225,2.058011 -0.026,4.141187 -0.2991,6.195827 -0.1727,1.339927 -0.3614,2.834336 -1.4084,3.811945 -0.1463,0.136681 -0.3228,0.237069 -0.4842,0.355605 -0.4159,0.119822 -0.6274,0.220419 -1.0817,0.174183 -0.207,-0.02106 -0.7031,-0.337764 -0.6049,-0.154297 0.1918,0.358415 0.6293,0.514842 0.9389,0.778346 0.4044,0.344294 -1.7081,-1.349931 -1.1374,-1.115952 -0.1353,-0.22747 -0.2877,-0.445537 -0.4057,-0.682413 -0.1662,-0.333542 -0.4016,-1.028229 -0.5216,-1.386795 -0.1174,-0.350711 -0.2418,-0.699498 -0.342,-1.055518 -0.033,-0.115549 -0.052,-0.234413 -0.078,-0.351618 z" />
      <path
         style="fill:#000000;fill-opacity:0.72020394;stroke:#000000;stroke-width:1;stroke-linecap:round;stroke-linejoin:round;stroke-miterlimit:2;stroke-dasharray:none;stroke-opacity:0.98631984;paint-order:markers stroke fill"
         id="path539"
         d="m 1045.2667,91.432815 c -0.1304,0.04907 -0.2656,0.08693 -0.3912,0.14722 -0.7967,0.382392 -1.539,0.953746 -2.0994,1.635292 -0.1787,0.217331 -0.331,0.455138 -0.4964,0.682707 -0.6456,1.021908 -1.0818,2.187908 -1.1164,3.408134 -0.022,0.777918 0.065,0.937678 0.2409,1.674654 0.1461,0.230219 0.2645,0.480566 0.4383,0.690655 0.1772,0.214133 0.3717,0.423353 0.6064,0.572163 1.4217,0.9014 2.078,1.51689 3.5234,1.62574 0.8472,0.0638 1.0576,-0.0403 1.874,-0.21248 1.1473,-0.44094 2.2126,-1.00128 2.5297,-2.297684 0.2009,-0.821309 0.074,-1.318014 -0.012,-2.146059 -0.1214,-0.371314 -0.1999,-0.759465 -0.364,-1.113944 -0.2683,-0.579379 -0.9158,-1.494319 -1.4131,-1.906037 -0.988,-0.818065 -1.5023,-0.976847 -2.5989,-1.476489 0,0 0.046,0.03824 0.046,0.03824 v 0 c 0.211,0.09367 0.4409,0.152966 0.633,0.281027 0.1058,0.07051 0.159,0.198429 0.2369,0.298879 0.1841,0.237339 0.3934,0.457565 0.549,0.714454 0.4192,0.691891 0.4596,1.051936 0.6731,1.826366 0.032,0.345151 0.097,0.688837 0.096,1.035457 0,0.608809 -0.1105,1.338458 -0.4161,1.883415 -0.4051,0.722525 -1.1977,1.101104 -1.9142,1.420055 -0.6733,0.16765 -0.9659,0.29591 -1.6699,0.25108 -0.2796,-0.0178 -0.9019,-0.42153 -0.8268,-0.1516 0.1137,0.40827 0.6973,0.48795 1.0024,0.78213 0.3955,0.38134 -1.8155,-1.248242 -1.1597,-1.171037 -0.205,-0.713964 -0.2987,-0.872066 -0.3153,-1.63522 -0.025,-1.167423 0.3351,-2.291866 0.9544,-3.271729 0.1615,-0.220406 0.3101,-0.450979 0.4847,-0.66122 0.6101,-0.73452 1.376,-1.291116 2.21,-1.740511 z" />
    </g>
    <g
       id="g559"
       transform="translate(-892.87733,-19.932667)"
       style="fill:#000000;fill-opacity:0.72020394;stroke:#000000;stroke-opacity:0.98631984">
      <g
         id="g556"
         transform="matrix(0.6515622,0,0,0.6515622,409.87003,-2.7971972)"
         style="fill:#000000;fill-opacity:0.72020394;stroke:#000000;stroke-opacity:0.98631984">
        <g
           id="g555"
           style="fill:#000000;fill-opacity:0.72020394;stroke:#000000;stroke-opacity:0.98631984">
          <path
             style="fill:#000000;fill-opacity:0.72020394;stroke:#000000;stroke-width:1;stroke-linecap:round;stroke-linejoin:round;stroke-miterlimit:2;stroke-dasharray:none;stroke-opacity:0.98631984;paint-order:markers stroke fill"
             id="path548"
             d="m 1015.1221,127.30903 c 2.5125,-0.18138 5.0343,-0.12745 7.5508,-0.0968 3.6937,0.0764 7.3836,0.26787 11.0705,0.49775 0.8831,0.0551 1.765,0.12933 2.6486,0.17452 0.7477,0.0382 1.4965,0.0505 2.2448,0.0757 2.1669,-0.43798 1.116,-0.2095 3.1538,-0.68058 0,0 -0.025,-0.0544 -0.025,-0.0544 v 0 c -2.6052,-0.72576 -1.2151,-0.34962 -4.1728,-1.11976 -0.8177,-0.0787 -1.6339,-0.17552 -2.4531,-0.23598 -0.8752,-0.0646 -1.7525,-0.0978 -2.629,-0.13908 -3.6646,-0.17273 -7.3346,-0.28799 -11.0035,-0.25895 -0.6609,0.0235 -1.3221,0.0391 -1.9826,0.0706 -1.8018,0.0859 -3.5998,0.2458 -5.3992,0.36842 z" />
          <path
             style="fill:#000000;fill-opacity:0.72020394;stroke:#000000;stroke-width:1;stroke-linecap:round;stroke-linejoin:round;stroke-miterlimit:2;stroke-dasharray:none;stroke-opacity:0.98631984;paint-order:markers stroke fill"
             id="path549"
             d="m 1013.063,123.33646 c 0.1287,-0.0216 0.2558,-0.0568 0.386,-0.0647 0.1857,-0.0113 0.3722,0.007 0.5583,0.007 0.3134,10e-4 0.6267,0.003 0.94,-0.002 1.2956,-0.0199 2.5899,-0.0877 3.8843,-0.14162 1.6764,-0.0646 3.3512,-0.17818 5.0289,-0.20803 0.3201,0.0358 0.6715,-0.0569 0.9872,0.032 0.039,-0.0538 0.08,0.0993 0.056,0.0729 -1.9545,-2.15977 -1.0964,-1.54374 -1.9163,-2.12599 -0.6064,-0.68532 -0.1819,-0.20169 1.8139,1.65766 0.032,0.0297 -0.078,-0.0429 -0.1059,-0.0764 -0.135,-0.1626 -0.1942,-0.43786 -0.2677,-0.62886 -0.1165,-0.49687 -0.037,-0.91331 0.056,-1.40559 0.116,-0.61434 0.2679,-1.14882 0.4724,-1.73979 0.4248,-1.05814 1.0794,-1.99152 1.9203,-2.76075 0.188,-0.17204 0.3898,-0.32847 0.5847,-0.49271 1.2256,-0.90615 2.6536,-1.49281 4.1207,-1.88351 0.2917,-0.0777 0.5898,-0.12922 0.8847,-0.19383 1.1134,-0.18436 2.2642,-0.27901 3.3772,-0.0315 0.6227,0.13848 0.7821,0.24376 1.3498,0.49919 0.4839,0.29523 0.9149,0.68298 1.2885,1.10907 0.1058,0.12068 0.373,0.52137 0.2916,0.38306 -1.2431,-2.11264 -1.2773,-2.27571 -0.9489,-1.37754 0.038,0.18524 0.134,0.97715 -0.1707,1.01263 -0.2663,-0.0979 0.1067,0.0341 -0.3242,-0.0886 -0.092,-0.0261 -0.1778,-0.0718 -0.2714,-0.0898 -0.5735,-0.11013 -1.1578,-0.0725 -1.7349,-0.038 -0.2872,0.0503 -0.5771,0.087 -0.8616,0.151 -0.3313,0.0746 -0.6567,0.17359 -0.984,0.26433 -0.9367,0.2597 -1.8481,0.55022 -2.7139,1.00132 -0.272,0.14173 -0.5289,0.31078 -0.7934,0.46617 -0.7377,0.52644 -1.579,1.24501 -1.5041,2.26068 0.015,0.20373 0.05,0.42059 0.1634,0.59066 0.588,0.88367 1.2799,1.69356 1.9199,2.54034 1.1614,0.81704 2.5119,1.19523 3.9061,1.37225 0.3853,0.0489 0.7726,0.0907 1.161,0.10121 0.4232,0.0114 0.8464,-0.0238 1.2696,-0.0358 1.7381,-0.0816 3.4709,-0.24768 5.2029,-0.4113 0.1798,-0.10821 0.4247,0.023 0.6114,-0.0613 0.3715,-0.16774 -0.1247,-0.84055 -0.3703,-1.32812 0,0 -0.033,-0.0504 -0.033,-0.0504 v 0 c -0.1619,-0.22347 -0.5918,-1.1172 -1.1105,-1.15927 -0.197,-0.016 -0.3862,0.13874 -0.585,0.096 -1.6935,0.24761 -3.3971,0.43803 -5.1076,0.51482 -1.7615,2.7e-4 -3.889,0.11774 -5.4578,-0.83586 -0.2179,-0.1325 -0.3982,-0.31887 -0.5973,-0.47831 0.3297,0.49037 0.6267,1.00449 0.9893,1.47111 0.1242,0.1598 -0.2216,-0.34753 -0.2691,-0.54426 -0.043,-0.17687 -0.036,-0.36878 0.01,-0.54582 0.1668,-0.70294 0.827,-1.10649 1.3767,-1.47746 0.2634,-0.14374 0.5205,-0.29962 0.7901,-0.43124 0.8863,-0.43267 1.905,-0.81776 2.8657,-1.04168 0.5089,-0.11862 1.1469,-0.16167 1.6661,-0.21067 0.5132,0.004 0.7677,-0.0377 1.2453,0.11193 0.1173,0.0368 0.2167,0.11698 0.3295,0.16592 0.098,0.0424 0.2004,0.0726 0.3011,0.10754 0.069,0.0239 0.1347,0.0629 0.2072,0.0689 0.074,0.006 0.1468,-0.0224 0.2202,-0.0336 0.061,-0.0381 0.1326,-0.0635 0.1838,-0.1143 0.2922,-0.28976 0.1779,-1.03125 0.096,-1.37419 -0.45,-1.22369 -0.1872,-0.58759 -1.6295,-2.7953 -0.1062,-0.1626 -0.5407,-0.55433 -0.6824,-0.65172 -0.3013,-0.2071 -0.805,-0.42978 -1.1281,-0.58348 -0.2205,-0.091 -0.4354,-0.19698 -0.6615,-0.27294 -1.3627,-0.45775 -2.8002,-0.37475 -4.1955,-0.13123 -0.5747,0.12645 -1.168,0.24063 -1.7285,0.42589 -1.2209,0.4035 -2.3902,0.9793 -3.4328,1.73213 -0.2182,0.17447 -0.4449,0.33887 -0.6547,0.52339 -0.9215,0.81044 -1.6597,1.80694 -2.147,2.93309 -0.2207,0.56221 -0.4442,1.13296 -0.5367,1.73438 -0.067,0.4375 -0.047,0.89312 -0.091,1.3332 0,0.11168 -0.018,0.22339 -0.013,0.33505 0.049,1.15925 1.1977,1.93291 2.1746,2.44977 0.9605,0.48182 -0.9952,-2.56511 -1.667,-1.90534 -0.3068,0.0562 -0.6364,-0.005 -0.9435,0.0584 -1.636,0.11546 -3.2725,0.2234 -4.9085,0.33769 -1.2511,0.0842 -2.5108,0.12968 -3.7561,0.28291 -3.3229,0.40885 0.8509,-0.0724 -1.4596,0.2577 -0.1016,0.0145 -0.2052,0.006 -0.3078,0.009 z" />
        </g>
        <path
           style="fill:#000000;fill-opacity:0.72020394;stroke:#000000;stroke-width:1;stroke-linecap:round;stroke-linejoin:round;stroke-miterlimit:2;stroke-dasharray:none;stroke-opacity:0.98631984;paint-order:markers stroke fill"
           id="path555"
           d="m 1028.7607,130.66302 c -0.6431,-0.15274 -1.3238,-0.27568 -1.985,-0.14646 -0.536,0.10473 -0.6691,0.23642 -1.132,0.50894 -0.155,0.14576 -0.3367,0.26757 -0.4651,0.43728 -0.4667,0.61681 -0.6796,1.45473 -0.6283,2.21835 0.046,0.68919 0.1803,0.87718 0.4348,1.49872 1.0199,1.31635 2.359,2.70109 4.1145,2.76049 0.6542,0.0221 0.7638,-0.0698 1.3524,-0.26732 0.157,-0.13148 0.3445,-0.23328 0.4708,-0.39445 0.5665,-0.72346 0.4094,-1.80798 0.052,-2.5767 -0.1057,-0.22716 -0.2559,-0.43085 -0.3838,-0.64627 -0.915,-0.98757 -0.3524,-0.45484 -1.7628,-1.51496 0,0 0.037,0.0469 0.037,0.0469 v 0 c -0.5049,-0.27932 -0.4898,-0.36674 -0.2623,0.0452 0.067,0.15188 0.1469,0.29895 0.2022,0.45565 0.2519,0.71395 0.3552,1.63958 -0.029,2.33358 -0.081,0.14697 -0.2165,0.25685 -0.3248,0.38527 -0.1554,0.0841 -0.2994,0.19397 -0.4662,0.25237 -0.3638,0.12738 -0.7988,0.13283 -1.1705,0.0497 -0.2135,-0.0477 -0.7142,-0.42052 -0.6166,-0.22472 0.207,0.4156 0.6182,0.70244 0.9919,0.978 0.2038,0.15029 -0.3149,-0.39663 -0.4724,-0.59495 -0.1004,-0.21991 -0.2304,-0.4286 -0.3013,-0.65975 -0.2477,-0.80838 -0.1184,-1.86073 0.5156,-2.4688 0.1424,-0.13657 0.3245,-0.22447 0.4868,-0.3367 0.1869,-0.0724 0.3665,-0.16723 0.5606,-0.21729 0.8141,-0.20997 1.7026,-0.0396 2.4626,0.27416 z" />
      </g>
    </g>
    <g
       id="g560"
       transform="translate(-926.91154,-21.548112)"
       style="fill:#000000;fill-opacity:0.72020394;stroke:#000000;stroke-opacity:0.98631984">
      <g
         id="g553"
         transform="matrix(0.67071432,0,0,0.67071432,339.05515,12.864205)"
         style="fill:#000000;fill-opacity:0.72020394;stroke:#000000;stroke-opacity:0.98631984">
        <path
           style="fill:#000000;fill-opacity:0.72020394;stroke:#000000;stroke-width:1;stroke-linecap:round;stroke-linejoin:round;stroke-miterlimit:2;stroke-dasharray:none;stroke-opacity:0.98631984;paint-order:markers stroke fill"
           id="path540"
           d="m 1066.4014,102.03356 c 1.0487,0.0828 2.0931,-0.24408 3.076,-0.57584 0.3388,-0.11436 0.6801,-0.22525 1.0064,-0.37164 0.3815,-0.17117 0.7418,-0.38611 1.1127,-0.57917 1.4687,-0.840338 2.6686,-1.785975 3.5455,-3.257955 0.523,-0.877747 0.5349,-1.077547 0.8494,-2.021483 0.3042,-1.127916 0.421,-2.307357 0.3825,-3.474511 -0.01,-0.279347 -0.081,-1.114475 -0.104,-1.402183 -0.096,-0.824577 -0.1058,-1.655733 -0.1832,-2.481479 0.035,-0.159438 -0.1148,-0.403654 -0.071,-0.558041 0.027,-0.01807 0.064,-0.01619 0.096,-0.01836 -0.451,-0.724665 -1.9351,-1.604076 -2.0487,-1.663105 -0.1415,-0.07358 -0.1015,0.303123 -0.1676,0.448353 -0.1593,0.350075 -0.359,0.680302 -0.5378,1.020828 -0.091,0.161182 -0.1841,0.32095 -0.2723,0.483547 -0.1859,0.342379 -0.363,0.6853 -0.5678,1.017053 -0.092,0.148757 -0.092,0.177523 -0.083,0.104479 0.4596,0.450265 0.8614,0.968481 1.3789,1.350796 0.077,0.0566 0.046,-0.185161 0.077,-0.275193 0.043,-0.124383 0.092,-0.246827 0.1451,-0.367226 0.2044,-0.463092 0.4461,-0.912892 0.6757,-1.363731 0.1365,-0.179822 0.5186,-1.110541 0.7187,-1.180436 0.1211,-0.04227 0.3861,0.16316 0.4336,0.192431 0.4185,0.364101 0.8795,0.671923 1.3227,1.002983 0.216,0.161274 0.5697,0.474265 0.8221,0.614698 0.068,0.03762 0.1469,0.0484 0.2204,0.0726 -0.026,-0.286266 -0.093,-0.262401 0.1279,-0.171627 0,0 -0.034,-0.04946 -0.034,-0.04946 v 0 c -0.5672,-0.563321 -0.233,-0.216579 -0.9789,-1.062611 -0.174,-0.170199 -0.3431,-0.345586 -0.5221,-0.510596 -0.484,-0.446233 -0.4276,-0.354803 -0.9205,-0.753184 -0.3793,-0.30649 -0.7337,-0.645726 -1.2092,-0.801894 -0.1022,-0.01746 -0.2032,-0.06075 -0.3065,-0.05237 -0.4426,0.03593 -0.8103,1.03437 -1.0019,1.35345 -0.075,0.137313 -0.4115,0.746733 -0.4848,0.892598 -0.1003,0.199649 -0.2671,0.580723 -0.3668,0.794001 -0.04,0.08654 -0.1763,0.177525 -0.1248,0.257974 0.3724,0.581465 0.8766,1.06702 1.3149,1.600528 0.1492,-0.114178 0.2257,-0.284556 0.3187,-0.445206 0.2364,-0.407977 0.4955,-0.800449 0.7293,-1.210096 0.02,-0.03134 0.5682,-0.89504 0.6053,-0.943147 0.084,-0.109495 0.3604,-0.183546 0.2859,-0.299889 -0.466,-0.728062 -1.4836,-2.765758 -1.7256,-1.935869 0.047,0.06611 0.1273,0.06114 0.1556,0.140774 0.087,0.197125 0.092,0.422408 0.1597,0.625885 0.2144,0.907974 0.4394,1.816336 0.5087,2.750299 0.135,1.666319 0.1698,3.346392 -0.2822,4.973794 -0.2669,0.806473 -0.3855,1.290253 -0.8045,2.041368 -0.5812,1.041779 -1.442,1.934705 -2.4023,2.635814 -0.3287,0.240017 -0.6916,0.429318 -1.0375,0.643975 -0.3563,0.185385 -0.7053,0.385715 -1.0691,0.556154 -0.9047,0.42393 -1.8462,0.72239 -2.8322,0.88222 -0.2446,0.0397 -0.4907,0.0811 -0.7385,0.0868 -0.1354,0.003 -0.2679,-0.0402 -0.4018,-0.0602 z" />
        <path
           style="fill:#000000;fill-opacity:0.72020394;stroke:#000000;stroke-width:1;stroke-linecap:round;stroke-linejoin:round;stroke-miterlimit:2;stroke-dasharray:none;stroke-opacity:0.98631984;paint-order:markers stroke fill"
           id="path541"
           d="m 1066.6182,83.414282 c 0.2598,-0.01127 0.5196,-0.02495 0.7795,-0.03382 0.3648,-0.01246 0.7302,-0.01154 1.0947,-0.03021 2.1786,-0.111586 4.3415,-0.39569 6.5026,-0.67931 2.3835,-0.612476 0.8411,-0.08773 2.86,-1.063241 0.3678,-0.177716 0.7469,-0.331153 1.1203,-0.496729 0,0 -0.032,-0.05057 -0.032,-0.05057 v 0 c -1.8131,-0.322218 -3.6231,-0.775219 -5.4807,-0.56319 -1.4125,0.174652 -2.2052,0.279046 -3.6208,0.428591 -3.4785,0.367477 0,-0.01011 -3.0382,0.264903 -0.4266,0.03864 -1.3516,0.153281 -1.8269,0.210884 z" />
        <path
           style="fill:#000000;fill-opacity:0.72020394;stroke:#000000;stroke-width:1;stroke-linecap:round;stroke-linejoin:round;stroke-miterlimit:2;stroke-dasharray:none;stroke-opacity:0.98631984;paint-order:markers stroke fill"
           id="path542"
           d="m 1067.2836,107.30082 c 0.6152,-0.0662 1.2471,-0.092 1.8556,-0.20611 0.3585,-0.0672 0.7089,-0.17158 1.0635,-0.25645 1.5114,-0.3617 1.1552,-0.27589 2.7408,-0.63924 1.4254,-0.36747 2.8716,-0.66822 4.3334,-0.84904 0.1373,-0.017 1.9173,-0.11071 2.1567,-0.35356 0.1757,-0.17821 0.035,-0.49923 0.053,-0.74884 0,0 -0.049,-0.0347 -0.049,-0.0347 v 0 c -0.5592,-0.27234 -1.0874,-0.62091 -1.6778,-0.81702 -0.7845,-0.26061 -1.6408,-0.10472 -2.4242,0.007 -1.4252,0.20298 -2.8259,0.53457 -4.2414,0.7913 -3.2713,0.70929 0.2248,-0.0446 -2.8022,0.5965 -0.3586,0.0759 -0.723,0.12891 -1.0747,0.23204 -0.5377,0.15768 -1.0746,0.43237 -1.5227,0.76761 z" />
      </g>
      <path
         style="fill:#000000;fill-opacity:0.72020394;stroke:#000000;stroke-width:1;stroke-linecap:round;stroke-linejoin:round;stroke-miterlimit:2;stroke-dasharray:none;stroke-opacity:0.98631984;paint-order:markers stroke fill"
         id="path557"
         d="m 1060.106,88.519943 c -0.7535,0.09119 -1.5541,0.182563 -2.2348,0.547307 -0.1276,0.06834 -0.241,0.160203 -0.3615,0.240305 -0.087,0.101362 -0.1917,0.190312 -0.2621,0.304083 -0.302,0.487505 -0.2303,1.15202 -0.038,1.665118 0.05,0.134742 0.129,0.257292 0.1935,0.385937 0.4497,0.533636 0.5694,0.707872 1.3381,1.243015 0.1218,0.0848 0.2832,0.09496 0.4303,0.114666 0.4826,0.06466 0.8896,-0.06437 1.3357,-0.217131 0.5028,-0.217434 0.8963,-0.575931 0.9771,-1.142047 0.017,-0.122185 0.031,-0.249928 0,-0.370258 -0.037,-0.164132 -0.1297,-0.310698 -0.1946,-0.466048 -0.5874,-0.667083 -0.3129,-0.36654 -0.8186,-0.90628 0,0 -0.024,-0.01797 -0.024,-0.01797 v 0 c 0.062,0.190209 0.088,0.115911 -0.093,0.217652 0.029,0.304014 0.09,0.608041 -0.026,0.904427 -0.1378,0.350973 -0.4571,0.568146 -0.7411,0.789197 -0.3664,0.183153 -0.7113,0.360397 -1.1364,0.325803 -0.1229,-0.01 -0.374,-0.205635 -0.3603,-0.08315 0.024,0.215924 0.2801,0.332695 0.4079,0.508429 0.081,0.111532 -0.1784,-0.210323 -0.2676,-0.315484 -0.065,-0.12246 -0.1432,-0.239096 -0.1963,-0.367376 -0.1902,-0.459177 -0.264,-1.082149 0.014,-1.525247 0.066,-0.105021 0.1649,-0.184959 0.2474,-0.277439 0.1153,-0.07534 0.2233,-0.163319 0.3461,-0.226012 0.1393,-0.07118 0.2879,-0.123122 0.436,-0.173607 0.5807,-0.198017 1.1951,-0.30948 1.8088,-0.307821 z" />
    </g>
    <g
       id="g558"
       transform="translate(-899.19002,-20.648892)"
       style="fill:#000000;fill-opacity:0.72020394;stroke:#000000;stroke-opacity:0.98631984">
      <g
         id="g554"
         transform="matrix(0.73459241,0,0,0.73459241,251.83468,10.791071)"
         style="fill:#000000;fill-opacity:0.72020394;stroke:#000000;stroke-opacity:0.98631984">
        <path
           style="fill:#000000;fill-opacity:0.72020394;stroke:#000000;stroke-width:1;stroke-linecap:round;stroke-linejoin:round;stroke-miterlimit:2;stroke-dasharray:none;stroke-opacity:0.98631984;paint-order:markers stroke fill"
           id="path543"
           d="m 1086.8905,91.525155 c 0.8971,0.02188 1.7859,-0.07397 2.6735,-0.189778 0.8138,-0.106174 1.1629,-0.140644 1.9464,-0.337121 0.2601,-0.06521 0.5141,-0.152448 0.7711,-0.228674 0.6992,-0.247841 1.3244,-0.614223 1.6131,-1.331698 0.1922,-0.47765 0.1542,-0.584208 0.1843,-1.103141 -0.019,-1.385824 0.033,-2.78148 0.3414,-4.138152 0.071,-0.313814 0.1672,-0.621546 0.2507,-0.932318 0.4587,-1.543235 1.1613,-2.984439 2.0965,-4.294573 0.1817,-0.254469 0.3827,-0.494604 0.5739,-0.741908 0.8598,-1.029943 1.8124,-1.926021 3.0426,-2.483366 0.2736,-0.07351 0.5542,-0.155183 0.8378,-0.183681 0,-5.3e-4 0.2409,0.01077 0.273,-0.02381 0.014,-0.01535 -0.024,-0.03437 -0.036,-0.05156 -0.359,-0.699331 -0.6615,-1.430642 -1.0769,-2.097995 -0.041,-0.06663 -0.057,0.14687 -0.095,0.215468 -0.068,0.121965 -0.1441,0.239147 -0.2221,0.354854 -0.4041,0.599488 -0.8259,1.188387 -1.233,1.786041 -0.8237,1.283113 -1.5559,2.641552 -2.1085,4.065318 -0.1049,0.270171 -0.1929,0.546586 -0.2894,0.81988 -0.2753,0.836443 -0.3814,1.703078 -0.4416,2.576645 -0.022,0.319399 -0.067,0.639029 -0.054,0.958932 0.025,0.640458 0.195,1.187145 0.3487,1.802005 0.1108,0.271772 0.2034,0.551691 0.3324,0.815314 0.1212,0.247692 0.2565,0.490127 0.4163,0.714864 0.8995,1.265177 1.6613,2.766147 3.1409,3.421581 0.1722,0.0763 0.3589,0.11452 0.5384,0.171781 0.1698,0.03189 0.3367,0.09096 0.5095,0.09568 0.093,0.0026 0.6781,-0.07753 0.7677,-0.217924 0.095,-0.149344 0.07,-0.347271 0.1049,-0.520907 0,0 -0.024,-0.05479 -0.024,-0.05479 v 0 c -0.1946,-0.183476 -0.365,-0.396613 -0.5838,-0.550421 -0.1605,-0.112779 -0.3586,-0.158888 -0.538,-0.238138 -0.7798,-0.344501 -0.3884,-0.186995 -1.2228,-0.485968 -0.5681,-0.28007 -0.8052,-0.362361 -1.3095,-0.74607 -0.1981,-0.150791 -0.6444,-0.72776 -0.5611,-0.493072 0.1833,0.517072 0.5914,0.924237 0.8796,1.391089 0.3062,0.496155 -1.3331,-2.014397 -0.8438,-1.532205 -0.3753,-1.239718 -0.2035,-0.546004 -0.4374,-1.827593 -0.054,-0.295349 -0.1429,-0.585975 -0.1654,-0.885357 -0.062,-0.831315 0.1702,-1.731362 0.2852,-2.548686 0.082,-0.279146 0.153,-0.562007 0.247,-0.837441 0.4937,-1.446575 1.2419,-2.793126 2.0813,-4.064444 0.3888,-0.564941 0.779,-1.125053 1.2232,-1.648651 0.085,-0.100242 0.1746,-0.196569 0.2647,-0.292261 0.061,-0.06462 0.2167,-0.104497 0.1881,-0.188558 -0.2663,-0.784188 -0.6808,-1.509937 -1.0213,-2.264905 -0.048,-0.02841 -0.091,-0.07017 -0.1444,-0.08523 -0.088,-0.02468 -0.2088,0.04615 -0.2802,0.07082 -0.282,0.09744 -0.5629,0.192868 -0.8205,0.349734 -1.2135,0.62924 -2.239,1.547535 -3.1094,2.597433 -0.4759,0.607957 -0.7225,0.893512 -1.1407,1.546969 -0.1712,0.267502 -0.3247,0.545923 -0.4823,0.821666 -0.5081,0.889103 -1.0145,1.787716 -1.3252,2.769179 -0.219,0.76126 -0.3319,1.092428 -0.4855,1.868506 -0.2097,1.059942 -0.2558,2.139493 -0.3718,3.211193 -0.014,0.107257 -0.11,0.865994 -0.1596,1.025948 -0.2129,0.685607 -0.8187,1.080924 -1.4355,1.36597 -0.2382,0.09116 -0.4725,0.192905 -0.7145,0.273476 -1.4419,0.480195 -2.9553,0.72604 -4.4673,0.835599 z" />
        <path
           style="fill:#000000;fill-opacity:0.72020394;stroke:#000000;stroke-width:1;stroke-linecap:round;stroke-linejoin:round;stroke-miterlimit:2;stroke-dasharray:none;stroke-opacity:0.98631984;paint-order:markers stroke fill"
           id="path544"
           d="m 1088.3733,98.052172 c 1.2832,-0.538168 2.4632,-1.321126 3.5183,-2.225358 0.2543,-0.217908 0.4922,-0.454231 0.7383,-0.681347 0.906,-0.817568 1.6054,-1.80785 2.2748,-2.816751 0.1609,0.655486 -0.095,-0.428011 -1.2319,-1.252077 -0.1002,-0.07266 -0.041,0.244517 -0.05,0.367953 -0.014,0.182166 -0.021,0.365054 -0.019,0.547725 0.01,0.611303 0.038,0.709837 0.119,1.313277 0.2919,0.344742 0.2392,0.886762 0.5166,1.237203 0.8707,1.100304 1.5172,2.208098 2.7478,2.763917 0.4442,0.200628 0.7345,0.232309 1.2067,0.328474 0.7574,0.06362 1.5429,0.194273 2.2943,0.0097 0.273,-0.06706 0.4407,-0.166965 0.6885,-0.290158 -0.06,-0.681969 -0.1397,-0.406516 0.094,-0.85557 0,0 -0.032,-0.05096 -0.032,-0.05096 v 0 c -0.7305,-0.323827 -0.3109,-0.110527 -1.2273,-0.698455 -0.5764,-0.100606 -1.1584,-0.188328 -1.7429,-0.227389 -0.7494,-0.05007 -0.4103,0.0213 -1.1671,-0.04919 -0.1974,-0.01839 -0.3932,-0.05181 -0.5897,-0.07771 -0.4609,-0.10241 -0.6749,-0.118642 -1.0999,-0.33855 -0.1733,-0.08971 -0.596,-0.483336 -0.4913,-0.31863 0.3551,0.558337 0.8532,1.011912 1.2627,1.531641 0.1497,0.190032 -0.3552,-0.336399 -0.4829,-0.541888 -0.147,-0.236566 -0.2204,-0.51155 -0.3306,-0.767326 -0.1,-0.271097 -0.2279,-0.533307 -0.2987,-0.813289 -0.1054,-0.416163 -0.078,-0.806233 -0.072,-1.225749 0,-0.143126 0.078,-0.305784 0.01,-0.429373 -1.0926,-1.870015 -0.726,-2.124957 -1.3484,-1.582018 -0.6042,1.07216 -1.3099,2.080572 -2.1913,2.94718 -0.2353,0.214318 -0.4633,0.437105 -0.7061,0.642959 -1.079,0.914725 -2.2922,1.700331 -3.621,2.196116 z" />
        <path
           style="fill:#000000;fill-opacity:0.72020394;stroke:#000000;stroke-width:1;stroke-linecap:round;stroke-linejoin:round;stroke-miterlimit:2;stroke-dasharray:none;stroke-opacity:0.98631984;paint-order:markers stroke fill"
           id="path545"
           d="m 1089.0615,103.54121 c 0.2888,-0.0448 0.5787,-0.0827 0.8664,-0.13446 0.8649,-0.15569 1.7215,-0.35469 2.5855,-0.51537 1.5751,-0.29296 3.1596,-0.51347 4.7468,-0.72808 0.5244,-0.0615 1.8187,-0.0744 2.3025,-0.5694 0.2234,-0.22863 0.2347,-0.59471 0.3521,-0.89206 0,0 -0.031,-0.0513 -0.031,-0.0513 v 0 c -0.4962,-0.23755 -0.9604,-0.55892 -1.4886,-0.712646 -1.0117,-0.294415 -1.7863,-0.0745 -2.7861,0.06867 -1.5836,0.22884 -3.1669,0.45987 -4.7484,0.70269 -0.9338,0.14337 -1.7496,0.25543 -2.6671,0.46673 -0.2706,0.0623 -0.5343,0.15133 -0.8014,0.22699 z" />
      </g>
      <path
         style="fill:#000000;fill-opacity:0.72020394;stroke:#000000;stroke-width:1;stroke-linecap:round;stroke-linejoin:round;stroke-miterlimit:2;stroke-dasharray:none;stroke-opacity:0.98631984;paint-order:markers stroke fill"
         id="path558"
         d="m 1056.4591,87.947666 c -0.1128,0.02487 -0.2301,0.03473 -0.3386,0.07459 -0.7378,0.270994 -1.3454,0.860189 -1.6113,1.604642 -0.071,0.199864 -0.089,0.415054 -0.1333,0.62258 0.01,0.21531 -0.012,0.432494 0.016,0.645928 0.046,0.343498 0.2152,0.855107 0.4015,1.152675 0.3819,0.609892 1.3082,1.155722 1.802,1.423398 0.1926,0.104426 0.4284,0.09205 0.6426,0.138081 0.4268,-0.01455 0.8948,0.02474 1.2872,-0.204793 0.7227,-0.422685 0.8966,-1.312198 0.5137,-2.035556 -0.1956,-0.369681 -0.522,-0.653693 -0.7829,-0.980538 0,0 -0.024,-0.01786 -0.024,-0.01786 v 0 c -0.1043,0.548925 -0.066,0.227573 -0.063,0.968864 -0.094,0.520504 -0.2621,0.851988 -0.7167,1.135065 -0.3251,0.202351 -0.7841,0.222084 -1.1456,0.269066 -0.1865,-0.03762 -0.4658,-0.278482 -0.5593,-0.112872 -0.092,0.162634 0.5127,0.540192 0.4035,0.388716 -0.1224,-0.169683 -0.3168,-0.27763 -0.4435,-0.444125 -0.3986,-0.523771 -0.5167,-1.146661 -0.5051,-1.789189 0.1003,-0.472466 0.1046,-0.715595 0.373,-1.126577 0.3589,-0.549466 0.9657,-0.890167 1.5883,-1.041659 z" />
    </g>
    <text
       xml:space="preserve"
       style="font-size:4.23333px;line-height:1.25;font-family:Euphorigenic;-inkscape-font-specification:'Euphorigenic, Normal';font-variant-caps:small-caps;letter-spacing:0px;word-spacing:0px;stroke-width:0.264583"
       x="13.968085"
       y="80.504036"
       id="text560"><tspan
         id="tspan560"
         style="stroke-width:0.264583"
         x="13.968085"
         y="80.504036">Ondée</tspan></text>
    <text
       xml:space="preserve"
       style="font-size:4.23333px;line-height:1.25;font-family:Euphorigenic;-inkscape-font-specification:'Euphorigenic, Normal';font-variant-caps:small-caps;letter-spacing:0px;word-spacing:0px;stroke-width:0.264583"
       x="42.970589"
       y="80.529442"
       id="text561"><tspan
         id="tspan561"
         style="stroke-width:0.264583"
         x="42.970589"
         y="80.529442">Flux</tspan></text>
    <text
       xml:space="preserve"
       style="font-size:4.23333px;line-height:1.25;font-family:Euphorigenic;-inkscape-font-specification:'Euphorigenic, Normal';font-variant-caps:small-caps;letter-spacing:0px;word-spacing:0px;stroke-width:0.264583"
       x="68.975899"
       y="80.457466"
       id="text562"><tspan
         id="tspan562"
         style="stroke-width:0.264583"
         x="68.975899"
         y="80.457466">Courant</tspan></text>
    <text
       xml:space="preserve"
       style="font-size:4.23333px;line-height:1.25;font-family:Euphorigenic;-inkscape-font-specification:'Euphorigenic, Normal';font-variant-caps:small-caps;letter-spacing:0px;word-spacing:0px;stroke-width:0.264583"
       x="100.64539"
       y="80.357979"
       id="text563"><tspan
         id="tspan563"
         style="stroke-width:0.264583"
         x="100.64539"
         y="80.357979">Vague</tspan></text>
    <text
       xml:space="preserve"
       style="font-size:4.23333px;line-height:1.25;font-family:Euphorigenic;-inkscape-font-specification:'Euphorigenic, Normal';font-variant-caps:small-caps;letter-spacing:0px;word-spacing:0px;stroke-width:0.264583"
       x="129.39392"
       y="80.459587"
       id="text564"><tspan
         id="tspan564"
         style="stroke-width:0.264583"
         x="129.39392"
         y="80.459587">Marée</tspan></text>
    <text
       xml:space="preserve"
       style="font-size:4.23333px;line-height:1.25;font-family:Euphorigenic;-inkscape-font-specification:'Euphorigenic, Normal';font-variant-caps:small-caps;letter-spacing:0px;word-spacing:0px;stroke-width:0.264583"
       x="158.43018"
       y="80.459587"
       id="text565"><tspan
         id="tspan565"
         style="stroke-width:0.264583"
         x="158.43018"
         y="80.459587">Ras</tspan></text>
    <text
       xml:space="preserve"
       style="font-size:4.23333px;line-height:1.25;font-family:Euphorigenic;-inkscape-font-specification:'Euphorigenic, Normal';font-variant-caps:small-caps;letter-spacing:0px;word-spacing:0px;stroke-width:0.264583"
       x="183.91907"
       y="80.552711"
       id="text566"><tspan
         id="tspan566"
         style="stroke-width:0.264583"
         x="183.91907"
         y="80.552711">Déferlante</tspan></text>
  </g>
</svg>
