<?xml version="1.0" encoding="UTF-8" standalone="no"?>
<!-- Created with Inkscape (http://www.inkscape.org/) -->

<svg
   width="19.643351mm"
   height="14.756848mm"
   viewBox="0 0 19.643351 14.756848"
   version="1.1"
   id="svg1"
   xmlns="http://www.w3.org/2000/svg"
   xmlns:svg="http://www.w3.org/2000/svg">
  <defs
     id="defs1" />
  <g
     id="layer1"
     transform="translate(-64.253244,-51.083277)">
    <g
       id="g551"
       transform="matrix(0.64466899,0,0,0.64466899,-574.96141,-0.60712026)"
       style="fill:#ffffff;fill-opacity:0.760128;stroke:#dddddd;stroke-opacity:0.894658">
      <path

         id="path535"
         d="m 994.04743,96.560557 c -0.12901,-0.768443 -0.0821,-1.569318 0.13136,-2.320155 0.19987,-0.702744 0.44337,-1.193176 0.73684,-1.860569 0.45879,-0.841846 0.97639,-1.66852 1.7221,-2.289344 0.28818,-0.239919 0.61499,-0.517401 1.0288,-0.369028 0.17841,0.06397 0.30157,0.229637 0.45233,0.344456 -0.39182,-0.252643 -0.73763,-0.918093 -1.17546,-0.757925 -0.35359,0.129344 0.38216,0.649568 0.54882,0.987163 0.1813,0.367263 0.33886,0.745998 0.4939,1.12509 0.51118,1.249754 0.39505,1.080275 0.83418,2.353617 0.12541,0.363717 0.26202,0.723485 0.39304,1.085226 0.50625,1.44168 1.01726,2.912935 1.84736,4.20802 0.1292,0.201443 0.2765,0.390591 0.4147,0.585888 0.1406,0.162624 0.2718,0.333761 0.4216,0.487874 0.7164,0.73695 2.8317,2.11218 2.9512,2.18994 0.1585,0.10315 0.3506,0.14733 0.5352,0.18818 0.5073,0.11222 0.639,0.0415 1.1478,-0.0383 0.1928,-0.0704 0.3939,-0.12137 0.5785,-0.21128 0.9366,-0.45626 1.5985,-1.30982 2.068,-2.21468 0.1437,-0.276948 0.2606,-0.566984 0.391,-0.850474 0.7357,-1.999867 1.1543,-4.098798 1.6147,-6.174558 0.2431,-1.213617 0.5475,-2.433399 0.6029,-3.674657 0.2063,-0.926433 0.8675,-0.920213 1.6844,-0.938663 0.4961,0.09207 0.6833,0.08925 1.1473,0.339921 0.2068,0.111715 0.7589,0.552667 0.5824,0.397484 -2.0252,-1.780276 -1.2799,-1.123675 -0.8383,-0.385622 0.1316,0.219969 0.237,0.454612 0.3555,0.681918 0.6561,1.585346 0.9331,3.293637 1.2128,4.977246 0.1177,0.604862 0.1505,1.221359 0.2275,1.830986 0.041,0.326538 0.118,0.652745 0.1846,0.975021 0.074,0.329787 0.1383,0.661345 0.2024,0.993058 0.3394,0.467511 0.9007,0.671587 1.3517,1.011732 0,0 0.052,0.02942 0.052,0.02942 v 0 c 0.3696,0.129734 0.7642,0.451438 1.1149,0.438352 0.032,-0.0013 0.059,-0.02652 0.088,-0.03978 -0.077,-0.336311 -0.1392,-0.675817 -0.2243,-1.010218 -0.08,-0.326166 -0.1446,-0.656966 -0.2263,-0.982472 -0.1406,-0.560197 -0.2964,-1.116606 -0.3753,-1.691167 -0.3121,-1.775423 -0.615,-3.574179 -1.4142,-5.209759 -0.1419,-0.246187 -0.2646,-0.504444 -0.4256,-0.738558 -0.1492,-0.216953 -0.3086,-0.431223 -0.5019,-0.610008 -0.5513,-0.509852 -1.821,-1.835793 -2.8659,-2.292564 -0.449,-0.196257 -0.7606,-0.230629 -1.2369,-0.324601 -0.1871,-0.0085 -0.3741,-0.03317 -0.5613,-0.0254 -0.5364,0.02225 -1.2039,0.168584 -1.5544,0.620567 -0.066,0.08481 -0.098,0.191172 -0.1465,0.286755 -0.039,0.106209 -0.091,0.208605 -0.1183,0.318624 -0.019,0.07546 -0.1399,0.974614 -0.1401,0.976202 -0.1273,0.817515 -0.2836,1.630645 -0.4284,2.445094 -0.4355,2.093582 -0.9132,4.190889 -1.6379,6.20563 -0.12,0.272621 -0.2237,0.553 -0.36,0.817864 -0.4226,0.821243 -1.0493,1.649787 -1.8947,2.070907 -0.1705,0.0849 -0.3569,0.13268 -0.5353,0.19902 -0.4839,0.0511 -0.5528,0.10564 -1.0258,-0.0278 -0.1604,-0.0453 -0.5857,-0.30177 -0.4632,-0.18867 0.4863,0.44886 1.0471,0.80948 1.5721,1.21231 0.1671,0.12819 -0.3418,-0.24742 -0.4982,-0.38836 -0.1672,-0.1506 -0.3136,-0.32279 -0.4703,-0.48417 -0.1464,-0.19138 -0.3021,-0.37593 -0.439,-0.57414 -0.8931,-1.292894 -1.4303,-2.78853 -2.0387,-4.22466 -0.4401,-1.148524 -0.9048,-2.287505 -1.37267,-3.425049 -0.0651,-0.158367 -0.79455,-1.925238 -0.95782,-2.115942 -0.66151,-0.772713 -1.45714,-1.419662 -2.18572,-2.129494 -0.18357,-0.0971 -0.34597,-0.256487 -0.55071,-0.291293 -0.42852,-0.07285 -0.82936,0.258776 -1.10762,0.509643 -0.73615,0.663689 -1.27095,1.519058 -1.77152,2.362441 -0.15613,0.32602 -0.32742,0.6452 -0.46836,0.978059 -0.46684,1.102455 -0.83447,2.308624 -0.62746,3.511957 z" />
      <path

         id="path536"
         d="m 1015.8275,97.089221 c -3.1641,-1.844442 -1.594,-0.910945 -0.9699,-0.366742 0.371,0.323572 0.7078,0.678712 1.0413,1.039852 0.3559,0.349219 0.6239,0.767004 0.927,1.158359 0.9118,0.442442 1.7818,0.984433 2.7355,1.32732 0.106,0.0381 0.1373,-0.17876 0.2011,-0.271553 0.081,-0.117843 0.1563,-0.239591 0.2334,-0.36005 0.3111,-0.48577 0.6214,-0.970981 0.9403,-1.451708 0.1052,-0.154302 0.2296,-0.297101 0.3156,-0.462907 0.075,-0.144968 0.1168,-0.305295 0.1636,-0.461716 0.087,-0.291622 0.1675,-0.524915 -0.016,-0.815171 -0.1491,-0.236305 -0.3695,-0.419214 -0.5542,-0.628819 0,0 -0.05,-0.03366 -0.05,-0.03366 v 0 c -0.2671,-0.09565 -0.5225,-0.234413 -0.8014,-0.286954 -0.3419,-0.06443 -0.5348,0.09211 -0.7785,0.284038 -0.129,0.101542 -0.2631,0.200494 -0.3694,0.325517 -0.1212,0.14251 -0.2046,0.313214 -0.307,0.469823 -0.3476,0.524719 -0.6875,1.05691 -1.0531,1.569384 -0.088,0.123865 -0.176,0.248793 -0.2749,0.364382 -0.039,0.04578 -0.1885,0.08526 -0.1375,0.117395 0.8142,0.513205 1.6868,0.927214 2.5303,1.390822 -0.1617,-0.08434 -0.2708,-0.241321 -0.399,-0.370464 -0.2881,-0.290232 -0.5687,-0.586856 -0.8491,-0.884674 -1.3566,-1.334212 -2.4765,-2.1747 -4.2882,-3.02455 z" />
      <path

         id="path537"
         d="m 1001.1849,80.681295 c -0.8566,0.160438 -1.50433,0.763547 -1.89684,1.527341 -0.10319,0.200774 -0.1687,0.418767 -0.25305,0.628147 -0.0909,0.576956 -0.17531,0.810115 -0.0752,1.3993 0.1075,0.632576 0.47016,1.415833 0.83719,1.939422 0.12644,0.180356 0.2842,0.336579 0.4263,0.50487 0.953,0.851408 1.5564,1.703276 2.6841,2.136037 1.0869,0.417076 2.1136,0.258889 3.2213,0.07094 0.98,-0.231619 1.7905,-0.741027 2.5176,-1.425102 0.3679,-0.346196 0.9143,-0.933331 1.1164,-1.419108 0.1277,-0.307062 0.1575,-0.646192 0.2363,-0.969288 -0.011,-0.323162 0.06,-0.659929 -0.034,-0.969486 -0.388,-1.285272 -3.1554,-3.069876 -3.4451,-3.212478 -0.314,-0.154594 -0.6294,0.307456 -0.9528,0.441333 -0.4206,0.174111 -0.8519,0.321347 -1.2778,0.482023 0,0 0.042,0.04299 0.042,0.04299 v 0 c 0.6024,0.04538 1.2203,-0.0069 1.8073,0.136139 1.2285,0.299431 3.1384,1.794499 1.036,-0.421635 -0.4192,-0.441862 1.507,1.88577 0.6242,1.717273 -0.045,0.278945 -0.036,0.572458 -0.1357,0.836829 -0.1015,0.268788 -0.2818,0.503005 -0.4563,0.731237 -0.5245,0.685893 -1.3721,1.371335 -2.1241,1.791113 -0.2302,0.128505 -0.4824,0.212955 -0.7236,0.319434 -0.2574,0.08034 -0.5094,0.181176 -0.7723,0.241011 -0.7027,0.159888 -1.4244,0.157285 -2.1066,-0.09023 -0.1924,-0.0698 -0.6594,-0.44177 -0.5528,-0.267049 0.2393,0.392382 0.654,0.645967 0.981,0.968952 -0.3887,-0.404694 -0.6154,-0.594789 -0.9062,-1.080617 -0.3548,-0.593008 -0.5653,-1.317686 -0.5472,-2.012786 0.01,-0.217977 0.063,-0.431456 0.095,-0.647184 0.074,-0.203536 0.1289,-0.415335 0.2227,-0.610613 0.3474,-0.722808 0.9656,-1.212573 1.7204,-1.448549 z" />
    </g>
  </g>
</svg>
