<?xml version="1.0" encoding="UTF-8" standalone="no"?>
<!-- Created with Inkscape (http://www.inkscape.org/) -->

<svg
   width="8.8904877mm"
   height="15.90549mm"
   viewBox="0 0 8.8904877 15.90549"
   version="1.1"
   id="svg1"
   xmlns="http://www.w3.org/2000/svg"
   xmlns:svg="http://www.w3.org/2000/svg">
  <defs
     id="defs1" />
  <g
     id="layer1"
     transform="translate(-13.166395,-50.508955)">
    <g
       id="g549"
       transform="matrix(0.63811252,0,0,0.63811252,-587.83844,1.6717727)"
       style="fill:#ffffff;fill-opacity:0.760128;stroke:#dddddd;stroke-opacity:0.894658">
      <path

         id="path529"
         d="m 947.85298,90.635107 c -0.35288,-0.03001 -0.72017,-0.08097 -1.07172,-0.0024 -0.47837,0.106788 -0.90078,0.364083 -1.31358,0.613786 -0.68117,0.594357 -1.10725,1.357267 -1.28521,2.242034 -0.0414,0.20579 -0.0592,0.415629 -0.0888,0.623443 -0.0837,1.246283 0.13996,2.493364 0.7721,3.581786 0.11446,0.197075 0.25345,0.378857 0.38016,0.568288 0.41806,0.535747 0.93808,0.924909 1.52953,1.246955 1.7849,0.971851 1.76702,1.119971 3.3171,1.414871 0.98584,0.0831 2.06338,0.0513 2.9277,-0.49978 0.18095,-0.11539 0.3307,-0.27364 0.49607,-0.41046 0.33316,-0.385042 0.5548,-0.558937 0.70024,-1.074594 0.24633,-0.873403 0.0743,-1.88115 -0.1647,-2.733006 -0.0893,-0.318404 -0.21881,-0.624157 -0.32822,-0.936238 -0.40288,-0.838631 -0.90627,-1.794732 -1.66801,-2.372818 -0.38595,-0.292891 -0.8283,-0.502854 -1.24246,-0.754282 0,0 -0.0556,-0.02252 -0.0556,-0.02252 v 0 c -0.11396,0.394597 -0.0871,0.12342 0.26016,0.718569 0.49832,0.85404 0.33788,0.565292 0.75848,1.511633 0.43625,1.275826 0.986,2.840336 0.28454,4.132032 -0.0937,0.17262 -0.23117,0.317648 -0.34677,0.476472 -0.24145,0.227002 -0.56049,0.563746 -0.86857,0.715257 -0.61674,0.303294 -1.5271,0.262964 -2.18691,0.175453 -0.19146,-0.04214 -0.38574,-0.07315 -0.57441,-0.126421 -0.19368,-0.05468 -0.70038,-0.350848 -0.57074,-0.196911 0.23471,0.278707 0.62024,0.384337 0.91221,0.602354 0.17375,0.12975 -0.37711,-0.215123 -0.55661,-0.336815 -0.54716,-0.370946 -0.53869,-0.407752 -1.00123,-0.874893 -0.13272,-0.183483 -0.27919,-0.357743 -0.3981,-0.550447 -0.62044,-1.005485 -0.87505,-2.193184 -0.82819,-3.364232 0.0337,-0.197147 0.0564,-0.396518 0.1012,-0.591437 0.14462,-0.628512 0.43545,-1.327531 0.92601,-1.768075 0.11899,-0.106836 0.26072,-0.185232 0.39106,-0.27785 0.14017,-0.07257 0.27421,-0.158475 0.4205,-0.217717 0.64095,-0.259541 1.35327,-0.238784 2.02015,-0.108794 z" />
      <path

         id="path530"
         d="m 943.84981,88.899639 c 1.18184,-0.97936 2.10642,-2.213441 2.99825,-3.450447 0.78949,-1.168897 1.47641,-2.405936 2.0551,-3.692239 0.0617,-0.137121 0.60434,-1.432693 0.68191,-1.617565 0.0847,-0.211243 0.1678,-0.423114 0.254,-0.633732 0.3269,-0.79855 0.0906,-0.187609 0.35224,-0.865524 0.008,-0.0208 0.12071,-0.35065 0.17069,-0.39003 0.0209,-0.0164 -0.005,0.05276 -0.007,0.07913 -0.47744,-0.326514 -0.91901,-0.713012 -1.43238,-0.979543 -0.0992,-0.0515 0.0955,0.202327 0.13603,0.306496 0.0625,0.160573 0.11334,0.325427 0.17272,0.48717 0.28014,0.76318 0.592,1.511173 0.91051,2.25898 0.75091,1.850671 1.72119,3.59944 2.80431,5.273813 0.55716,0.916421 1.31101,1.508236 2.1218,2.178492 0,0 0.0524,0.02921 0.0524,0.02921 v 0 c 0.29231,-0.266028 0.14708,-0.352909 -0.0693,-0.695582 -0.12121,-0.19195 -0.25411,-0.376256 -0.38116,-0.564383 -1.14919,-1.695873 -2.19022,-3.458352 -3.03004,-5.330613 -0.30739,-0.73343 -0.5929,-1.465082 -0.85648,-2.214951 -0.0525,-0.149519 -0.11155,-0.296783 -0.16134,-0.447244 -0.0342,-0.103291 -0.0116,-0.23845 -0.0904,-0.313619 -0.49077,-0.468997 -1.05399,-0.855773 -1.58099,-1.28366 -0.039,0.02975 -0.0904,0.04802 -0.11689,0.08924 -0.0308,0.04777 -0.0312,0.109249 -0.0462,0.164055 -0.0251,0.09224 -0.0492,0.1848 -0.0743,0.277063 -0.14483,0.532271 -0.27676,1.068846 -0.47125,1.58613 -0.095,0.25932 -0.18132,0.521988 -0.28498,0.777962 -0.64413,1.590429 -1.48752,3.094964 -2.44946,4.513371 -0.93332,1.28098 -1.89167,2.58219 -3.1599,3.555021 z" />
    </g>
  </g>
</svg>
