<?xml version="1.0" encoding="UTF-8" standalone="no"?>
<!-- Created with Inkscape (http://www.inkscape.org/) -->

<svg
   width="10.426826mm"
   height="27.054943mm"
   viewBox="0 0 10.426826 27.054943"
   version="1.1"
   id="svg1"
   xmlns="http://www.w3.org/2000/svg"
   xmlns:svg="http://www.w3.org/2000/svg">
  <defs
     id="defs1" />
  <g
     id="layer1"
     transform="translate(-126.1034,-44.93423)">
    <g
       id="g560"
       transform="translate(-926.91154,-21.548112)">
             <g
         id="g553"
         transform="matrix(0.67071432,0,0,0.67071432,339.05515,12.864205)"
         style="fill:#ffffff;fill-opacity:0.760128;stroke:#dddddd;stroke-opacity:0.894658"
             >
        <path
           id="path540"
           d="m 1066.4014,102.03356 c 1.0487,0.0828 2.0931,-0.24408 3.076,-0.57584 0.3388,-0.11436 0.6801,-0.22525 1.0064,-0.37164 0.3815,-0.17117 0.7418,-0.38611 1.1127,-0.57917 1.4687,-0.840338 2.6686,-1.785975 3.5455,-3.257955 0.523,-0.877747 0.5349,-1.077547 0.8494,-2.021483 0.3042,-1.127916 0.421,-2.307357 0.3825,-3.474511 -0.01,-0.279347 -0.081,-1.114475 -0.104,-1.402183 -0.096,-0.824577 -0.1058,-1.655733 -0.1832,-2.481479 0.035,-0.159438 -0.1148,-0.403654 -0.071,-0.558041 0.027,-0.01807 0.064,-0.01619 0.096,-0.01836 -0.451,-0.724665 -1.9351,-1.604076 -2.0487,-1.663105 -0.1415,-0.07358 -0.1015,0.303123 -0.1676,0.448353 -0.1593,0.350075 -0.359,0.680302 -0.5378,1.020828 -0.091,0.161182 -0.1841,0.32095 -0.2723,0.483547 -0.1859,0.342379 -0.363,0.6853 -0.5678,1.017053 -0.092,0.148757 -0.092,0.177523 -0.083,0.104479 0.4596,0.450265 0.8614,0.968481 1.3789,1.350796 0.077,0.0566 0.046,-0.185161 0.077,-0.275193 0.043,-0.124383 0.092,-0.246827 0.1451,-0.367226 0.2044,-0.463092 0.4461,-0.912892 0.6757,-1.363731 0.1365,-0.179822 0.5186,-1.110541 0.7187,-1.180436 0.1211,-0.04227 0.3861,0.16316 0.4336,0.192431 0.4185,0.364101 0.8795,0.671923 1.3227,1.002983 0.216,0.161274 0.5697,0.474265 0.8221,0.614698 0.068,0.03762 0.1469,0.0484 0.2204,0.0726 -0.026,-0.286266 -0.093,-0.262401 0.1279,-0.171627 0,0 -0.034,-0.04946 -0.034,-0.04946 v 0 c -0.5672,-0.563321 -0.233,-0.216579 -0.9789,-1.062611 -0.174,-0.170199 -0.3431,-0.345586 -0.5221,-0.510596 -0.484,-0.446233 -0.4276,-0.354803 -0.9205,-0.753184 -0.3793,-0.30649 -0.7337,-0.645726 -1.2092,-0.801894 -0.1022,-0.01746 -0.2032,-0.06075 -0.3065,-0.05237 -0.4426,0.03593 -0.8103,1.03437 -1.0019,1.35345 -0.075,0.137313 -0.4115,0.746733 -0.4848,0.892598 -0.1003,0.199649 -0.2671,0.580723 -0.3668,0.794001 -0.04,0.08654 -0.1763,0.177525 -0.1248,0.257974 0.3724,0.581465 0.8766,1.06702 1.3149,1.600528 0.1492,-0.114178 0.2257,-0.284556 0.3187,-0.445206 0.2364,-0.407977 0.4955,-0.800449 0.7293,-1.210096 0.02,-0.03134 0.5682,-0.89504 0.6053,-0.943147 0.084,-0.109495 0.3604,-0.183546 0.2859,-0.299889 -0.466,-0.728062 -1.4836,-2.765758 -1.7256,-1.935869 0.047,0.06611 0.1273,0.06114 0.1556,0.140774 0.087,0.197125 0.092,0.422408 0.1597,0.625885 0.2144,0.907974 0.4394,1.816336 0.5087,2.750299 0.135,1.666319 0.1698,3.346392 -0.2822,4.973794 -0.2669,0.806473 -0.3855,1.290253 -0.8045,2.041368 -0.5812,1.041779 -1.442,1.934705 -2.4023,2.635814 -0.3287,0.240017 -0.6916,0.429318 -1.0375,0.643975 -0.3563,0.185385 -0.7053,0.385715 -1.0691,0.556154 -0.9047,0.42393 -1.8462,0.72239 -2.8322,0.88222 -0.2446,0.0397 -0.4907,0.0811 -0.7385,0.0868 -0.1354,0.003 -0.2679,-0.0402 -0.4018,-0.0602 z" />
        <path

           id="path541"
           d="m 1066.6182,83.414282 c 0.2598,-0.01127 0.5196,-0.02495 0.7795,-0.03382 0.3648,-0.01246 0.7302,-0.01154 1.0947,-0.03021 2.1786,-0.111586 4.3415,-0.39569 6.5026,-0.67931 2.3835,-0.612476 0.8411,-0.08773 2.86,-1.063241 0.3678,-0.177716 0.7469,-0.331153 1.1203,-0.496729 0,0 -0.032,-0.05057 -0.032,-0.05057 v 0 c -1.8131,-0.322218 -3.6231,-0.775219 -5.4807,-0.56319 -1.4125,0.174652 -2.2052,0.279046 -3.6208,0.428591 -3.4785,0.367477 0,-0.01011 -3.0382,0.264903 -0.4266,0.03864 -1.3516,0.153281 -1.8269,0.210884 z" />
        <path

           id="path542"
           d="m 1067.2836,107.30082 c 0.6152,-0.0662 1.2471,-0.092 1.8556,-0.20611 0.3585,-0.0672 0.7089,-0.17158 1.0635,-0.25645 1.5114,-0.3617 1.1552,-0.27589 2.7408,-0.63924 1.4254,-0.36747 2.8716,-0.66822 4.3334,-0.84904 0.1373,-0.017 1.9173,-0.11071 2.1567,-0.35356 0.1757,-0.17821 0.035,-0.49923 0.053,-0.74884 0,0 -0.049,-0.0347 -0.049,-0.0347 v 0 c -0.5592,-0.27234 -1.0874,-0.62091 -1.6778,-0.81702 -0.7845,-0.26061 -1.6408,-0.10472 -2.4242,0.007 -1.4252,0.20298 -2.8259,0.53457 -4.2414,0.7913 -3.2713,0.70929 0.2248,-0.0446 -2.8022,0.5965 -0.3586,0.0759 -0.723,0.12891 -1.0747,0.23204 -0.5377,0.15768 -1.0746,0.43237 -1.5227,0.76761 z" />
      </g>
      <path
        style="fill:#ffffff;fill-opacity:0.760128;stroke:#dddddd;stroke-opacity:0.894658"
         id="path557"
         d="m 1060.106,88.519943 c -0.7535,0.09119 -1.5541,0.182563 -2.2348,0.547307 -0.1276,0.06834 -0.241,0.160203 -0.3615,0.240305 -0.087,0.101362 -0.1917,0.190312 -0.2621,0.304083 -0.302,0.487505 -0.2303,1.15202 -0.038,1.665118 0.05,0.134742 0.129,0.257292 0.1935,0.385937 0.4497,0.533636 0.5694,0.707872 1.3381,1.243015 0.1218,0.0848 0.2832,0.09496 0.4303,0.114666 0.4826,0.06466 0.8896,-0.06437 1.3357,-0.217131 0.5028,-0.217434 0.8963,-0.575931 0.9771,-1.142047 0.017,-0.122185 0.031,-0.249928 0,-0.370258 -0.037,-0.164132 -0.1297,-0.310698 -0.1946,-0.466048 -0.5874,-0.667083 -0.3129,-0.36654 -0.8186,-0.90628 0,0 -0.024,-0.01797 -0.024,-0.01797 v 0 c 0.062,0.190209 0.088,0.115911 -0.093,0.217652 0.029,0.304014 0.09,0.608041 -0.026,0.904427 -0.1378,0.350973 -0.4571,0.568146 -0.7411,0.789197 -0.3664,0.183153 -0.7113,0.360397 -1.1364,0.325803 -0.1229,-0.01 -0.374,-0.205635 -0.3603,-0.08315 0.024,0.215924 0.2801,0.332695 0.4079,0.508429 0.081,0.111532 -0.1784,-0.210323 -0.2676,-0.315484 -0.065,-0.12246 -0.1432,-0.239096 -0.1963,-0.367376 -0.1902,-0.459177 -0.264,-1.082149 0.014,-1.525247 0.066,-0.105021 0.1649,-0.184959 0.2474,-0.277439 0.1153,-0.07534 0.2233,-0.163319 0.3461,-0.226012 0.1393,-0.07118 0.2879,-0.123122 0.436,-0.173607 0.5807,-0.198017 1.1951,-0.30948 1.8088,-0.307821 z" />
    </g>
  </g>
</svg>
