<?xml version="1.0" encoding="UTF-8" standalone="no"?>
<!-- Created with Inkscape (http://www.inkscape.org/) -->

<svg
   width="20.948803mm"
   height="18.025167mm"
   viewBox="0 0 20.948803 18.025167"
   version="1.1"
   id="svg1"
   xmlns="http://www.w3.org/2000/svg"
   xmlns:svg="http://www.w3.org/2000/svg">
  <defs
     id="defs1" />
  <g
     id="layer1"
     transform="translate(-175.8411,-49.449118)">
    <g
       id="g559"
       transform="translate(-892.87733,-19.932667)"
    style="fill:#ffffff;fill-opacity:0.760128;stroke:#dddddd;stroke-opacity:0.894658"
    >
      <g
         id="g556"
         transform="matrix(0.6515622,0,0,0.6515622,409.87003,-2.7971972)"
         >
        <g
           id="g555">

          <path

             id="path548"
             d="m 1015.1221,127.30903 c 2.5125,-0.18138 5.0343,-0.12745 7.5508,-0.0968 3.6937,0.0764 7.3836,0.26787 11.0705,0.49775 0.8831,0.0551 1.765,0.12933 2.6486,0.17452 0.7477,0.0382 1.4965,0.0505 2.2448,0.0757 2.1669,-0.43798 1.116,-0.2095 3.1538,-0.68058 0,0 -0.025,-0.0544 -0.025,-0.0544 v 0 c -2.6052,-0.72576 -1.2151,-0.34962 -4.1728,-1.11976 -0.8177,-0.0787 -1.6339,-0.17552 -2.4531,-0.23598 -0.8752,-0.0646 -1.7525,-0.0978 -2.629,-0.13908 -3.6646,-0.17273 -7.3346,-0.28799 -11.0035,-0.25895 -0.6609,0.0235 -1.3221,0.0391 -1.9826,0.0706 -1.8018,0.0859 -3.5998,0.2458 -5.3992,0.36842 z" />
          <path

             id="path549"
             d="m 1013.063,123.33646 c 0.1287,-0.0216 0.2558,-0.0568 0.386,-0.0647 0.1857,-0.0113 0.3722,0.007 0.5583,0.007 0.3134,10e-4 0.6267,0.003 0.94,-0.002 1.2956,-0.0199 2.5899,-0.0877 3.8843,-0.14162 1.6764,-0.0646 3.3512,-0.17818 5.0289,-0.20803 0.3201,0.0358 0.6715,-0.0569 0.9872,0.032 0.039,-0.0538 0.08,0.0993 0.056,0.0729 -1.9545,-2.15977 -1.0964,-1.54374 -1.9163,-2.12599 -0.6064,-0.68532 -0.1819,-0.20169 1.8139,1.65766 0.032,0.0297 -0.078,-0.0429 -0.1059,-0.0764 -0.135,-0.1626 -0.1942,-0.43786 -0.2677,-0.62886 -0.1165,-0.49687 -0.037,-0.91331 0.056,-1.40559 0.116,-0.61434 0.2679,-1.14882 0.4724,-1.73979 0.4248,-1.05814 1.0794,-1.99152 1.9203,-2.76075 0.188,-0.17204 0.3898,-0.32847 0.5847,-0.49271 1.2256,-0.90615 2.6536,-1.49281 4.1207,-1.88351 0.2917,-0.0777 0.5898,-0.12922 0.8847,-0.19383 1.1134,-0.18436 2.2642,-0.27901 3.3772,-0.0315 0.6227,0.13848 0.7821,0.24376 1.3498,0.49919 0.4839,0.29523 0.9149,0.68298 1.2885,1.10907 0.1058,0.12068 0.373,0.52137 0.2916,0.38306 -1.2431,-2.11264 -1.2773,-2.27571 -0.9489,-1.37754 0.038,0.18524 0.134,0.97715 -0.1707,1.01263 -0.2663,-0.0979 0.1067,0.0341 -0.3242,-0.0886 -0.092,-0.0261 -0.1778,-0.0718 -0.2714,-0.0898 -0.5735,-0.11013 -1.1578,-0.0725 -1.7349,-0.038 -0.2872,0.0503 -0.5771,0.087 -0.8616,0.151 -0.3313,0.0746 -0.6567,0.17359 -0.984,0.26433 -0.9367,0.2597 -1.8481,0.55022 -2.7139,1.00132 -0.272,0.14173 -0.5289,0.31078 -0.7934,0.46617 -0.7377,0.52644 -1.579,1.24501 -1.5041,2.26068 0.015,0.20373 0.05,0.42059 0.1634,0.59066 0.588,0.88367 1.2799,1.69356 1.9199,2.54034 1.1614,0.81704 2.5119,1.19523 3.9061,1.37225 0.3853,0.0489 0.7726,0.0907 1.161,0.10121 0.4232,0.0114 0.8464,-0.0238 1.2696,-0.0358 1.7381,-0.0816 3.4709,-0.24768 5.2029,-0.4113 0.1798,-0.10821 0.4247,0.023 0.6114,-0.0613 0.3715,-0.16774 -0.1247,-0.84055 -0.3703,-1.32812 0,0 -0.033,-0.0504 -0.033,-0.0504 v 0 c -0.1619,-0.22347 -0.5918,-1.1172 -1.1105,-1.15927 -0.197,-0.016 -0.3862,0.13874 -0.585,0.096 -1.6935,0.24761 -3.3971,0.43803 -5.1076,0.51482 -1.7615,2.7e-4 -3.889,0.11774 -5.4578,-0.83586 -0.2179,-0.1325 -0.3982,-0.31887 -0.5973,-0.47831 0.3297,0.49037 0.6267,1.00449 0.9893,1.47111 0.1242,0.1598 -0.2216,-0.34753 -0.2691,-0.54426 -0.043,-0.17687 -0.036,-0.36878 0.01,-0.54582 0.1668,-0.70294 0.827,-1.10649 1.3767,-1.47746 0.2634,-0.14374 0.5205,-0.29962 0.7901,-0.43124 0.8863,-0.43267 1.905,-0.81776 2.8657,-1.04168 0.5089,-0.11862 1.1469,-0.16167 1.6661,-0.21067 0.5132,0.004 0.7677,-0.0377 1.2453,0.11193 0.1173,0.0368 0.2167,0.11698 0.3295,0.16592 0.098,0.0424 0.2004,0.0726 0.3011,0.10754 0.069,0.0239 0.1347,0.0629 0.2072,0.0689 0.074,0.006 0.1468,-0.0224 0.2202,-0.0336 0.061,-0.0381 0.1326,-0.0635 0.1838,-0.1143 0.2922,-0.28976 0.1779,-1.03125 0.096,-1.37419 -0.45,-1.22369 -0.1872,-0.58759 -1.6295,-2.7953 -0.1062,-0.1626 -0.5407,-0.55433 -0.6824,-0.65172 -0.3013,-0.2071 -0.805,-0.42978 -1.1281,-0.58348 -0.2205,-0.091 -0.4354,-0.19698 -0.6615,-0.27294 -1.3627,-0.45775 -2.8002,-0.37475 -4.1955,-0.13123 -0.5747,0.12645 -1.168,0.24063 -1.7285,0.42589 -1.2209,0.4035 -2.3902,0.9793 -3.4328,1.73213 -0.2182,0.17447 -0.4449,0.33887 -0.6547,0.52339 -0.9215,0.81044 -1.6597,1.80694 -2.147,2.93309 -0.2207,0.56221 -0.4442,1.13296 -0.5367,1.73438 -0.067,0.4375 -0.047,0.89312 -0.091,1.3332 0,0.11168 -0.018,0.22339 -0.013,0.33505 0.049,1.15925 1.1977,1.93291 2.1746,2.44977 0.9605,0.48182 -0.9952,-2.56511 -1.667,-1.90534 -0.3068,0.0562 -0.6364,-0.005 -0.9435,0.0584 -1.636,0.11546 -3.2725,0.2234 -4.9085,0.33769 -1.2511,0.0842 -2.5108,0.12968 -3.7561,0.28291 -3.3229,0.40885 0.8509,-0.0724 -1.4596,0.2577 -0.1016,0.0145 -0.2052,0.006 -0.3078,0.009 z" />
        </g>
        <path

           id="path555"
           d="m 1028.7607,130.66302 c -0.6431,-0.15274 -1.3238,-0.27568 -1.985,-0.14646 -0.536,0.10473 -0.6691,0.23642 -1.132,0.50894 -0.155,0.14576 -0.3367,0.26757 -0.4651,0.43728 -0.4667,0.61681 -0.6796,1.45473 -0.6283,2.21835 0.046,0.68919 0.1803,0.87718 0.4348,1.49872 1.0199,1.31635 2.359,2.70109 4.1145,2.76049 0.6542,0.0221 0.7638,-0.0698 1.3524,-0.26732 0.157,-0.13148 0.3445,-0.23328 0.4708,-0.39445 0.5665,-0.72346 0.4094,-1.80798 0.052,-2.5767 -0.1057,-0.22716 -0.2559,-0.43085 -0.3838,-0.64627 -0.915,-0.98757 -0.3524,-0.45484 -1.7628,-1.51496 0,0 0.037,0.0469 0.037,0.0469 v 0 c -0.5049,-0.27932 -0.4898,-0.36674 -0.2623,0.0452 0.067,0.15188 0.1469,0.29895 0.2022,0.45565 0.2519,0.71395 0.3552,1.63958 -0.029,2.33358 -0.081,0.14697 -0.2165,0.25685 -0.3248,0.38527 -0.1554,0.0841 -0.2994,0.19397 -0.4662,0.25237 -0.3638,0.12738 -0.7988,0.13283 -1.1705,0.0497 -0.2135,-0.0477 -0.7142,-0.42052 -0.6166,-0.22472 0.207,0.4156 0.6182,0.70244 0.9919,0.978 0.2038,0.15029 -0.3149,-0.39663 -0.4724,-0.59495 -0.1004,-0.21991 -0.2304,-0.4286 -0.3013,-0.65975 -0.2477,-0.80838 -0.1184,-1.86073 0.5156,-2.4688 0.1424,-0.13657 0.3245,-0.22447 0.4868,-0.3367 0.1869,-0.0724 0.3665,-0.16723 0.5606,-0.21729 0.8141,-0.20997 1.7026,-0.0396 2.4626,0.27416 z" />
      </g>
    </g>
  </g>
</svg>
