<?xml version="1.0" encoding="UTF-8" standalone="no"?>
<svg
   width="32.943577mm"
   height="28.214333mm"
   viewBox="19 16 32.943577 28.214333"
   version="1.2"
   id="chateau_dormant"
   xml:space="preserve"
   xmlns="http://www.w3.org/2000/svg">
    <g id="layer1"  transform="translate(-19.381943,-375.98542)">
    <path style="fill:#000000;stroke-width:0.875573"
        d="m 39.88314,419.71764 c -1.133306,-0.79379 -1.68454,-2.18022 -1.4467,-3.63862 0.294254,-1.80431 1.19007,-3.12927 3.080948,-4.5569 1.809336,-1.36606 1.786501,-1.29776 2.182111,-6.52681 0.112135,-1.48207 0.361481,-2.81851 0.554115,-2.96989 0.192635,-0.15137 0.906227,-0.35274 1.585768,-0.44747 0.67954,-0.0947 1.679462,-0.26832 2.222037,-0.38574 l 0.986508,-0.21349 0.09459,1.65678 0.09458,1.65677 1.777842,0.0927 c 2.007531,0.10467 2.114814,-0.0129 2.518007,-2.75984 0.117905,-0.8033 0.472091,-1.66869 0.807024,-1.97179 0.867439,-0.78503 0.485514,-1.07538 -1.414514,-1.07538 -0.924342,0 -1.680627,-0.0728 -1.680627,-0.16194 0,-0.28584 5.307258,-6.28009 5.690575,-6.42718 0.439117,-0.1685 6.103845,5.93831 5.86576,6.32354 -0.09027,0.14607 -0.989914,0.26558 -1.999196,0.26558 -1.36261,0 -1.835069,0.11077 -1.835069,0.43027 0,0.23666 0.208492,0.51029 0.463327,0.60808 0.345151,0.13245 0.463318,0.68269 0.463318,2.1574 0,2.10279 0.213097,2.48216 1.588158,2.82728 0.572011,0.14356 0.937195,0.0508 1.233804,-0.31346 1.502912,-1.84563 1.522849,-1.85422 4.05068,-1.74691 l 2.393842,0.10161 0.0098,2.36944 c 0.01532,3.71105 0.760873,8.25135 1.511598,9.20575 1.253234,1.59322 0.633083,3.52236 -1.472871,4.58178 -1.36965,0.68901 -1.596046,0.37002 -0.528338,-0.74442 0.724212,-0.75591 0.832976,-1.07436 0.667738,-1.95511 -0.200103,-1.06665 -1.009273,-2.01605 -2.274169,-2.6683 -0.515073,-0.26561 -1.021417,-0.27149 -1.945698,-0.0226 -1.608882,0.43323 -2.454589,0.16664 -2.454589,-0.77376 0,-1.0668 -1.451665,-2.61332 -3.230644,-3.44172 -3.061344,-1.42554 -5.909267,-0.83159 -10.096755,2.10577 -1.688314,1.18429 -1.912006,1.26183 -2.525117,0.87534 -2.259643,-1.42441 -2.724546,-1.49442 -4.150451,-0.62504 -2.213921,1.34985 -2.900195,4.10774 -1.450806,5.83023 0.432173,0.51361 1.057665,1.02014 1.389971,1.12561 1.290235,0.4095 0.293387,1.69455 -1.314506,1.69455 -0.398079,0 -1.0335,-0.21694 -1.412036,-0.48208 z m 27.354626,-11.75979 c 0.07145,-3.64691 0.0094,-4.39458 -0.377161,-4.54289 -0.525046,-0.20148 -1.407177,0.54914 -1.407177,1.19738 0,0.86126 -1.261052,1.15969 -4.118169,0.97458 -1.521553,-0.0986 -2.908644,-0.32141 -3.082427,-0.49519 -0.173775,-0.17378 -0.39695,-1.24425 -0.495934,-2.37884 -0.128901,-1.47746 -0.330966,-2.1577 -0.712015,-2.39699 -0.818529,-0.51401 -1.156588,0.0657 -1.369825,2.34932 -0.104561,1.11967 -0.304901,2.2218 -0.445203,2.44917 -0.325975,0.52827 -5.936155,0.75648 -7.151074,0.2909 -0.696421,-0.26689 -0.849428,-0.51482 -0.849428,-1.37644 0,-1.22838 -0.65576,-1.97957 -1.178372,-1.34986 -0.785774,0.94679 -1.323542,6.00592 -0.736584,6.92952 0.130767,0.20577 0.754122,0.58988 1.385235,0.85358 1.035365,0.4326 1.259038,0.43284 2.289176,0.003 0.627926,-0.26236 1.609285,-0.83368 2.180798,-1.2696 2.575436,-1.96439 7.962668,-2.75144 10.642954,-1.55489 1.95532,0.8729 3.331992,2.28932 3.331992,3.42818 0,1.22446 0.217563,1.46379 1.223963,1.34641 l 0.783769,-0.0914 z m -9.199564,-10.25224 1.387932,-0.20876 -1.11266,-1.21385 c -1.078855,-1.17696 -1.142456,-1.2015 -2.09339,-0.80761 -0.940058,0.38938 -2.195314,1.65735 -2.195314,2.21755 0,0.30898 2.001489,0.31531 4.013432,0.0127 z"
        id="path7" />
    </g>
</svg>
