<?xml version="1.0" encoding="UTF-8" standalone="no"?>
<!-- Created with Inkscape (http://www.inkscape.org/) -->

<svg
   width="22.753691mm"
   height="30.182535mm"
   viewBox="0 0 22.753691 30.182536"
   version="1.1"
   id="svg1"
   xml:space="preserve"
   xmlns="http://www.w3.org/2000/svg"
   xmlns:svg="http://www.w3.org/2000/svg"><defs
     id="defs1" /><g
     id="layer1"
     transform="translate(-23.705005,-177.23307)"><g
       id="g32" /><path
       style="fill:#FFFFFF"
       d="m 32.434865,207.22366 c -3.41319,-0.83924 -6.73019,-3.46545 -7.937,-6.28405 -0.80084,-1.87042 -0.68728,-5.12064 0.26671,-7.63396 0.44189,-1.16417 1.81302,-3.95094 3.04696,-6.19282 1.69574,-3.08093 2.24351,-4.41837 2.24351,-5.47776 0,-2.87552 -1.98278,-3.89277 -3.6728,-1.8843 -1.13924,1.35391 -1.14484,1.89014 -0.0314,3.00362 0.48507,0.48507 0.88194,1.01649 0.88194,1.18094 0,0.74631 -2.42469,0.98369 -3.10444,0.30393 -0.23284,-0.23283 -0.42334,-0.96816 -0.42334,-1.63405 0,-3.6472 5.56686,-7.05976 7.27179,-4.45771 1.06544,1.62607 0.5004,4.42458 -1.9323,9.57016 -2.53641,5.36495 -3.06028,7.39827 -2.52337,9.79409 0.51027,2.27691 1.09914,3.33031 2.82836,5.05954 2.84843,2.84843 6.33343,4.13663 8.89967,3.2897 l 1.22677,-0.40487 0.31015,-5.0169 c 0.17058,-2.7593 0.31306,-7.00128 0.31662,-9.42662 l 0.006,-4.40973 -2.8524,-0.18599 c -2.95382,-0.19261 -4.73232,-0.92303 -4.73232,-1.94354 0,-0.45817 0.17009,-0.45262 1.32292,0.0431 3.40904,1.46606 4.72822,1.53537 5.95093,0.31266 0.69018,-0.69018 0.84276,-1.11496 0.67495,-1.87899 -0.23952,-1.0905 0.29532,-2.87368 0.86191,-2.87368 0.19883,0 0.36394,0.67469 0.36691,1.49931 0.006,1.59657 0.47686,2.72054 0.94556,2.25589 0.15607,-0.15472 0.44251,-1.42012 0.63654,-2.812 0.3249,-2.33071 0.42247,-2.53792 1.23472,-2.62208 1.93142,-0.20014 1.94028,-0.15669 1.94028,9.51527 0,7.61895 -0.0937,9.2294 -0.64253,11.03723 -1.02013,3.36056 -3.24137,6.21994 -5.88386,7.57423 -1.48515,0.76115 -5.66212,1.15073 -7.49796,0.69933 z m 9.93426,-6.83905 c 0.45108,-2.44666 0.52595,-14.43908 0.0885,-14.1687 -0.1636,0.10111 -0.40426,2.92829 -0.53479,6.28262 -0.13054,3.35434 -0.32344,7.21004 -0.42868,8.56823 -0.22638,2.92158 0.28396,2.52372 0.87501,-0.68215 z"
       id="path12" /></g></svg>
