<?xml version="1.0" encoding="UTF-8" standalone="no"?>
<!-- Created with Inkscape (http://www.inkscape.org/) -->

<svg
   width="1.2833239mm"
   height="2.8479857mm"
   viewBox="0 0 1.2833239 2.8479858"
   version="1.1"
   id="svg1"
   xml:space="preserve"
   sodipodi:docname="sp.svg"
   inkscape:version="1.3.2 (091e20ef0f, 2023-11-25)"
   xmlns:inkscape="http://www.inkscape.org/namespaces/inkscape"
   xmlns:sodipodi="http://sodipodi.sourceforge.net/DTD/sodipodi-0.dtd"
   xmlns="http://www.w3.org/2000/svg"
   xmlns:svg="http://www.w3.org/2000/svg"><sodipodi:namedview
     id="namedview1"
     pagecolor="#ffffff"
     bordercolor="#666666"
     borderopacity="1.0"
     inkscape:showpageshadow="2"
     inkscape:pageopacity="0.0"
     inkscape:pagecheckerboard="0"
     inkscape:deskcolor="#d1d1d1"
     inkscape:document-units="mm"
     inkscape:zoom="26.451102"
     inkscape:cx="-1.3799047"
     inkscape:cy="12.948421"
     inkscape:window-width="2560"
     inkscape:window-height="1371"
     inkscape:window-x="0"
     inkscape:window-y="32"
     inkscape:window-maximized="1"
     inkscape:current-layer="svg1" /><defs
     id="defs1" /><path
     style="fill:none;stroke:#000000;stroke-width:0.264583px;stroke-linecap:butt;stroke-linejoin:miter;stroke-opacity:1;fill-opacity:1"
     d="m 0.45946504,0.8734364 c -0.1947354,-0.071916 0.021429,0.013409 -0.09252,-0.043091 -0.00959,-0.00475 -0.020013,-0.00792 -0.030511,-0.010003 -9.525e-4,-1.867e-4 -0.027734,1.025e-4 -0.027813,0 -0.00206,-0.00264 0.00257,-0.00789 0,-0.010039 -0.00664,-0.00555 -0.016719,-0.00527 -0.023969,-0.010003 -0.011993,-0.00783 -0.058592,-0.0537568 -0.065126,-0.0652083 -0.0056,-0.009809 -0.00516,-0.0221673 -0.010003,-0.0323712 -7.62e-4,-0.001606 -0.01932,-0.0184915 -0.02019,-0.0201898 -0.00145,-0.002828 0.00219,-0.007224 0,-0.00953 -0.00207,-0.002185 -0.00701,0.002233 -0.00903,0 -0.00223,-0.002474 0.00104,-0.006836 0,-0.0100028 -0.023138,-0.0702913 0.00258,0.0149728 -0.019819,-0.029822 -0.00149,-0.002982 0.00106,-0.006839 0,-0.0100028 -0.00236,-0.007073 -0.00765,-0.0129326 -0.010003,-0.0200054 -0.00106,-0.003163 9.921e-4,-0.006819 0,-0.0100028 -0.00241,-0.007722 -0.00819,-0.0142245 -0.010003,-0.0221065 -0.0016,-0.00694 0,-0.0142423 0,-0.0213632 0,-0.002836 9.658e-4,-0.005842 0,-0.008508 -0.00155,-0.004271 -0.00591,-0.007196 -0.00726,-0.0115332 -0.00206,-0.006612 0,-0.032189 0,-0.0406569 0,-0.0265132 0,-0.0530264 0,-0.0795396 0,-0.002138 -3.598e-4,-0.0324467 0,-0.0328447 0.00182,-0.002008 0.00542,0 0.00813,0 0.00321,-0.006433 0.00792,-0.0123161 0.00963,-0.0192987 0.00159,-0.006477 -0.00235,-0.0137665 0,-0.0200054 0.00475,-0.0125817 0.027816,-0.0203115 0.034163,-0.034392 0.00137,-0.00304 -0.0015,-0.007027 0,-0.0100028 0.029728,-0.0280715 -0.00274,0.007015 0.00966,-0.018365 6.615e-4,-0.001352 0.00339,9.9747e-4 0.00452,0 0.011234,-0.009934 0.029342,-0.0370878 0.044295,-0.0438389 0.00304,-0.001373 0.00712,0.001677 0.010003,0 0.00901,-0.005246 0.01514,-0.0146352 0.024152,-0.0198805 0.00288,-0.001677 0.00703,0.001513 0.010004,0 0.00424,-0.002159 0.0062,-0.007323 0.010004,-0.0101838 0.00972,-0.007308 0.02001,-0.0138337 0.030373,-0.0201893 0.01855,-0.0113752 0.051448,-0.0252743 0.066046,-0.03689 0.00262,-0.002077 -0.00209,-0.007412 0,-0.0100028 0.00265,-0.003255 0.00838,0 0.012568,0 0.1063876,0 -0.00921,-0.003449 0.1114549,0.0127482 0.011247,0.001511 0.022696,0 0.034043,0 0.00577,0 0.01183,-0.001794 0.017314,0 0.021653,0.007086 0.042666,0.0160197 0.064219,0.0234082 0.031549,0.0108151 0.064025,0.0202687 0.095884,0.0301926 0.037517,0.0116861 0.075832,0.0209579 0.1127342,0.0344604 0.013089,0.004789 0.023651,0.015081 0.036619,0.0201885 0.013054,0.005142 0.027765,0.005145 0.040812,0.0103068 0.015013,0.005939 0.02904,0.0142362 0.042755,0.0227513 0.00401,0.002487 0.00553,0.008512 0.010004,0.0100028 0.00633,0.002109 0.014041,-0.002982 0.020005,0 0.00298,0.001492 -0.0023,0.007589 0,0.0100028 0.0022,0.002299 0.00668,-0.001394 0.00953,0 0.00414,0.002019 0.00671,0.006313 0.010004,0.009531 0.021556,0.021046 -0.00206,-0.00334 0.02019,0.0301923 0.00249,0.003755 0.00757,0.005519 0.00956,0.009561 0.00146,0.002934 -0.00175,0.007044 0,0.009816 0.00273,0.004344 0.00982,0.0049 0.01211,0.00949 0.00539,0.010827 0.00616,0.0234146 0.010004,0.0348847 0.00283,0.008457 0.00652,0.0166084 0.010004,0.0248187 0.00318,0.0075 0.00813,0.014374 0.010004,0.0223031 0.00153,0.00649 -0.00161,0.0135361 0,0.0200054 0.0018,0.007233 0.00819,0.0127725 0.010004,0.0200054 0.00161,0.006469 -0.00185,0.0135969 0,0.0200054 0.00238,0.00829 0.00895,0.0148212 0.012306,0.0227671 0.00411,0.009712 0.00642,0.0200919 0.010004,0.0300082 0.00394,0.010908 0.00879,0.0214813 0.012565,0.0324469 0.023347,0.0677655 -0.00135,-0.004444 0.010004,0.0754216 0.00151,0.0105291 0.00852,0.0197104 0.010311,0.0301926 0.00169,0.009859 0,0.0200054 0,0.0300082 0,0.0100028 0,0.0200054 0,0.0300082 0,0.013337 0,0.026674 0,0.040011 0,0.00667 0.0013,0.013466 0,0.020005 -2.405e-4,0.0012 -0.019849,0.059187 -0.02019,0.060201 -0.00335,0.01 -0.0043,0.021138 -0.010004,0.030008 -0.00545,0.00848 -0.017092,0.011779 -0.022368,0.020373 -0.00596,0.00971 -0.00525,0.022364 -0.010184,0.03264 -0.00608,0.012673 -0.015015,0.023766 -0.022566,0.035622 -0.014198,0.022292 -0.030338,0.043359 -0.043655,0.066188 -1.635e-4,2.804e-4 -0.019767,0.044699 -0.020005,0.045012 -0.00603,0.00794 -0.016404,0.011921 -0.022241,0.020005 -0.00519,0.00719 -0.00522,0.017183 -0.010004,0.02465 -0.00543,0.00848 -0.014078,0.014475 -0.020188,0.022481 -0.00474,0.00621 -0.0086,0.013087 -0.012245,0.020005 -0.00385,0.00731 -0.00517,0.016037 -0.010187,0.022606 -0.043234,0.038685 -0.00622,1.196e-4 -0.032361,0.042206 -0.00249,0.00401 -0.00667,0.00667 -0.010001,0.010003 -0.00667,0.00667 -0.012465,0.014341 -0.020005,0.020005 -0.00603,0.00453 -0.014859,0.00486 -0.020188,0.010186 -0.00235,0.00236 0.00148,0.00702 0,0.010003 -0.00209,0.0042 -0.00663,0.00663 -0.00995,0.00995 -0.013142,0.013141 -0.02995,0.027393 -0.040195,0.042518 -0.00456,0.00673 -0.00529,0.015618 -0.010004,0.022247 -0.00546,0.00769 -0.014774,0.012159 -0.020005,0.020005 -0.00185,0.00277 0.00235,0.00765 0,0.010003 -0.00527,0.00527 -0.014735,0.00473 -0.020005,0.010003 -0.00527,0.00527 -0.00617,0.013612 -0.010004,0.020006 -0.00619,0.010309 -0.013809,0.019706 -0.020005,0.030008 -0.024339,0.040467 0.00849,-8.731e-4 -0.032764,0.05282 -0.00562,0.00731 -0.015568,0.01121 -0.019653,0.01948 -0.00143,0.0029 0.00138,0.00678 0,0.00971 -0.00191,0.0041 -0.00728,0.0059 -0.00918,0.010003 -0.00138,0.00297 0.0023,0.0075 0,0.00982 -0.0023,0.00231 -0.00749,-0.0023 -0.00982,0 -0.0023,0.00228 0.00217,0.00731 0,0.00971 -0.00196,0.00217 -0.0068,-0.00216 -0.00876,0 -8.467e-4,9.287e-4 7.937e-4,0.017657 0,0.018858 -0.00513,0.00773 -0.014335,0.012207 -0.019367,0.020005 -0.0018,0.0028 0.00148,0.00702 0,0.010003 -0.033082,0.033082 0.00458,-0.00929 -0.010004,0.019949 -0.00418,0.00838 -0.016888,0.010995 -0.019825,0.019881 -0.00209,0.00633 0.00161,0.013536 0,0.020005 -0.0018,0.00723 -0.00819,0.012772 -0.010001,0.020005 -0.00161,0.00647 0,0.013337 0,0.020005 -0.00333,0.00667 -0.00765,0.012933 -0.010004,0.020005 -0.00354,0.010629 0.00354,0.029382 0,0.040011 -0.00148,0.00447 -0.00789,0.00579 -0.010004,0.010003 -0.00251,0.00499 0.00445,0.01338 0,0.016748 -0.00238,0.00181 -0.00697,-0.00222 -0.00899,0 -6.9e-6,7.6e-6 6.8e-6,0.019715 0,0.019735 -0.00235,0.00707 -0.00764,0.012933 -0.010001,0.020005 -0.00106,0.00316 9.261e-4,0.0068 0,0.010003 -0.00246,0.0085 -0.00696,0.016278 -0.010004,0.024586 -0.00363,0.0099 -0.00529,0.020577 -0.010004,0.030008 -0.00538,0.010753 -0.014629,0.019256 -0.020005,0.030008 -0.013825,0.02765 0.018211,-0.00821 -0.00811,0.018113"
     id="path4" /><path
     style="fill:none;stroke:#000000;stroke-width:0.264583px;stroke-linecap:butt;stroke-linejoin:miter;stroke-opacity:1;fill-opacity:1"
     d="m 0.60466334,2.4626583 c -0.026218,0.00667 -0.052577,0.012803 -0.078654,0.020005 -0.010163,0.00281 -0.019928,0.00691 -0.030008,0.010004 -0.011644,0.00357 -0.023691,0.00586 -0.035144,0.010004 -0.00706,0.00257 -0.013054,0.00765 -0.020188,0.010004 -0.00603,0.00198 -0.01428,-0.00419 -0.01905,0 -0.00196,0.00172 0.00106,0.00542 0,0.00779 -0.00164,0.00368 -0.00557,0.00589 -0.00764,0.00934 -0.00384,0.00639 -0.00473,0.014735 -0.010004,0.020005 -0.00235,0.00235 -0.00764,-0.00235 -0.010004,0 -4.498e-4,4.498e-4 4.234e-4,0.018743 0,0.019505 -0.00198,0.00346 -0.0076,0.00371 -0.00956,0.00718 -6.35e-4,0.00111 0,0.032631 0,0.034702 0,0.010001 -0.00316,0.020518 0,0.030008 0.00148,0.00447 0.00787,0.0058 0.010004,0.010004 0.00146,0.00287 -0.00228,0.00739 0,0.00967 0.00228,0.00228 0.0074,-0.0023 0.00967,0 0.0023,0.0023 -0.00177,0.00704 0,0.00976 0.00116,0.00177 0.0045,-0.00103 0.00635,0 0.00892,0.00493 0.025736,0.026463 0.034338,0.029161 0.00642,0.00201 0.013801,-0.00212 0.02019,0 0.00448,0.00148 0.00583,0.00781 0.010001,0.010004 0.0043,0.00228 0.011113,-0.00341 0.014576,0 0.0013,0.0013 -0.00156,0.00454 0,0.0055 0.00143,8.731e-4 0.043413,0 0.044182,0 0.00214,0 0.023969,7.408e-4 0.024937,0 0.00111,-8.467e-4 -6.879e-4,-0.00295 0,-0.00415 0.00214,-0.00373 0.00526,-0.00683 0.00818,-0.010004 0.00322,-0.00351 0.00665,-0.00682 0.010186,-0.010004 0.00394,-0.00355 0.00967,-0.00554 0.012208,-0.010186 0.00193,-0.00355 0,-0.00808 0,-0.012123"
     id="path5" /><path
     style="fill:none;stroke:#000000;stroke-width:0.264583px;stroke-linecap:butt;stroke-linejoin:miter;stroke-opacity:1;fill-opacity:1"
     d="M 0.45946504,0.8734364 C 0.3241725,0.82718996 0.18839674,0.74276204 0.15358385,0.59410799 0.11441051,0.48143116 0.11336199,0.33044296 0.2239151,0.25734739 0.31900375,0.17695916 0.43555142,0.09670979 0.56657391,0.14407702 0.70516068,0.18242211 0.84214367,0.2305355 0.97129447,0.29351422 1.0750418,0.3525697 1.0794024,0.48314436 1.1194271,0.58327036 1.1544674,0.70034995 1.1731941,0.83775482 1.0988937,0.94410968 1.0174505,1.1005192 0.91436655,1.2446544 0.79370333,1.3730233 0.70878393,1.482809 0.61781975,1.5958155 0.57339652,1.7284689 0.5515605,1.8161866 0.53610073,1.9082404 0.48615414,1.9855204"
     id="path6" /><path
     style="fill:none;stroke:#000000;stroke-width:0.264583px;stroke-linecap:butt;stroke-linejoin:miter;stroke-opacity:1;fill-opacity:1"
     d="m 0.60466334,2.4626583 c -0.0975383,0.011571 -0.28434331,0.069926 -0.20437495,0.2000313 0.0415486,0.052771 0.16220975,0.095524 0.18894495,0.00615"
     id="path7" /></svg>
