<?xml version="1.0" encoding="UTF-8" standalone="no"?>
<!-- Created with Inkscape (http://www.inkscape.org/) -->

<svg
   width="12.421335mm"
   height="6.5481062mm"
   viewBox="0 0 12.421335 6.5481063"
   version="1.1"
   id="svg1"
   xml:space="preserve"
   xmlns="http://www.w3.org/2000/svg"
   xmlns:svg="http://www.w3.org/2000/svg"><defs
     id="defs1" /><g
     id="layer1"
     transform="translate(-255.95641,41.319892)"><path
       style="fill:#000000"
       d="m 255.97935,-35.143403 c -0.17641,-0.459725 0.70812,-2.369185 1.16636,-2.517831 0.24143,-0.07832 0.33563,0.311893 0.33563,1.390286 0,1.425059 -0.0336,1.499163 -0.67969,1.499163 -0.37384,0 -0.74387,-0.167228 -0.8223,-0.371618 z m 2.14616,-0.31201 c -0.19459,-0.775302 0.30517,-3.420111 0.79423,-4.203225 0.166,-0.265805 0.48756,-0.483281 0.71457,-0.483281 0.22701,0 0.61966,-0.241656 0.87256,-0.537014 0.25289,-0.295357 0.79326,-0.55269 1.20082,-0.571851 2.90684,-0.136662 2.8206,-0.158273 3.13914,0.786656 0.16429,0.487339 0.43079,0.970651 0.59222,1.074026 0.36855,0.235996 0.96619,3.604236 0.74281,4.186363 -0.12397,0.323047 -0.53085,0.431954 -1.61382,0.431954 h -1.44806 v -0.986061 c 0,-1.159224 -0.78989,-3.024678 -1.28495,-3.034613 -0.35374,-0.0071 -1.39586,2.013102 -1.65854,3.215153 -0.11384,0.520976 -0.33974,0.689951 -1.00895,0.754719 -0.74104,0.07172 -0.88753,-0.01724 -1.04203,-0.632826 z m 8.48506,-0.09993 c 0,-1.43864 1.0229,-1.876813 1.57135,-0.673107 0.40309,0.884682 0.20343,1.18816 -0.78168,1.18816 -0.59944,0 -0.78967,-0.124073 -0.78967,-0.515053 z"
       id="path3" /></g></svg>
