<?xml version="1.0" encoding="UTF-8" standalone="no"?>
<!-- Created with Inkscape (http://www.inkscape.org/) -->

<svg
   width="8.9447222mm"
   height="12.903346mm"
   viewBox="0 0 8.9447221 12.903346"
   version="1.1"
   id="svg1"
   xml:space="preserve"
   xmlns="http://www.w3.org/2000/svg"
   xmlns:svg="http://www.w3.org/2000/svg"><defs
     id="defs1" /><g
     id="layer1"
     transform="translate(-79.2793,451.96134)"><path
       style="fill:#000000"
       d="m 81.315289,-439.21614 c -0.923807,-0.3377 -1.61104,-1.25789 -1.61104,-2.15714 0,-1.99578 1.314317,-2.90505 3.864883,-2.67377 1.876543,0.17016 2.579278,-0.10798 2.579278,-1.02086 0,-0.94538 -0.717517,-1.19337 -2.971336,-1.02697 -1.761491,0.13006 -2.08052,0.0802 -2.714994,-0.42393 -0.987635,-0.7848 -1.446573,-2.23343 -1.027838,-3.24435 0.510658,-1.23284 1.194839,-1.65537 3.244081,-2.00345 1.804711,-0.30655 2.033052,-0.28692 3.699817,0.31808 0.977019,0.35464 1.805553,0.67396 1.841185,0.70959 0.03563,0.0356 -0.135996,0.35144 -0.381397,0.7018 -0.245401,0.35036 -0.477455,0.93032 -0.515675,1.2888 -0.03822,0.35848 -0.135635,0.71792 -0.216478,0.79876 -0.22732,0.22732 -3.989256,-0.97358 -4.227778,-1.34961 -0.116295,-0.18333 -0.253211,-0.45274 -0.304259,-0.59869 -0.163866,-0.46847 -1.526956,0.34537 -1.526956,0.91168 0,1.09514 0.663615,1.36161 2.951557,1.18517 l 2.126031,-0.16394 0.951793,0.95179 c 1.325632,1.32563 1.325685,2.56485 1.7e-4,3.89037 l -0.951624,0.95162 -2.22208,-0.1708 c -2.31556,-0.17799 -2.8732,-0.0109 -3.211286,0.96246 -0.273035,0.78605 0.884054,1.86131 2.038159,1.89402 0.595875,0.0169 0.862657,0.11316 0.663721,0.23951 -0.373605,0.23728 -1.467517,0.253 -2.077934,0.0299 z m 5.790673,-9.77389 c 0.126436,-0.20457 -0.01449,-0.23436 -0.451935,-0.0955 -0.567371,0.18008 -0.596297,0.15432 -0.269254,-0.23974 0.326418,-0.39331 0.276637,-0.44149 -0.456146,-0.44149 -1.039257,0 -1.35303,0.46304 -0.535861,0.79077 0.857453,0.34389 1.495221,0.33867 1.713196,-0.014 z m -1.360312,-1.85078 c 0.09127,-0.14768 -0.02243,-0.2685 -0.252661,-0.2685 -0.230233,0 -0.418606,0.12082 -0.418606,0.2685 0,0.14768 0.113697,0.26851 0.25266,0.26851 0.138963,0 0.327336,-0.12083 0.418607,-0.26851 z"
       id="path3-5" /></g></svg>
