<?xml version="1.0" encoding="UTF-8" standalone="no"?>
<!-- Created with Inkscape (http://www.inkscape.org/) -->

<svg
   width="10.558746mm"
   height="4.3421607mm"
   viewBox="0 0 10.558746 4.3421607"
   version="1.1"
   id="svg1"
   xml:space="preserve"
   xmlns="http://www.w3.org/2000/svg"
   xmlns:svg="http://www.w3.org/2000/svg"><defs
     id="defs1" /><g
     id="layer1"
     transform="translate(-101.1791,-157.87931)"><path
       style="fill:#ffffff;fill-opacity:0.760128;stroke:transparent;stroke-opacity:0.894658"
       d="m 111.52917,162.13784 c -0.10455,-0.0659 -0.31392,-0.17962 -0.46526,-0.25266 -0.15134,-0.073 -0.32279,-0.16111 -0.381,-0.19571 -0.0582,-0.0346 -0.22966,-0.12215 -0.381,-0.19456 -0.15134,-0.0724 -0.3491,-0.1704 -0.43945,-0.21774 -0.27663,-0.14495 -0.95309,-0.10155 -1.42322,0.0913 -0.18799,0.0771 -0.95937,0.25183 -1.11183,0.25183 -0.0432,0 -0.0682,-0.0166 -0.0557,-0.0368 0.035,-0.0567 0.63513,-0.34415 0.71842,-0.34415 0.10933,0 0.24371,-0.0827 0.2136,-0.13138 -0.0295,-0.0478 -1.26265,-0.65077 -1.51603,-0.74132 -0.21368,-0.0764 -0.43682,-0.0743 -0.66669,0.006 -0.29482,0.10327 -0.84478,0.36992 -0.83195,0.40337 0.006,0.0168 0.11172,0.10923 0.23396,0.20544 0.12224,0.0962 0.22225,0.19354 0.22225,0.21628 0,0.10222 -0.1987,0.0199 -0.58103,-0.24072 -0.48139,-0.32814 -0.71418,-0.42799 -1.03128,-0.44237 -0.26754,-0.0121 -0.73346,0.0397 -0.88536,0.0986 -0.0582,0.0225 -0.15129,0.0496 -0.20684,0.0601 -0.0556,0.0105 -0.40798,0.12303 -0.78317,0.25 -0.37518,0.12698 -0.74883,0.23049 -0.83032,0.23002 l -0.14817,-8.4e-4 0.10377,-0.0797 c 0.0571,-0.0439 0.22852,-0.11337 0.381,-0.15447 0.15248,-0.0411 0.64871,-0.19606 1.10273,-0.34436 0.68015,-0.22216 0.89394,-0.27415 1.21416,-0.29528 0.38525,-0.0254 0.39138,-0.0243 0.69908,0.12982 l 0.31042,0.15545 0.27451,-0.11154 c 0.15099,-0.0614 0.36306,-0.15641 0.47128,-0.21125 0.30907,-0.15662 0.698,-0.20268 1.04058,-0.12323 0.26907,0.0624 0.28756,0.0618 0.34897,-0.0118 0.0357,-0.0428 0.222,-0.18055 0.41409,-0.30621 0.19208,-0.12567 0.34925,-0.24075 0.34925,-0.25573 0,-0.015 -0.19352,-0.17791 -0.43004,-0.36207 -0.23653,-0.18416 -0.56514,-0.44708 -0.73025,-0.58426 -0.4088,-0.33966 -0.60483,-0.42487 -0.83486,-0.36293 -0.21507,0.0579 -0.42067,0.18528 -0.80209,0.49688 l -0.29181,0.23839 0.0946,0.10279 c 0.052,0.0565 0.29939,0.25478 0.54969,0.44055 0.25029,0.18576 0.45508,0.35361 0.45508,0.373 0,0.0969 -0.10352,0.0655 -0.36675,-0.11138 -0.15918,-0.10694 -0.3037,-0.20342 -0.32117,-0.2144 -0.0659,-0.0414 -0.0284,0.073 0.0494,0.15083 0.0922,0.0922 0.0739,0.13053 -0.0622,0.13053 -0.0545,0 -0.12426,-0.0463 -0.16621,-0.11036 -0.0529,-0.0807 -0.0849,-0.0978 -0.11917,-0.0635 -0.0631,0.0631 -0.15677,0.0594 -0.15758,-0.006 -3.5e-4,-0.0291 -0.0177,-0.0798 -0.0385,-0.1127 -0.032,-0.0505 -0.0487,-0.0489 -0.10821,0.0106 -0.0387,0.0387 -0.0964,0.0704 -0.12834,0.0704 -0.0859,0 -0.12498,-0.0885 -0.0578,-0.13108 0.0435,-0.0275 0.0344,-0.0371 -0.0354,-0.0376 -0.0516,-3.6e-4 -0.11464,-0.0397 -0.14015,-0.0873 -0.0255,-0.0477 -0.0949,-0.10515 -0.15426,-0.12771 -0.0853,-0.0324 -0.0978,-0.0532 -0.0595,-0.0992 0.0727,-0.0877 0.21628,-0.11299 0.24317,-0.0429 0.0127,0.0331 0.0496,0.0602 0.0821,0.0602 0.0324,0 0.059,0.0151 0.059,0.0336 0,0.0185 0.081,0.0546 0.17992,0.0803 0.13654,0.0355 0.16096,0.035 0.1013,-0.002 -0.0432,-0.0267 -0.16116,-0.11051 -0.26204,-0.18618 -0.13348,-0.10012 -0.2282,-0.13758 -0.34784,-0.13758 -0.28095,0 -0.8081,0.19228 -1.50789,0.55001 -0.60264,0.30808 -0.78811,0.37067 -0.78811,0.26599 0,-0.0183 0.0619,-0.0605 0.13758,-0.0938 0.0757,-0.0333 0.22331,-0.10983 0.32808,-0.17013 0.40848,-0.23512 1.30748,-0.63456 1.58517,-0.70431 0.22929,-0.0576 0.2731,-0.0803 0.20401,-0.1059 -0.0484,-0.0179 -0.15647,-0.0262 -0.24018,-0.0184 -0.18284,0.017 -0.22791,-0.0342 -0.11514,-0.13075 0.0617,-0.0529 0.0772,-0.10561 0.0606,-0.20741 -0.0233,-0.14363 0.0533,-0.24481 0.0978,-0.12905 0.0139,0.0363 0.0409,0.0563 0.06,0.0445 0.0415,-0.0256 0.24541,0.0569 0.34483,0.13968 0.039,0.0325 0.10243,0.0526 0.14092,0.0447 0.0434,-0.009 -0.0399,-0.078 -0.2191,-0.18194 -0.40839,-0.23683 -0.5354,-0.22589 -1.44798,0.1247 -0.2183,0.0839 -0.46995,0.18975 -0.55923,0.2353 -0.19347,0.0987 -0.20804,0.10035 -0.20804,0.0236 0,-0.0669 0.57961,-0.37755 1.06088,-0.56852 0.62058,-0.24625 0.94933,-0.2544 1.30489,-0.0323 0.60225,0.37613 0.68419,0.41474 0.7581,0.35723 0.0398,-0.0309 0.15802,-0.12435 0.2628,-0.2076 0.35679,-0.28349 0.60371,-0.32048 0.99226,-0.14865 0.24023,0.10624 0.81682,0.45963 0.89157,0.54644 0.0233,0.027 0.18521,0.16346 0.35983,0.30316 0.17463,0.1397 0.37136,0.30639 0.43718,0.37042 0.0658,0.064 0.13763,0.11641 0.15959,0.11641 0.022,0 0.11953,-0.0503 0.21684,-0.11169 0.52812,-0.33338 0.82934,-0.3883 1.05817,-0.1929 0.14003,0.11957 0.50287,0.29293 0.81639,0.39005 0.0931,0.0289 0.21696,0.0789 0.27517,0.11125 0.0582,0.0323 0.20963,0.0933 0.3365,0.13542 0.18415,0.0612 0.23677,0.0995 0.26092,0.18976 0.0221,0.0825 0.0145,0.11311 -0.0281,0.11311 -0.12642,0 -0.49007,-0.14623 -1.05616,-0.42469 -0.71898,-0.35367 -0.92323,-0.415 -1.14991,-0.3453 -0.0893,0.0275 -0.42912,0.24157 -0.75509,0.47579 -0.32596,0.23422 -0.65458,0.45555 -0.73025,0.49185 -0.0757,0.0363 -0.13737,0.0781 -0.13711,0.0929 4.8e-4,0.0277 0.66068,0.4377 1.0367,0.64381 l 0.21166,0.11602 0.43938,-0.0767 c 0.59848,-0.10449 0.86217,-0.0675 1.16177,0.16309 0.26495,0.2039 0.65093,0.43913 1.11444,0.67918 0.35317,0.18291 0.50106,0.30277 0.47394,0.38413 -0.009,0.0271 -0.0936,-0.003 -0.20543,-0.0739 z m -6.81985,-3.44101 c 0.0557,-0.0464 0.0938,-0.0896 0.0847,-0.0961 -0.22341,-0.15837 -0.36314,-0.18666 -0.25026,-0.0506 0.0294,0.0355 0.0369,0.0672 0.0166,0.0705 -0.0426,0.007 -0.16467,0.0187 -0.30152,0.0291 -0.16424,0.0125 -0.10372,0.0863 0.0847,0.10325 0.099,0.009 0.19897,0.0189 0.22225,0.0222 0.0233,0.003 0.0879,-0.032 0.14358,-0.0783 z m 6.10059,3.43147 c -0.0513,-0.0332 -0.0453,-0.0412 0.0318,-0.0417 0.0524,-3.5e-4 0.0953,0.0184 0.0953,0.0417 0,0.053 -0.0449,0.053 -0.127,0 z m -0.23674,-0.0584 c -0.0164,-0.0427 -0.0872,-0.0545 -0.26326,-0.044 -0.13246,0.008 -0.27417,0.004 -0.31492,-0.008 -0.0775,-0.0234 -0.10527,-0.18599 -0.0317,-0.18599 0.0233,0 0.0423,-0.0265 0.0423,-0.059 0,-0.0811 -0.13344,-0.12574 -0.17595,-0.0589 -0.0255,0.0402 -0.0613,0.0212 -0.13693,-0.0726 -0.0563,-0.0698 -0.0936,-0.14128 -0.0828,-0.15875 0.0108,-0.0175 -0.0196,-0.0318 -0.0675,-0.0318 -0.0518,0 -0.0872,-0.0276 -0.0872,-0.068 0,-0.0446 0.023,-0.0592 0.067,-0.0423 0.0368,0.0141 0.14014,0.0257 0.22958,0.0257 0.12424,0 0.19259,0.03 0.28961,0.127 0.0699,0.0699 0.17186,0.127 0.22667,0.127 0.10401,0 0.28534,0.10437 0.34188,0.19677 0.0181,0.0295 0.0609,0.0429 0.0952,0.0298 0.0453,-0.0174 0.0624,0.007 0.0624,0.0889 0,0.0645 -0.0182,0.10164 -0.0423,0.0867 -0.0233,-0.0144 -0.0423,0.004 -0.0423,0.0398 0,0.0816 -0.0792,0.0871 -0.10974,0.008 z m -0.4406,-0.15325 c 0,-0.0233 -0.0202,-0.0423 -0.0448,-0.0423 -0.0247,0 -0.0331,0.019 -0.0187,0.0423 0.0144,0.0233 0.0346,0.0423 0.0448,0.0423 0.0103,0 0.0187,-0.019 0.0187,-0.0423 z m -1.75465,-0.33575 c -0.0136,-0.0221 -0.007,-0.0513 0.0153,-0.0649 0.0221,-0.0136 0.0512,-0.007 0.0649,0.0153 0.0136,0.0221 0.007,0.0513 -0.0153,0.0649 -0.0221,0.0136 -0.0513,0.007 -0.0649,-0.0153 z m 0.4229,-0.043 c -0.0289,-0.0468 0.0379,-0.0973 0.077,-0.0582 0.0403,0.0403 0.0327,0.0976 -0.0128,0.0976 -0.0219,0 -0.0508,-0.0177 -0.0642,-0.0394 z m -1.6459,-0.11596 c -0.0156,-0.0156 0.002,-0.0744 0.0387,-0.13068 0.0369,-0.0563 0.055,-0.11438 0.0402,-0.12915 -0.0148,-0.0148 -0.0424,-0.002 -0.0615,0.0292 -0.0274,0.0443 -0.0542,0.0456 -0.12821,0.006 -0.0912,-0.0488 -0.0916,-0.0523 -0.016,-0.13865 0.0427,-0.0487 0.0559,-0.0759 0.0293,-0.0605 -0.0266,0.0155 -0.0793,-0.0192 -0.11739,-0.0774 -0.0469,-0.0717 -0.0528,-0.10547 -0.0184,-0.10547 0.0279,0 0.009,-0.0441 -0.0414,-0.098 -0.11378,-0.12112 -0.11577,-0.15602 -0.009,-0.15602 0.0458,0 0.10271,0.0365 0.12659,0.0811 0.0239,0.0446 0.14362,0.11435 0.26608,0.15497 0.12246,0.0406 0.28427,0.10839 0.35959,0.15062 0.0753,0.0422 0.16581,0.0657 0.20109,0.0522 0.0449,-0.0172 0.0641,0.002 0.0641,0.0656 0,0.10829 -0.16311,0.18632 -0.3875,0.18537 -0.12179,-5.1e-4 -0.16434,0.0206 -0.20018,0.0992 -0.0458,0.10052 -0.0938,0.12398 -0.14625,0.0715 z m 0.0566,-0.45847 c -0.0299,-0.036 -0.0631,-0.0568 -0.0738,-0.0461 -0.0233,0.0233 0.0878,0.15032 0.11159,0.12756 0.009,-0.009 -0.008,-0.0454 -0.0378,-0.0814 z m -2.286,0.31883 c 0,-0.0225 -0.0247,-0.0315 -0.0549,-0.0199 -0.0302,0.0116 -0.14442,-0.0265 -0.25385,-0.0847 -0.10942,-0.0582 -0.2276,-0.0948 -0.26261,-0.0814 -0.0762,0.0293 -0.0839,-0.0321 -0.0129,-0.10316 0.0395,-0.0395 0.0354,-0.0508 -0.0187,-0.0508 -0.0382,0 -0.0812,0.019 -0.0956,0.0423 -0.0356,0.0575 -0.10583,0.0536 -0.10583,-0.006 0,-0.0265 -0.0285,-0.0694 -0.0633,-0.0952 -0.0533,-0.0396 -0.0404,-0.0626 0.0821,-0.14592 0.17513,-0.11916 0.24053,-0.10321 0.48142,0.11738 0.10508,0.0962 0.20847,0.15738 0.24342,0.14396 0.0334,-0.0128 0.0607,-0.0141 0.0607,-0.003 0,0.0113 0.0288,0.0895 0.0641,0.17386 0.0572,0.1369 0.0572,0.15334 0,0.15334 -0.0352,0 -0.0641,-0.0185 -0.0641,-0.041 z m 1.69334,-0.086 c 0,-0.0233 0.0286,-0.0423 0.0635,-0.0423 0.0349,0 0.0635,0.019 0.0635,0.0423 0,0.0233 -0.0286,0.0423 -0.0635,0.0423 -0.0349,0 -0.0635,-0.019 -0.0635,-0.0423 z m -2.65889,-0.17251 c 0.008,-0.025 0.0333,-0.0455 0.0554,-0.0455 0.0221,0 0.047,0.0205 0.0554,0.0455 0.008,0.025 -0.0166,0.0455 -0.0554,0.0455 -0.0388,0 -0.0637,-0.0205 -0.0554,-0.0455 z m -1.06645,-0.0392 c -0.0481,-0.0311 -0.0294,-0.0412 0.0766,-0.0417 0.0827,-3.8e-4 0.12937,0.0167 0.11391,0.0417 -0.0329,0.0532 -0.1082,0.0532 -0.1905,0 z m 3.81244,-0.0469 c 0.0325,-0.0607 0.0616,-0.0754 0.0909,-0.046 0.0536,0.0536 0.008,0.13523 -0.0762,0.13523 -0.0504,0 -0.0533,-0.0172 -0.0147,-0.0892 z m -3.05044,0.006 c 0,-0.0225 0.0286,-0.03 0.0635,-0.0166 0.0349,0.0134 0.0635,0.0318 0.0635,0.041 0,0.009 -0.0286,0.0166 -0.0635,0.0166 -0.0349,0 -0.0635,-0.0185 -0.0635,-0.041 z m 2.794,-0.001 c 0,-0.0233 0.0286,-0.0423 0.0635,-0.0423 0.0349,0 0.0635,0.019 0.0635,0.0423 0,0.0233 -0.0286,0.0423 -0.0635,0.0423 -0.0349,0 -0.0635,-0.019 -0.0635,-0.0423 z m -2.9845,-0.0847 c 0.0144,-0.0233 0.0536,-0.0423 0.0872,-0.0423 0.0335,0 0.061,0.019 0.061,0.0423 0,0.0233 -0.0392,0.0423 -0.0872,0.0423 -0.0479,0 -0.0754,-0.0191 -0.061,-0.0423 z m 2.7305,0 c 0,-0.0233 0.0191,-0.0423 0.0423,-0.0423 0.0233,0 0.0423,0.019 0.0423,0.0423 0,0.0233 -0.019,0.0423 -0.0423,0.0423 -0.0233,0 -0.0423,-0.0191 -0.0423,-0.0423 z m -2.37066,-0.0847 c 0,-0.0233 0.0179,-0.0423 0.0398,-0.0423 0.0219,0 0.0516,0.019 0.066,0.0423 0.0144,0.0233 -0.004,0.0423 -0.0398,0.0423 -0.0363,0 -0.066,-0.019 -0.066,-0.0423 z m 2.86721,-0.0837 c -0.0383,-0.0547 -0.059,-0.11682 -0.0459,-0.13802 0.0311,-0.0503 0.15331,0.1242 0.13192,0.18835 -0.009,0.0281 -0.0462,0.007 -0.0861,-0.0503 z m -0.49655,-0.001 c 0,-0.0233 0.0179,-0.0423 0.0398,-0.0423 0.0219,0 0.0516,0.0191 0.066,0.0423 0.0144,0.0233 -0.004,0.0423 -0.0398,0.0423 -0.0363,0 -0.066,-0.0191 -0.066,-0.0423 z m 0.29634,-0.10584 c 0,-0.0349 0.0191,-0.0635 0.0423,-0.0635 0.0233,0 0.0423,0.0286 0.0423,0.0635 0,0.0349 -0.019,0.0635 -0.0423,0.0635 -0.0233,0 -0.0423,-0.0286 -0.0423,-0.0635 z m -0.127,-0.10833 c 0,-0.0247 0.019,-0.0331 0.0423,-0.0187 0.0233,0.0144 0.0423,0.0346 0.0423,0.0448 0,0.0103 -0.0191,0.0187 -0.0423,0.0187 -0.0233,0 -0.0423,-0.0202 -0.0423,-0.0448 z m 1.82033,-0.14817 c 0,-0.0363 0.019,-0.0542 0.0423,-0.0398 0.0233,0.0144 0.0423,0.0441 0.0423,0.066 0,0.0219 -0.0191,0.0398 -0.0423,0.0398 -0.0233,0 -0.0423,-0.0297 -0.0423,-0.066 z m 1.22813,-0.18713 c -0.0247,-0.0461 -0.0328,-0.13181 -0.0181,-0.1905 0.0173,-0.0687 0.009,-0.1067 -0.023,-0.1067 -0.0305,0 -0.0394,-0.0328 -0.0229,-0.0847 0.0188,-0.0592 0.008,-0.0847 -0.0372,-0.0847 -0.0352,0 -0.0891,-0.0524 -0.11984,-0.11642 -0.0307,-0.064 -0.0825,-0.11642 -0.1152,-0.11642 -0.0824,0 -0.1022,-0.0834 -0.0334,-0.14048 0.0436,-0.0362 0.14103,-0.006 0.41416,0.12769 0.1964,0.0963 0.38143,0.20917 0.41117,0.25089 0.0302,0.0424 0.0822,0.0651 0.11799,0.0513 0.0352,-0.0135 0.0965,0.002 0.13643,0.0335 0.13858,0.11096 0.26004,0.16237 0.32483,0.1375 0.0399,-0.0153 0.0652,-0.002 0.0652,0.0354 0,0.0484 -0.0442,0.0546 -0.22225,0.031 -0.12223,-0.0162 -0.23438,-0.0225 -0.2492,-0.014 -0.0148,0.008 -0.0509,-0.0135 -0.0802,-0.0487 -0.0473,-0.057 -0.0619,-0.0562 -0.1318,0.007 -0.0432,0.0391 -0.0786,0.1158 -0.0786,0.1704 0,0.0606 -0.0251,0.0993 -0.0643,0.0993 -0.0475,0 -0.0573,-0.0277 -0.0378,-0.10584 0.0219,-0.0871 0.0112,-0.10583 -0.0602,-0.10583 -0.10714,0 -0.15979,0.0759 -0.0965,0.13915 0.058,0.058 0.0611,0.11485 0.006,0.11485 -0.0225,0 -0.061,-0.0377 -0.0857,-0.0838 z m 0.12654,-0.25487 c 0,-0.0233 -0.0202,-0.0423 -0.0448,-0.0423 -0.0247,0 -0.0331,0.019 -0.0187,0.0423 0.0144,0.0233 0.0346,0.0423 0.0448,0.0423 0.0103,0 0.0187,-0.019 0.0187,-0.0423 z m -0.14817,-0.33866 c -0.0144,-0.0233 -0.0441,-0.0423 -0.066,-0.0423 -0.0219,0 -0.0398,0.0191 -0.0398,0.0423 0,0.0233 0.0297,0.0423 0.066,0.0423 0.0363,0 0.0542,-0.019 0.0398,-0.0423 z m 0.61383,0.508 c 0,-0.0233 0.0286,-0.0423 0.0635,-0.0423 0.0349,0 0.0635,0.019 0.0635,0.0423 0,0.0233 -0.0286,0.0423 -0.0635,0.0423 -0.0349,0 -0.0635,-0.019 -0.0635,-0.0423 z m -1.05833,-0.127 c 0,-0.0233 0.019,-0.0423 0.0423,-0.0423 0.0233,0 0.0423,0.0191 0.0423,0.0423 0,0.0233 -0.0191,0.0423 -0.0423,0.0423 -0.0233,0 -0.0423,-0.019 -0.0423,-0.0423 z m -2.05796,-0.0794 c 0.0395,-0.0437 0.0663,-0.10319 0.0595,-0.13229 -0.007,-0.0291 0.0143,-0.0626 0.047,-0.0745 0.043,-0.0156 0.0528,0.003 0.0357,0.0688 -0.0268,0.10265 -0.0161,0.10772 0.0982,0.0465 0.11007,-0.0589 0.10309,-0.10226 -0.0259,-0.16105 -0.14916,-0.068 -0.27318,-0.0614 -0.27318,0.0144 0,0.0349 -0.0191,0.0635 -0.0423,0.0635 -0.0233,0 -0.0423,-0.0476 -0.0423,-0.10584 0,-0.0894 0.0198,-0.10583 0.127,-0.10583 0.0782,0 0.127,-0.0219 0.127,-0.057 0,-0.0995 -0.131,-0.324 -0.18907,-0.324 -0.0529,0 -0.10727,-0.0876 -0.10727,-0.1728 0,-0.0661 0.0595,-0.0434 0.18086,0.0691 0.0641,0.0594 0.13436,0.097 0.15619,0.0835 0.0218,-0.0135 0.0596,0.0125 0.0838,0.0579 0.0243,0.0453 0.10157,0.095 0.17181,0.11046 0.0702,0.0154 0.14727,0.0646 0.17118,0.10927 0.0239,0.0447 0.0714,0.0812 0.10548,0.0812 0.0727,0 0.0771,0.0395 0.0207,0.18774 -0.0298,0.0784 -0.0721,0.10859 -0.15213,0.10859 -0.0729,0 -0.11797,0.0273 -0.13169,0.0797 -0.0198,0.0756 -0.19076,0.1302 -0.4117,0.13148 -0.0762,4.4e-4 -0.0767,-0.004 -0.009,-0.0789 z m 0.27454,-0.51755 c -0.099,-0.0627 -0.12523,-0.0418 -0.0475,0.0378 0.0408,0.0417 0.0812,0.0586 0.0898,0.0374 0.009,-0.0211 -0.0104,-0.055 -0.0423,-0.0752 z m 1.12725,0.55458 c -0.0144,-0.0233 0.005,-0.0423 0.0423,-0.0423 0.0377,0 0.0567,0.019 0.0423,0.0423 -0.0144,0.0233 -0.0334,0.0423 -0.0423,0.0423 -0.009,0 -0.0279,-0.019 -0.0423,-0.0423 z m 0.52917,-0.0847 c 0,-0.0233 0.0286,-0.0423 0.0635,-0.0423 0.0349,0 0.0635,0.019 0.0635,0.0423 0,0.0233 -0.0286,0.0423 -0.0635,0.0423 -0.0349,0 -0.0635,-0.019 -0.0635,-0.0423 z m 0.254,0 c 0,-0.0233 0.0286,-0.0423 0.0635,-0.0423 0.0349,0 0.0635,0.019 0.0635,0.0423 0,0.0233 -0.0286,0.0423 -0.0635,0.0423 -0.0349,0 -0.0635,-0.019 -0.0635,-0.0423 z m -0.508,-0.0437 c 0,-0.0546 0.12061,-0.10383 0.15935,-0.0651 0.0158,0.0158 6.8e-4,0.0464 -0.0336,0.0681 -0.0819,0.0518 -0.12577,0.0508 -0.12577,-0.003 z m 0.21571,-0.12317 c -0.0421,-0.026 -0.0433,-0.0418 -0.005,-0.0655 0.0278,-0.0172 0.0696,-0.0122 0.0929,0.0111 0.0552,0.0552 -0.0158,0.099 -0.088,0.0544 z m -5.63438,-0.0448 c 0,-0.0233 0.0191,-0.0423 0.0423,-0.0423 0.0233,0 0.0423,0.019 0.0423,0.0423 0,0.0233 -0.019,0.0423 -0.0423,0.0423 -0.0233,0 -0.0423,-0.019 -0.0423,-0.0423 z m 0.5715,-0.0423 c -0.0144,-0.0233 0.004,-0.0423 0.0398,-0.0423 0.0363,0 0.066,0.0191 0.066,0.0423 0,0.0233 -0.0179,0.0423 -0.0398,0.0423 -0.0219,0 -0.0516,-0.019 -0.066,-0.0423 z m 0.40217,0 c 0,-0.0233 0.0191,-0.0423 0.0423,-0.0423 0.0233,0 0.0423,0.0191 0.0423,0.0423 0,0.0233 -0.019,0.0423 -0.0423,0.0423 -0.0233,0 -0.0423,-0.019 -0.0423,-0.0423 z m -0.55033,-0.127 c 0,-0.0233 0.019,-0.0423 0.0423,-0.0423 0.0233,0 0.0423,0.0191 0.0423,0.0423 0,0.0233 -0.0191,0.0423 -0.0423,0.0423 -0.0233,0 -0.0423,-0.019 -0.0423,-0.0423 z m 2.54,0 c 0,-0.0233 0.0179,-0.0423 0.0398,-0.0423 0.0219,0 0.0516,0.0191 0.066,0.0423 0.0144,0.0233 -0.004,0.0423 -0.0398,0.0423 -0.0363,0 -0.066,-0.019 -0.066,-0.0423 z m -0.1905,-0.0423 c -0.0144,-0.0233 -0.006,-0.0423 0.0187,-0.0423 0.0247,0 0.0448,0.019 0.0448,0.0423 0,0.0233 -0.008,0.0423 -0.0187,0.0423 -0.0103,0 -0.0304,-0.0191 -0.0448,-0.0423 z m -2.02624,-0.10559 c 0.0134,-0.0348 0.0413,-0.0527 0.0622,-0.0398 0.0598,0.0369 0.0442,0.10309 -0.0243,0.10309 -0.0378,0 -0.0526,-0.0248 -0.0379,-0.0633 z m 2.59774,-0.0143 c 0,-0.0612 0.20284,-0.1466 0.27881,-0.11745 0.0674,0.0259 0.0669,0.0325 -0.008,0.0889 -0.0874,0.0662 -0.27108,0.0855 -0.27108,0.0285 z m -0.14623,-0.38516 c -0.0289,-0.0468 0.0379,-0.0973 0.077,-0.0582 0.0403,0.0403 0.0327,0.0976 -0.0128,0.0976 -0.0219,0 -0.0508,-0.0177 -0.0642,-0.0394 z m -3.32498,-0.0478 c 0,-0.0247 0.0191,-0.0331 0.0423,-0.0187 0.0233,0.0144 0.0423,0.0346 0.0423,0.0448 0,0.0103 -0.0191,0.0187 -0.0423,0.0187 -0.0233,0 -0.0423,-0.0202 -0.0423,-0.0448 z m 3.556,-0.0398 c 0,-0.0233 0.0179,-0.0423 0.0398,-0.0423 0.0219,0 0.0516,0.019 0.066,0.0423 0.0144,0.0233 -0.004,0.0423 -0.0398,0.0423 -0.0363,0 -0.066,-0.0191 -0.066,-0.0423 z m -3.25966,-0.127 c 0,-0.0233 0.019,-0.0423 0.0423,-0.0423 0.0233,0 0.0423,0.0191 0.0423,0.0423 0,0.0233 -0.019,0.0423 -0.0423,0.0423 -0.0233,0 -0.0423,-0.019 -0.0423,-0.0423 z m -0.40217,-0.0847 c -0.0144,-0.0233 0.005,-0.0423 0.0423,-0.0423 0.0377,0 0.0567,0.0191 0.0423,0.0423 -0.0144,0.0233 -0.0334,0.0423 -0.0423,0.0423 -0.009,0 -0.0279,-0.019 -0.0423,-0.0423 z m 3.28083,-0.061 c 0,-0.0363 0.0191,-0.066 0.0423,-0.066 0.0233,0 0.0423,0.0179 0.0423,0.0398 0,0.0219 -0.019,0.0516 -0.0423,0.066 -0.0233,0.0144 -0.0423,-0.004 -0.0423,-0.0398 z m -3.048,-0.0191 c 0,-0.0467 0.10985,-0.0922 0.14288,-0.0592 0.0133,0.0133 0.014,0.0406 0.002,0.0606 -0.0297,0.0481 -0.14452,0.047 -0.14452,-0.001 z m 0.3173,-0.0474 c -0.0145,-0.0234 0.004,-0.0544 0.0417,-0.0687 0.0811,-0.0311 0.12623,0.003 0.0873,0.0662 -0.0352,0.0569 -0.0946,0.058 -0.12892,0.003 z"
       id="path3" /></g></svg>
