<?xml version="1.0" encoding="UTF-8" standalone="no"?>
<!-- Created with Inkscape (http://www.inkscape.org/) -->

<svg
   width="8.8131952mm"
   height="6.9163189mm"
   viewBox="0 0 8.8131951 6.9163189"
   version="1.1"
   id="svg1"
   xmlns="http://www.w3.org/2000/svg"
   xmlns:svg="http://www.w3.org/2000/svg">
  <defs
     id="defs1" />
  <g
     id="layer1"
     transform="translate(-7.4584437,-61.701843)">
    <g
       id="g486"
       transform="translate(-961.21371,-87.721525)"
       style="fill:#ffffff;fill-opacity:0.75;stroke:#dddddd;stroke-opacity:0.9">
      <path

         id="path484"
         d="m 969.17205,151.45069 c 0.35295,0.40464 0.69521,0.82266 1.00515,1.26153 0.2845,0.40285 0.47154,0.71513 0.73318,1.13358 0.49366,0.87247 0.15023,0.2521 0.5978,1.09335 0.0824,0.15496 0.15031,0.3189 0.24966,0.4636 0.10647,0.1551 0.24292,0.2873 0.36439,0.43095 0,0 0.0191,0.006 0.0191,0.006 v 0 c 0.0238,-0.099 0.0812,-0.19555 0.0716,-0.29689 -0.0143,-0.15112 -0.0852,-0.29186 -0.14112,-0.43299 -0.1777,-0.44868 -0.31176,-0.65574 -0.54981,-1.08584 -0.12271,-0.19395 -0.24037,-0.39119 -0.36819,-0.58183 -0.4273,-0.6374 -0.91207,-1.24824 -1.42537,-1.81823 z" />
      <path

         id="path485"
         d="m 972.93783,149.92332 c -0.0161,0.96145 0.0278,1.92399 0.0557,2.88526 0.0312,0.52216 0.0296,0.62941 0.0897,1.13509 0.0329,0.27683 0.0703,0.60514 0.17581,0.86879 0.0537,0.13422 0.13647,0.25491 0.20468,0.38236 0,0 0.0177,0.009 0.0177,0.009 v 0 c 0.0515,-0.0675 0.12536,-0.12282 0.15449,-0.20258 0.0723,-0.19788 0.0362,-0.61626 0.0267,-0.79643 -0.0249,-0.47371 -0.0461,-0.66563 -0.0883,-1.14824 -0.0896,-0.92285 -0.14386,-1.84652 -0.14301,-2.77399 z" />
      <path

         id="path486"
         d="m 976.48619,150.65776 c -0.59349,0.70969 -0.97216,1.55891 -1.33147,2.40257 -0.19547,0.54748 -0.40108,1.09837 -0.50855,1.67206 -0.0302,0.16129 -0.073,0.32459 -0.0623,0.48834 0.0111,0.17083 0.0845,0.33179 0.12676,0.49769 0,0 0.0175,0.01 0.0175,0.01 v 0 c 0.0924,-0.0856 0.21058,-0.14994 0.27715,-0.25687 0.0796,-0.12781 0.10292,-0.28307 0.14835,-0.4266 0.17426,-0.55037 0.30271,-1.11584 0.52113,-1.65204 0.0748,-0.18807 0.14366,-0.37859 0.22434,-0.56421 0.27638,-0.63587 0.63219,-1.23875 1.08627,-1.76423 z" />
    </g>
  </g>
</svg>
