<?xml version="1.0" encoding="UTF-8" standalone="no"?>
<!-- Created with Inkscape (http://www.inkscape.org/) -->

<svg
   width="193.72482mm"
   height="30.799961mm"
   viewBox="0 0 193.72482 30.799961"
   version="1.1"
   id="svg1"
   inkscape:version="1.3.2 (091e20ef0f, 2023-11-25)"
   sodipodi:docname="consistances.svg"
   xmlns:inkscape="http://www.inkscape.org/namespaces/inkscape"
   xmlns:sodipodi="http://sodipodi.sourceforge.net/DTD/sodipodi-0.dtd"
   xmlns="http://www.w3.org/2000/svg"
   xmlns:svg="http://www.w3.org/2000/svg">
  <sodipodi:namedview
     id="namedview1"
     pagecolor="#ffffff"
     bordercolor="#666666"
     borderopacity="1.0"
     inkscape:showpageshadow="2"
     inkscape:pageopacity="0.0"
     inkscape:pagecheckerboard="0"
     inkscape:deskcolor="#d1d1d1"
     inkscape:document-units="mm"
     inkscape:zoom="1.4677327"
     inkscape:cx="292.28756"
     inkscape:cy="165.90215"
     inkscape:window-width="1499"
     inkscape:window-height="1243"
     inkscape:window-x="2874"
     inkscape:window-y="36"
     inkscape:window-maximized="0"
     inkscape:current-layer="layer1" />
  <defs
     id="defs1" />
  <g
     inkscape:label="Layer 1"
     inkscape:groupmode="layer"
     id="layer1"
     transform="translate(-7.2986268,-56.226499)">
    <text
       xml:space="preserve"
       style="font-size:4.23333px;line-height:1.25;font-family:Euphorigenic;-inkscape-font-specification:'Euphorigenic, Normal';font-variant-caps:small-caps;letter-spacing:0px;word-spacing:0px;stroke-width:0.264583"
       x="7.2181935"
       y="85.997757"
       id="text8-0-7-9"><tspan
         sodipodi:role="line"
         id="tspan8-1-2-1"
         style="stroke-width:0.264583"
         x="7.2181935"
         y="85.997757">Humeur</tspan></text>
    <text
       xml:space="preserve"
       style="font-size:4.23333px;line-height:1.25;font-family:Euphorigenic;-inkscape-font-specification:'Euphorigenic, Normal';font-variant-caps:small-caps;letter-spacing:0px;word-spacing:0px;stroke-width:0.264583"
       x="37.771049"
       y="85.997757"
       id="text8-0-7-9-0"><tspan
         sodipodi:role="line"
         id="tspan8-1-2-1-5"
         style="stroke-width:0.264583"
         x="37.771049"
         y="85.997757">Vapeur</tspan></text>
    <text
       xml:space="preserve"
       style="font-size:4.23333px;line-height:1.25;font-family:Euphorigenic;-inkscape-font-specification:'Euphorigenic, Normal';font-variant-caps:small-caps;letter-spacing:0px;word-spacing:0px;stroke-width:0.264583"
       x="66.910027"
       y="86.137466"
       id="text8-0-7-9-0-9"><tspan
         sodipodi:role="line"
         id="tspan8-1-2-1-5-7"
         style="stroke-width:0.264583"
         x="66.910027"
         y="86.137466">Fluide</tspan></text>
    <text
       xml:space="preserve"
       style="font-size:4.23333px;line-height:1.25;font-family:Euphorigenic;-inkscape-font-specification:'Euphorigenic, Normal';font-variant-caps:small-caps;letter-spacing:0px;word-spacing:0px;stroke-width:0.264583"
       x="94.22863"
       y="86.018921"
       id="text8-0-7-9-0-9-0"><tspan
         sodipodi:role="line"
         id="tspan8-1-2-1-5-7-6"
         style="stroke-width:0.264583"
         x="94.22863"
         y="86.018921">Précipité</tspan></text>
    <text
       xml:space="preserve"
       style="font-size:4.23333px;line-height:1.25;font-family:Euphorigenic;-inkscape-font-specification:'Euphorigenic, Normal';font-variant-caps:small-caps;letter-spacing:0px;word-spacing:0px;stroke-width:0.264583"
       x="125.83557"
       y="86.044327"
       id="text8-0-7-9-0-9-0-5"><tspan
         sodipodi:role="line"
         id="tspan8-1-2-1-5-7-6-1"
         style="stroke-width:0.264583"
         x="125.83557"
         y="86.044327">Congestion</tspan></text>
    <text
       xml:space="preserve"
       style="font-size:4.23333px;line-height:1.25;font-family:Euphorigenic;-inkscape-font-specification:'Euphorigenic, Normal';font-variant-caps:small-caps;letter-spacing:0px;word-spacing:0px;stroke-width:0.264583"
       x="160.16882"
       y="85.997757"
       id="text8-0-7-9-0-9-0-5-3"><tspan
         sodipodi:role="line"
         id="tspan8-1-2-1-5-7-6-1-8"
         style="stroke-width:0.264583"
         x="160.16882"
         y="85.997757">Amas</tspan></text>
    <text
       xml:space="preserve"
       style="font-size:4.23333px;line-height:1.25;font-family:Euphorigenic;-inkscape-font-specification:'Euphorigenic, Normal';font-variant-caps:small-caps;letter-spacing:0px;word-spacing:0px;stroke-width:0.264583"
       x="187.24193"
       y="86.137466"
       id="text8-0-7-9-0-9-0-5-3-3"><tspan
         sodipodi:role="line"
         id="tspan8-1-2-1-5-7-6-1-8-1"
         style="stroke-width:0.264583"
         x="187.24193"
         y="86.137466">Cristal</tspan></text>
    <g
       id="g489"
       transform="translate(-919.7788,-105.18184)"
       style="fill:#000000;fill-opacity:0.69492197;stroke:#000000;stroke-opacity:0.57465613"
       inkscape:export-filename="cd_3.svg"
       inkscape:export-xdpi="96"
       inkscape:export-ydpi="96">
      <path
         style="fill:#000000;fill-opacity:0.69492197;stroke:#000000;stroke-width:1;stroke-linecap:round;stroke-linejoin:round;stroke-miterlimit:2;stroke-dasharray:none;stroke-opacity:0.57465613;paint-order:markers stroke fill"
         id="path455"
         d="m 990.15774,166.55784 c 0.0108,0.0978 0.0257,0.19525 0.0329,0.29341 0.005,0.0742 0.0363,0.86133 0.0379,0.89987 0.0217,0.50313 0.0432,1.00576 0.0571,1.50918 0.009,0.0757 0.0786,0.68419 0.0985,0.77382 0.14933,0.49814 0.0952,0.26795 0.17611,0.68723 0,0 0.014,0.0141 0.014,0.0141 v 0 c 0.0151,-0.0604 0.0212,-0.12378 0.0454,-0.18118 0.027,-0.0643 0.0895,-0.1125 0.10639,-0.18017 0.0282,-0.11308 0.032,-0.7061 0.0334,-0.7825 -0.0415,-0.47927 -0.0806,-0.95856 -0.11372,-1.43849 -0.0114,-0.1662 -0.0491,-0.71729 -0.0526,-0.90199 -0.003,-0.10991 0.005,-0.21981 0.007,-0.32971 z" />
      <path
         style="fill:#000000;fill-opacity:0.69492197;stroke:#000000;stroke-width:1;stroke-linecap:round;stroke-linejoin:round;stroke-miterlimit:2;stroke-dasharray:none;stroke-opacity:0.57465613;paint-order:markers stroke fill"
         id="path456"
         d="m 987.21298,166.56128 c 0.0246,0.0568 0.0456,0.11524 0.0739,0.1703 0.038,0.0741 0.0862,0.14278 0.12464,0.2167 0.1043,0.20049 0.23995,0.51394 0.33409,0.7087 0.40778,0.84366 0.0628,0.0701 0.46175,0.99766 0.0898,0.18278 0.18442,0.36326 0.26935,0.54834 0.0911,0.19858 0.17375,0.40096 0.25866,0.60228 0.25236,0.59839 0.49419,1.20283 0.67669,1.82696 0.0552,0.18872 0.098,0.38084 0.14701,0.57126 0.13142,0.62772 0.20849,1.29213 -0.18185,1.85006 -0.24612,0.35178 -0.44088,0.44711 -0.78616,0.69817 -0.18169,0.0888 -0.35557,0.19577 -0.54509,0.2664 -0.8468,0.31562 -1.80187,0.34322 -2.64007,-0.0182 -0.19978,-0.0862 -0.37806,-0.21545 -0.56708,-0.32318 0.0281,0.0221 0.10068,0.0979 0.0842,0.0662 -0.0989,-0.19039 -0.24736,-0.35369 -0.33515,-0.54943 -0.23654,-0.52734 -0.29818,-1.14348 -0.0563,-1.68031 0.0576,-0.12775 0.15888,-0.23086 0.23831,-0.34628 0.32263,-0.22818 0.36004,-0.30835 0.7657,-0.37551 0.13243,-0.0219 0.26845,-0.003 0.40264,-0.006 0.0977,-0.002 0.19828,-0.0319 0.29292,-0.008 0.11494,0.0294 0.21077,0.10895 0.31616,0.16343 0,0 -0.0122,-0.0159 -0.0122,-0.0159 v 0 c -0.19394,-0.12285 -0.72345,-0.46666 -0.8958,-0.53185 -0.2912,-0.11013 -0.67132,-0.12492 -0.96594,-0.0115 -0.14964,0.0576 -0.27106,0.17132 -0.40658,0.25698 -0.10068,0.14206 -0.22831,0.26843 -0.30202,0.42617 -0.24204,0.51796 -0.14976,1.16186 0.0547,1.67208 0.0796,0.19859 0.16391,0.40248 0.3006,0.56706 0.29556,0.35586 0.65566,0.65271 0.98348,0.97907 0.18558,0.1118 0.35647,0.25275 0.55673,0.3354 0.85458,0.35265 1.85934,0.19274 2.68957,-0.14121 0.19537,-0.0786 0.37778,-0.18626 0.56666,-0.2794 0.35166,-0.25846 0.56388,-0.3618 0.80211,-0.73392 0.38841,-0.60673 0.28626,-1.34203 0.14478,-2.00359 -0.0577,-0.18548 -0.10861,-0.37319 -0.17301,-0.55643 -0.35253,-1.00281 -0.87619,-1.93166 -1.27891,-2.9129 -0.38339,-0.78424 -0.12555,-0.23054 -0.45459,-1.00369 -0.084,-0.19744 -0.22979,-0.51266 -0.30842,-0.72227 -0.0324,-0.0862 -0.054,-0.17614 -0.086,-0.26245 -0.0206,-0.0559 -0.048,-0.10919 -0.0721,-0.16378 z" />
      <path
         style="fill:#000000;fill-opacity:0.69492197;stroke:#000000;stroke-width:1;stroke-linecap:round;stroke-linejoin:round;stroke-miterlimit:2;stroke-dasharray:none;stroke-opacity:0.57465613;paint-order:markers stroke fill"
         id="path457"
         d="m 993.39965,166.56609 c -0.32607,0.61042 -0.62198,1.23622 -0.89826,1.87058 -0.23191,0.54218 -0.42826,1.1004 -0.54724,1.67902 -0.0797,0.38787 -0.0799,0.4953 -0.11938,0.89234 -0.009,0.1587 -0.018,0.31738 -0.0262,0.47611 -0.009,0.17256 -0.023,0.34497 -0.0257,0.51774 -0.0103,0.66775 0.08,1.32924 0.19823,1.98434 0.0887,0.39916 0.1824,0.8224 0.44453,1.15127 0.2518,0.31587 0.84481,0.62202 1.1105,0.74775 0.11216,0.0531 0.24369,0.0469 0.3655,0.0703 0.12819,0.008 0.25617,0.026 0.38455,0.023 0.44989,-0.0103 1.08463,-0.18429 1.47317,-0.41724 0.10898,-0.0654 0.20539,-0.14966 0.30811,-0.22449 0.27418,-0.26783 0.43812,-0.58736 0.51556,-0.96124 0.0257,-0.12375 0.0544,-0.2497 0.049,-0.37596 -0.009,-0.21066 -0.1539,-0.57968 -0.21875,-0.76734 -0.33518,-0.5903 -0.79524,-1.19536 -1.45505,-1.42556 -0.16346,-0.057 -0.4993,-0.12998 -0.67977,-0.0905 -0.0937,0.0205 -0.16949,0.0898 -0.25424,0.13466 -0.0695,0.0674 -0.13906,0.13471 -0.2086,0.20206 0,0 0.0143,0.014 0.0143,0.014 v 0 c 0.11729,-0.0144 0.23458,-0.0288 0.3519,-0.0431 0.42682,0.0793 0.84251,0.15995 1.22856,0.3719 0.13322,0.0731 0.30404,0.3848 0.37939,0.25283 0.08,-0.14007 -0.1764,-0.28327 -0.31303,-0.36903 -0.11316,-0.0711 0.15896,0.2148 0.23844,0.3222 0.0556,0.1267 0.13171,0.24626 0.1668,0.3801 0.038,0.14501 0.0467,0.29706 0.05,0.44692 0.0111,0.5062 -0.18399,0.97329 -0.49109,1.36594 -0.0816,0.0696 -0.15799,0.14597 -0.24493,0.20882 -0.52745,0.38125 -1.158,0.51741 -1.79991,0.51633 -0.11898,-0.0251 -0.27275,-0.16311 -0.35692,-0.0754 -0.0715,0.0745 0.32271,0.25107 0.22812,0.20962 -0.10734,-0.0471 -0.19068,-0.13945 -0.26834,-0.22724 -0.27561,-0.31158 -0.39372,-0.73238 -0.51186,-1.11888 -0.0332,-0.16595 -0.0728,-0.33073 -0.0996,-0.49784 -0.0807,-0.50469 -0.0828,-1.00582 -0.0968,-1.51468 -0.004,-0.14955 -0.0182,-0.29881 -0.019,-0.44841 0,-0.15546 0.01,-0.31077 0.0145,-0.46616 0.0372,-0.39603 0.0365,-0.49973 0.1134,-0.88684 0.1134,-0.57101 0.31049,-1.12299 0.52772,-1.66153 0.29326,-0.65413 0.61475,-1.29336 0.95652,-1.92341 z" />
    </g>
    <g
       id="g490"
       transform="translate(-875.48414,-101.74021)"
       style="fill:#000000;fill-opacity:0.69492197;stroke:#000000;stroke-opacity:0.57465613"
       inkscape:export-filename="cd_5.svg"
       inkscape:export-xdpi="96"
       inkscape:export-ydpi="96">
      <path
         style="fill:#000000;fill-opacity:0.69492197;stroke:#000000;stroke-width:1;stroke-linecap:round;stroke-linejoin:round;stroke-miterlimit:2;stroke-dasharray:none;stroke-opacity:0.57465613;paint-order:markers stroke fill"
         id="path458"
         d="m 1005.1259,168.069 c -0.4468,-0.0291 -0.8009,-0.4682 -1.1406,-0.66549 -0.055,-0.0321 -0.3657,-0.0362 -0.4175,-0.027 -0.091,0.0161 -0.1761,0.0558 -0.2641,0.0838 -0.096,0.0493 -0.1975,0.0891 -0.288,0.14781 -0.3579,0.23213 -0.7368,0.65509 -0.9366,1.03254 -0.049,0.0934 -0.083,0.1944 -0.1244,0.2916 -0.046,0.2033 -0.1052,0.4163 -0.1066,0.62699 0,0.29118 0.095,0.65319 0.2161,0.91606 0.045,0.0975 0.1042,0.18773 0.1564,0.28159 0.3139,0.45385 0.7174,0.85005 1.2116,1.10021 0.1178,0.0597 0.236,0.12155 0.3622,0.16054 0.3323,0.10268 0.6438,0.12067 0.9862,0.15832 0.1785,-0.008 0.3584,-0.002 0.5355,-0.025 0.6629,-0.0878 1.341,-0.37545 1.8287,-0.8395 0.1089,-0.1036 0.1974,-0.22672 0.296,-0.34008 0.3426,-0.53012 0.5485,-1.14311 0.4553,-1.78199 -0.067,-0.45926 -0.1691,-0.58678 -0.3702,-0.99758 -0.1246,-0.1493 -0.2391,-0.30752 -0.3736,-0.44789 -0.1407,-0.14691 -0.2932,-0.28276 -0.4503,-0.41201 -0.5947,-0.48918 -1.0551,-0.9198 -1.7181,-1.24163 -0.4587,-0.22266 -0.592,-0.23163 -1.0761,-0.35579 -0.4456,-0.072 -0.8761,-0.0616 -1.2972,0.10986 -0.1103,0.0449 -0.4301,0.19911 -0.4939,0.33546 -0.04,0.0859 -0.012,0.18922 -0.018,0.28383 -0.023,0.0561 -0.045,0.11222 -0.068,0.16833 0,0 0.014,0.0144 0.014,0.0144 v 0 c 0.049,-0.0318 0.097,-0.0636 0.1461,-0.0954 0.109,7.9e-4 0.2189,0.0163 0.3269,0.002 0.1011,-0.0131 0.1956,-0.0579 0.2945,-0.0831 0.1158,-0.0295 0.2313,-0.062 0.3493,-0.0807 0.462,-0.0733 0.9318,-0.0545 1.3923,0.019 0.4842,0.13231 0.5961,0.13756 1.0544,0.36877 0.1754,0.0885 0.3158,0.25861 0.5082,0.29842 0.1006,0.0208 -0.2864,-0.29032 -0.2,-0.23463 0.3476,0.22417 0.5654,0.53154 0.8242,0.84171 0.1948,0.35194 0.3334,0.54087 0.4204,0.93957 0.034,0.15673 0.04,0.31898 0.043,0.47939 0.01,0.51236 -0.1174,0.82337 -0.3833,1.25365 -0.2471,0.30825 -0.2927,0.4073 -0.62,0.64258 -0.5603,0.40279 -1.2317,0.57427 -1.9114,0.61569 -0.1568,-0.0142 -0.3147,-0.0186 -0.4703,-0.0425 -0.2406,-0.0369 -0.5616,-0.12518 -0.7851,-0.22717 -0.1113,-0.0508 -0.2035,-0.22226 -0.3189,-0.18163 -0.096,0.0339 0.1474,0.29418 0.2156,0.21801 0.069,-0.0771 -0.1287,-0.16223 -0.193,-0.24334 -0.051,-0.0887 -0.1086,-0.17359 -0.1522,-0.26595 -0.1375,-0.29091 -0.1696,-0.54217 -0.161,-0.85942 0,-0.0891 0,-0.17932 0.015,-0.26711 0.017,-0.0971 0.056,-0.18922 0.083,-0.28383 0.043,-0.0902 0.079,-0.18398 0.1286,-0.27054 0.282,-0.49023 0.7318,-0.8575 1.2521,-1.06843 0.1831,-0.0544 0.3602,-0.12503 0.5557,-0.11899 0.065,0.002 0.2366,0.0905 0.1897,0.0454 -1.3444,-1.2935 -0.5815,-0.44389 -0.4941,-0.29695 0.034,0.0577 0.058,0.1212 0.087,0.1818 z" />
      <path
         style="fill:#000000;fill-opacity:0.69492197;stroke:#000000;stroke-width:1;stroke-linecap:round;stroke-linejoin:round;stroke-miterlimit:2;stroke-dasharray:none;stroke-opacity:0.57465613;paint-order:markers stroke fill"
         id="path459"
         d="m 1011.7616,167.72388 c 0.2307,-0.2373 0.5189,-0.45499 0.8525,-0.51969 0.2985,-0.0579 0.4478,-0.0123 0.7419,0.0289 0.3497,0.0631 0.6406,0.20046 0.8618,0.48511 0.064,0.0828 0.2309,0.1861 0.165,0.26758 -0.2122,0.26246 -0.2885,-0.95639 -0.1635,0.11342 -0.01,0.58955 -0.1943,1.16983 -0.5212,1.66195 -0.058,0.0868 -0.1265,0.16576 -0.1897,0.24865 -0.5073,0.54966 -0.9705,0.67663 -1.6797,0.81073 -0.3598,0.0538 -0.7146,0.0397 -1.0686,-0.0417 -0.1167,-0.0268 -0.2346,-0.0527 -0.3459,-0.0967 -0.2771,-0.10951 -0.3538,-0.1983 -0.5843,-0.38125 0.1396,0.13833 0.231,0.35729 0.4189,0.41499 0.13,0.0399 -0.1535,-0.22619 -0.2087,-0.35043 -0.1973,-0.44409 -0.2374,-0.96313 -0.1686,-1.43989 0.027,-0.18668 0.085,-0.36757 0.1273,-0.55135 0.1684,-0.43752 0.244,-0.69579 0.4952,-1.0974 0.365,-0.58356 0.8515,-1.11299 1.4107,-1.51497 0.1798,-0.12925 0.3775,-0.2316 0.5662,-0.3474 0.5533,-0.22255 0.6874,-0.3294 1.2877,-0.36495 0.6445,-0.0382 1.2981,0.13123 1.8861,0.38157 0.1698,0.0723 0.33,0.16526 0.4951,0.24788 1.1932,0.74966 -0.2832,-0.19312 0.7094,0.48287 0.054,0.0366 0.115,0.0612 0.1705,0.0952 0.04,0.0248 0.071,0.0902 0.1171,0.0809 0.034,-0.007 -0.01,-0.0676 -0.015,-0.10144 0,0 -0.01,-0.0179 -0.01,-0.0179 v 0 c -0.078,-0.12126 -0.1487,-0.24717 -0.2333,-0.36378 -0.061,-0.084 -0.1319,-0.16026 -0.2021,-0.23664 -0.092,-0.10043 -0.1817,-0.20463 -0.2851,-0.29353 -0.1825,-0.15676 -0.5176,-0.34064 -0.7139,-0.45672 -0.1668,-0.0786 -0.3292,-0.16742 -0.5005,-0.23579 -0.3743,-0.14943 -0.845,-0.28871 -1.2459,-0.32885 -0.7036,-0.0704 -1.372,0.0701 -2.0062,0.37375 -0.5299,0.33213 -0.688,0.39472 -1.1454,0.82753 -0.3539,0.3349 -0.5902,0.64329 -0.8553,1.04846 -0.1286,0.19666 -0.2569,0.39466 -0.3631,0.60433 -0.092,0.18205 -0.1534,0.37818 -0.2301,0.56727 -0.047,0.18643 -0.1103,0.36959 -0.1422,0.55929 -0.083,0.49039 -0.047,1.00263 0.1225,1.47087 0.048,0.13108 0.089,0.2706 0.1771,0.37896 0.2734,0.33758 0.5974,0.63082 0.8962,0.94623 0.093,0.0729 0.1799,0.15512 0.2798,0.21859 0.5062,0.3215 1.1184,0.37781 1.7008,0.31587 0.1128,-0.0224 0.2276,-0.0363 0.3385,-0.0671 0.5287,-0.14674 0.9773,-0.47036 1.2902,-0.91799 0.063,-0.0974 0.1321,-0.19147 0.19,-0.29223 0.3029,-0.5276 0.4494,-1.12811 0.4328,-1.73498 -0.081,-0.62123 -0.01,-0.36414 -0.4712,-1.18227 -0.052,-0.0908 -0.111,-0.17983 -0.1868,-0.25165 -0.2583,-0.24444 -0.6304,-0.31844 -0.9557,-0.42072 -0.3375,-0.0197 -0.4762,-0.052 -0.808,0.0219 -0.3527,0.0786 -0.6526,0.29447 -0.9077,0.54059 z" />
      <path
         style="fill:#000000;fill-opacity:0.69492197;stroke:#000000;stroke-width:1;stroke-linecap:round;stroke-linejoin:round;stroke-miterlimit:2;stroke-dasharray:none;stroke-opacity:0.57465613;paint-order:markers stroke fill"
         id="path460"
         d="m 1007.1732,163.20311 c -0.057,0.0995 -0.1275,0.19247 -0.171,0.29857 -0.1577,0.38409 -0.2085,0.80543 -0.031,1.19263 0.1573,0.34252 0.7499,0.79671 0.9017,0.93899 0.1033,0.0213 0.2043,0.0627 0.3098,0.064 0.4173,0.005 0.847,-0.27892 1.0926,-0.59773 0.06,-0.0775 0.1034,-0.16608 0.155,-0.24912 0.074,-0.21924 0.1353,-0.3421 0.1349,-0.57777 0,-0.79387 -0.8711,-1.38312 -1.3386,-1.84023 -0.6138,-0.35133 -1.3672,-0.6618 -2.0908,-0.51976 -0.1222,0.024 -0.2369,0.0774 -0.3553,0.11613 -0.2255,0.17161 -0.3894,0.24009 -0.4734,0.5407 -0.091,0.32466 -0.011,0.71529 0.02,1.03592 0.014,0.15438 0.026,0.30908 0.038,0.46362 0,0 0.016,0.0116 0.016,0.0116 v 0 c 0.025,-0.12667 0.027,-0.26012 0.075,-0.38001 0.048,-0.12037 0.1305,-0.2247 0.2082,-0.32839 0.2163,-0.28838 0.4818,-0.52699 0.8075,-0.68315 0.1123,-0.0341 0.2212,-0.0826 0.3369,-0.1023 0.5292,-0.09 1.1717,0.0799 1.6271,0.34874 0.1265,0.0746 0.2381,0.17207 0.3571,0.2581 -0.1159,-0.12972 -0.2201,-0.27093 -0.3477,-0.38917 -0.089,-0.0826 0.1709,0.17627 0.2316,0.28153 0.1421,0.24648 0.1572,0.59515 0.1036,0.86738 -0.018,0.0935 -0.055,0.18248 -0.082,0.27372 -0.044,0.0927 -0.078,0.1904 -0.1311,0.27797 -0.1975,0.32516 -0.5004,0.56398 -0.8921,0.57799 -0.086,0.003 -0.17,-0.0183 -0.2551,-0.0274 0.085,0.11793 0.1726,0.23372 0.2543,0.35378 0.062,0.0912 -0.148,-0.16753 -0.1953,-0.26717 -0.1765,-0.37159 -0.1448,-0.8049 0.014,-1.17394 0.047,-0.10817 0.1215,-0.20174 0.1822,-0.3026 z" />
    </g>
    <g
       id="g491"
       transform="translate(-862.53366,-107.30176)"
       style="fill:#000000;fill-opacity:0.69492197;stroke:#000000;stroke-opacity:0.57465613"
       inkscape:export-filename="cd_6.svg"
       inkscape:export-xdpi="96"
       inkscape:export-ydpi="96">
      <path
         style="fill:#000000;fill-opacity:0.69492197;stroke:#000000;stroke-width:1;stroke-linecap:round;stroke-linejoin:round;stroke-miterlimit:2;stroke-dasharray:none;stroke-opacity:0.57465613;paint-order:markers stroke fill"
         id="path461"
         d="m 1024.778,170.90318 c -0.2639,0.001 -0.5373,-0.0497 -0.797,0.0224 -0.1346,0.0374 -0.1648,0.0663 -0.2814,0.13697 -0.2848,0.26027 -0.3455,0.5142 -0.3724,0.88682 0,0.25613 0.051,0.51345 0.1892,0.73312 0.471,0.74594 0.2736,0.55471 0.6443,0.86583 0.3283,0.28382 0.7004,0.37844 1.13,0.33981 0.084,-0.008 0.167,-0.0271 0.2505,-0.0406 0.5249,-0.16108 0.8042,-0.48931 1.0364,-0.96681 0.097,-0.28912 0.1305,-0.63908 -0.066,-0.9001 -0.2295,-0.30502 -0.4746,-0.598 -0.7119,-0.897 -0.1964,-0.15062 -0.5156,-0.40895 -0.7633,-0.45315 -0.1631,-0.0291 -0.3032,0.014 -0.4606,0.045 -0.4076,0.23581 -0.056,-0.0237 -0.3416,0.40256 -0.048,0.0716 -0.122,0.12177 -0.183,0.18266 0,0 0.012,0.0159 0.012,0.0159 v 0 c 0.083,-0.0308 0.1604,-0.0885 0.2489,-0.0924 0.2224,-0.01 0.4349,0.13369 0.6627,0.0839 0.094,0.0148 0.1903,0.019 0.2819,0.0445 0.085,0.0238 0.1641,0.066 0.2446,0.10238 0.2813,0.12707 0.5449,0.29091 0.7701,0.50328 -0.1469,-0.20088 -0.2937,-0.40188 -0.4408,-0.60263 -0.038,-0.052 0.082,0.1 0.1136,0.15624 0.1282,0.23019 0.1257,0.49893 0.077,0.74934 -0.023,0.0701 -0.04,0.14266 -0.069,0.21043 -0.1636,0.37951 -0.4701,0.64865 -0.8562,0.78585 -0.5114,0.0959 -0.8664,0.09 -1.2716,-0.2703 -0.037,-0.0531 -0.142,-0.21479 -0.1094,-0.15928 0.082,0.13922 0.1673,0.27648 0.2572,0.41066 0.035,0.0529 -0.067,-0.10865 -0.094,-0.16651 -0.048,-0.10372 -0.084,-0.2392 -0.1009,-0.35148 -0.01,-0.0602 -0.011,-0.12142 -0.016,-0.18213 0.013,-0.31398 0.065,-0.62676 0.3283,-0.83064 0.1862,-0.11492 0.3095,-0.15304 0.5312,-0.11585 0.041,0.007 0.088,0.006 0.1211,0.0324 0.014,0.0107 -0.013,0.0318 -0.02,0.0478 z" />
      <path
         style="fill:#000000;fill-opacity:0.69492197;stroke:#000000;stroke-width:1;stroke-linecap:round;stroke-linejoin:round;stroke-miterlimit:2;stroke-dasharray:none;stroke-opacity:0.57465613;paint-order:markers stroke fill"
         id="path462"
         d="m 1025.5335,168.51447 c -0.3067,0.10202 -0.5327,0.35771 -0.5745,0.68431 -0.01,0.0764 2e-4,0.15405 0,0.23108 0.021,0.076 0.032,0.15498 0.062,0.22789 0.1155,0.28389 0.5288,0.71938 0.6476,0.83949 0.1449,0.14649 0.5483,0.26022 0.7419,0.31675 0.4728,-0.005 0.9693,-0.0247 1.3862,-0.27735 0.2223,-0.13469 0.2679,-0.21969 0.4326,-0.41336 0.036,-0.0938 0.088,-0.18293 0.1076,-0.28136 0.05,-0.24912 -0.045,-0.64967 -0.201,-0.84831 -0.76,-0.97001 -0.5045,-0.78855 -1.1507,-1.12563 -0.313,-0.12899 -0.6581,-0.18456 -0.9917,-0.0924 -0.099,0.0272 -0.2175,0.0444 -0.2798,0.12545 -0.077,0.10056 -0.056,0.2481 -0.1,0.36744 -0.034,0.0948 -0.088,0.18141 -0.1315,0.27211 0,0 0.013,0.015 0.013,0.015 v 0 c 0.3206,-0.28655 0.085,-0.16424 0.5876,-0.15307 0.1136,0.003 0.2272,-0.0194 0.3407,-0.0137 0.3812,0.0191 0.7473,0.13901 1.1018,0.27028 0.5059,0.326 0.268,0.22196 -0.085,-0.3316 -0.054,-0.0848 0.1431,0.14527 0.1904,0.23401 0.1467,0.27525 0.071,0.58131 -0.01,0.86074 -0.046,0.0931 -0.078,0.19472 -0.1379,0.27941 -0.089,0.12472 -0.3339,0.33278 -0.4704,0.40268 -0.094,0.0479 -0.1971,0.074 -0.2983,0.10219 -0.096,0.0268 -0.194,0.0548 -0.2939,0.0623 -0.085,0.006 -0.1691,-0.014 -0.2537,-0.021 -0.2703,-0.0264 -0.3448,-0.007 -0.583,-0.12425 -0.076,-0.0374 -0.2002,-0.2227 -0.2121,-0.13902 -0.016,0.11408 0.1234,0.19482 0.1909,0.28819 0.091,0.12555 -0.3563,-0.51025 -0.2022,-0.41851 0,-0.0741 -0.02,-0.14822 -0.014,-0.22221 0.026,-0.33427 0.2251,-0.53501 0.5208,-0.65445 z" />
      <path
         style="fill:#000000;fill-opacity:0.69492197;stroke:#000000;stroke-width:1;stroke-linecap:round;stroke-linejoin:round;stroke-miterlimit:2;stroke-dasharray:none;stroke-opacity:0.57465613;paint-order:markers stroke fill"
         id="path463"
         d="m 1027.4673,170.3671 c -0.1672,0.0655 -0.1539,0.0544 -0.325,0.14973 -0.063,0.035 -0.1181,0.0843 -0.1851,0.11019 -0.044,0.017 -0.098,-0.006 -0.1401,0.0157 -0.092,0.048 -0.2245,0.24272 -0.2782,0.31306 -0.041,0.0795 -0.092,0.15451 -0.1225,0.23838 -0.1494,0.40745 -0.1426,0.89639 0,1.30422 0.034,0.0975 0.087,0.18735 0.1312,0.28103 0.2859,0.52709 0.1568,0.34432 0.8559,1.01866 0.1419,0.13691 0.3875,0.27042 0.5678,0.34479 0.2507,0.10341 0.3199,0.10002 0.5811,0.14311 0.5429,0.033 0.8532,-0.12814 1.2128,-0.51525 0.2421,-0.31423 0.4535,-0.67023 0.568,-1.05308 0.027,-0.0908 0.043,-0.18458 0.065,-0.27688 0,-0.40195 -0.1244,-0.63841 -0.4002,-0.93297 -0.031,-0.0333 -0.7208,-0.99998 -1.1768,-0.92647 -0.1157,0.0187 -0.1951,0.12997 -0.2927,0.19496 0,0 0.011,0.0169 0.011,0.0169 v 0 c 0.1998,0.0887 0.4034,0.16909 0.5993,0.26597 0.1418,0.0701 0.2761,0.31426 0.4124,0.23427 0.1181,-0.0693 -0.1998,-0.21952 -0.2042,-0.35636 0,-0.10605 0.1436,0.15767 0.2007,0.24707 0.057,0.0888 0.1068,0.18379 0.139,0.28421 0.028,0.0883 0.027,0.18343 0.04,0.27514 -0.01,0.0809 -0.01,0.16337 -0.028,0.24265 -0.089,0.38113 -0.3626,0.75622 -0.5918,1.06614 -0.3442,0.36612 -0.6131,0.52511 -1.1296,0.53997 -0.2979,-0.0359 -0.5141,-0.076 -0.7793,-0.23261 -0.084,-0.0494 -0.2554,-0.26553 -0.2369,-0.17012 0.026,0.13281 0.1936,0.19288 0.2638,0.30852 0.057,0.0946 -0.1498,-0.16284 -0.2248,-0.24426 -0.053,-0.10071 -0.1158,-0.19691 -0.1594,-0.30214 -0.1624,-0.39241 -0.187,-0.8763 -0.038,-1.27734 0.032,-0.0862 0.085,-0.16329 0.1271,-0.24494 0.3263,-0.42943 0,-0.0177 0.3867,-0.45541 0.082,-0.0933 0.1492,-0.20009 0.2389,-0.28607 0.1335,-0.128 0.3274,-0.191 0.4914,-0.26696 z" />
      <path
         style="fill:#000000;fill-opacity:0.69492197;stroke:#000000;stroke-width:1;stroke-linecap:round;stroke-linejoin:round;stroke-miterlimit:2;stroke-dasharray:none;stroke-opacity:0.57465613;paint-order:markers stroke fill"
         id="path464"
         d="m 1026.5061,174.10484 c -0.3012,-0.25879 -0.6642,-0.37232 -1.0589,-0.36874 -0.094,7.9e-4 -0.1876,0.0132 -0.2814,0.0198 -0.4441,0.11203 -0.7699,0.33514 -0.9611,0.7645 -0.1287,0.28914 -0.1317,0.45864 -0.1798,0.77243 -0.027,0.69073 0.067,1.3961 0.387,2.01752 0.052,0.10183 0.1185,0.19602 0.1777,0.29403 0.421,0.53538 0.9305,1.0524 1.6221,1.16148 0.1005,0.0159 0.2027,0.0305 0.3043,0.0246 0.1217,-0.007 0.2401,-0.0421 0.3602,-0.0632 0.6269,-0.16146 1.2231,-0.43566 1.7443,-0.82146 0.1119,-0.0828 0.2161,-0.17557 0.3241,-0.26336 0.3632,-0.34418 0.7229,-0.74059 0.8519,-1.23998 0.072,-0.27752 0.036,-0.38421 0.01,-0.66243 -0.2813,-0.68271 -0.146,-0.45138 -0.9883,-1.33888 -0.086,-0.0909 -0.1986,-0.15429 -0.3077,-0.21591 -0.1152,-0.065 -0.2389,-0.11434 -0.3621,-0.16239 -0.1231,-0.048 -0.2454,-0.14535 -0.376,-0.12531 -0.1135,0.0174 -0.175,0.14887 -0.2626,0.22331 0,0 0.012,0.0159 0.012,0.0159 v 0 c 0.2057,0.11299 0.4097,0.22918 0.6172,0.33896 0.4376,0.23162 0.4189,0.17754 0.8279,0.47101 0.1184,0.0849 0.3562,0.41973 0.3395,0.27506 -0.022,-0.18973 -0.2177,-0.31821 -0.3592,-0.4464 -0.083,-0.0754 0.1204,0.18983 0.1806,0.28475 0.018,0.10473 0.052,0.20795 0.054,0.31419 0.01,0.64538 -0.4666,1.17163 -0.8982,1.58944 -0.1059,0.0857 -0.2079,0.17658 -0.3179,0.25713 -0.5158,0.3779 -1.1117,0.64663 -1.7316,0.79711 -0.2961,0.0351 -0.6029,0.0962 -0.8969,0.009 -0.085,-0.0251 -0.2788,-0.18945 -0.2428,-0.10846 0.069,0.15508 0.2344,0.24568 0.3564,0.36373 0.083,0.08 -0.159,-0.16635 -0.2384,-0.24953 -0.069,-0.1006 -0.1452,-0.19644 -0.2064,-0.30181 -0.2584,-0.44446 -0.4146,-1.03789 -0.4528,-1.54889 -0.01,-0.13378 0,-0.26832 0,-0.40247 0.016,-0.11941 0.02,-0.24112 0.048,-0.35823 0.099,-0.4121 0.3553,-0.76902 0.7477,-0.94103 0.09,-0.0393 0.1859,-0.0603 0.2789,-0.0905 0.098,-0.0129 0.1946,-0.035 0.2931,-0.0386 0.3484,-0.0128 0.7005,0.10262 0.9305,0.37018 z" />
    </g>
    <g
       id="g492"
       transform="translate(-815.70023,-122.38152)"
       style="fill:#000000;fill-opacity:0.69492197;stroke:#000000;stroke-opacity:0.57465613"
       inkscape:export-filename="cd_7.svg"
       inkscape:export-xdpi="96"
       inkscape:export-ydpi="96">
      <path
         style="fill:#000000;fill-opacity:0.69492197;stroke:#000000;stroke-width:1;stroke-linecap:round;stroke-linejoin:round;stroke-miterlimit:2;stroke-dasharray:none;stroke-opacity:0.57465613;paint-order:markers stroke fill"
         id="path471"
         d="m 1009.3077,182.82971 c -0.7745,0.7373 -1.5736,1.44756 -2.3777,2.15242 -1.3871,1.17139 -2.834,2.26977 -4.2805,3.36624 -1.2261,0.94833 -2.4498,1.9025 -3.59004,2.95379 -0.0362,0.15388 -0.0724,0.30776 -0.10861,0.46165 0,0 0.0148,0.0135 0.0148,0.0135 v 0 c 0.18294,-0.0312 0.36587,-0.0624 0.54883,-0.0937 1.23952,-0.92755 2.39782,-1.95517 3.61242,-2.91435 1.4093,-1.1432 2.8393,-2.26095 4.2367,-3.41868 0.8206,-0.69158 1.6466,-1.37759 2.4246,-2.11757 z" />
      <path
         style="fill:#000000;fill-opacity:0.69492197;stroke:#000000;stroke-width:1;stroke-linecap:round;stroke-linejoin:round;stroke-miterlimit:2;stroke-dasharray:none;stroke-opacity:0.57465613;paint-order:markers stroke fill"
         id="path472"
         d="m 1011.4656,184.82305 c -0.6585,0.65316 -1.2946,1.32872 -1.9396,1.99522 -1.0164,1.0189 -2.0091,2.06154 -3.033,3.07306 -0.6431,0.63539 -1.0977,1.0624 -1.7518,1.68501 -0.7941,0.74971 -1.6027,1.48323 -2.4226,2.20457 -0.2083,0.18335 -0.4397,0.34335 -0.6257,0.54935 -0.4715,0.70249 -0.2142,0.40296 -0.7468,0.91951 0,0 0.015,0.0128 0.015,0.0128 v 0 c 0.6446,-0.44273 0.2795,-0.22708 1.1122,-0.6177 0.2335,-0.15223 0.4283,-0.35686 0.6389,-0.53943 0.8266,-0.71659 1.6374,-1.4523 2.4359,-2.19989 1.6219,-1.5466 3.2312,-3.10607 4.819,-4.6876 0.6345,-0.63993 1.2699,-1.2787 1.8911,-1.93145 z" />
      <path
         style="fill:#000000;fill-opacity:0.69492197;stroke:#000000;stroke-width:1;stroke-linecap:round;stroke-linejoin:round;stroke-miterlimit:2;stroke-dasharray:none;stroke-opacity:0.57465613;paint-order:markers stroke fill"
         id="path473"
         d="m 1013.9105,188.15971 c -0.189,0.0982 -0.2846,0.13547 -0.4549,0.28519 -0.1278,0.1124 -0.7447,0.75036 -0.8245,0.83252 -0.8528,0.87772 -0.2709,0.2874 -1.2094,1.22991 -1.5329,1.50078 -3.1447,2.92064 -4.7872,4.29989 -0.5532,0.49114 -1.15,0.93487 -1.6889,1.44251 -0.1125,0.10593 -0.2315,0.208 -0.3227,0.33269 -0.7441,1.01704 0.2672,-0.15654 -0.3057,0.49118 0,0 0.013,0.0149 0.013,0.0149 v 0 c 0.6901,-0.38303 -0.5064,0.25748 0.568,-0.19788 0.1447,-0.0613 0.2749,-0.15337 0.4055,-0.24088 0.635,-0.42551 1.2043,-0.94315 1.7932,-1.4272 1.6299,-1.42886 3.2628,-2.85639 4.7948,-4.39155 0.549,-0.54888 0.6567,-0.65201 1.1827,-1.19475 0.1678,-0.17315 0.3346,-0.34734 0.5007,-0.52216 0.3045,-0.32058 0.4413,-0.4459 0.686,-0.80604 0.064,-0.0949 0.1135,-0.19951 0.1702,-0.29926 z" />
      <path
         style="fill:#000000;fill-opacity:0.69492197;stroke:#000000;stroke-width:1;stroke-linecap:round;stroke-linejoin:round;stroke-miterlimit:2;stroke-dasharray:none;stroke-opacity:0.57465613;paint-order:markers stroke fill"
         id="path474"
         d="m 1006.0983,183.58845 c 0.6677,0.58178 1.2653,1.24192 1.8727,1.88541 0.8086,0.86137 1.5768,1.75916 2.3662,2.63778 0.3504,0.38994 1.0136,1.11506 1.3653,1.50034 0.8515,0.93773 1.6969,1.88352 2.677,2.6912 0.2081,0.17156 0.4096,0.35516 0.6407,0.49443 0.2288,0.13793 0.4865,0.22109 0.7297,0.33163 0.1526,0.1191 0.3052,0.23819 0.4578,0.35728 0,0 0.016,-0.0118 0.016,-0.0118 v 0 c -0.1322,-0.13291 -0.2643,-0.26582 -0.3964,-0.39874 -0.1,-0.19603 -0.1723,-0.40876 -0.2998,-0.58808 -0.1479,-0.20797 -0.3434,-0.37753 -0.5187,-0.56306 -0.8707,-0.92218 -1.7791,-1.8087 -2.6332,-2.74667 -1.2816,-1.3654 -2.5689,-2.72568 -3.8096,-4.12872 -0.5866,-0.65086 -1.1773,-1.29906 -1.8076,-1.90829 z" />
      <path
         style="fill:#000000;fill-opacity:0.69492197;stroke:#000000;stroke-width:1;stroke-linecap:round;stroke-linejoin:round;stroke-miterlimit:2;stroke-dasharray:none;stroke-opacity:0.57465613;paint-order:markers stroke fill"
         id="path475"
         d="m 1004.6507,185.33297 c 0.1732,0.35143 0.4341,0.64069 0.6686,0.95008 0.7908,1.04321 -0.3686,-0.44447 0.6213,0.81636 0.3075,0.34284 0.5749,0.7186 0.8708,1.07095 0.1608,0.19144 0.3321,0.37378 0.4958,0.56271 0.5138,0.59287 1.0179,1.19451 1.525,1.79306 0.1643,0.20671 0.3228,0.41815 0.4929,0.62013 0.1648,0.19576 0.3449,0.37832 0.5114,0.57259 0.159,0.1853 0.8492,1.03536 1.0054,1.22671 0.5826,0.71367 0.3868,0.47497 0.9719,1.17931 0.2262,0.27342 0.6565,0.80635 0.9117,1.06663 0.1694,0.17279 0.3547,0.32926 0.532,0.49389 0,0 0.016,0.0119 0.016,0.0119 v 0 c -0.032,-0.0939 -0.047,-0.19566 -0.097,-0.28171 -0.1029,-0.17886 -0.6029,-0.78705 -0.7038,-0.91279 -0.6582,-0.81315 -1.3402,-1.60794 -1.9894,-2.42827 -0.1716,-0.21683 -0.3285,-0.44526 -0.5051,-0.65805 -0.169,-0.20363 -0.3539,-0.39352 -0.5308,-0.59028 -0.518,-0.60274 -1.0371,-1.20457 -1.5544,-1.80797 -0.1628,-0.18993 -0.3202,-0.38455 -0.4871,-0.57096 -0.1578,-0.17641 -0.3298,-0.33994 -0.4868,-0.51719 -0.1458,-0.16468 -0.2807,-0.33873 -0.4211,-0.5081 -0.1754,-0.2177 -0.4761,-0.57957 -0.6432,-0.82446 -0.2221,-0.32552 -0.3793,-0.69581 -0.6577,-0.98163 z" />
      <path
         style="fill:#000000;fill-opacity:0.69492197;stroke:#000000;stroke-width:1;stroke-linecap:round;stroke-linejoin:round;stroke-miterlimit:2;stroke-dasharray:none;stroke-opacity:0.57465613;paint-order:markers stroke fill"
         id="path476"
         d="m 1002.5824,186.87507 c 0.5392,0.82593 1.078,1.65215 1.6029,2.48723 0.2634,0.41467 0.6674,1.06022 0.9469,1.46119 0.1641,0.23546 0.3452,0.45875 0.5104,0.69352 0.1679,0.23878 0.3243,0.48549 0.4885,0.7268 0.7508,1.10288 0.2334,0.30331 0.9444,1.43305 0.3453,0.62775 0.8338,1.15223 1.2624,1.71974 0.116,0.15353 0.2207,0.31522 0.3338,0.47084 0.2589,0.35606 0.345,0.46052 0.6078,0.79661 0.2235,0.30613 0.4935,0.57314 0.7544,0.84659 0,0 0.015,0.013 0.015,0.013 v 0 c -0.035,-0.16161 -0.078,-0.23878 -0.2111,-0.37918 -0.1544,-0.22307 -0.3076,-0.44688 -0.463,-0.66923 -0.1121,-0.16041 -0.2314,-0.31596 -0.3382,-0.47999 -0.4012,-0.61643 -0.7296,-1.28069 -1.1915,-1.85761 -0.7581,-1.06582 -0.2279,-0.29864 -0.9588,-1.41615 -0.1604,-0.24521 -0.3299,-0.4845 -0.4857,-0.73264 -0.1607,-0.25594 -0.3047,-0.52207 -0.4637,-0.77915 -0.3036,-0.49124 -0.6325,-0.96652 -0.9347,-1.45866 -0.5487,-0.85829 -1.0842,-1.72594 -1.6953,-2.5423 z" />
      <path
         style="fill:#000000;fill-opacity:0.69492197;stroke:#000000;stroke-width:1;stroke-linecap:round;stroke-linejoin:round;stroke-miterlimit:2;stroke-dasharray:none;stroke-opacity:0.57465613;paint-order:markers stroke fill"
         id="path477"
         d="m 1007.6456,179.11541 c -0.058,0.005 -0.1197,-0.005 -0.1745,0.0146 -0.4357,0.15932 -0.6162,0.68388 -0.6573,1.1013 -0.013,0.13456 0,0.27043 0,0.40565 0.024,0.12518 0.033,0.25405 0.071,0.37554 0.1744,0.55224 0.7914,0.91682 1.2627,1.13326 0.145,0.0666 0.4314,-0.19022 0.509,-0.24724 0.059,-0.0897 0.1338,-0.17099 0.1781,-0.26897 0.1296,-0.28676 0.1509,-0.67907 -0.015,-0.95821 -0.1912,-0.32272 -0.9844,-0.78988 -1.09,-0.86491 -0.017,0.0589 -0.034,0.1177 -0.052,0.17655 0,0 0.015,0.013 0.015,0.013 v 0 c 0.1601,0.0961 0.3201,0.1923 0.4802,0.28845 -0.116,-0.11207 -0.232,-0.22411 -0.348,-0.33622 -0.065,-0.0626 0.1434,0.11339 0.1944,0.18767 0.1838,0.26809 0.1821,0.60721 0.058,0.89817 -0.038,0.089 -0.1028,0.16396 -0.1541,0.24594 -0.065,0.0523 -0.1204,0.11858 -0.1943,0.15697 -0.4184,0.21748 -0.3446,-0.28814 0.2379,0.56074 0.054,0.0792 -0.1713,-0.0959 -0.2333,-0.16934 -0.1721,-0.20385 -0.1854,-0.4097 -0.2426,-0.65891 0,-0.13128 -0.018,-0.26284 -0.01,-0.39383 0.026,-0.36702 0.1784,-0.89545 0.5983,-0.99127 0.047,-0.0106 0.095,0.007 0.1428,0.01 z" />
    </g>
    <g
       id="g487"
       transform="translate(-915.82866,-102.49326)"
       style="fill:#000000;fill-opacity:0.69492197;stroke:#000000;stroke-opacity:0.57465613"
       inkscape:export-filename="cd_2.svg"
       inkscape:export-xdpi="96"
       inkscape:export-ydpi="96">
      <path
         style="fill:#000000;fill-opacity:0.69492197;stroke:#000000;stroke-width:1;stroke-linecap:round;stroke-linejoin:round;stroke-miterlimit:2;stroke-dasharray:none;stroke-opacity:0.57465613;paint-order:markers stroke fill"
         id="path449"
         d="m 957.1574,169.97674 c -0.0422,-0.31348 -0.007,-0.063 -0.0669,-0.43903 -0.0185,-0.115 -0.0288,-0.2315 -0.0541,-0.34519 -0.0966,-0.4342 -0.27755,-0.83656 -0.45688,-1.24079 -0.31764,-0.6152 -0.69869,-1.20246 -1.18132,-1.70244 -0.32779,-0.33958 -0.45182,-0.41267 -0.82756,-0.70199 -0.0818,-0.0695 -0.16354,-0.13906 -0.24529,-0.20859 0,0 -0.0177,-0.009 -0.0177,-0.009 v 0 c 0.0599,0.0592 0.11978,0.11843 0.17965,0.17764 0.0341,0.0616 0.0614,0.1275 0.10242,0.18469 0.047,0.0656 0.54314,0.65313 0.55428,0.66729 0.32012,0.40739 0.59793,0.84408 0.83568,1.30442 0.0701,0.14261 0.14693,0.28211 0.21032,0.42783 0.10972,0.25222 0.1865,0.51371 0.2704,0.77484 0.0797,0.24804 0.1524,0.49387 0.17585,0.75495 z" />
      <path
         style="fill:#000000;fill-opacity:0.69492197;stroke:#000000;stroke-width:1;stroke-linecap:round;stroke-linejoin:round;stroke-miterlimit:2;stroke-dasharray:none;stroke-opacity:0.57465613;paint-order:markers stroke fill"
         id="path450"
         d="m 958.54588,170.19562 c -0.0298,-0.14035 -0.0634,-0.28802 -0.0815,-0.42957 -0.0148,-0.11661 -0.0212,-0.23418 -0.0331,-0.35111 -0.0514,-0.49894 -0.10675,-0.99644 -0.1503,-1.49622 -0.11497,-1.34486 -0.26035,-2.68633 -0.43487,-4.02469 -0.022,-0.15919 -0.10872,-0.83238 -0.15616,-1.0139 -0.0375,-0.14328 -0.10094,-0.27845 -0.15065,-0.41794 -0.0357,-0.10001 -0.0703,-0.20036 -0.10549,-0.30053 0,0 -0.0175,-0.01 -0.0175,-0.01 v 0 c -0.0662,0.13412 -0.18542,0.35512 -0.20584,0.49801 -0.0277,0.19354 0.0257,0.76951 0.0377,0.93625 0.12624,1.34623 0.27821,2.69012 0.37899,4.0387 0.0476,0.49159 0.0796,0.98971 0.16688,1.47653 0.0188,0.10445 0.0467,0.20701 0.0693,0.3107 0.12859,0.59183 -0.01,-0.0241 0.10123,0.46604 z" />
      <path
         style="fill:#000000;fill-opacity:0.69492197;stroke:#000000;stroke-width:1;stroke-linecap:round;stroke-linejoin:round;stroke-miterlimit:2;stroke-dasharray:none;stroke-opacity:0.57465613;paint-order:markers stroke fill"
         id="path451"
         d="m 960.04101,170.17562 c 0.0663,-0.95586 0.29588,-1.89077 0.5542,-2.81008 0.1538,-0.56769 0.35192,-1.12191 0.52628,-1.68306 0.0422,-0.13595 0.0903,-0.27096 0.11639,-0.41091 0.0222,-0.11863 0.0183,-0.24065 0.0274,-0.36097 0.007,-0.0913 0.014,-0.18269 0.0209,-0.27404 0,0 -0.018,-0.009 -0.018,-0.009 v 0 c -0.13306,0.10865 -0.36468,0.28705 -0.46286,0.41917 -0.0836,0.11243 -0.14383,0.24084 -0.20482,0.36695 -0.24596,0.50881 -0.42182,1.05204 -0.59648,1.58781 -0.25082,0.91661 -0.51612,1.84508 -0.51831,2.8034 z" />
      <path
         style="fill:#000000;fill-opacity:0.69492197;stroke:#000000;stroke-width:1;stroke-linecap:round;stroke-linejoin:round;stroke-miterlimit:2;stroke-dasharray:none;stroke-opacity:0.57465613;paint-order:markers stroke fill"
         id="path478"
         d="m 958.18678,171.53183 c -0.41291,0.0361 -0.7883,0.21834 -1.06669,0.52815 -0.0575,0.064 -0.1043,0.1367 -0.15645,0.20505 -0.2449,0.42253 -0.25524,0.90826 -0.0846,1.36236 0.0347,0.0922 0.0854,0.17752 0.12803,0.26628 0.34086,0.50331 0.86741,0.99914 1.49,1.09771 0.26445,0.0419 0.31144,0.0137 0.57116,-0.0274 0.0891,-0.0355 0.18179,-0.063 0.2672,-0.10659 0.25678,-0.13111 0.54493,-0.35583 0.66617,-0.62561 0.11324,-0.25196 0.0953,-0.46368 0.1053,-0.7304 -0.0295,-0.11451 -0.0379,-0.23672 -0.0887,-0.34355 -0.1888,-0.39742 -0.82386,-0.83324 -1.08497,-0.98252 -0.0469,-0.0268 -0.0788,0.0739 -0.11827,0.11088 0,0 0.0127,0.0154 0.0127,0.0154 v 0 c 0.17309,0.11322 0.32594,0.2662 0.51929,0.33965 0.12573,0.0478 -0.17496,-0.24675 -0.30884,-0.25971 -0.21122,-0.0205 0.65471,0.54536 0.28725,0.56806 0,0.11537 0.0161,0.23141 0.004,0.3461 -0.0285,0.26199 -0.16436,0.70557 -0.34838,0.90405 -0.13745,0.14825 -0.26421,0.17829 -0.44307,0.25228 -0.0868,0.0119 -0.17269,0.0337 -0.26022,0.0358 -0.17391,0.004 -0.3888,-0.0347 -0.54898,-0.10217 -0.0901,-0.038 -0.29451,-0.234 -0.25548,-0.14433 0.056,0.12855 0.18449,0.22661 0.31435,0.27952 0.0857,0.0349 -0.11266,-0.14686 -0.16896,-0.22029 -0.043,-0.0826 -0.0929,-0.16203 -0.12901,-0.24792 -0.13597,-0.32375 -0.16952,-0.70416 -0.0474,-1.03865 0.0276,-0.0757 0.0723,-0.14403 0.10842,-0.21604 0.052,-0.0627 0.0989,-0.12995 0.1559,-0.1881 0.28109,-0.28673 0.64971,-0.44697 1.05098,-0.4454 z" />
    </g>
    <g
       id="g488"
       transform="translate(-838.15508,-99.510944)"
       style="fill:#000000;fill-opacity:0.69492197;stroke:#000000;stroke-opacity:0.57465613"
       inkscape:export-filename="cd_4.svg"
       inkscape:export-xdpi="96"
       inkscape:export-ydpi="96">
      <path
         style="fill:#000000;fill-opacity:0.69492197;stroke:#000000;stroke-width:1;stroke-linecap:round;stroke-linejoin:round;stroke-miterlimit:2;stroke-dasharray:none;stroke-opacity:0.57465613;paint-order:markers stroke fill"
         id="path479"
         d="m 937.73507,164.7048 c -0.3734,0.2208 -0.66571,0.55326 -0.87765,0.92952 -0.052,0.0924 -0.0931,0.19066 -0.13964,0.28599 -0.17442,0.47405 -0.25271,0.99712 -0.0659,1.48153 0.0355,0.0922 0.0876,0.17719 0.13137,0.26578 0.26339,0.39968 0.64442,0.73474 1.12596,0.834 0.10554,0.0217 0.21418,0.0239 0.32128,0.0358 0.5266,0.0168 0.99539,-0.10642 1.50442,-0.2666 0.0923,-0.0291 0.17926,-0.076 0.25967,-0.12979 0.22786,-0.15257 0.25164,-0.22482 0.4069,-0.43984 0.2182,-0.56433 0.24267,-1.2014 -0.0969,-1.72735 -0.0633,-0.0981 -0.14898,-0.17969 -0.22349,-0.26954 -0.2907,-0.23571 -0.60754,-0.4117 -0.99399,-0.41378 -0.14594,-8e-4 -0.63981,0.0778 -0.82806,0.10616 0,0 -0.018,0.009 -0.018,0.009 v 0 c 0.0818,-0.004 0.16579,-0.0319 0.24546,-0.0128 0.0518,0.0125 0.078,0.0737 0.12351,0.10145 0.0732,0.0446 0.1557,0.0721 0.23037,0.11413 0.28085,0.15822 0.23913,0.14605 0.4781,0.36817 0.0705,0.0855 0.1483,0.16548 0.21138,0.25659 0.26013,0.37571 0.4328,0.86767 0.33882,1.32576 -0.0206,0.1011 -0.0649,0.19594 -0.0974,0.29391 -0.13329,0.18196 -0.16557,0.26662 -0.36531,0.38201 -0.0831,0.048 -0.28612,0.0156 -0.26646,0.10965 0.0193,0.0924 0.36603,-0.0208 0.27795,-0.0548 -0.19688,-0.0761 -0.43059,0.1781 -0.63085,0.0541 -0.10186,-0.01 -0.20495,-0.0108 -0.30559,-0.0293 -0.47027,-0.0865 -0.85019,-0.38665 -1.11054,-0.77701 -0.0425,-0.085 -0.0935,-0.16625 -0.12766,-0.25492 -0.18272,-0.47402 -0.10422,-0.99269 0.0729,-1.45353 0.0471,-0.0929 0.0884,-0.189 0.14134,-0.27872 0.21376,-0.36229 0.52867,-0.64793 0.90199,-0.83897 z" />
      <path
         style="fill:#000000;fill-opacity:0.69492197;stroke:#000000;stroke-width:1;stroke-linecap:round;stroke-linejoin:round;stroke-miterlimit:2;stroke-dasharray:none;stroke-opacity:0.57465613;paint-order:markers stroke fill"
         id="path480"
         d="m 932.03875,165.92932 c -0.17245,0.21835 -0.32311,0.46785 -0.32607,0.75633 -0.003,0.22765 0.0452,0.30038 0.12129,0.50654 0.17973,0.33525 0.42272,0.63865 0.77983,0.79488 0.0788,0.0345 0.1606,0.0679 0.24606,0.0776 0.26755,0.0304 0.53782,0.028 0.80674,0.0421 0.34108,-0.0973 0.64143,-0.30115 0.76243,-0.65013 0.0792,-0.2284 0.0535,-0.3216 0.0455,-0.55955 -0.0973,-0.48028 -0.22937,-0.79463 -0.77954,-0.84648 -0.71427,-0.0673 -0.5575,-0.13209 -0.89607,0.14758 0,0 0.0196,0.004 0.0196,0.004 v 0 c 0.11843,-0.0312 0.25419,-0.0244 0.35529,-0.0935 0.037,-0.0253 -0.15828,-0.0646 -0.11396,-0.0715 0.2187,-0.0338 0.44627,0.32076 0.51581,0.47585 0.0382,0.0853 0.0565,0.17823 0.0847,0.26735 0.0127,0.0948 0.0349,0.18891 0.0382,0.28455 0.0109,0.31482 -0.0926,0.66937 -0.38312,0.83634 -0.0643,0.0369 -0.1388,0.0522 -0.2082,0.0783 0.10316,0.0253 0.22199,0.0157 0.30949,0.0759 0.0714,0.0491 -0.17431,-0.0132 -0.25678,-0.0397 -0.25958,-0.0834 -0.49178,-0.29366 -0.63828,-0.51855 -0.0533,-0.0818 -0.0885,-0.17399 -0.13277,-0.26098 -0.0561,-0.199 -0.1107,-0.32553 -0.10266,-0.53216 0.0106,-0.27269 0.16074,-0.50731 0.33324,-0.7062 z" />
      <path
         style="fill:#000000;fill-opacity:0.69492197;stroke:#000000;stroke-width:1;stroke-linecap:round;stroke-linejoin:round;stroke-miterlimit:2;stroke-dasharray:none;stroke-opacity:0.57465613;paint-order:markers stroke fill"
         id="path481"
         d="m 944.65427,165.78077 c -0.32546,0.13287 -0.66455,0.27525 -0.8509,0.59331 -0.0401,0.0684 -0.0646,0.14485 -0.0969,0.21728 -0.0156,0.0873 -0.0388,0.17348 -0.0465,0.26176 -0.0265,0.30239 0.0899,0.62365 0.25786,0.87018 0.0433,0.0635 0.0959,0.12014 0.14381,0.1802 0.0557,0.0483 0.10726,0.10195 0.16716,0.14496 0.30528,0.21913 0.83786,0.28618 1.15673,0.31223 0.0621,0.005 0.39526,-0.11521 0.45291,-0.13491 0.29165,-0.12381 0.55862,-0.31038 0.69255,-0.60889 0.11525,-0.2569 0.10004,-0.3622 0.12896,-0.64932 -0.0217,-0.1273 -0.0251,-0.25921 -0.0655,-0.3819 -0.0763,-0.23193 -0.24019,-0.5048 -0.46104,-0.63132 -0.35833,-0.20527 -0.6345,-0.18557 -1.02984,-0.22008 0,0 0.019,0.006 0.019,0.006 v 0 c 0.18293,0.0352 0.0994,-0.009 0.23238,0.15458 0.0658,0.0811 0.1414,0.15517 0.19783,0.24308 0.17468,0.27206 0.16733,0.35388 0.24689,0.66836 0.008,0.11798 0.0312,0.236 0.0233,0.35396 -0.007,0.0985 -0.0374,0.19427 -0.067,0.28844 -0.0914,0.29106 -0.2567,0.52694 -0.54176,0.64855 -0.0632,0.018 -0.12449,0.0453 -0.18963,0.054 -0.0637,0.008 -0.24683,-0.038 -0.19288,-0.003 0.10631,0.0689 0.24408,0.0692 0.36287,0.11325 0.0638,0.0237 -0.13388,-0.0275 -0.19738,-0.0519 -0.16904,-0.0648 -0.21246,-0.11652 -0.35337,-0.22749 -0.0476,-0.0561 -0.10084,-0.10774 -0.14272,-0.16816 -0.22492,-0.32444 -0.30284,-0.7373 -0.19717,-1.11708 0.0302,-0.0622 0.0534,-0.12839 0.0906,-0.18668 0.18851,-0.29513 0.5207,-0.42241 0.82338,-0.5649 z" />
      <path
         style="fill:#000000;fill-opacity:0.69492197;stroke:#000000;stroke-width:1;stroke-linecap:round;stroke-linejoin:round;stroke-miterlimit:2;stroke-dasharray:none;stroke-opacity:0.57465613;paint-order:markers stroke fill"
         id="path482"
         d="m 935.51776,167.66971 c 0.17177,-0.52847 0.13806,-1.0923 0.0815,-1.63635 -0.10316,-0.72952 -0.30758,-1.438 -0.54322,-2.13449 -0.0805,-0.23794 -0.15983,-0.47654 -0.2526,-0.70996 -0.0956,-0.24066 -0.2082,-0.47426 -0.31228,-0.71139 -0.32438,-0.68876 -0.73819,-1.32913 -1.25154,-1.89257 -0.15861,-0.17409 -0.30829,-0.3639 -0.50347,-0.49568 -0.2254,-0.15218 -0.49969,-0.21628 -0.73988,-0.34381 -0.195,-0.10354 -0.37563,-0.23213 -0.56346,-0.34819 0,0 -0.018,0.009 -0.018,0.009 v 0 c 0.91895,0.75568 0.057,-0.0358 0.80177,0.91867 0.14269,0.18289 0.32705,0.32968 0.47733,0.50638 0.49057,0.57683 0.87032,1.22779 1.18544,1.91444 0.10104,0.23685 0.20902,0.47086 0.30313,0.71054 0.3505,0.89253 0.62,1.82334 0.80677,2.76322 0.0381,0.28748 0.0616,0.40448 0.0703,0.68844 0.01,0.30802 -0.0276,0.61328 -0.0709,0.91744 z" />
      <path
         style="fill:#000000;fill-opacity:0.69492197;stroke:#000000;stroke-width:1;stroke-linecap:round;stroke-linejoin:round;stroke-miterlimit:2;stroke-dasharray:none;stroke-opacity:0.57465613;paint-order:markers stroke fill"
         id="path483"
         d="m 942.25704,168.03103 c -0.0109,-0.4238 -0.0161,-0.85635 0.0493,-1.27669 0.0761,-0.48846 0.20577,-0.945 0.32747,-1.42437 0.341,-1.18832 0.79614,-2.34434 1.37901,-3.4354 0.1392,-0.26055 0.2821,-0.51968 0.4413,-0.76851 0.14542,-0.22727 0.31427,-0.43866 0.47138,-0.65799 0.39558,-0.75978 0.14023,-0.41436 0.77685,-1.02821 0,0 -0.0199,0.003 -0.0199,0.003 v 0 c -0.77991,0.68969 -0.3465,0.32394 -1.31027,1.08534 -0.44058,0.59998 -0.67447,0.88407 -1.04894,1.53678 -0.62264,1.0853 -1.05563,2.27257 -1.42422,3.46361 -0.0679,0.26085 -0.14552,0.51936 -0.20365,0.78255 -0.14007,0.63411 -0.20733,1.30953 -0.0443,1.94605 z" />
    </g>
    <g
       id="g486"
       transform="translate(-961.21371,-87.721525)"
       style="fill:#000000;fill-opacity:0.69492197;stroke:#000000;stroke-opacity:0.57465613"
       inkscape:export-filename="cd_1.svg"
       inkscape:export-xdpi="96"
       inkscape:export-ydpi="96">
      <path
         style="fill:#000000;fill-opacity:0.69492197;stroke:#000000;stroke-width:1;stroke-linecap:round;stroke-linejoin:round;stroke-miterlimit:2;stroke-dasharray:none;stroke-opacity:0.57465613;paint-order:markers stroke fill"
         id="path484"
         d="m 969.17205,151.45069 c 0.35295,0.40464 0.69521,0.82266 1.00515,1.26153 0.2845,0.40285 0.47154,0.71513 0.73318,1.13358 0.49366,0.87247 0.15023,0.2521 0.5978,1.09335 0.0824,0.15496 0.15031,0.3189 0.24966,0.4636 0.10647,0.1551 0.24292,0.2873 0.36439,0.43095 0,0 0.0191,0.006 0.0191,0.006 v 0 c 0.0238,-0.099 0.0812,-0.19555 0.0716,-0.29689 -0.0143,-0.15112 -0.0852,-0.29186 -0.14112,-0.43299 -0.1777,-0.44868 -0.31176,-0.65574 -0.54981,-1.08584 -0.12271,-0.19395 -0.24037,-0.39119 -0.36819,-0.58183 -0.4273,-0.6374 -0.91207,-1.24824 -1.42537,-1.81823 z" />
      <path
         style="fill:#000000;fill-opacity:0.69492197;stroke:#000000;stroke-width:1;stroke-linecap:round;stroke-linejoin:round;stroke-miterlimit:2;stroke-dasharray:none;stroke-opacity:0.57465613;paint-order:markers stroke fill"
         id="path485"
         d="m 972.93783,149.92332 c -0.0161,0.96145 0.0278,1.92399 0.0557,2.88526 0.0312,0.52216 0.0296,0.62941 0.0897,1.13509 0.0329,0.27683 0.0703,0.60514 0.17581,0.86879 0.0537,0.13422 0.13647,0.25491 0.20468,0.38236 0,0 0.0177,0.009 0.0177,0.009 v 0 c 0.0515,-0.0675 0.12536,-0.12282 0.15449,-0.20258 0.0723,-0.19788 0.0362,-0.61626 0.0267,-0.79643 -0.0249,-0.47371 -0.0461,-0.66563 -0.0883,-1.14824 -0.0896,-0.92285 -0.14386,-1.84652 -0.14301,-2.77399 z" />
      <path
         style="fill:#000000;fill-opacity:0.69492197;stroke:#000000;stroke-width:1;stroke-linecap:round;stroke-linejoin:round;stroke-miterlimit:2;stroke-dasharray:none;stroke-opacity:0.57465613;paint-order:markers stroke fill"
         id="path486"
         d="m 976.48619,150.65776 c -0.59349,0.70969 -0.97216,1.55891 -1.33147,2.40257 -0.19547,0.54748 -0.40108,1.09837 -0.50855,1.67206 -0.0302,0.16129 -0.073,0.32459 -0.0623,0.48834 0.0111,0.17083 0.0845,0.33179 0.12676,0.49769 0,0 0.0175,0.01 0.0175,0.01 v 0 c 0.0924,-0.0856 0.21058,-0.14994 0.27715,-0.25687 0.0796,-0.12781 0.10292,-0.28307 0.14835,-0.4266 0.17426,-0.55037 0.30271,-1.11584 0.52113,-1.65204 0.0748,-0.18807 0.14366,-0.37859 0.22434,-0.56421 0.27638,-0.63587 0.63219,-1.23875 1.08627,-1.76423 z" />
    </g>
  </g>
</svg>
