<?xml version="1.0" encoding="UTF-8" standalone="no"?>
<svg
   width="20mm"
   height="50mm"
   viewBox="-10 -30 20 50"
   version="1.2"
   id="dragonade_logo"
   sodipodi:docname="dragonade_logo.svg"
   inkscape:version="1.3 (0e150ed6c4, 2023-07-21)"
   xmlns:inkscape="http://www.inkscape.org/namespaces/inkscape"
   xmlns:sodipodi="http://sodipodi.sourceforge.net/DTD/sodipodi-0.dtd"
   xmlns="http://www.w3.org/2000/svg"
   xmlns:svg="http://www.w3.org/2000/svg">
  <defs
     id="defs1" />
  <sodipodi:namedview
     id="namedview1"
     pagecolor="#ffffff"
     bordercolor="#666666"
     borderopacity="1.0"
     inkscape:showpageshadow="2"
     inkscape:pageopacity="0.0"
     inkscape:pagecheckerboard="0"
     inkscape:deskcolor="#d1d1d1"
     inkscape:document-units="mm"
     showgrid="false"
     inkscape:zoom="34.873328"
     inkscape:cx="13.491686"
     inkscape:cy="48.532793"
     inkscape:window-width="2560"
     inkscape:window-height="1371"
     inkscape:window-x="0"
     inkscape:window-y="32"
     inkscape:window-maximized="1"
     inkscape:current-layer="dragon" />
  <g
     id="dragon"
     transform="translate(0,-2)">
    <g
       id="g1"
       style="stroke:#909090;fill:#909090;fill-opacity:1;stroke-width:0.05;opacity:0.45">
      <path
         id="body"
         d="M -0.12773438 -26.436271 C -1.4175304 -26.502046 -2.5691413 -25.428076 -3.1709595 -24.319088 C -3.605429 -23.016989 -5.2071042 -21.262696 -5.399764 -20.768917 C -5.5909438 -20.760167 -5.796578 -20.573234 -5.2824585 -24.52476 C -6.1522489 -21.629864 -5.9360128 -20.476929 -5.9986938 -20.082654 C -6.0154337 -20.056735 -6.0323835 -20.031223 -6.0669067 -19.966899 C -6.3193265 -20.763318 -5.8993625 -22.617358 -5.9206624 -23.979057 C -6.2626021 -22.150439 -6.6567768 -20.44396 -6.4214071 -19.028971 C -6.3134072 -17.420033 -8.0001221 -16.000216 -8.0001221 -16.000216 L -7.63632 -12.935286 C -6.6974809 -16.212973 -7.2365469 -16.969438 -3.108431 -17.946867 C -3.9915401 -18.908146 -4.7305447 -19.681488 -4.470105 -20.698637 C -4.3398751 -21.207206 -3.8051126 -22.196037 -3.0681234 -22.880416 C -2.3311341 -23.564805 -1.2812676 -25.599492 -0.010428874 -25.067362 C 0.9151702 -24.454883 -2.2094843 -22.502174 -1.1736654 -20.922396 C -0.29222625 -19.960417 1.1364398 -21.108677 1.6731893 -20.843848 C 2.3013987 -20.191988 0.48504272 -18.689989 0.12341309 -17.85695 C -0.41580637 -16.989991 -0.24462456 -16.059234 -0.16442464 -15.133085 C -0.36549444 -13.736327 -0.27805125 -13.043501 0.010758464 -11.996842 C 0.042873981 -11.907331 0.080790815 -11.828322 0.1203125 -11.751896 C -0.29046749 -11.089117 -0.53404455 -9.8652847 -1.3529826 -9.9995483 C -2.1102518 -10.123698 -2.2237495 -11.686814 -2.9378988 -11.669214 C -4.0213777 -11.224694 -4.665527 -11.85473 -4.9553467 -11.64906 C -5.1856764 -11.72306 -5.9567514 -11.954688 -6.6875407 -11.623739 C -5.7591316 -11.667969 -5.4651976 -11.707455 -4.9630981 -11.341585 C -5.3748777 -11.550485 -6.7111337 -11.033019 -7.1774333 -10.76436 C -6.6339138 -10.836989 -5.3098501 -11.102116 -4.8700806 -10.977266 C -5.2567702 -10.828767 -6.5084678 -10.696765 -7.1975871 -10.493575 C -6.4324678 -10.464575 -5.3507918 -10.505489 -4.8266724 -10.743689 C -5.1066921 -10.451719 -5.4648914 -9.9804465 -6.0183309 -9.7442668 C -5.2690216 -9.7950067 -5.0051783 -10.400355 -4.5956787 -10.388155 C -4.3667089 -10.823995 -4.1503835 -10.935762 -3.1270345 -10.866162 C -2.5736029 -11.488258 -1.6726408 -9.313923 -1.5576213 -8.93243 C -1.0350277 -9.4006711 -0.92999583 -10.028366 -9.358724e-05 -10.000065 C 0.44705547 -10.516521 0.068077579 -10.343728 0.82827962 -10.859444 C 1.0049007 -10.665295 1.1765769 -10.456922 1.3068034 -10.160262 C 1.6005876 -9.1811659 2.387435 -8.0791075 1.1187012 -7.083964 L 0.50013428 -7.4999593 C -0.06244516 -8.2631685 -1.2289416 -7.2698749 -1.7157511 -7.7914144 C -2.2025607 -8.3129539 -2.6056736 -6.8329614 -3.207133 -7.4374308 C -4.4922617 -6.311502 -5.109646 -6.8544596 -6.5144246 -5.9713704 C -5.9080252 -6.0678703 -5.1682536 -6.2411214 -5.1682536 -6.2411214 C -5.1682536 -6.2411214 -5.9499482 -5.8980028 -6.8461873 -5.5620931 C -5.7980984 -5.5409931 -5.2369832 -5.7393433 -5.2369832 -5.7393433 C -5.2369832 -5.7393433 -5.7312028 -5.3248609 -6.7640218 -5.0928711 C -5.9039827 -4.9155713 -5.057666 -5.3755412 -5.057666 -5.3755412 C -5.057666 -5.3755412 -5.9011624 -4.834908 -6.7097616 -4.6892782 C -5.7879025 -4.3860885 -4.9176229 -5.0463623 -4.9176229 -5.0463623 C -4.9176229 -5.0463623 -5.0233185 -4.6610099 -5.526888 -4.3647502 C -4.7117988 -4.3942501 -4.3140422 -5.180721 -4.3140422 -5.180721 C -4.3140422 -5.180721 -4.076816 -6.2704158 -3.4732666 -6.4049357 C -3.1270569 -6.4179357 -2.498487 -7.0145707 -2.522937 -6.4871012 C -2.290725 -6.0385464 -1.9961085 -5.8983976 -1.5416016 -5.8085897 C -4.1572328 -4.3050631 -5.1826005 -2.2671197 -4.7290039 0.23186849 C -3.2207454 3.9286848 3.8600418 1.5376468 4.8559408 2.335616 C 5.7845998 4.0821543 2.7039552 4.8256384 2.3765055 5.309078 C -4.9592471 8.277075 -4.7765682 11.170616 -3.2779297 13.576274 C -2.9602609 13.910045 -2.6126992 14.29893 -2.2154622 14.680082 C -2.3017264 15.099822 -2.3807095 15.560406 -2.4469727 16.098083 C -2.0490731 18.072762 -1.2304533 19.347727 -0.33857422 20.098356 C -0.10470445 20.222076 1.1127782 20.742509 2.1909871 20.821309 C 3.2408261 20.898039 5.175562 20.596996 5.3907918 18.189429 C 4.4802427 20.018737 3.941512 19.502062 2.6994832 20.089571 C 1.7324442 19.940401 0.7278667 19.819423 0.49651693 19.693213 C -0.33934224 19.169323 -1.6121785 16.919948 -1.3152588 16.090849 C -1.2998717 15.933754 -1.2516149 15.737772 -1.1819336 15.518791 C -0.26468381 16.114916 0.91983812 16.510264 2.5682251 16.301172 C 6.0424816 15.294573 6.3222667 10.625424 4.9298381 9.685555 C 3.5374094 8.745686 1.1586262 8.8918692 0.10997721 10.299988 C -0.57048497 11.213716 -1.2430652 11.759384 -1.7622599 13.08328 C -1.9259674 12.923815 -2.0756345 12.787062 -2.2547363 12.60269 C -3.1151955 11.176171 -3.2829762 8.3997829 2.1269084 6.9482544 C 4.9586555 5.9876754 7.1751175 3.3897289 5.9215088 1.5315308 C 4.0276507 -0.23862747 -1.3909062 2.4443914 -3.1270345 -0.28489583 C -2.5687051 -3.4552027 -1.0412981 -3.2358888 0.14615072 -3.9833781 C 0.46514666 -3.992423 0.97745142 -4.0905893 1.5491659 -4.2484782 C 1.4403846 -3.9866586 1.3656721 -3.6894896 1.3476278 -3.3529256 C 1.3697077 -2.4784465 2.7457963 -2.2259882 2.1542969 -1.9741984 C 1.5627875 -1.7224087 1.0199992 -2.4367025 1.0199992 -2.4367025 L -0.15305583 -2.7374593 L 0.4288208 -2.1850382 L -1.3018229 -1.4016235 L 0.51046956 -1.8222697 L -1.1028687 -1.0280029 L 0.7533488 -1.4202271 L -0.88789469 -0.58151855 L 1.0608236 -1.0714111 C 1.0608236 -1.0714111 0.21104787 -0.72208749 -0.35976156 -0.43630778 C 1.5150966 -0.29747792 1.0927222 -1.5474849 2.8612305 -1.374235 C 3.4186899 -1.8366946 2.3277366 -2.4561067 2.8204061 -2.7395264 C 2.7342062 -4.081825 3.6494194 -2.6431859 5.000118 -4.9998535 C 5.2099056 -5.4064779 5.0277811 -5.6334304 4.7143473 -5.7579468 C 5.6170716 -6.47785 6.1820754 -7.4040768 5.8269409 -8.5241862 C 6.0459052 -9.3986702 5.3967603 -10.045572 5.0471436 -10.76901 C 5.3181825 -10.672712 5.5378791 -10.46785 5.6806966 -10.182483 C 5.8693618 -9.8055061 6.4934841 -8.8559895 6.4553263 -8.1975911 C 6.8847548 -8.1277112 7.4658173 -7.0694391 6.868221 -6.2927979 C 7.1277838 -5.3004758 7.0587717 -5.0669153 6.6734009 -4.7605916 C 6.7618748 -4.360576 6.2163817 -3.9884451 6.3064982 -3.2428548 C 6.4351349 -3.8306712 6.831089 -4.270776 7.065625 -4.6003947 C 6.9295243 -4.0410203 7.0911022 -2.9705486 7.2625122 -2.2243123 C 7.3333991 -2.9392636 7.2291649 -4.1932909 7.3028198 -4.6009115 C 7.507618 -4.1921989 7.4948579 -2.8421097 7.5250285 -2.2945923 C 7.7018637 -2.8028678 7.9606282 -4.2121514 7.6785075 -4.5776571 C 8.1317087 -4.1527305 8.1474116 -3.8567237 8.2774373 -2.9364136 C 8.4660463 -3.7161778 8.0950229 -4.4303296 7.9792643 -4.6427694 C 8.127175 -4.965902 7.3873712 -5.4812428 7.6216634 -6.6286947 C 7.7668274 -7.280732 7.1670181 -8.3269572 7.10955 -8.8673177 C 6.5769615 -8.9662076 6.3355512 -10.316223 5.7731974 -11.872302 C 5.5494342 -11.981022 5.150908 -12.361605 4.458549 -12.590605 C 4.2815927 -12.931873 4.07799 -13.250443 3.8244792 -13.672709 C 2.9089601 -14.844298 2.0271018 -16.153897 2.3899414 -17.883305 C 3.1396507 -19.458593 4.03574 -20.72972 3.2508708 -21.940938 C 2.3585017 -23.012327 0.15925766 -21.213958 -0.23832194 -21.779708 C -0.5757616 -22.741727 2.6713457 -24.332624 0.7822876 -26.194942 C 0.4749454 -26.345066 0.16991085 -26.421092 -0.12773438 -26.436271 z M -1.5576213 -8.93243 C -1.5631382 -8.9274869 -1.5680294 -8.9223505 -1.573641 -8.9174438 C -1.5382939 -8.8468324 -1.5372752 -8.8649469 -1.5576213 -8.93243 z M 3.0612183 10.357349 C 3.5057094 10.346942 3.9554405 10.513674 4.3278076 11.022424 C 5.3207966 12.379093 4.5553461 13.931205 2.566158 15.165324 C 1.6661199 15.202936 0.95099654 15.361191 -0.60264079 14.126628 C 0.042479374 12.794619 0.93619794 11.357893 1.2670125 11.119576 C 1.5943247 10.883764 2.3203997 10.374693 3.0612183 10.357349 z "
         style="stroke-width:0.1;stroke-dasharray:none;stroke:#ffffff;stroke-opacity:1" />
    </g>
    <path
       id="eye"
       style="opacity:0.5;fill:#f0c040;fill-opacity:1;stroke:#ffffff;stroke-width:0.1;stroke-dasharray:none;stroke-opacity:1"
       d="m -5.5,-18.5 c 0.2048466,0.01315 0.2131818,0.113528 0.4719719,0.226941 -0.25305,0.115376 -0.7507019,0.07753 -0.9228619,0.303527 C -5.93519,-18.335165 -5.79725,-18.48263 -5.5,-18.5 Z"
       sodipodi:nodetypes="cccc" />
  </g>
</svg>
