<?xml version="1.0" encoding="UTF-8" standalone="yes"?>
<svg
        width="20mm"
        height="50mm"
        viewBox="-10 -30 20 50"
        version="1.2"
        id="dragonade_logo"
        xmlns="http://www.w3.org/2000/svg"
>
    <g id="dragon" transform="translate(0,-2)">
        <g id="body"
           style="stroke:#909090;fill:#909090;fill-opacity:1;stroke-width:0.05;opacity:0.45"
        >
            <path id="body"
                  d="M -8,-16 c 0,0 1.68684,-1.42015 1.57884,-3.02909 -0.23537,-1.41499 0.15861,-3.12156 0.50055,-4.95018 0.0213,1.3617 -0.39854,3.21612 -0.14612,4.01254 0.18118,-0.33758 0.083,-0.0575 0.0672,-0.0915 0.0717,-0.37838 -0.16461,-1.53143 0.71723,-4.46643 -0.51412,3.95153 -0.30873,3.76464 -0.11755,3.75589 0.19266,-0.49378 1.79465,-2.24837 2.22912,-3.55047 0.7407,-1.36491 2.31379,-2.67649 3.95295,-1.87583 1.88906,1.86232 -1.35804,3.45337 -1.0206,4.41539 0.39758,0.56575 2.59673,-1.23281 3.4891,-0.16142 0.78487,1.21122 -0.11115,2.48225 -0.86086,4.05754 -0.36284,1.72941 0.51934,3.03928 1.43486,4.21087 0.45692,0.76108 0.75883,1.17232 1.01627,2.02055 -0.0779,1.14555 1.28874,1.91804 0.98577,3.12802 0.91345,2.88106 -4.22823,4.4994 -5.68056,4.54058 -1.18745,0.74749 -2.71487,0.52846 -3.2732,3.69877 1.73613,2.72929 7.15484,0.0459 9.0487,1.81606 1.25361,1.8582 -0.96287,4.45648 -3.79462,5.41706 -5.40989,1.45153 -5.24236,4.22761 -4.3819,5.65413 2.80704,2.88965 3.65025,2.61186 4.82112,2.56293 1.98919,-1.23412 2.75464,-2.78655 1.76165,-4.14322 -0.99298,-1.35667 -2.53705,-0.2801 -3.06075,0.0972 -0.5237,0.37727 -2.46413,3.76093 -2.58269,4.97137 -0.29692,0.8291 0.97629,3.07832 1.81215,3.60221 0.23135,0.12621 1.23578,0.24735 2.20282,0.39652 1.24203,-0.58751 1.78059,-0.071 2.69114,-1.90031 -0.21523,2.40757 -2.14959,2.70871 -3.19943,2.63198 -1.07821,-0.0788 -2.29576,-0.59895 -2.52963,-0.72267 -0.89188,-0.75063 -1.71077,-2.02563 -2.10867,-4.00031 0.47672,-3.86824 1.50845,-4.39019 2.55709,-5.79831 1.04865,-1.40812 3.42717,-1.55403 4.8196,-0.61416 1.39243,0.93987 1.11273,5.60866 -2.36153,6.61526 -3.25227,0.41254 -4.7028,-1.52375 -5.84586,-2.72475 -1.49864,-2.40566 -1.68141,-5.29907 5.65435,-8.26707 0.32745,-0.48344 3.40797,-1.22724 2.47931,-2.97378 -0.9959,-0.79797 -8.07678,1.59335 -9.58504,-2.10347 -0.48628,-2.67905 0.72579,-4.82865 3.77639,-6.35748 3.92712,-1.19851 2.65197,-2.72666 2.25946,-4.03478 -0.35525,-0.80927 -1.0002,-1.0119 -1.29611,-1.83665 -0.28881,-1.04666 -0.37584,-1.73933 -0.17477,-3.13609 -0.0802,-0.92615 -0.25181,-1.85697 0.28741,-2.72393 0.36163,-0.83304 2.17817,-2.33517 1.54996,-2.98703 -0.53675,-0.26483 -1.96524,0.88368 -2.84668,-0.0783 -1.03582,-1.57978 2.08847,-3.53259 1.16287,-4.14507 -1.27084,-0.53213 -2.32064,1.50261 -3.05763,2.187 -0.73699,0.68438 -1.27151,1.67305 -1.40174,2.18162 -0.26044,1.01715 0.47872,1.79056 1.36183,2.75184 -4.12812,0.97743 -3.58927,1.73409 -4.52811,5.01178 z"
            />
            <path id="right_leg"
                  d="M 0.5,-7.5 c -0.56258,-0.76321 -1.72894,0.23034 -2.21575,-0.2912 -0.48681,-0.52154 -0.88971,0.95848 -1.49117,0.35401 -1.28513,1.12593 -1.90289,0.5827 -3.30767,1.46579 0.6064,-0.0965 1.3465,-0.26957 1.3465,-0.26957 0,0 -0.78194,0.34286 -1.67818,0.67877 1.04809,0.0211 1.60951,-0.17724 1.60951,-0.17724 0,0 -0.49431,0.41473 -1.52713,0.64672 0.86004,0.1773 1.7064,-0.28301 1.7064,-0.28301 0,0 -0.84347,0.54102 -1.65207,0.68665 0.92186,0.30319 1.79188,-0.35724 1.79188,-0.35724 0,0 -0.10556,0.38525 -0.60913,0.68151 0.81509,-0.0295 1.21251,-0.8161 1.21251,-0.8161 0,0 0.23731,-1.08962 0.84086,-1.22414 0.34621,-0.013 0.97483,-0.60947 0.95038,-0.082 0.40226,0.77703 0.98913,0.62971 2.27658,0.89564 0.62414,-0.26007 1.66767,-0.17382 1.53566,-1.37794 z"
            />
            <path id="left_leg"
                  d="M 5,-5 c -1.3507,2.35667 -2.26563,0.91811 -2.17943,2.26041 -0.49267,0.28342 0.59816,0.90291 0.0407,1.36537 -1.76851,-0.17325 -1.34599,1.0768 -3.22085,0.93797 0.57081,-0.28578 1.42039,-0.63518 1.42039,-0.63518 l -1.94878,0.49016 1.64144,-0.83896 -1.85646,0.39245 1.61336,-0.79426 -1.81222,0.42022 1.73063,-0.78322 -0.58209,-0.55239 1.17354,0.30071 c 0,0 0.54243,0.71451 1.13394,0.46272 0.5915,-0.25179 -0.78438,-0.5043 -0.80646,-1.37878 0.0996,-1.85774 1.8983,-2.53044 1.8983,-2.53044 0,0 2.32468,-0.22291 1.754,0.88322 z"
            />
            <path id="left_arm"
                  d="M 0,-10 c -0.93972,-0.0286 -1.0366,0.61275 -1.57377,1.08244 0.23517,0.46979 -0.90191,-2.68062 -1.55324,-1.94848 -1.02335,-0.0696 -1.23968,0.042 -1.46865,0.47784 -0.4095,-0.0122 -0.67356,0.59307 -1.42287,0.64381 0.55344,-0.23618 0.91173,-0.70736 1.19175,-0.99933 -0.52412,0.2382 -1.60556,0.27913 -2.37068,0.25013 0.68912,-0.20319 1.94046,-0.33507 2.32715,-0.48357 -0.43977,-0.12485 -1.76379,0.14005 -2.30731,0.21268 0.4663,-0.26866 1.8026,-0.7861 2.21438,-0.5772 -0.5021,-0.36587 -0.79583,-0.32611 -1.72424,-0.28188 0.73079,-0.33095 1.50167,-0.0996 1.732,-0.0256 0.28982,-0.20567 0.93426,0.42452 2.01774,-0.02 0.71415,-0.0176 0.82756,1.54564 1.58483,1.66979 0.92401,0.15149 1.11518,-1.42784 1.64096,-1.97709 0.48036,0.95684 0.47226,0.58981 0.54368,1.11436 -0.76607,0.51937 -0.38372,0.34465 -0.83173,0.8621 z"
            />
            <path id="right_arm"
                  transform="rotate(-220)"
                  d="M -12.5,7 c -0.76456,0.21692 -1.47512,0.49372 -1.8691,1.02261 -0.37388,-0.2225 -1.49942,0.21459 -1.54085,1.19366 -0.83669,0.59332 -0.93365,0.81664 -0.83534,1.29901 -0.3249,0.24956 -0.14663,0.8854 -0.69492,1.39863 0.2793,-0.53298 0.25881,-1.12456 0.29102,-1.52782 -0.2553,0.51599 -1.06707,1.2317 -1.67805,1.69317 0.40526,-0.59325 1.2911,-1.48687 1.49669,-1.84647 -0.4196,0.18145 -1.2776,1.22407 -1.65265,1.6241 0.19125,-0.50303 0.89905,-1.74901 1.35011,-1.84766 -0.62031,0.0342 -0.82266,0.25081 -1.51383,0.87223 0.35674,-0.71857 1.10014,-1.02696 1.32537,-1.11529 0.0944,-0.34261 0.99216,-0.26209 1.55025,-1.29169 0.30792,-0.5928 1.43975,-1.00838 1.83111,-1.38538 0.47155,0.26659 1.44189,-0.26421 2.38154,-1.20262 1.30436,-0.20098 -0.2651,0.0745 1.88508,0.49785 -0.21824,0.49271 -1.80005,0.60621 -2.00368,0.56631 z"
            />
        </g>
        <path id="eye"
              style="fill:#f0c040;fill-opacity:1;stroke:#202020;stroke-width:0.05; opacity:0.45"
              d="M -5.5,-18.5 c 0.25968,0.135634 0.49103,0.04785 0.2505,0.244823 -0.25305,0.115376 -0.52923,0.05965 -0.70139,0.285645 0.0157,-0.365633 0.15364,-0.513098 0.45089,-0.530468 z"
        />
    </g>
</svg>
