<?xml version="1.0" encoding="UTF-8" standalone="no"?>
<!-- Created with Inkscape (http://www.inkscape.org/) -->

<svg
   width="12.836894mm"
   height="29.997932mm"
   viewBox="0 0 12.836894 29.997932"
   version="1.1"
   id="svg1"
   xmlns="http://www.w3.org/2000/svg"
   xmlns:svg="http://www.w3.org/2000/svg">
  <defs
     id="defs1" />
  <g
     id="layer1"
     transform="translate(-149.76723,-43.462733)">
    <g
       id="g558"
       transform="translate(-899.19002,-20.648892)"
       style="fill:#ffffff;fill-opacity:0.760128;stroke:#dddddd;stroke-opacity:0.894658">
      <g
         id="g554"
         transform="matrix(0.73459241,0,0,0.73459241,251.83468,10.791071)"

      >
        <path

           id="path543"
           d="m 1086.8905,91.525155 c 0.8971,0.02188 1.7859,-0.07397 2.6735,-0.189778 0.8138,-0.106174 1.1629,-0.140644 1.9464,-0.337121 0.2601,-0.06521 0.5141,-0.152448 0.7711,-0.228674 0.6992,-0.247841 1.3244,-0.614223 1.6131,-1.331698 0.1922,-0.47765 0.1542,-0.584208 0.1843,-1.103141 -0.019,-1.385824 0.033,-2.78148 0.3414,-4.138152 0.071,-0.313814 0.1672,-0.621546 0.2507,-0.932318 0.4587,-1.543235 1.1613,-2.984439 2.0965,-4.294573 0.1817,-0.254469 0.3827,-0.494604 0.5739,-0.741908 0.8598,-1.029943 1.8124,-1.926021 3.0426,-2.483366 0.2736,-0.07351 0.5542,-0.155183 0.8378,-0.183681 0,-5.3e-4 0.2409,0.01077 0.273,-0.02381 0.014,-0.01535 -0.024,-0.03437 -0.036,-0.05156 -0.359,-0.699331 -0.6615,-1.430642 -1.0769,-2.097995 -0.041,-0.06663 -0.057,0.14687 -0.095,0.215468 -0.068,0.121965 -0.1441,0.239147 -0.2221,0.354854 -0.4041,0.599488 -0.8259,1.188387 -1.233,1.786041 -0.8237,1.283113 -1.5559,2.641552 -2.1085,4.065318 -0.1049,0.270171 -0.1929,0.546586 -0.2894,0.81988 -0.2753,0.836443 -0.3814,1.703078 -0.4416,2.576645 -0.022,0.319399 -0.067,0.639029 -0.054,0.958932 0.025,0.640458 0.195,1.187145 0.3487,1.802005 0.1108,0.271772 0.2034,0.551691 0.3324,0.815314 0.1212,0.247692 0.2565,0.490127 0.4163,0.714864 0.8995,1.265177 1.6613,2.766147 3.1409,3.421581 0.1722,0.0763 0.3589,0.11452 0.5384,0.171781 0.1698,0.03189 0.3367,0.09096 0.5095,0.09568 0.093,0.0026 0.6781,-0.07753 0.7677,-0.217924 0.095,-0.149344 0.07,-0.347271 0.1049,-0.520907 0,0 -0.024,-0.05479 -0.024,-0.05479 v 0 c -0.1946,-0.183476 -0.365,-0.396613 -0.5838,-0.550421 -0.1605,-0.112779 -0.3586,-0.158888 -0.538,-0.238138 -0.7798,-0.344501 -0.3884,-0.186995 -1.2228,-0.485968 -0.5681,-0.28007 -0.8052,-0.362361 -1.3095,-0.74607 -0.1981,-0.150791 -0.6444,-0.72776 -0.5611,-0.493072 0.1833,0.517072 0.5914,0.924237 0.8796,1.391089 0.3062,0.496155 -1.3331,-2.014397 -0.8438,-1.532205 -0.3753,-1.239718 -0.2035,-0.546004 -0.4374,-1.827593 -0.054,-0.295349 -0.1429,-0.585975 -0.1654,-0.885357 -0.062,-0.831315 0.1702,-1.731362 0.2852,-2.548686 0.082,-0.279146 0.153,-0.562007 0.247,-0.837441 0.4937,-1.446575 1.2419,-2.793126 2.0813,-4.064444 0.3888,-0.564941 0.779,-1.125053 1.2232,-1.648651 0.085,-0.100242 0.1746,-0.196569 0.2647,-0.292261 0.061,-0.06462 0.2167,-0.104497 0.1881,-0.188558 -0.2663,-0.784188 -0.6808,-1.509937 -1.0213,-2.264905 -0.048,-0.02841 -0.091,-0.07017 -0.1444,-0.08523 -0.088,-0.02468 -0.2088,0.04615 -0.2802,0.07082 -0.282,0.09744 -0.5629,0.192868 -0.8205,0.349734 -1.2135,0.62924 -2.239,1.547535 -3.1094,2.597433 -0.4759,0.607957 -0.7225,0.893512 -1.1407,1.546969 -0.1712,0.267502 -0.3247,0.545923 -0.4823,0.821666 -0.5081,0.889103 -1.0145,1.787716 -1.3252,2.769179 -0.219,0.76126 -0.3319,1.092428 -0.4855,1.868506 -0.2097,1.059942 -0.2558,2.139493 -0.3718,3.211193 -0.014,0.107257 -0.11,0.865994 -0.1596,1.025948 -0.2129,0.685607 -0.8187,1.080924 -1.4355,1.36597 -0.2382,0.09116 -0.4725,0.192905 -0.7145,0.273476 -1.4419,0.480195 -2.9553,0.72604 -4.4673,0.835599 z" />
        <path

           id="path544"
           d="m 1088.3733,98.052172 c 1.2832,-0.538168 2.4632,-1.321126 3.5183,-2.225358 0.2543,-0.217908 0.4922,-0.454231 0.7383,-0.681347 0.906,-0.817568 1.6054,-1.80785 2.2748,-2.816751 0.1609,0.655486 -0.095,-0.428011 -1.2319,-1.252077 -0.1002,-0.07266 -0.041,0.244517 -0.05,0.367953 -0.014,0.182166 -0.021,0.365054 -0.019,0.547725 0.01,0.611303 0.038,0.709837 0.119,1.313277 0.2919,0.344742 0.2392,0.886762 0.5166,1.237203 0.8707,1.100304 1.5172,2.208098 2.7478,2.763917 0.4442,0.200628 0.7345,0.232309 1.2067,0.328474 0.7574,0.06362 1.5429,0.194273 2.2943,0.0097 0.273,-0.06706 0.4407,-0.166965 0.6885,-0.290158 -0.06,-0.681969 -0.1397,-0.406516 0.094,-0.85557 0,0 -0.032,-0.05096 -0.032,-0.05096 v 0 c -0.7305,-0.323827 -0.3109,-0.110527 -1.2273,-0.698455 -0.5764,-0.100606 -1.1584,-0.188328 -1.7429,-0.227389 -0.7494,-0.05007 -0.4103,0.0213 -1.1671,-0.04919 -0.1974,-0.01839 -0.3932,-0.05181 -0.5897,-0.07771 -0.4609,-0.10241 -0.6749,-0.118642 -1.0999,-0.33855 -0.1733,-0.08971 -0.596,-0.483336 -0.4913,-0.31863 0.3551,0.558337 0.8532,1.011912 1.2627,1.531641 0.1497,0.190032 -0.3552,-0.336399 -0.4829,-0.541888 -0.147,-0.236566 -0.2204,-0.51155 -0.3306,-0.767326 -0.1,-0.271097 -0.2279,-0.533307 -0.2987,-0.813289 -0.1054,-0.416163 -0.078,-0.806233 -0.072,-1.225749 0,-0.143126 0.078,-0.305784 0.01,-0.429373 -1.0926,-1.870015 -0.726,-2.124957 -1.3484,-1.582018 -0.6042,1.07216 -1.3099,2.080572 -2.1913,2.94718 -0.2353,0.214318 -0.4633,0.437105 -0.7061,0.642959 -1.079,0.914725 -2.2922,1.700331 -3.621,2.196116 z" />
        <path

           id="path545"
           d="m 1089.0615,103.54121 c 0.2888,-0.0448 0.5787,-0.0827 0.8664,-0.13446 0.8649,-0.15569 1.7215,-0.35469 2.5855,-0.51537 1.5751,-0.29296 3.1596,-0.51347 4.7468,-0.72808 0.5244,-0.0615 1.8187,-0.0744 2.3025,-0.5694 0.2234,-0.22863 0.2347,-0.59471 0.3521,-0.89206 0,0 -0.031,-0.0513 -0.031,-0.0513 v 0 c -0.4962,-0.23755 -0.9604,-0.55892 -1.4886,-0.712646 -1.0117,-0.294415 -1.7863,-0.0745 -2.7861,0.06867 -1.5836,0.22884 -3.1669,0.45987 -4.7484,0.70269 -0.9338,0.14337 -1.7496,0.25543 -2.6671,0.46673 -0.2706,0.0623 -0.5343,0.15133 -0.8014,0.22699 z" />
      </g>
      <path

         id="path558"
         d="m 1056.4591,87.947666 c -0.1128,0.02487 -0.2301,0.03473 -0.3386,0.07459 -0.7378,0.270994 -1.3454,0.860189 -1.6113,1.604642 -0.071,0.199864 -0.089,0.415054 -0.1333,0.62258 0.01,0.21531 -0.012,0.432494 0.016,0.645928 0.046,0.343498 0.2152,0.855107 0.4015,1.152675 0.3819,0.609892 1.3082,1.155722 1.802,1.423398 0.1926,0.104426 0.4284,0.09205 0.6426,0.138081 0.4268,-0.01455 0.8948,0.02474 1.2872,-0.204793 0.7227,-0.422685 0.8966,-1.312198 0.5137,-2.035556 -0.1956,-0.369681 -0.522,-0.653693 -0.7829,-0.980538 0,0 -0.024,-0.01786 -0.024,-0.01786 v 0 c -0.1043,0.548925 -0.066,0.227573 -0.063,0.968864 -0.094,0.520504 -0.2621,0.851988 -0.7167,1.135065 -0.3251,0.202351 -0.7841,0.222084 -1.1456,0.269066 -0.1865,-0.03762 -0.4658,-0.278482 -0.5593,-0.112872 -0.092,0.162634 0.5127,0.540192 0.4035,0.388716 -0.1224,-0.169683 -0.3168,-0.27763 -0.4435,-0.444125 -0.3986,-0.523771 -0.5167,-1.146661 -0.5051,-1.789189 0.1003,-0.472466 0.1046,-0.715595 0.373,-1.126577 0.3589,-0.549466 0.9657,-0.890167 1.5883,-1.041659 z" />
    </g>
  </g>
</svg>
