<?xml version="1.0" encoding="UTF-8" standalone="yes"?>
<svg
    width="26.982525mm"
    height="34.347271mm"
    viewBox="0 0 26.982525 34.347272"
    version="1.2"
    id="vaisseau"
    xml:space="preserve"
    xmlns="http://www.w3.org/2000/svg">
    <g transform="translate(-21.590587,57.082443)">
        <path style="fill:#000000"
            d="m 29.620213,-23.479676 c -0.725441,-0.383 -1.580483,-1.09547 -1.900092,-1.58326 -0.496625,-0.75794 -1.854886,-5.02472 -1.885929,-5.92437 -0.0057,-0.16373 -0.802374,-0.18874 -1.770498,-0.0556 -1.676579,0.23059 -1.777164,0.19754 -2.116667,-0.69542 -0.196042,-0.51563 -0.35644,-1.15096 -0.35644,-1.41183 0,-0.54288 5.01021,-2.34724 5.547735,-1.99795 0.190561,0.12383 0.431488,1.49795 0.535393,3.05361 0.336769,5.04205 1.794178,6.869 5.481675,6.87161 3.335612,0.002 5.592832,-1.43605 7.471482,-4.76119 1.64134,-2.9051 3.669819,-7.95156 3.32739,-8.27788 -0.37783,-0.36007 -6.66788,0.0492 -7.07931,0.46065 -0.15842,0.15842 -0.33747,2.14086 -0.39788,4.40541 -0.12471,4.67465 -0.24268,5.32035 -0.85942,4.70362 -0.26557,-0.26558 -0.42263,-1.87622 -0.43866,-4.49871 -0.0225,-3.6781 -0.0943,-4.12596 -0.72128,-4.496 -0.38853,-0.22932 -2.799504,-0.48894 -5.4547,-0.58736 -4.093953,-0.15176 -4.774273,-0.25931 -4.872028,-0.77021 -0.07022,-0.36699 1.078432,-1.78199 3.006915,-3.70417 3.372145,-3.36113 4.933228,-5.894068 6.985792,-11.334778 0.608531,-1.61302 1.252211,-2.9624 1.430401,-2.99861 0.18301,-0.0372 0.41602,3.08108 0.53548,7.1661 0.11632,3.977568 0.32001,7.571988 0.45266,7.987598 0.33321,1.04408 1.08311,1.17429 6.79464,1.1798 3.666169,0.004 5.032349,0.12177 5.151499,0.44579 0.26787,0.7284 -0.0941,1.30863 -1.16025,1.85997 -1.43865,0.74396 -2.95587,3.12399 -4.733319,7.4251 -2.00128,4.84273 -3.00917,6.26115 -5.23837,7.372 -2.3002,1.14625 -5.739848,1.22008 -7.736219,0.16607 z m 4.599818,-18.04022 c 0.521921,-0.52192 0.597281,-8.043328 0.08059,-8.043328 -0.188509,0 -0.988429,1.38906 -1.777599,3.0868 -0.789171,1.697748 -1.587436,3.362468 -1.773923,3.699378 -0.72449,1.3089 -0.425037,1.68048 1.354266,1.68048 0.931334,0 1.883834,-0.1905 2.116666,-0.42333 z"
            id="vaisseau_path"
        />
    </g>
</svg>
