<?xml version="1.0" encoding="UTF-8" standalone="no"?>
<!-- Created with Inkscape (http://www.inkscape.org/) -->

<svg
   width="31.508976mm"
   height="23.607086mm"
   viewBox="0 0 31.508976 23.607087"
   version="1.1"
   id="svg1"
   xml:space="preserve"
   sodipodi:docname="hd_6.svg"
   inkscape:version="1.3 (0e150ed6c4, 2023-07-21)"
   xmlns:inkscape="http://www.inkscape.org/namespaces/inkscape"
   xmlns:sodipodi="http://sodipodi.sourceforge.net/DTD/sodipodi-0.dtd"
   xmlns="http://www.w3.org/2000/svg"
   xmlns:svg="http://www.w3.org/2000/svg"><sodipodi:namedview
     id="namedview1"
     pagecolor="#ffffff"
     bordercolor="#666666"
     borderopacity="1.0"
     inkscape:showpageshadow="2"
     inkscape:pageopacity="0.0"
     inkscape:pagecheckerboard="0"
     inkscape:deskcolor="#d1d1d1"
     inkscape:document-units="mm"
     inkscape:zoom="0.66517117"
     inkscape:cx="58.631525"
     inkscape:cy="115.00799"
     inkscape:window-width="2560"
     inkscape:window-height="1371"
     inkscape:window-x="0"
     inkscape:window-y="32"
     inkscape:window-maximized="1"
     inkscape:current-layer="layer1" /><defs
     id="defs1" /><g
     id="layer1"
     transform="translate(-19.327362,-144.25244)"><g
       id="g32" /><path
       style="fill:#000000"
       d="m 48.579536,167.28724 c -0.70377,-0.49046 -1.12075,-0.50872 -3.18654,-0.13954 -1.30725,0.23362 -2.64943,0.32015 -2.98263,0.19229 -0.76446,-0.29335 -0.78198,-1.49428 -0.0339,-2.32093 0.31457,-0.3476 0.48513,-0.85825 0.37902,-1.13476 -0.17131,-0.44642 -2.38218,-2.23344 -7.13592,-5.76785 l -1.51856,-1.12905 -1.52811,1.0955 c -2.29628,1.64621 -5.58505,4.53958 -5.58505,4.91357 0,0.18137 0.55562,0.6576 1.23472,1.05827 0.85031,0.5017 1.23472,0.98484 1.23472,1.55183 0,1.1524 -0.91023,1.33676 -4.15064,0.84071 -2.45304,-0.37551 -2.90818,-0.35417 -4.05539,0.19022 -2.01056,0.95408 -2.37709,0.45253 -0.60651,-0.82993 2.53436,-1.83567 2.50688,-2.38411 -0.14548,-2.90353 -1.03916,-0.2035 -1.50652,-1.18764 -0.90704,-1.90997 0.43677,-0.52628 0.94191,-0.57326 3.9421,-0.36662 3.99841,0.27538 4.16748,0.21425 7.07466,-2.55833 1.58172,-1.50849 1.98337,-2.09785 1.80746,-2.65211 -0.1244,-0.39194 -2.07141,-2.75489 -4.3267,-5.25099 -2.25528,-2.4961 -4.15343,-4.68904 -4.2181,-4.87319 -0.0647,-0.18416 0.33966,-0.33483 0.89854,-0.33483 1.13007,0 2.41315,1.19187 5.12698,4.7625 0.88481,1.16417 2.25051,2.73584 3.03487,3.49261 1.397,1.34786 1.44439,1.36398 2.32125,0.78944 0.49232,-0.32258 2.50569,-2.40533 4.47416,-4.62834 3.76856,-4.25585 4.77369,-5.12177 5.94521,-5.12177 1.62404,0 0.58772,1.4546 -4.63272,6.5025 l -5.35068,5.17386 1.9111,1.94237 c 1.05111,1.06831 2.75803,2.59834 3.79316,3.40008 1.79714,1.39192 1.93244,1.43712 2.99861,1.00164 0.6141,-0.25083 1.78939,-0.62437 2.61175,-0.83008 2.89919,-0.72523 4.52532,1.12905 2.03258,2.31776 -1.59125,0.75881 -1.67801,1.8579 -0.17276,2.1885 1.19655,0.26281 2.22165,1.12556 1.91907,1.61515 -0.29929,0.48427 -1.28957,0.35978 -2.20327,-0.27698 z m -3.24721,-1.35978 c 0,-0.30249 -0.15875,-0.45188 -0.35277,-0.33196 -0.19403,0.11992 -0.35278,0.36741 -0.35278,0.54999 0,0.18257 0.15875,0.33195 0.35278,0.33195 0.19402,0 0.35277,-0.24749 0.35277,-0.54998 z m -19.40277,-0.84031 c 0,-0.41623 -0.68805,-0.86148 -0.94075,-0.60878 -0.25269,0.2527 0.19256,0.94074 0.60879,0.94074 0.18257,0 0.33196,-0.14938 0.33196,-0.33196 z m 20.63904,-1.7872 c 0.28021,-0.45339 -0.7107,-0.84485 -1.43502,-0.56691 -0.70688,0.27126 -0.31759,0.92218 0.55153,0.92218 0.36515,0 0.76272,-0.15987 0.88349,-0.35527 z m -21.52099,-1.40862 c 0,-0.58241 -1.30056,-0.89253 -2.23052,-0.53187 -0.53347,0.2069 -0.52251,0.2804 0.11129,0.74677 0.86089,0.63347 2.11923,0.50587 2.11923,-0.2149 z"
       id="path10" /></g></svg>
