<?xml version="1.0" encoding="UTF-8" standalone="no"?>
<!-- Created with Inkscape (http://www.inkscape.org/) -->

<svg
   width="22.012297mm"
   height="29.799883mm"
   viewBox="0 0 22.012297 29.799884"
   version="1.1"
   id="svg1"
   xml:space="preserve"
   xmlns="http://www.w3.org/2000/svg"
   xmlns:svg="http://www.w3.org/2000/svg"><defs
     id="defs1" /><g
     id="layer1"
     transform="translate(-24.075701,-247.89215)"><g
       id="g32" /><path
       style="fill:#000000"
       d="m 26.203337,275.83994 c -1.69058,-2.65646 -2.13973,-4.27642 -2.12739,-7.67292 0.0123,-3.37908 0.9595,-6.54052 3.10438,-10.36104 2.2169,-3.94883 5.838751,-7.27786 7.918021,-7.27786 0.48612,0 1.73669,-0.58737 2.77905,-1.30527 2.44718,-1.68544 4.04451,-1.76558 5.27376,-0.26459 1.98882,2.4285 2.23798,2.66571 2.5788,2.45507 0.19692,-0.1217 0.35804,-0.0786 0.35804,0.0957 0,0.53771 -1.54739,1.05509 -2.31085,0.77265 -0.39783,-0.14718 -1.15998,-0.84006 -1.69364,-1.53973 -0.91067,-1.19396 -1.99274,-1.69781 -1.99274,-0.9279 0,0.18934 0.31691,0.86403 0.70424,1.49932 0.89576,1.46919 0.90095,3.13699 0.0131,4.20278 l -0.69382,0.83283 -0.0117,-2.00847 c -0.01,-1.66792 -0.14467,-2.10158 -0.79579,-2.55764 -1.15334,-0.80783 -2.22695,-0.67561 -2.90396,0.35763 -1.24425,1.89897 -1.65528,3.90258 -1.94888,9.50015 -0.338,6.4441 -0.75252,7.98044 -2.85544,10.58333 -0.7838,0.97014 -1.969821,2.59733 -2.635601,3.61597 -0.66579,1.01865 -1.29384,1.85208 -1.39568,1.85208 -0.10183,0 -0.71555,-0.83343 -1.36382,-1.85208 z m 3.5698,-3.175 c 1.971181,-2.03668 2.299101,-3.34016 2.551491,-10.14236 0.23796,-6.41345 0.49155,-7.58845 2.13627,-9.89824 0.88158,-1.23806 0.36692,-1.3754 -1.3138,-0.35059 -2.693381,1.64228 -5.766361,6.93398 -6.707931,11.55112 -0.58917,2.88908 -0.297,6.24011 0.76584,8.78384 0.62676,1.50005 1.15945,1.51172 2.56813,0.0562 z m -0.97125,-3.2338 c 0,-0.30721 0.25135,-0.55856 0.55856,-0.55856 0.62298,0 0.51449,0.75945 -0.13964,0.97749 -0.23041,0.0768 -0.41892,-0.11171 -0.41892,-0.41893 z"
       id="path9" /></g></svg>
