<?xml version="1.0" encoding="UTF-8" standalone="no"?>
<!-- Created with Inkscape (http://www.inkscape.org/) -->

<svg
   width="21.306498mm"
   height="33.447227mm"
   viewBox="0 0 21.306498 33.447229"
   version="1.1"
   id="svg1"
   xml:space="preserve"
   sodipodi:docname="hd_2.svg"
   inkscape:version="1.3 (0e150ed6c4, 2023-07-21)"
   xmlns:inkscape="http://www.inkscape.org/namespaces/inkscape"
   xmlns:sodipodi="http://sodipodi.sourceforge.net/DTD/sodipodi-0.dtd"
   xmlns="http://www.w3.org/2000/svg"
   xmlns:svg="http://www.w3.org/2000/svg"><sodipodi:namedview
     id="namedview1"
     pagecolor="#ffffff"
     bordercolor="#666666"
     borderopacity="1.0"
     inkscape:showpageshadow="2"
     inkscape:pageopacity="0.0"
     inkscape:pagecheckerboard="0"
     inkscape:deskcolor="#d1d1d1"
     inkscape:document-units="mm"
     inkscape:zoom="0.66517117"
     inkscape:cx="39.087684"
     inkscape:cy="472.81063"
     inkscape:window-width="2560"
     inkscape:window-height="1371"
     inkscape:window-x="0"
     inkscape:window-y="32"
     inkscape:window-maximized="1"
     inkscape:current-layer="layer1" /><defs
     id="defs1" /><g
     id="layer1"
     transform="translate(-24.428601,13.36163)"><g
       id="g32" /><path
       style="fill:#FFFFFF"
       d="m 25.074758,19.18212 c 0.2787,-0.53358 1.00381,-1.44278 1.61135,-2.02046 1.56532,-1.48836 3.12155,-1.41744 5.84449,0.26632 3.76724,2.32952 6.82411,1.68919 8.52415,-1.78558 0.89953,-1.83857 0.9107,-1.95559 0.67362,-7.0583296 -0.26113,-5.62033 0.0329,-7.46086 1.52698,-9.55914002 0.76188,-1.06995998 0.76189,-1.07026998 0.077,-2.41268998 -0.72752,-1.42606 -0.72046,-1.47649 0.69093,-4.93274 0.39774,-0.9739902 0.37974,-1.3059502 -0.12862,-2.3719904 -1.14231,-2.39544 -3.36276,-2.15052 -7.78538,0.8587602 -4.20355,2.8602202 -4.45124,2.9013302 -8.25013,1.3693502 -1.03017,-0.41544 -1.23937,-0.38247 -2.23259,0.35185 -1.41202,1.04395 -1.58216,0.83925 -0.47659,-0.57341 0.50037,-0.6393502 1.42353,-1.2738702 2.14195,-1.4722404 1.07418,-0.29659 1.5242,-0.21603 3.01594,0.5398902 2.09158,1.0598802 2.80141,0.9077302 5.63829,-1.2085502 2.65753,-1.98249 3.90384,-2.53479 5.71988,-2.53479 1.27849,0 1.83879,0.21602 2.83974,1.09487 1.5468,1.35811 1.61859,2.5366502 0.30188,4.9558604 l -0.94512,1.7365 0.70911,1.46411 0.70911,1.4641 -1.08036,2.09476998 -1.08036,2.09477002 0.0934,5.37936 c 0.0828,4.7701096 0.008,5.6074396 -0.66007,7.3930896 -0.83039,2.21943 -2.3687,4.18535 -3.89095,4.97253 -1.53634,0.79447 -3.76108,0.60337 -6.48136,-0.55673 -1.3526,-0.57683 -2.79821,-1.04879 -3.21247,-1.04879 -0.41425,0 -1.48087,0.55563 -2.37026,1.23472 -1.94972,1.48873 -2.18423,1.52945 -1.52356,0.26459 z m 8.85999,-5.06909 c -1.20915,-0.59164 -1.87513,-0.66046 -4.65324,-0.48088 -3.17297,0.20511 -3.25444,0.19079 -3.81957,-0.6717 -0.31759,-0.48471 -0.52551,-1.23522 -0.46203,-1.6678 0.14481,-0.98699 0.99734,-1.3260696 0.99734,-0.39669 0,0.37415 0.30937,0.96025 0.68748,1.30244 0.59047,0.53436 1.08374,0.58708 3.49539,0.3736 2.6168,-0.23164 2.9137,-0.18656 4.36218,0.6623 1.19869,0.70248 1.64999,0.81515 1.97267,0.49247 0.71846,-0.71847 0.47079,-1.38283 -1.16911,-3.13601 -0.87312,-0.9334396 -1.5875,-1.9578496 -1.5875,-2.2764696 0,-0.31861 0.57327,-1.50806 1.27393,-2.64322 1.00236,-1.62395 1.31212,-2.53985 1.45314,-4.29662 0.25038,-3.11923 -0.0982,-3.3466 -3.40565,-2.22165002 -2.96096,1.00708999 -4.81791,2.07217002 -5.35168,3.06953002 -0.2073,0.38733 -0.45512,0.62602 -0.55072,0.53042 -0.3115,-0.3115 0.88634,-2.25109003 1.93533,-3.13376002 0.56328,-0.47396 1.52148,-1.04849998 2.12934,-1.27673998 0.60786,-0.22825 1.60134,-0.60124 2.20774,-0.82888 0.60639,-0.22764 2.03514,-1.10043 3.175,-1.93955 2.15156,-1.58389 2.39278,-1.60202 1.5433,-0.11601 -0.33521,0.58638 -0.51037,2.00508 -0.52268,4.23332998 -0.0169,3.06632002 -0.10752,3.50143002 -1.06482,5.11528002 -1.45711,2.45643 -1.38745,3.59238 0.32266,5.2622696 1.85327,1.80966 1.99448,2.52903 0.74225,3.78126 -1.17011,1.17011 -1.77006,1.21265 -3.71075,0.26308 z m -8.99583,-15.4772596 c 0,-0.21068 0.60956,-1.03653 1.35457,-1.83523 1.26598,-1.3572 1.49325,-1.45799 3.47512,-1.54121 2.4432,-0.10259 4.99371,-1.23782 6.6134,-2.94362 0.56987,-0.60018 1.19824,-1.09123 1.39636,-1.09123 0.51664,0 -2.52539,3.05789 -4.19639,4.21828 -1.06599,0.74025 -1.94815,1.01826 -3.60689,1.1367 -1.81634,0.12969 -2.4412,0.35401 -3.61598,1.29808 -0.7811,0.62771 -1.42019,0.96892 -1.42019,0.75823 z"
       id="path5" /></g></svg>
