<?xml version="1.0" encoding="UTF-8" standalone="no"?>
<!-- Created with Inkscape (http://www.inkscape.org/) -->

<svg
   width="17.923559mm"
   height="35.57925mm"
   viewBox="0 0 17.923559 35.579251"
   version="1.1"
   id="svg1"
   xml:space="preserve"
   xmlns="http://www.w3.org/2000/svg"
   xmlns:svg="http://www.w3.org/2000/svg"><defs
     id="defs1" /><g
     id="layer1"
     transform="translate(-26.12007,-329.13979)"><g
       id="g32" /><path
       style="fill:#FFFFFF"
       d="m 38.404587,362.6827 c -1.9396,-2.62984 -2.694311,-3.23715 -4.040574,-3.25146 -0.786479,-0.008 -1.421568,0.3124 -2.204861,1.11357 -0.605107,0.61892 -1.100193,1.25392 -1.100193,1.41111 0,0.1572 -0.151708,0.28581 -0.337129,0.28581 -0.51318,0 0.609091,-2.86597 1.495581,-3.8193 0.704525,-0.75765 0.983632,-0.82008 2.822938,-0.63149 3.249397,0.33317 3.065104,-0.24788 -1.586155,-5.00096 -2.222946,-2.27161 -4.232472,-4.48738 -4.465612,-4.92395 -0.233141,-0.43656 -0.656431,-0.79375 -0.940647,-0.79375 -0.284215,0 -0.834254,-0.3175 -1.22231,-0.70555 -0.56872,-0.56872 -0.705555,-1.17593 -0.705555,-3.13091 0,-2.68717 0.307672,-4.69972 0.683016,-4.46775 0.134383,0.0831 0.09411,1.26078 -0.0895,2.61717 -0.410142,3.0299 -0.233336,3.57038 1.167984,3.57038 0.910178,0 1.227835,0.25577 2.039544,1.6422 2.100353,3.58749 5.223961,6.73649 5.956016,6.00444 0.09839,-0.0984 -0.07725,-1.79 -0.390309,-3.75913 -0.31306,-1.96913 -0.669137,-5.10163 -0.791282,-6.96111 -0.203662,-3.10046 -0.310037,-3.48104 -1.282572,-4.5887 -1.457457,-1.65995 -1.435976,-2.10053 0.383211,-7.85993 0.110141,-0.34869 0.220483,-0.38728 0.323541,-0.11315 0.08602,0.22881 -0.09121,1.24981 -0.39385,2.26889 -0.703811,2.36999 -0.72222,2.23012 0.451575,3.4309 0.939405,0.96099 1.015625,1.26396 1.223369,4.86286 0.316834,5.48871 1.651937,12.15022 2.943395,14.68609 0.319744,0.62784 1.353251,1.40295 2.928204,2.19608 2.586295,1.30244 3.129558,1.79977 2.57346,2.35586 -0.225477,0.22548 -0.760142,0.0927 -1.539123,-0.38219 -1.229015,-0.74927 -2.781126,-0.97752 -2.781126,-0.40899 0,0.17674 0.315452,1.32768 0.701005,2.55764 1.357343,4.3301 0.598739,5.07757 -1.822043,1.79532 z"
       id="path6" /></g></svg>
