<?xml version="1.0" encoding="UTF-8" standalone="no"?>
<!-- Created with Inkscape (http://www.inkscape.org/) -->

<svg
   width="10.543801mm"
   height="12.882175mm"
   viewBox="0 0 10.543801 12.882176"
   version="1.1"
   id="svg1"
   xml:space="preserve"
   xmlns="http://www.w3.org/2000/svg"
   xmlns:svg="http://www.w3.org/2000/svg"><defs
     id="defs1" /><g
     id="layer1"
     transform="translate(-543.97558,-132.72448)"><path
       style="fill:#000000"
       d="m 547.02034,145.28446 c -0.17722,-0.17722 -0.32221,-0.50092 -0.32221,-0.71933 0,-1.09272 -0.67183,-2.18339 -1.51666,-2.46221 -1.03012,-0.33997 -1.45322,-1.26257 -0.79855,-1.74128 0.56007,-0.40953 0.56098,-0.93063 0.002,-0.93063 -0.75977,0 -0.3921,-3.16153 0.52966,-4.55439 1.62035,-2.44852 5.80134,-2.902 8.04545,-0.87263 1.43002,1.29317 2.08991,4.79437 1.05528,5.599 -0.44751,0.34803 -0.44751,0.37884 0,0.64708 0.84848,0.50858 0.57104,1.33246 -0.60414,1.79408 -0.69567,0.27327 -1.07402,0.59114 -1.07402,0.90233 0,0.26424 -0.12083,0.55511 -0.26851,0.64638 -0.14768,0.0913 -0.26851,0.43672 -0.26851,0.76767 0,0.99427 -0.51557,1.24613 -2.55081,1.24613 -1.12475,0 -2.03851,-0.13211 -2.22861,-0.3222 z m 1.27932,-0.81895 c 0.005,0.33228 0.13423,0.60414 0.28667,0.60414 0.15244,0 0.38644,-0.27186 0.51999,-0.60414 0.17595,-0.43772 0.24753,-0.47907 0.25986,-0.1501 0.0275,0.73481 0.53781,0.84052 0.80779,0.16735 0.19993,-0.4985 0.25258,-0.52404 0.26624,-0.12913 0.0245,0.70768 0.67073,0.39408 0.78114,-0.37904 0.0511,-0.35763 0.22635,-0.81266 0.38952,-1.01119 0.22729,-0.27653 0.14277,-0.47923 -0.36136,-0.86667 l -0.65803,-0.50573 1.39381,-0.006 c 1.42222,-0.006 1.99109,-0.35331 1.45581,-0.88858 -0.43308,-0.43309 -0.36654,-1.52481 0.10395,-1.70536 0.90208,-0.34615 0.2625,-3.0991 -1.00427,-4.32268 -1.83743,-1.77477 -4.90352,-1.76348 -6.58629,0.0243 -1.27682,1.35646 -1.88352,3.96002 -1.00165,4.29842 0.47049,0.18055 0.53703,1.27227 0.10395,1.70536 -0.53528,0.53527 0.0336,0.88249 1.45581,0.88858 l 1.39381,0.006 -0.63369,0.48737 c -0.51336,0.39481 -0.58017,0.58489 -0.35185,1.00093 0.15501,0.28246 0.3594,0.87593 0.45421,1.31882 l 0.17236,0.80525 0.37135,-0.671 c 0.36615,-0.66159 0.37149,-0.66253 0.38087,-0.0669 z m -0.0224,-1.64095 c -0.33997,-0.74614 0.31914,-2.31952 0.97167,-2.31952 0.65253,0 1.31164,1.57338 0.97167,2.31952 -0.40477,0.88836 -0.78416,0.78907 -0.91169,-0.2386 l -0.10829,-0.87264 -0.043,0.87264 c -0.0504,1.02387 -0.4707,1.13778 -0.88039,0.2386 z m -1.91478,-1.80402 c -0.53939,-0.31416 -0.62249,-1.32952 -0.14768,-1.80434 0.44736,-0.44735 2.22906,-0.4042 2.61712,0.0634 0.38818,0.46773 0.002,1.33803 -0.77977,1.75631 -0.63736,0.3411 -1.08465,0.33703 -1.68967,-0.0154 z m 4.03089,0.002 c -0.74667,-0.43502 -1.10343,-1.28975 -0.72744,-1.7428 0.45268,-0.54544 2.56345,-0.51569 2.77635,0.0391 0.56263,1.46619 -0.68125,2.50047 -2.04891,1.70367 z"
       id="path4" /></g></svg>
