<?xml version="1.0" encoding="UTF-8" standalone="no"?>
<!-- Created with Inkscape (http://www.inkscape.org/) -->

<svg
   width="15.1067mm"
   height="7.9017305mm"
   viewBox="0 0 15.1067 7.9017305"
   version="1.1"
   id="svg1"
   xml:space="preserve"
   xmlns="http://www.w3.org/2000/svg"
   xmlns:svg="http://www.w3.org/2000/svg"><defs
     id="defs1" /><g
     id="layer1"
     transform="translate(-80.977976,-177.0328)"><path
       style="fill:#000000"
       d="m 87.90169,184.92123 c -0.0357,-0.0357 0.0498,-0.14195 0.11428,-0.14195 0.0266,0 0.14329,-0.0625 0.2594,-0.13879 0.1161,-0.0763 0.28411,-0.17635 0.37334,-0.22225 0.26994,-0.13886 0.86687,-0.644 1.40409,-1.18819 0.2794,-0.28303 0.6273,-0.6221 0.77311,-0.7535 0.26285,-0.23687 0.26615,-0.23836 0.3889,-0.17488 0.0681,0.0352 0.22388,0.17369 0.34621,0.30773 0.43308,0.47457 1.0789,1.07157 1.44228,1.33325 0.3453,0.24867 0.44359,0.36424 0.31975,0.37598 -0.11818,0.0112 -0.17831,-0.0183 -0.32383,-0.15886 -0.0838,-0.081 -0.23814,-0.19452 -0.34292,-0.25232 -0.35258,-0.19451 -0.988,-0.71019 -1.34641,-1.09267 -0.10024,-0.10698 -0.20527,-0.1945 -0.2334,-0.1945 -0.0281,0 -0.3938,0.34615 -0.81259,0.76921 -0.54448,0.55005 -0.86402,0.83651 -1.12147,1.00542 -0.50115,0.32878 -0.76819,0.4618 -0.79229,0.39466 -0.0141,-0.0394 -0.0484,-0.0326 -0.13188,0.0262 -0.13736,0.0967 -0.27835,0.14368 -0.31657,0.10547 z m -6.87647,-0.0853 c -0.0976,-0.0394 -0.0545,-0.0869 0.22891,-0.25213 0.27037,-0.15764 0.53903,-0.37789 1.55893,-1.27801 0.56024,-0.49444 0.88362,-0.81162 1.08663,-1.06579 0.13348,-0.16713 0.15994,-0.18289 0.22135,-0.13192 0.069,0.0573 0.48482,0.71564 0.54348,0.86051 0.0167,0.0413 0.0605,0.0751 0.0973,0.0751 0.1687,0 1.12633,-0.73947 1.8223,-1.40715 0.33831,-0.32455 0.45946,-0.47322 0.56922,-0.6985 0.17007,-0.34904 0.28538,-0.51911 0.35175,-0.51875 0.0275,1.4e-4 0.0825,0.0573 0.12215,0.127 0.0878,0.15435 0.16072,0.16383 0.16072,0.0209 0,-0.0582 -0.0191,-0.10584 -0.0423,-0.10584 -0.0233,0 -0.0423,-0.0245 -0.0423,-0.0544 0,-0.0299 -0.0589,-0.0892 -0.13082,-0.13165 -0.0962,-0.0568 -0.11833,-0.0898 -0.0836,-0.12448 0.0347,-0.0347 0.0692,-0.0335 0.13025,0.005 0.10526,0.0657 0.11235,0.0651 0.14182,-0.0117 0.0332,-0.0865 -0.0117,-0.1905 -0.0823,-0.1905 -0.0318,0 -0.0869,-0.0562 -0.12247,-0.12489 -0.0749,-0.1448 -0.082,-0.21377 -0.0222,-0.21377 0.0233,0 0.0423,0.0361 0.0423,0.0801 0,0.0441 0.0286,0.0911 0.0635,0.10451 0.0759,0.0291 0.0755,0.0318 0.017,-0.13599 -0.0256,-0.0733 -0.0752,-0.13332 -0.11037,-0.13332 -0.0356,0 -0.0544,-0.0248 -0.0424,-0.0559 0.0118,-0.0308 -0.0147,-0.0786 -0.059,-0.1062 -0.10972,-0.0685 -0.10844,-0.26118 0.002,-0.26118 0.0452,0 0.0939,-0.019 0.10833,-0.0423 0.0144,-0.0233 0.006,-0.0423 -0.0187,-0.0423 -0.0247,0 -0.0448,-0.019 -0.0448,-0.0423 0,-0.0715 0.0859,-0.0469 0.11101,0.0318 0.013,0.0407 0.0385,0.11218 0.0566,0.15875 0.0181,0.0466 0.0755,0.21801 0.12751,0.381 0.052,0.16298 0.13071,0.35573 0.17488,0.42833 0.0442,0.0726 0.0803,0.1585 0.0803,0.1909 0,0.0324 0.0381,0.0827 0.0847,0.11178 0.0466,0.0291 0.0847,0.0847 0.0847,0.12359 0,0.12662 -0.10029,0.3519 -0.15667,0.3519 -0.0302,0 -0.0502,0.0214 -0.0444,0.0476 0.006,0.0262 -0.0161,0.0573 -0.0487,0.0692 -0.0435,0.0158 -0.0528,-0.003 -0.0348,-0.0721 0.0187,-0.0716 0.009,-0.0879 -0.0394,-0.0692 -0.0351,0.0135 -0.0798,0.0245 -0.0993,0.0245 -0.0412,0 0.0322,0.29856 0.0876,0.35671 0.0471,0.0494 0.19671,-0.081 0.23349,-0.20355 0.0148,-0.0493 0.0828,-0.14862 0.15119,-0.22068 l 0.12427,-0.13102 -0.31391,-0.67332 c -0.17265,-0.37032 -0.32837,-0.72094 -0.34604,-0.77914 -0.0177,-0.0582 -0.0697,-0.18019 -0.11553,-0.27107 l -0.0834,-0.16522 -0.18958,0.32709 c -0.34225,0.59049 -1.41881,2.02666 -1.81926,2.42695 -0.11603,0.11598 -0.26883,0.18379 -0.26883,0.1193 0,-0.0101 0.10191,-0.12519 0.22647,-0.25586 l 0.22646,-0.23759 -0.17029,-0.3368 c -0.0937,-0.18524 -0.18395,-0.3368 -0.20064,-0.3368 -0.0345,0 -0.38622,0.26058 -0.82283,0.60962 -0.61717,0.49339 -0.89498,0.69622 -1.0795,0.78817 -0.10478,0.0522 -0.24107,0.13054 -0.30287,0.17407 -0.13532,0.0953 -0.1628,0.0982 -0.1628,0.0174 0,-0.0339 0.0682,-0.11489 0.15151,-0.17992 0.0833,-0.065 0.32622,-0.25924 0.53975,-0.43161 0.21353,-0.17237 0.60731,-0.47554 0.87507,-0.67373 0.26776,-0.19818 0.56823,-0.43778 0.66771,-0.53245 0.21837,-0.20778 0.25992,-0.19214 0.42439,0.15975 l 0.1163,0.24885 0.22083,-0.22927 c 0.12145,-0.12611 0.28189,-0.31429 0.35652,-0.41819 0.0746,-0.10389 0.2052,-0.26617 0.29013,-0.36062 0.0849,-0.0945 0.25562,-0.33733 0.37932,-0.53975 0.12369,-0.20242 0.23893,-0.36803 0.25609,-0.36803 0.0172,0 0.0422,-0.0429 0.0555,-0.0952 0.0545,-0.21344 0.39962,-0.51657 0.35783,-0.31431 -0.0125,0.0605 0.18304,0.59096 0.34601,0.93873 0.0655,0.1397 0.13296,0.30058 0.15,0.35751 0.017,0.0569 0.0857,0.19239 0.15249,0.30101 0.0668,0.10863 0.12195,0.21445 0.12247,0.23516 5.2e-4,0.0207 0.0362,0.0834 0.0792,0.13943 l 0.0783,0.10178 0.15125,-0.22878 c 0.0832,-0.12583 0.23214,-0.34308 0.331,-0.48278 0.17333,-0.24494 0.2389,-0.35563 0.5642,-0.9525 0.12249,-0.22474 0.33705,-0.57675 0.69425,-1.13896 0.0962,-0.15143 0.20258,0.0157 0.63747,1.00143 0.095,0.21541 0.17278,0.41067 0.17278,0.43392 0,0.27111 0.7827,-0.67631 1.16417,-1.40918 0.18336,-0.35227 0.30643,-0.49588 0.42497,-0.49588 0.0103,0 0.12585,0.21432 0.25666,0.47625 0.13081,0.26194 0.3315,0.63214 0.44598,0.82267 0.11448,0.19053 0.29316,0.54227 0.39706,0.78163 0.17994,0.41455 0.51886,1.04319 0.6357,1.17912 0.16129,0.18764 0.52779,0.73327 0.52779,0.78574 0,0.11901 -0.0836,0.0567 -0.36808,-0.27413 -0.65634,-0.76338 -1.10312,-1.53136 -1.63985,-2.81878 -0.0874,-0.20955 -0.19031,-0.44349 -0.22877,-0.51987 l -0.0699,-0.13887 -0.12924,0.26587 c -0.19145,0.39383 -0.84289,1.3737 -1.14068,1.71579 -0.0456,0.0524 -0.10854,0.0953 -0.13986,0.0953 -0.0782,0 -0.0369,0.12209 0.16838,0.49797 l 0.16792,0.30747 0.11315,-0.0807 c 0.0622,-0.0444 0.15124,-0.12357 0.19781,-0.17603 0.13732,-0.15469 0.48939,-0.42176 0.55599,-0.42176 0.0339,0 0.0578,0.0238 0.0532,0.0529 -0.011,0.0704 0.67182,1.46856 0.89663,1.83587 0.0976,0.15938 0.2368,0.36907 0.30942,0.46596 0.0726,0.0969 0.15302,0.21131 0.17865,0.25424 0.0427,0.0715 0.0675,0.059 0.29355,-0.14765 0.37605,-0.34369 0.40821,-0.34745 0.69373,-0.0812 0.32777,0.30568 0.75505,0.66144 0.99169,0.82572 0.21031,0.146 0.26244,0.24858 0.10168,0.20011 -0.13842,-0.0417 -0.77076,-0.40682 -1.08891,-0.62868 -0.30778,-0.21464 -0.24524,-0.22509 -0.61501,0.10277 -0.2085,0.18487 -0.71193,0.51517 -1.0795,0.70826 -0.15134,0.0795 -0.29485,0.16081 -0.31892,0.18068 -0.0241,0.0199 -0.0689,0.0206 -0.0997,0.002 -0.11078,-0.0685 0.15988,-0.34542 0.67263,-0.68829 0.0582,-0.0389 0.16057,-0.11598 0.22747,-0.17124 l 0.12164,-0.10046 -0.11472,-0.0752 c -0.13643,-0.0894 -0.19229,-0.0586 -0.0929,0.0512 0.0799,0.0883 0.0544,0.13439 -0.0744,0.13446 -0.0485,3e-5 -0.14354,0.0477 -0.21119,0.10584 -0.0772,0.0664 -0.17479,0.10578 -0.26209,0.10578 -0.0765,0 -0.15086,0.019 -0.16525,0.0423 -0.0504,0.0815 -0.1905,0.047 -0.1905,-0.0469 0,-0.0741 0.018,-0.0847 0.10584,-0.0627 0.061,0.0153 0.10583,0.008 0.10583,-0.0166 0,-0.0237 -0.019,-0.0431 -0.0423,-0.0431 -0.0233,0 -0.0423,-0.019 -0.0423,-0.0423 0,-0.0233 0.0286,-0.0423 0.0635,-0.0423 0.0765,0 0.0818,-0.0494 0.0127,-0.11853 -0.0395,-0.0395 -0.0359,-0.0508 0.016,-0.0508 0.0367,0 0.0902,-0.0283 0.1189,-0.0628 0.0431,-0.0519 0.0341,-0.0696 -0.0516,-0.10225 -0.0571,-0.0217 -0.13057,-0.0363 -0.16335,-0.0325 -0.0328,0.004 -0.0629,-0.007 -0.067,-0.0235 -0.0121,-0.0501 0.0869,-0.28696 0.11998,-0.28696 0.0552,0 0.0803,0.0782 0.0342,0.10667 -0.0685,0.0424 0.0366,0.14785 0.14413,0.14464 0.0878,-0.003 0.0876,-0.004 -0.006,-0.0413 -0.0848,-0.0341 -0.0898,-0.0491 -0.0423,-0.12666 0.0458,-0.0749 0.0428,-0.0943 -0.0202,-0.13011 -0.0407,-0.0232 -0.0741,-0.0888 -0.0741,-0.14582 0,-0.0571 -0.0202,-0.10373 -0.0448,-0.10373 -0.0247,0 -0.033,0.0192 -0.0185,0.0426 0.0318,0.0515 -0.0841,0.10292 -0.14586,0.0647 -0.0287,-0.0177 -0.0218,-0.0609 0.0201,-0.12479 0.0707,-0.10783 0.044,-0.23659 -0.049,-0.23659 -0.0328,0 -0.0901,-0.0639 -0.12732,-0.1419 -0.0697,-0.1461 -0.26414,-0.29195 -0.36229,-0.27171 -0.0311,0.006 -0.0555,-0.0258 -0.0555,-0.0732 0,-0.0466 0.0286,-0.0872 0.0635,-0.0904 0.0349,-0.003 0.0873,-0.008 0.11642,-0.0106 0.0291,-0.003 0.0529,-0.0329 0.0529,-0.0671 0,-0.0399 -0.0246,-0.0527 -0.0684,-0.0359 -0.0544,0.0209 -0.0625,0.008 -0.0395,-0.0648 0.0179,-0.0564 0.0108,-0.0911 -0.0188,-0.0911 -0.0262,0 -0.0361,-0.0187 -0.022,-0.0415 0.0158,-0.0256 0.0532,-0.0268 0.0977,-0.003 0.0397,0.0211 0.10667,0.0492 0.14889,0.0623 0.0422,0.0132 0.064,0.0447 0.0483,0.07 -0.0156,0.0253 0.0109,0.0736 0.059,0.10729 0.0485,0.0339 0.0771,0.0884 0.0642,0.12201 -0.013,0.0338 0.0254,0.1059 0.0864,0.16245 0.0604,0.0559 0.10974,0.1263 0.10974,0.15636 0,0.03 0.0476,0.11708 0.10584,0.1934 0.0582,0.0763 0.10583,0.16603 0.10583,0.19937 0,0.0333 0.0381,0.10905 0.0847,0.16825 0.0466,0.0592 0.0847,0.12641 0.0847,0.14935 0,0.0229 0.0283,0.0525 0.0628,0.0658 0.0357,0.0137 0.052,0.0522 0.0378,0.0892 -0.0138,0.0358 -0.005,0.0651 0.019,0.0651 0.0242,0 0.0561,0.0381 0.0709,0.0847 0.0278,0.0874 0.14817,0.11958 0.14817,0.0396 0,-0.0444 -0.27,-0.51545 -0.55654,-0.9709 -0.0806,-0.12806 -0.23907,-0.43762 -0.35223,-0.68791 -0.11315,-0.2503 -0.22749,-0.45509 -0.25408,-0.45509 -0.0573,0 -0.49552,0.35666 -0.87866,0.71507 -0.15008,0.14039 -0.39507,0.42467 -0.54443,0.63173 -0.35916,0.49793 -0.969,1.20061 -1.0256,1.18175 -0.0969,-0.0323 -0.0652,-0.11525 0.16696,-0.43724 0.13266,-0.18396 0.31903,-0.44713 0.41414,-0.58483 0.18106,-0.2621 0.68331,-0.84811 0.90599,-1.05708 l 0.13012,-0.1221 -0.14795,-0.23128 c -0.0814,-0.1272 -0.2725,-0.49136 -0.42471,-0.80923 -0.15222,-0.31788 -0.30135,-0.60653 -0.33139,-0.64145 -0.0301,-0.0349 -0.0672,-0.13018 -0.0825,-0.21167 -0.0607,-0.32261 -0.0806,-0.39727 -0.13223,-0.49686 l -0.0537,-0.10353 -0.0302,0.0991 c -0.0166,0.0545 -0.0776,0.16244 -0.13564,0.23985 -0.058,0.0774 -0.22008,0.36315 -0.36015,0.635 -0.44389,0.86147 -0.70538,1.2649 -1.29205,1.99337 -0.064,0.0795 -0.1449,0.18683 -0.17983,0.23863 -0.0349,0.0518 -0.14753,0.21412 -0.25024,0.36071 l -0.18675,0.26652 0.12288,0.23569 c 0.0676,0.12962 0.2311,0.39706 0.36337,0.5943 0.22363,0.33347 0.25822,0.42454 0.16127,0.42454 -0.0388,0 -0.5491,-0.73867 -0.5493,-0.79513 -6e-5,-0.0167 -0.063,-0.13514 -0.13988,-0.2632 -0.0769,-0.12806 -0.17053,-0.30903 -0.20813,-0.40217 -0.0376,-0.0931 -0.0998,-0.24336 -0.13826,-0.33384 l -0.0699,-0.16451 -0.23556,0.35501 c -0.41812,0.63013 -1.50996,1.61827 -2.24524,2.03196 -0.0988,0.0556 -0.17974,0.11843 -0.17992,0.13966 -3.9e-4,0.0461 0.16792,0.3413 0.37123,0.65107 0.0809,0.12321 0.13594,0.2351 0.12239,0.24865 -0.0623,0.0623 -0.16757,-0.0538 -0.38699,-0.42658 -0.13052,-0.22177 -0.26207,-0.42798 -0.29233,-0.45824 -0.0303,-0.0303 -0.0628,-0.0739 -0.0724,-0.097 -0.12848,-0.30988 -0.40766,-0.6324 -0.34716,-0.40105 0.0122,0.0466 0.039,0.0847 0.0595,0.0847 0.0206,0 0.0374,0.037 0.0374,0.0822 0,0.0452 0.0178,0.0932 0.0397,0.10668 0.0486,0.0301 0.17201,0.27205 0.17201,0.33742 0,0.0262 0.0381,0.0802 0.0847,0.12008 0.0466,0.0399 0.0847,0.10874 0.0847,0.15305 0,0.0443 0.0318,0.0927 0.0706,0.10763 0.0536,0.0206 0.0588,0.0389 0.0214,0.0763 -0.0374,0.0374 -0.07,0.0268 -0.13572,-0.0437 -0.0476,-0.0511 -0.11205,-0.0929 -0.14322,-0.0929 -0.0312,0 -0.0802,-0.0284 -0.10898,-0.063 -0.0288,-0.0347 -0.0692,-0.0526 -0.0898,-0.0398 -0.0843,0.0521 -0.12624,-0.0342 -0.0549,-0.113 0.0694,-0.0767 0.0685,-0.0805 -0.0184,-0.0805 -0.0502,0 -0.0912,-0.0191 -0.0912,-0.0423 0,-0.0233 0.0202,-0.0423 0.0448,-0.0423 0.0247,0 0.0331,-0.019 0.0187,-0.0423 -0.0401,-0.0649 -0.19011,-0.0503 -0.21752,0.0212 -0.0426,0.11109 -0.11171,0.0693 -0.0874,-0.0529 0.0263,-0.13217 -0.0512,-0.26458 -0.15486,-0.26458 -0.097,0 -0.0878,-0.0272 0.0576,-0.16934 0.0699,-0.0683 0.127,-0.14003 0.127,-0.15944 0,-0.0838 0.0982,-0.13263 0.17944,-0.0891 0.045,0.0241 0.0904,0.0352 0.10093,0.0247 0.0294,-0.0294 -0.0788,-0.24551 -0.11626,-0.23225 -0.0181,0.006 -0.14344,0.11712 -0.27846,0.24598 -0.32406,0.30929 -0.67806,0.60662 -1.03149,0.86637 -0.1584,0.11642 -0.40258,0.30692 -0.54261,0.42333 -0.14003,0.11642 -0.35222,0.27835 -0.47154,0.35984 -0.11932,0.0815 -0.30011,0.21008 -0.40177,0.28575 -0.18039,0.13427 -0.24054,0.15317 -0.34866,0.10954 z m 3.54542,-1.00663 c 0,-0.0103 -0.0191,-0.0304 -0.0423,-0.0448 -0.0233,-0.0144 -0.0423,-0.006 -0.0423,0.0187 0,0.0247 0.019,0.0448 0.0423,0.0448 0.0233,0 0.0423,-0.008 0.0423,-0.0187 z m -0.55034,-0.67733 c 0,-0.0103 -0.019,-0.0304 -0.0423,-0.0448 -0.0233,-0.0144 -0.0423,-0.006 -0.0423,0.0187 0,0.0247 0.0191,0.0448 0.0423,0.0448 0.0233,0 0.0423,-0.008 0.0423,-0.0187 z m 8.46667,-2.41903 c 0,-0.0748 -0.0911,-0.0617 -0.1173,0.0168 -0.009,0.0277 0.0134,0.0503 0.0503,0.0503 0.0369,0 0.067,-0.0302 0.067,-0.067 z m -4.93184,-1.4993 c -0.0144,-0.0233 -0.0441,-0.0423 -0.066,-0.0423 -0.0219,0 -0.0398,0.019 -0.0398,0.0423 0,0.0233 0.0297,0.0423 0.066,0.0423 0.0363,0 0.0542,-0.019 0.0398,-0.0423 z m -4.93183,5.03766 c 0,-0.0233 0.0191,-0.0423 0.0423,-0.0423 0.0233,0 0.0423,0.019 0.0423,0.0423 0,0.0233 -0.019,0.0423 -0.0423,0.0423 -0.0233,0 -0.0423,-0.019 -0.0423,-0.0423 z m 7.07108,-0.0244 c -0.002,-0.0485 0.17484,-0.22963 0.22357,-0.22963 0.016,0 0.029,0.019 0.029,0.0423 0,0.0233 -0.0208,0.0423 -0.0461,0.0423 -0.0254,0 -0.0819,0.0429 -0.12559,0.0953 -0.0437,0.0524 -0.0801,0.0748 -0.0809,0.0497 z m -6.82555,-0.15343 c 0.0395,-0.0395 0.0621,-0.0395 0.1016,0 0.0395,0.0395 0.0282,0.0508 -0.0508,0.0508 -0.079,0 -0.0903,-0.0113 -0.0508,-0.0508 z m 7.1628,0.008 c 0,-0.0233 0.0191,-0.0423 0.0423,-0.0423 0.0233,0 0.0423,0.019 0.0423,0.0423 0,0.0233 -0.0191,0.0423 -0.0423,0.0423 -0.0233,0 -0.0423,-0.0191 -0.0423,-0.0423 z m 2.4712,-0.001 c -0.0239,-0.0239 -0.18484,-0.0488 -0.35771,-0.0553 -0.32082,-0.0122 -0.51809,-0.0736 -0.42373,-0.13189 0.0273,-0.0169 0.0782,-0.007 0.11306,0.022 0.0501,0.0416 0.0742,0.0417 0.11456,8e-4 0.0811,-0.0823 -0.0861,-0.18423 -0.258,-0.15731 -0.0983,0.0154 -0.14678,0.004 -0.16328,-0.0393 -0.0129,-0.0337 -0.0453,-0.0617 -0.0719,-0.0624 -0.0266,-6.5e-4 -0.10506,-0.0589 -0.17432,-0.12945 -0.077,-0.0785 -0.15509,-0.12065 -0.20108,-0.10862 -0.0413,0.0108 -0.0752,0.002 -0.0752,-0.0198 0,-0.0217 -0.0434,-0.0559 -0.0965,-0.0761 -0.12461,-0.0474 -0.15135,-0.23241 -0.0279,-0.19323 0.0488,0.0155 0.10937,-9.2e-4 0.14871,-0.0403 0.0603,-0.0603 0.0603,-0.0664 -1.3e-4,-0.0664 -0.0825,0 -0.0859,-0.0583 -0.007,-0.12364 0.0832,-0.069 0.27698,-0.0116 0.32834,0.0973 0.0419,0.0888 0.27497,0.28919 0.67074,0.57664 0.4545,0.33009 0.6348,0.47551 0.6348,0.51197 0,0.0519 -0.0998,0.0487 -0.15347,-0.005 z m -1.37053,-0.8456 c -0.0389,-0.0241 -0.0789,-0.0227 -0.10512,0.004 -0.0282,0.0282 -0.0214,0.0553 0.0204,0.0811 0.039,0.0241 0.0789,0.0227 0.10513,-0.004 0.0282,-0.0282 0.0214,-0.0553 -0.0205,-0.0811 z m -0.82507,0.76131 c 0.0146,-0.0237 0.0443,-0.0321 0.066,-0.0187 0.0587,0.0363 0.0478,0.0617 -0.0266,0.0617 -0.0363,0 -0.054,-0.0194 -0.0394,-0.043 z m -0.19093,-0.0371 c 0,-0.0407 0.10296,-0.09 0.18338,-0.0879 0.0272,7.4e-4 0.0125,0.0293 -0.0327,0.0635 -0.0933,0.0706 -0.15066,0.0798 -0.15066,0.0243 z m 0.58208,0.01 c 0.0291,-0.0118 0.0767,-0.0118 0.10584,0 0.0291,0.0117 0.005,0.0214 -0.0529,0.0214 -0.0582,0 -0.082,-0.01 -0.0529,-0.0214 z m -7.92691,-0.0566 c 0.0144,-0.0233 0.0536,-0.0423 0.0872,-0.0423 0.0335,0 0.061,0.019 0.061,0.0423 0,0.0233 -0.0392,0.0423 -0.0872,0.0423 -0.0479,0 -0.0754,-0.0191 -0.061,-0.0423 z m 1.27,-0.0423 c -0.0148,-0.024 0.0207,-0.0423 0.0822,-0.0423 0.0596,0 0.10833,0.019 0.10833,0.0423 0,0.0233 -0.037,0.0423 -0.0822,0.0423 -0.0452,0 -0.0939,-0.019 -0.10833,-0.0423 z m 7.26016,-0.06 c 0,-0.0563 -0.0238,-0.11081 -0.0529,-0.1212 -0.0308,-0.011 -0.0372,-0.0346 -0.0154,-0.0565 0.0218,-0.0218 0.0454,-0.0154 0.0564,0.0154 0.0104,0.0291 0.0459,0.0529 0.0789,0.0529 0.065,0 0.0744,0.04 0.0343,0.1447 -0.039,0.10172 -0.10131,0.08 -0.10131,-0.0353 z m -1.22766,-0.0272 c 0,-0.0247 0.0191,-0.0331 0.0423,-0.0187 0.0233,0.0144 0.0423,0.0346 0.0423,0.0448 0,0.0103 -0.019,0.0187 -0.0423,0.0187 -0.0233,0 -0.0423,-0.0202 -0.0423,-0.0448 z m 0.23283,0.002 c -0.0144,-0.0233 -0.006,-0.0423 0.0187,-0.0423 0.0247,0 0.0448,0.019 0.0448,0.0423 0,0.0233 -0.008,0.0423 -0.0187,0.0423 -0.0103,0 -0.0304,-0.019 -0.0448,-0.0423 z m 0.52917,0 c 0,-0.0233 0.0191,-0.0423 0.0423,-0.0423 0.0233,0 0.0423,0.019 0.0423,0.0423 0,0.0233 -0.019,0.0423 -0.0423,0.0423 -0.0233,0 -0.0423,-0.019 -0.0423,-0.0423 z m -0.3241,-0.10551 c 0.0625,-0.13482 0.10185,-0.13495 0.10185,-3.3e-4 0,0.0733 -0.0232,0.10584 -0.0754,0.10584 -0.0652,0 -0.0688,-0.0142 -0.0265,-0.10551 z m 0.51641,0.0661 c -0.0134,-0.0217 -0.005,-0.0514 0.0187,-0.066 0.0237,-0.0146 0.043,0.003 0.043,0.0394 0,0.0744 -0.0254,0.0853 -0.0617,0.0266 z m -7.40955,-0.0443 c -0.0164,-0.0265 0.04,-0.0458 0.14507,-0.0496 0.0945,-0.004 0.19089,-0.008 0.21417,-0.0106 0.0233,-0.002 0.0471,0.0124 0.0529,0.0326 0.0152,0.053 -0.38011,0.0794 -0.41216,0.0276 z m -0.42082,-0.0331 c -0.0242,-0.0242 0.10116,-0.13351 0.15564,-0.13582 0.0175,-7.4e-4 0.0318,0.025 0.0318,0.0572 0,0.0595 -0.14545,0.12054 -0.18739,0.0786 z m 0.31439,-0.11147 c 0,-0.0402 0.12672,-0.0604 0.14931,-0.0238 0.0138,0.0223 -0.0142,0.0405 -0.0621,0.0405 -0.0479,0 -0.0872,-0.007 -0.0872,-0.0166 z m 7.57767,-0.0257 c 0,-0.0233 0.0179,-0.0423 0.0398,-0.0423 0.0219,0 0.0516,0.0191 0.066,0.0423 0.0144,0.0233 -0.004,0.0423 -0.0398,0.0423 -0.0363,0 -0.066,-0.0191 -0.066,-0.0423 z m -0.46567,-0.0423 c 0,-0.0233 0.0202,-0.0423 0.0448,-0.0423 0.0247,0 0.0331,0.019 0.0187,0.0423 -0.0144,0.0233 -0.0346,0.0423 -0.0448,0.0423 -0.0103,0 -0.0187,-0.019 -0.0187,-0.0423 z m 0.10583,-0.0847 c -0.0144,-0.0233 -0.006,-0.0423 0.0187,-0.0423 0.0247,0 0.0448,0.019 0.0448,0.0423 0,0.0233 -0.008,0.0423 -0.0187,0.0423 -0.0103,0 -0.0305,-0.019 -0.0448,-0.0423 z m -7.11199,-0.0423 c -0.0458,-0.074 0.0221,-0.13659 0.0884,-0.0815 0.0328,0.0273 0.0597,0.0663 0.0597,0.0867 0,0.051 -0.11593,0.047 -0.14816,-0.005 z m 6.96383,0 c 0,-0.0233 0.019,-0.0423 0.0423,-0.0423 0.0233,0 0.0423,0.0191 0.0423,0.0423 0,0.0233 -0.0191,0.0423 -0.0423,0.0423 -0.0233,0 -0.0423,-0.0191 -0.0423,-0.0423 z m -4.16983,-0.0847 c 0.0144,-0.0233 0.0346,-0.0423 0.0448,-0.0423 0.0103,0 0.0187,0.019 0.0187,0.0423 0,0.0233 -0.0202,0.0423 -0.0448,0.0423 -0.0246,0 -0.0331,-0.019 -0.0187,-0.0423 z M 85.7348,183.17 c 0.0144,-0.0233 0.0738,-0.0423 0.132,-0.0423 0.0598,0 0.0944,0.0184 0.0797,0.0423 -0.0144,0.0233 -0.0738,0.0423 -0.132,0.0423 -0.0598,0 -0.0945,-0.0184 -0.0797,-0.0423 z m 1.54517,0 c 0,-0.0233 0.0191,-0.0423 0.0423,-0.0423 0.0233,0 0.0423,0.0191 0.0423,0.0423 0,0.0233 -0.019,0.0423 -0.0423,0.0423 -0.0233,0 -0.0423,-0.0191 -0.0423,-0.0423 z m 7.81755,-0.0706 c -0.0155,-0.0155 -0.0282,-0.08 -0.0282,-0.1433 0,-0.17594 -0.31991,-0.34257 -0.40217,-0.20948 -0.0144,0.0233 0.0119,0.0423 0.0585,0.0423 0.0466,0 0.0964,0.0191 0.11083,0.0423 0.0144,0.0233 0.004,0.0423 -0.0232,0.0423 -0.0271,0 -0.0384,0.0286 -0.025,0.0635 0.0433,0.11284 -0.0338,0.0669 -0.13351,-0.0796 -0.0534,-0.0784 -0.0915,-0.16874 -0.0847,-0.20079 0.009,-0.041 -0.0285,-0.0564 -0.12522,-0.052 -0.0757,0.003 -0.13758,6.3e-4 -0.13758,-0.006 0,-0.007 0.0519,-0.0716 0.11526,-0.14383 0.15684,-0.17873 0.30836,-0.17394 0.53121,0.0168 0.0952,0.0815 0.19695,0.14816 0.2261,0.14816 0.0292,0 0.0937,0.0571 0.14343,0.127 l 0.0904,0.127 h -0.10418 c -0.11083,0 -0.16873,0.0858 -0.12856,0.1905 0.0246,0.064 -0.0312,0.0876 -0.0835,0.0353 z M 95.4511,183.05 c -0.0237,-0.008 -0.0431,-0.0331 -0.0431,-0.0564 0,-0.0356 0.0638,-0.0345 0.32808,0.005 0.006,8.8e-4 0.0106,0.0199 0.0106,0.0422 0,0.0371 -0.19163,0.0428 -0.29553,0.009 z m -9.12363,-0.0494 c 0.0144,-0.0233 0.0547,-0.0423 0.0897,-0.0423 0.0349,0 0.0517,0.0191 0.0373,0.0423 -0.0144,0.0233 -0.0547,0.0423 -0.0897,0.0423 -0.0349,0 -0.0517,-0.0191 -0.0373,-0.0423 z m 7.5565,0.0238 c 0,-0.0542 0.24793,-0.27951 0.2694,-0.24476 0.0286,0.0463 -0.15684,0.26332 -0.22505,0.26332 -0.0244,0 -0.0444,-0.008 -0.0444,-0.0186 z m -1.46008,-0.0668 c 0.0146,-0.0237 0.0443,-0.0321 0.066,-0.0187 0.0587,0.0363 0.0478,0.0617 -0.0266,0.0617 -0.0363,0 -0.054,-0.0194 -0.0394,-0.043 z m -0.12742,-0.0416 c -0.0144,-0.0233 -0.006,-0.0423 0.0187,-0.0423 0.0246,0 0.0448,0.019 0.0448,0.0423 0,0.0233 -0.008,0.0423 -0.0187,0.0423 -0.0103,0 -0.0304,-0.019 -0.0448,-0.0423 z m 1.9685,-0.0423 c 0,-0.0233 0.0286,-0.0423 0.0635,-0.0423 0.0349,0 0.0635,0.019 0.0635,0.0423 0,0.0233 -0.0286,0.0423 -0.0635,0.0423 -0.0349,0 -0.0635,-0.019 -0.0635,-0.0423 z m -7.28134,-0.0423 c 0,-0.0233 0.0191,-0.0423 0.0423,-0.0423 0.0233,0 0.0423,0.0191 0.0423,0.0423 0,0.0233 -0.019,0.0423 -0.0423,0.0423 -0.0233,0 -0.0423,-0.019 -0.0423,-0.0423 z m 0.65798,0.003 c -0.0289,-0.0468 0.0379,-0.0973 0.0769,-0.0582 0.0403,0.0403 0.0327,0.0976 -0.0128,0.0976 -0.0219,0 -0.0508,-0.0177 -0.0642,-0.0394 z m -0.48864,-0.0664 c 0,-0.0349 0.019,-0.0635 0.0423,-0.0635 0.0233,0 0.0423,0.0286 0.0423,0.0635 0,0.0349 -0.0191,0.0635 -0.0423,0.0635 -0.0233,0 -0.0423,-0.0286 -0.0423,-0.0635 z m 4.78366,0 c -0.0299,-0.0361 -0.0449,-0.0751 -0.0332,-0.0867 0.0116,-0.0116 0.0457,0.008 0.0756,0.0444 0.0299,0.036 0.0449,0.0751 0.0332,0.0867 -0.0116,0.0116 -0.0456,-0.008 -0.0756,-0.0444 z m -5.90549,-0.0212 c -0.0144,-0.0233 0.005,-0.0423 0.0423,-0.0423 0.0377,0 0.0567,0.019 0.0423,0.0423 -0.0144,0.0233 -0.0334,0.0423 -0.0423,0.0423 -0.009,0 -0.028,-0.019 -0.0423,-0.0423 z m 8.27616,0.007 c 0,-0.0412 0.15413,-0.0364 0.19669,0.006 0.016,0.016 -0.0217,0.0291 -0.0838,0.0291 -0.0621,0 -0.11289,-0.0159 -0.11289,-0.0353 z m -6.81567,-0.0706 c 0,-0.0349 0.019,-0.0635 0.0423,-0.0635 0.0233,0 0.0423,0.0286 0.0423,0.0635 0,0.0349 -0.019,0.0635 -0.0423,0.0635 -0.0233,0 -0.0423,-0.0286 -0.0423,-0.0635 z m 0.36165,0.0241 c -0.0134,-0.0217 -0.005,-0.0514 0.0187,-0.066 0.0237,-0.0146 0.043,0.003 0.043,0.0394 0,0.0744 -0.0254,0.0853 -0.0617,0.0266 z m 0.95069,-0.003 c 0,-0.0233 0.0191,-0.0423 0.0423,-0.0423 0.0233,0 0.0423,0.019 0.0423,0.0423 0,0.0233 -0.019,0.0423 -0.0423,0.0423 -0.0233,0 -0.0423,-0.019 -0.0423,-0.0423 z m 3.74692,-6.9e-4 c 0.0146,-0.0237 0.0443,-0.0321 0.066,-0.0187 0.0587,0.0363 0.0478,0.0617 -0.0266,0.0617 -0.0363,0 -0.054,-0.0194 -0.0394,-0.043 z m -6.23824,-0.0819 c 0.0182,-0.0546 0.0763,-0.0644 0.0815,-0.0138 0.002,0.0169 -0.0197,0.0383 -0.0476,0.0476 -0.0279,0.009 -0.0432,-0.006 -0.0339,-0.0339 z m 1.7399,-0.0421 c -0.0524,-0.0437 -0.0953,-0.10022 -0.0953,-0.12559 0,-0.0254 -0.0381,-0.0461 -0.0847,-0.0461 -0.0466,0 -0.0847,-0.019 -0.0847,-0.0423 0,-0.0233 0.019,-0.0423 0.0423,-0.0423 0.0924,0 0.0327,-0.0677 -0.12748,-0.14439 -0.0929,-0.0445 -0.16885,-0.10641 -0.16885,-0.13759 0,-0.0312 -0.0306,-0.0567 -0.068,-0.0567 -0.0424,0 -0.059,0.0234 -0.0442,0.0622 0.0308,0.0802 -0.035,0.11991 -0.14217,0.0859 -0.1041,-0.033 -0.10925,-0.093 -0.0102,-0.11887 0.0706,-0.0184 0.0706,-0.0196 0,-0.0243 -0.0407,-0.003 -0.0741,-0.0357 -0.0741,-0.0733 0,-0.0497 0.0255,-0.0618 0.0931,-0.0441 0.0512,0.0134 0.1193,0.003 0.15139,-0.0241 0.0442,-0.0367 0.0665,-0.0352 0.0922,0.006 0.0239,0.0386 0.0424,0.0409 0.0628,0.008 0.0169,-0.0274 -0.0174,-0.0646 -0.0821,-0.0892 -0.14484,-0.0551 -0.20464,-0.0533 -0.26578,0.008 -0.0276,0.0276 -0.0647,0.0355 -0.0825,0.0177 -0.0178,-0.0178 9.2e-4,-0.0567 0.0416,-0.0865 0.0407,-0.0298 0.074,-0.086 0.074,-0.12487 0,-0.0389 0.0286,-0.0817 0.0635,-0.0951 0.0392,-0.015 0.0635,-0.0794 0.0635,-0.168 0,-0.079 0.019,-0.14364 0.0423,-0.14364 0.0233,0 0.0423,0.0345 0.0423,0.0766 0,0.0421 0.028,0.11355 0.0622,0.15875 0.0342,0.0452 0.0628,0.11294 0.0635,0.15054 7.4e-4,0.0376 0.0394,0.11681 0.086,0.17601 0.0466,0.0592 0.0847,0.12998 0.0847,0.15729 0,0.0273 0.0667,0.1501 0.14816,0.27287 0.0815,0.12277 0.14817,0.24439 0.14817,0.27027 0,0.0259 0.0381,0.0674 0.0847,0.0924 0.0466,0.0249 0.0847,0.0637 0.0847,0.0862 0,0.065 -0.0976,0.0449 -0.20108,-0.0414 z m -1.36525,-0.0211 c 0,-0.0683 0.06,-0.11893 0.097,-0.0819 0.033,0.033 -0.0125,0.14287 -0.0592,0.14287 -0.0208,0 -0.0378,-0.0275 -0.0378,-0.061 z m 2.01264,0.0216 c -0.0134,-0.0217 -0.005,-0.0514 0.0187,-0.066 0.0237,-0.0146 0.043,0.003 0.043,0.0394 0,0.0744 -0.0254,0.0853 -0.0617,0.0266 z m -2.24547,-0.0876 c 0.0144,-0.0233 0.0441,-0.0423 0.066,-0.0423 0.0219,0 0.0398,0.019 0.0398,0.0423 0,0.0233 -0.0297,0.0423 -0.066,0.0423 -0.0363,0 -0.0542,-0.019 -0.0398,-0.0423 z m 5.24933,0 c -0.0144,-0.0233 -0.006,-0.0423 0.0187,-0.0423 0.0247,0 0.0448,0.019 0.0448,0.0423 0,0.0233 -0.008,0.0423 -0.0187,0.0423 -0.0103,0 -0.0304,-0.019 -0.0448,-0.0423 z m 0.21167,0 c -0.0144,-0.0233 -0.006,-0.0423 0.0187,-0.0423 0.0246,0 0.0448,0.019 0.0448,0.0423 0,0.0233 -0.008,0.0423 -0.0187,0.0423 -0.0103,0 -0.0304,-0.019 -0.0448,-0.0423 z m 0.3175,0 c 0,-0.0233 0.0179,-0.0423 0.0398,-0.0423 0.0219,0 0.0516,0.019 0.066,0.0423 0.0144,0.0233 -0.004,0.0423 -0.0398,0.0423 -0.0363,0 -0.066,-0.019 -0.066,-0.0423 z m -4.65667,-0.10583 c 0,-0.0349 -0.019,-0.0635 -0.0423,-0.0635 -0.0233,0 -0.0423,-0.019 -0.0423,-0.0423 0,-0.0233 0.0571,-0.0423 0.127,-0.0423 0.13316,0 0.16656,0.0705 0.0762,0.16087 -0.0691,0.0691 -0.11853,0.0639 -0.11853,-0.0127 z m 0.99483,0.0212 c -0.0144,-0.0233 0.005,-0.0423 0.0423,-0.0423 0.0377,0 0.0567,0.0191 0.0423,0.0423 -0.0144,0.0233 -0.0334,0.0423 -0.0423,0.0423 -0.009,0 -0.028,-0.0191 -0.0423,-0.0423 z m 3.83117,0.001 c 0,-0.0225 0.0381,-0.0612 0.0847,-0.0862 0.0663,-0.0355 0.0847,-0.0322 0.0847,0.0152 0,0.0332 -0.0301,0.072 -0.067,0.0862 -0.0899,0.0345 -0.10237,0.0327 -0.10237,-0.0151 z m -5.75733,-0.0663 c 0,-0.0685 0.0661,-0.084 0.10309,-0.0243 0.0129,0.0208 -0.005,0.0488 -0.0398,0.0622 -0.0384,0.0147 -0.0633,-1.4e-4 -0.0633,-0.0379 z m 0.44431,-0.0201 c -0.0145,-0.0234 0.003,-0.052 0.0398,-0.0635 0.0364,-0.0115 0.0941,-0.0296 0.12833,-0.0402 0.10989,-0.0342 0.10825,0.0476 -0.002,0.0978 -0.12957,0.059 -0.13327,0.0592 -0.1662,0.006 z m 5.59524,-0.0279 c -0.0487,-0.0487 -0.0308,-0.0988 0.0353,-0.0988 0.0349,0 0.0635,0.0286 0.0635,0.0635 0,0.0661 -0.0501,0.084 -0.0988,0.0353 z m -4.28521,-0.0763 c -0.0452,-0.0342 -0.0599,-0.0628 -0.0327,-0.0635 0.0804,-0.002 0.18338,0.0471 0.18338,0.0879 0,0.0555 -0.0574,0.0462 -0.15066,-0.0243 z m -0.1186,-0.13655 c -0.0404,-0.0403 -0.0327,-0.13996 0.0107,-0.13996 0.0519,0 0.0936,0.11926 0.0509,0.14566 -0.019,0.0118 -0.0468,0.009 -0.0617,-0.006 z m 3.76357,-0.01 c -0.0289,-0.0468 0.0379,-0.0973 0.0769,-0.0582 0.0403,0.0403 0.0327,0.0976 -0.0128,0.0976 -0.0219,0 -0.0508,-0.0177 -0.0642,-0.0394 z m -5.10298,-0.0629 c 0,-0.0369 0.0302,-0.067 0.067,-0.067 0.0369,0 0.0595,0.0226 0.0503,0.0503 -0.0262,0.0785 -0.1173,0.0915 -0.1173,0.0168 z m 5.43983,0.0176 c -0.0144,-0.0233 -0.006,-0.0423 0.0187,-0.0423 0.0247,0 0.0448,0.0191 0.0448,0.0423 0,0.0233 -0.008,0.0423 -0.0187,0.0423 -0.0103,0 -0.0305,-0.0191 -0.0448,-0.0423 z m -0.6985,-0.16934 c 0,-0.0233 0.0191,-0.0423 0.0423,-0.0423 0.0233,0 0.0423,0.0191 0.0423,0.0423 0,0.0233 -0.019,0.0423 -0.0423,0.0423 -0.0233,0 -0.0423,-0.019 -0.0423,-0.0423 z m 0.81245,-0.003 c 0.008,-0.025 0.0333,-0.0455 0.0554,-0.0455 0.0221,0 0.047,0.0205 0.0554,0.0455 0.008,0.025 -0.0166,0.0455 -0.0554,0.0455 -0.0388,0 -0.0637,-0.0205 -0.0554,-0.0455 z m -0.47378,-0.0392 c 0,-0.0233 0.0286,-0.0423 0.0635,-0.0423 0.0349,0 0.0635,0.019 0.0635,0.0423 0,0.0233 -0.0286,0.0423 -0.0635,0.0423 -0.0349,0 -0.0635,-0.0191 -0.0635,-0.0423 z m 0.59267,-0.0847 c 0,-0.0233 0.019,-0.0423 0.0423,-0.0423 0.0233,0 0.0423,0.019 0.0423,0.0423 0,0.0233 -0.019,0.0423 -0.0423,0.0423 -0.0233,0 -0.0423,-0.019 -0.0423,-0.0423 z m -0.21167,-0.0847 c 0,-0.0233 0.019,-0.0423 0.0423,-0.0423 0.0233,0 0.0423,0.0191 0.0423,0.0423 0,0.0233 -0.0191,0.0423 -0.0423,0.0423 -0.0233,0 -0.0423,-0.0191 -0.0423,-0.0423 z m 0.10626,-0.084 c -0.0312,-0.0505 0.008,-0.12769 0.0656,-0.12769 0.0515,0 0.0519,0.11458 4.3e-4,0.14636 -0.0217,0.0134 -0.0514,0.005 -0.066,-0.0187 z m -1.24926,-0.043 c 0,-0.0233 0.019,-0.0423 0.0423,-0.0423 0.0233,0 0.0423,0.019 0.0423,0.0423 0,0.0233 -0.0191,0.0423 -0.0423,0.0423 -0.0233,0 -0.0423,-0.019 -0.0423,-0.0423 z m 0.74083,-0.0423 c -0.0144,-0.0233 -0.007,-0.0423 0.0162,-0.0423 0.0233,0 0.0541,0.0191 0.0685,0.0423 0.0144,0.0233 0.007,0.0423 -0.0162,0.0423 -0.0233,0 -0.0541,-0.019 -0.0685,-0.0423 z m 0.1905,-0.066 c 0,-0.0363 0.019,-0.0542 0.0423,-0.0398 0.0233,0.0144 0.0423,0.0441 0.0423,0.066 0,0.0219 -0.0191,0.0398 -0.0423,0.0398 -0.0233,0 -0.0423,-0.0297 -0.0423,-0.066 z m -7.5953,-0.0882 c -0.0403,-0.10511 0.004,-0.11946 0.058,-0.0187 0.026,0.0486 0.0296,0.0883 0.008,0.0883 -0.0216,0 -0.0513,-0.0313 -0.066,-0.0696 z m 0.44097,0.0272 c 0,-0.0233 0.0214,-0.0423 0.0475,-0.0423 0.0342,0 0.0347,-0.0154 0.002,-0.0551 -0.0252,-0.0303 -0.0344,-0.10175 -0.0206,-0.15875 0.0207,-0.0852 0.0151,-0.0942 -0.0314,-0.0507 -0.0795,0.0744 -0.12429,0.0658 -0.12429,-0.0238 0,-0.0422 0.0569,-0.11876 0.1264,-0.17016 0.0695,-0.0514 0.13826,-0.14071 0.15276,-0.19846 0.0547,-0.21795 0.24396,-0.0603 0.2858,0.23802 0.0285,0.20324 -0.0192,0.29023 -0.23539,0.42957 -0.1291,0.0832 -0.20257,0.0947 -0.20257,0.0317 z m 0.21167,-0.21166 c 0,-0.0233 -0.0191,-0.0423 -0.0423,-0.0423 -0.0233,0 -0.0423,0.019 -0.0423,0.0423 0,0.0233 0.0191,0.0423 0.0423,0.0423 0.0233,0 0.0423,-0.019 0.0423,-0.0423 z m 0.0423,-0.127 c 0,-0.0233 -0.0202,-0.0423 -0.0448,-0.0423 -0.0247,0 -0.0331,0.019 -0.0187,0.0423 0.0144,0.0233 0.0346,0.0423 0.0448,0.0423 0.0103,0 0.0187,-0.019 0.0187,-0.0423 z m 4.97417,0.29633 c 0.0144,-0.0233 0.0584,-0.042 0.0978,-0.0417 0.0617,5.6e-4 0.0628,0.006 0.008,0.0417 -0.0829,0.0536 -0.13894,0.0536 -0.10583,0 z m 1.43933,0 c -0.0144,-0.0233 0.004,-0.0423 0.0398,-0.0423 0.0363,0 0.066,0.0191 0.066,0.0423 0,0.0233 -0.0179,0.0423 -0.0398,0.0423 -0.0219,0 -0.0516,-0.019 -0.066,-0.0423 z m 0.63836,-0.087 c -0.0447,-0.0451 -0.0704,-0.0929 -0.057,-0.10625 0.0363,-0.0363 0.20185,0.0785 0.20185,0.13994 0,0.0741 -0.0492,0.0627 -0.14481,-0.0337 z m -7.60154,-0.0294 c 0.001,-0.0579 0.079,-0.1567 0.10388,-0.13183 0.0333,0.0334 -0.0198,0.16358 -0.0667,0.16358 -0.0208,0 -0.0375,-0.0143 -0.0371,-0.0317 z m 1.41752,-0.0952 c 0.0144,-0.0233 0.0441,-0.0423 0.066,-0.0423 0.0219,0 0.0398,0.0191 0.0398,0.0423 0,0.0233 -0.0297,0.0423 -0.066,0.0423 -0.0363,0 -0.0542,-0.019 -0.0398,-0.0423 z m 5.92666,-0.0847 c -0.0144,-0.0233 -0.006,-0.0423 0.0187,-0.0423 0.0247,0 0.0448,0.019 0.0448,0.0423 0,0.0233 -0.008,0.0423 -0.0187,0.0423 -0.0103,0 -0.0304,-0.019 -0.0448,-0.0423 z m -5.29298,-0.0445 c -0.0402,-0.0651 0.0149,-0.10708 0.0692,-0.0528 0.0304,0.0304 0.0311,0.0541 0.002,0.0719 -0.0237,0.0147 -0.0558,0.006 -0.0714,-0.0192 z m 3.7584,0.0164 c -0.0733,-0.0296 -0.0665,-0.099 0.01,-0.099 0.0801,0 0.20802,-0.19298 0.16936,-0.25552 -0.0162,-0.0262 0.0108,-0.0757 0.0599,-0.1101 0.0491,-0.0344 0.0893,-0.09 0.0893,-0.12362 0,-0.0336 0.0173,-0.0611 0.0384,-0.0611 0.0211,0 0.028,-0.0397 0.0153,-0.0882 -0.0127,-0.0485 -0.0347,-0.071 -0.0489,-0.0498 -0.0142,0.0211 -0.0569,0.0498 -0.0947,0.0637 -0.0477,0.0176 -0.0624,0.0588 -0.048,0.1345 0.0235,0.12311 -0.006,0.13197 -0.15833,0.0472 -0.0905,-0.0504 -0.0955,-0.063 -0.0344,-0.0867 0.0395,-0.0153 0.0611,-0.0546 0.0484,-0.0877 -0.0152,-0.0397 0.006,-0.06 0.0637,-0.06 0.0974,0 0.16629,-0.0798 0.10461,-0.12115 -0.0633,-0.0425 -0.098,-0.1699 -0.0537,-0.19728 0.0221,-0.0136 0.0736,-0.005 0.11457,0.0185 0.0457,0.0266 0.053,0.0438 0.019,0.0446 -0.062,10e-4 -0.0259,0.0859 0.0367,0.0859 0.0445,0 0.053,-0.12805 0.0151,-0.22695 -0.0194,-0.0505 -0.0484,-0.0556 -0.13287,-0.0234 -0.0595,0.0226 -0.11241,0.0358 -0.11767,0.0293 -0.0643,-0.0791 -0.0988,-0.20151 -0.0631,-0.22358 0.0235,-0.0146 0.0571,0.0121 0.0745,0.0592 0.0402,0.10865 0.12501,0.061 0.1515,-0.0851 0.0174,-0.0959 0.008,-0.10656 -0.0821,-0.0894 -0.10084,0.0193 -0.14108,-0.0458 -0.0595,-0.0962 0.0632,-0.0391 0.0511,-0.17287 -0.0212,-0.23283 -0.0537,-0.0446 -0.0635,-0.0356 -0.0635,0.0583 0,0.0611 -0.0191,0.11101 -0.0423,0.11101 -0.0233,0 -0.0423,-0.0584 -0.0423,-0.12978 0,-0.0714 -0.0199,-0.16702 -0.0443,-0.21254 -0.0407,-0.076 -0.0314,-0.0818 0.1139,-0.0706 0.14106,0.0108 0.16229,0.028 0.19601,0.15808 0.0208,0.0803 0.0707,0.19426 0.11086,0.25332 0.0402,0.0591 0.11927,0.20739 0.17577,0.32963 0.0565,0.12223 0.12794,0.22225 0.15874,0.22225 0.0308,0 0.0443,0.019 0.0299,0.0423 -0.0144,0.0232 0.004,0.0846 0.0398,0.13642 0.10364,0.14796 0.0799,0.22517 -0.12455,0.40514 -0.10478,0.0922 -0.1905,0.1869 -0.1905,0.21039 0,0.0235 -0.0462,0.073 -0.10262,0.10996 -0.0564,0.037 -0.11488,0.10585 -0.12986,0.15303 -0.0268,0.0844 -0.0756,0.1 -0.18027,0.0578 z m -4.11692,-0.0566 c 0,-0.0233 0.0191,-0.0423 0.0423,-0.0423 0.0233,0 0.0423,0.0191 0.0423,0.0423 0,0.0233 -0.019,0.0423 -0.0423,0.0423 -0.0233,0 -0.0423,-0.019 -0.0423,-0.0423 z m 7.80936,-0.002 c -0.0138,-0.0223 -0.0159,-0.0405 -0.005,-0.0405 0.0111,0 0.0503,-0.0116 0.0872,-0.0257 0.0368,-0.0141 0.067,-0.007 0.067,0.0166 0,0.0592 -0.11894,0.0987 -0.14931,0.0495 z m -0.69736,-0.0324 c 0,-0.0188 0.028,-0.0712 0.0622,-0.11642 0.0635,-0.0839 0.0854,-0.0369 0.0392,0.0837 -0.0266,0.0692 -0.10131,0.0933 -0.10131,0.0327 z m -6.56167,-0.13509 c 0,-0.0233 0.0191,-0.0423 0.0423,-0.0423 0.0233,0 0.0423,0.019 0.0423,0.0423 0,0.0233 -0.019,0.0423 -0.0423,0.0423 -0.0233,0 -0.0423,-0.019 -0.0423,-0.0423 z m 3.03605,0.0106 c -0.0211,-0.0396 0.12366,-0.1811 0.1541,-0.15066 0.0266,0.0266 -0.0652,0.18241 -0.1075,0.18241 -0.0163,0 -0.0373,-0.0143 -0.0466,-0.0317 z m 3.90662,-0.0106 c 0,-0.0233 0.0297,-0.0423 0.066,-0.0423 0.0363,0 0.0542,0.019 0.0398,0.0423 -0.0144,0.0233 -0.0441,0.0423 -0.066,0.0423 -0.0219,0 -0.0398,-0.019 -0.0398,-0.0423 z m -3.49602,-0.0904 c -0.026,-0.0421 0.0271,-0.16364 0.0716,-0.16364 0.0208,0 0.0378,0.0217 0.0378,0.0483 0,0.0265 0.0333,0.0737 0.0741,0.10472 0.0669,0.051 0.0624,0.0557 -0.0457,0.0481 -0.0659,-0.005 -0.12786,-0.0214 -0.13772,-0.0374 z m -3.74298,-0.0366 c 0,-0.0233 0.0191,-0.0423 0.0423,-0.0423 0.0233,0 0.0423,0.019 0.0423,0.0423 0,0.0233 -0.0191,0.0423 -0.0423,0.0423 -0.0233,0 -0.0423,-0.019 -0.0423,-0.0423 z m 5.23407,0.013 c -0.0523,-0.0523 -0.0264,-0.1823 0.0364,-0.1823 0.0349,0 0.0635,0.037 0.0635,0.0822 0,0.0884 -0.0558,0.14426 -0.0999,0.10013 z m 1.20695,-0.0955 c 0.009,-0.0279 0.0307,-0.0494 0.0476,-0.0476 0.0506,0.005 0.0408,0.0633 -0.0138,0.0815 -0.0279,0.009 -0.0432,-0.006 -0.0339,-0.0339 z m 0.71331,-0.10443 c 0,-0.033 0.0238,-0.0681 0.0529,-0.0781 0.088,-0.0301 -0.18688,-0.27588 -0.3266,-0.29197 -0.0974,-0.0112 -0.13663,0.008 -0.1751,0.0845 -0.0294,0.0587 -0.061,0.0806 -0.0775,0.0538 -0.0154,-0.0249 -0.008,-0.0824 0.0164,-0.12796 0.0557,-0.10415 0.0564,-0.14316 0.002,-0.10949 -0.0867,0.0536 -0.12598,-0.0257 -0.0615,-0.1241 0.0583,-0.089 0.0579,-0.10106 -0.004,-0.12479 -0.10478,-0.0402 -0.1544,-0.0314 -0.12166,0.0215 0.0181,0.0293 0.007,0.0395 -0.0293,0.0265 -0.0323,-0.0118 -0.0521,-0.0476 -0.0439,-0.0796 0.0443,-0.17364 0.0509,-0.54504 0.01,-0.54504 -0.0251,0 -0.0456,-0.0348 -0.0456,-0.0774 0,-0.0521 -0.0298,-0.0763 -0.091,-0.0741 -0.05,0.002 -0.0995,-0.0213 -0.10998,-0.0514 -0.0138,-0.0398 0.011,-0.0472 0.091,-0.0272 0.083,0.0208 0.10998,0.0115 0.10998,-0.038 0,-0.0361 -0.019,-0.0774 -0.0423,-0.0917 -0.0233,-0.0144 -0.0423,-0.0714 -0.0423,-0.12665 0,-0.0614 -0.0312,-0.11037 -0.0801,-0.1259 -0.0958,-0.0304 -0.14026,-0.16633 -0.0756,-0.23102 0.0334,-0.0334 0.0255,-0.0667 -0.0283,-0.11999 -0.0622,-0.0615 -0.0704,-0.0626 -0.0492,-0.006 0.0141,0.0375 -0.005,0.0929 -0.0442,0.12502 -0.0607,0.0504 -0.0682,0.0472 -0.0589,-0.025 0.006,-0.0455 -0.004,-0.11511 -0.0208,-0.15474 -0.046,-0.10555 7.2e-4,-0.15172 0.13381,-0.13215 l 0.11743,0.0173 -0.0952,-0.0704 c -0.0952,-0.0704 -0.13011,-0.18712 -0.0559,-0.18712 0.10917,0 0.25613,0.2797 0.19712,0.37518 -0.0141,0.0227 0.003,0.0701 0.0383,0.10522 0.0351,0.0351 0.0639,0.10335 0.0639,0.15158 0,0.0482 0.0393,0.12699 0.0873,0.17503 0.048,0.048 0.084,0.129 0.08,0.17992 -0.0127,0.15969 8e-5,0.1984 0.0655,0.1984 0.0746,0 0.0856,0.0703 0.0147,0.0939 -0.0574,0.0191 0.0749,0.24478 0.14354,0.24478 0.0237,0 0.0185,-0.0291 -0.0115,-0.0653 -0.04,-0.0482 -0.0418,-0.0777 -0.007,-0.11273 0.0613,-0.0613 0.14998,0.1559 0.11711,0.28684 -0.0147,0.0585 0.007,0.11763 0.0597,0.16567 0.0454,0.0411 0.0784,0.1152 0.0734,0.16469 -0.006,0.0568 0.0121,0.0855 0.0485,0.0778 0.0619,-0.013 0.17962,0.11888 0.14954,0.16754 -0.01,0.0161 0.0298,0.1 0.0884,0.18629 0.11434,0.1685 0.13147,0.22984 0.0642,0.22984 -0.0233,0 -0.0423,0.0286 -0.0423,0.0635 0,0.0349 -0.0191,0.0635 -0.0423,0.0635 -0.0233,0 -0.0423,-0.027 -0.0423,-0.06 z m 0.27698,0.0206 c -0.0289,-0.0468 0.0379,-0.0973 0.077,-0.0582 0.0403,0.0402 0.0327,0.0976 -0.0128,0.0976 -0.0219,0 -0.0508,-0.0177 -0.0642,-0.0394 z m -3.89605,-0.046 c 0.0146,-0.0237 0.0443,-0.0321 0.066,-0.0187 0.0587,0.0363 0.0478,0.0617 -0.0266,0.0617 -0.0363,0 -0.054,-0.0194 -0.0394,-0.043 z m -3.55643,-0.0416 c -0.0144,-0.0233 0.004,-0.0423 0.0398,-0.0423 0.0363,0 0.066,0.019 0.066,0.0423 0,0.0233 -0.0179,0.0423 -0.0398,0.0423 -0.0219,0 -0.0516,-0.019 -0.066,-0.0423 z m 0.6375,-0.0198 c 0.0452,-0.0342 0.10122,-0.0622 0.1245,-0.0622 0.0233,0 0.005,0.028 -0.0398,0.0622 -0.0452,0.0342 -0.10122,0.0622 -0.1245,0.0622 -0.0233,0 -0.005,-0.028 0.0398,-0.0622 z m -0.21416,-0.0225 c -0.0144,-0.0233 0.005,-0.0423 0.0423,-0.0423 0.0377,0 0.0567,0.0191 0.0423,0.0423 -0.0144,0.0233 -0.0334,0.0423 -0.0423,0.0423 -0.009,0 -0.0279,-0.019 -0.0423,-0.0423 z m 6.37116,-0.0163 c 0,-0.0418 0.0238,-0.0566 0.0652,-0.0407 0.0407,0.0156 0.0606,0.004 0.0529,-0.0306 -0.007,-0.0306 0.021,-0.0629 0.0618,-0.0718 0.0441,-0.01 0.0741,0.009 0.0741,0.0455 0,0.0339 -0.0333,0.0734 -0.0741,0.0878 -0.0407,0.0144 -0.0979,0.0372 -0.127,0.0508 -0.0302,0.0141 -0.0529,-0.004 -0.0529,-0.041 z m -1.11362,-0.0108 c -0.0338,-0.0338 0.004,-0.0999 0.0578,-0.0999 0.0219,0 0.0398,0.0286 0.0398,0.0635 0,0.0655 -0.0499,0.0841 -0.0976,0.0364 z m -2.95038,-0.0576 c 0,-0.0233 0.0191,-0.0423 0.0423,-0.0423 0.0233,0 0.0423,0.019 0.0423,0.0423 0,0.0233 -0.019,0.0423 -0.0423,0.0423 -0.0233,0 -0.0423,-0.019 -0.0423,-0.0423 z m -2.58233,-0.0847 c 0,-0.0233 0.0191,-0.0423 0.0423,-0.0423 0.0233,0 0.0423,0.0191 0.0423,0.0423 0,0.0233 -0.019,0.0423 -0.0423,0.0423 -0.0233,0 -0.0423,-0.019 -0.0423,-0.0423 z m 3.048,0 c 0,-0.0233 0.0191,-0.0423 0.0423,-0.0423 0.0233,0 0.0423,0.0191 0.0423,0.0423 0,0.0233 -0.019,0.0423 -0.0423,0.0423 -0.0233,0 -0.0423,-0.019 -0.0423,-0.0423 z m 0.40217,0 c -0.0144,-0.0233 0.005,-0.0423 0.0423,-0.0423 0.0377,0 0.0567,0.0191 0.0423,0.0423 -0.0144,0.0233 -0.0334,0.0423 -0.0423,0.0423 -0.009,0 -0.0279,-0.019 -0.0423,-0.0423 z m -3.06917,-0.066 c 0,-0.0363 0.0191,-0.0542 0.0423,-0.0398 0.0233,0.0144 0.0423,0.0441 0.0423,0.066 0,0.0219 -0.019,0.0398 -0.0423,0.0398 -0.0233,0 -0.0423,-0.0297 -0.0423,-0.066 z m 0.127,-0.027 c 0,-0.042 0.0581,-0.0635 0.1905,-0.0704 0.10478,-0.005 0.1905,0.008 0.1905,0.0299 0,0.0219 -0.0429,0.0397 -0.0953,0.0395 -0.0524,-1.7e-4 -0.13811,0.0136 -0.1905,0.0306 -0.0688,0.0223 -0.0952,0.0141 -0.0952,-0.0296 z m 2.32833,0.006 c 0,-0.0246 0.0191,-0.0331 0.0423,-0.0187 0.0233,0.0144 0.0423,0.0346 0.0423,0.0448 0,0.0103 -0.0191,0.0187 -0.0423,0.0187 -0.0233,0 -0.0423,-0.0202 -0.0423,-0.0448 z m 0.3175,-0.0398 c 0.0144,-0.0233 0.0346,-0.0423 0.0448,-0.0423 0.0103,0 0.0187,0.019 0.0187,0.0423 0,0.0233 -0.0202,0.0423 -0.0448,0.0423 -0.0246,0 -0.0331,-0.019 -0.0187,-0.0423 z m -2.9845,-0.0847 c 0,-0.0233 0.0191,-0.0423 0.0423,-0.0423 0.0233,0 0.0423,0.0191 0.0423,0.0423 0,0.0233 -0.019,0.0423 -0.0423,0.0423 -0.0233,0 -0.0423,-0.019 -0.0423,-0.0423 z m 3.35548,-0.10084 c -0.0754,-0.0493 -0.13728,-0.11347 -0.13759,-0.14257 -8e-4,-0.0766 0.0704,-0.065 0.10175,0.0166 0.0147,0.0383 0.038,0.0582 0.0519,0.0444 0.0328,-0.0328 0.15319,0.0874 0.13495,0.13487 -0.008,0.02 -0.0756,-0.004 -0.15101,-0.0533 z m -0.77314,0.0162 c 0,-0.0233 0.0297,-0.0423 0.066,-0.0423 0.0363,0 0.0542,0.019 0.0398,0.0423 -0.0144,0.0233 -0.0441,0.0423 -0.066,0.0423 -0.0219,0 -0.0398,-0.019 -0.0398,-0.0423 z m 0.254,-0.0187 c 0,-0.0363 0.019,-0.066 0.0423,-0.066 0.0233,0 0.0423,0.0179 0.0423,0.0398 0,0.0219 -0.0191,0.0516 -0.0423,0.066 -0.0233,0.0144 -0.0423,-0.004 -0.0423,-0.0398 z m -2.49767,-0.0448 c 0,-0.0349 0.019,-0.0635 0.0423,-0.0635 0.0233,0 0.0423,0.0286 0.0423,0.0635 0,0.0349 -0.0191,0.0635 -0.0423,0.0635 -0.0233,0 -0.0423,-0.0286 -0.0423,-0.0635 z m -0.14817,-0.10584 c -0.0144,-0.0233 -0.006,-0.0423 0.0187,-0.0423 0.0247,0 0.0448,0.019 0.0448,0.0423 0,0.0233 -0.008,0.0423 -0.0187,0.0423 -0.0103,0 -0.0305,-0.019 -0.0448,-0.0423 z m 0.14817,-0.0822 c 0,-0.0479 0.019,-0.0872 0.0423,-0.0872 0.0233,0 0.0423,0.0275 0.0423,0.061 0,0.0335 -0.0191,0.0728 -0.0423,0.0872 -0.0233,0.0144 -0.0423,-0.0131 -0.0423,-0.061 z m 3.00901,-0.0272 c 0.002,-0.0493 0.0121,-0.0593 0.0256,-0.0256 0.0122,0.0306 0.0107,0.0671 -0.003,0.0811 -0.0141,0.0141 -0.0241,-0.0109 -0.0222,-0.0556 z m -0.21501,-0.0201 c 0,-0.0247 0.019,-0.0331 0.0423,-0.0187 0.0233,0.0144 0.0423,0.0346 0.0423,0.0448 0,0.0103 -0.0191,0.0187 -0.0423,0.0187 -0.0233,0 -0.0423,-0.0202 -0.0423,-0.0448 z m 0.3175,-0.0822 c -0.0144,-0.0233 0.005,-0.0423 0.0423,-0.0423 0.0377,0 0.0567,0.019 0.0423,0.0423 -0.0144,0.0233 -0.0334,0.0423 -0.0423,0.0423 -0.009,0 -0.0279,-0.019 -0.0423,-0.0423 z m 2.43539,0.002 c -0.0766,-0.0485 -0.0567,-0.0708 0.0979,-0.10959 0.11425,-0.0287 0.11739,-0.0257 0.0638,0.06 -0.0634,0.10149 -0.0743,0.10484 -0.16175,0.0495 z m -0.19172,-0.044 c -0.0144,-0.0233 -0.007,-0.0423 0.0162,-0.0423 0.0233,0 0.0541,0.019 0.0685,0.0423 0.0144,0.0233 0.007,0.0423 -0.0162,0.0423 -0.0233,0 -0.0541,-0.019 -0.0685,-0.0423 z m -2.77284,-0.0423 c 0,-0.0233 0.0286,-0.0423 0.0635,-0.0423 0.0349,0 0.0635,0.0191 0.0635,0.0423 0,0.0233 -0.0286,0.0423 -0.0635,0.0423 -0.0349,0 -0.0635,-0.019 -0.0635,-0.0423 z m 2.81517,-0.127 c -0.0144,-0.0233 -0.006,-0.0423 0.0187,-0.0423 0.0247,0 0.0448,0.019 0.0448,0.0423 0,0.0233 -0.008,0.0423 -0.0187,0.0423 -0.0103,0 -0.0304,-0.019 -0.0448,-0.0423 z m -2.413,-0.0423 c -0.0144,-0.0233 -0.006,-0.0423 0.0187,-0.0423 0.0247,0 0.0448,0.019 0.0448,0.0423 0,0.0233 -0.008,0.0423 -0.0187,0.0423 -0.0103,0 -0.0304,-0.019 -0.0448,-0.0423 z m 1.67217,-0.0423 c 0,-0.0233 0.0286,-0.0423 0.0635,-0.0423 0.0349,0 0.0635,0.0191 0.0635,0.0423 0,0.0233 -0.0286,0.0423 -0.0635,0.0423 -0.0349,0 -0.0635,-0.019 -0.0635,-0.0423 z m 0.82376,-0.003 c -0.0153,-0.0248 -0.0177,-0.0553 -0.005,-0.0677 0.0303,-0.0303 0.11289,0.0231 0.11289,0.073 0,0.0541 -0.0731,0.0505 -0.10757,-0.005 z m -2.72876,-0.12669 c 0,-0.0247 0.0191,-0.0331 0.0423,-0.0187 0.0233,0.0144 0.0423,0.0346 0.0423,0.0448 0,0.0103 -0.019,0.0187 -0.0423,0.0187 -0.0233,0 -0.0423,-0.0202 -0.0423,-0.0448 z m 2.35536,-0.188 c 0.0249,-0.0649 0.16729,-0.0837 0.28677,-0.0379 0.0367,0.0141 0.0556,0.0436 0.042,0.0656 -0.0149,0.0241 -0.0473,0.0212 -0.0817,-0.007 -0.0409,-0.034 -0.0809,-0.0345 -0.14162,-0.002 -0.11347,0.0607 -0.13438,0.0571 -0.10546,-0.0182 z m -2.16444,-0.0219 c 0.0146,-0.0237 0.0443,-0.0321 0.066,-0.0187 0.0587,0.0363 0.0478,0.0617 -0.0266,0.0617 -0.0363,0 -0.054,-0.0194 -0.0394,-0.043 z m -0.13801,-0.10691 c 0,-0.0592 0.0181,-0.10157 0.0402,-0.0942 0.0221,0.007 0.0388,0.0272 0.037,0.0441 -0.002,0.0169 -0.003,0.0593 -0.003,0.0942 0,0.0349 -0.0167,0.0635 -0.037,0.0635 -0.0204,0 -0.037,-0.0484 -0.037,-0.1076 z m 2.14842,0.0229 c 0,-0.0233 0.019,-0.0423 0.0423,-0.0423 0.0233,0 0.0423,0.019 0.0423,0.0423 0,0.0233 -0.019,0.0423 -0.0423,0.0423 -0.0233,0 -0.0423,-0.0191 -0.0423,-0.0423 z m 0.45248,-0.0206 c -0.0421,-0.0308 -0.0585,-0.0671 -0.0365,-0.0807 0.022,-0.0136 0.064,0.004 0.0932,0.0393 0.0715,0.0862 0.038,0.11071 -0.0568,0.0414 z m -2.35748,-0.0639 c 0,-0.0233 0.0202,-0.0423 0.0448,-0.0423 0.0247,0 0.0331,0.019 0.0187,0.0423 -0.0144,0.0233 -0.0346,0.0423 -0.0448,0.0423 -0.0103,0 -0.0187,-0.019 -0.0187,-0.0423 z m 2.10631,-0.10583 c 0.0212,-0.11068 0.0709,-0.13681 0.11734,-0.0617 0.0279,0.0451 -0.0498,0.16748 -0.1063,0.16748 -0.0172,0 -0.0222,-0.0476 -0.011,-0.10583 z m -2.27564,0.0212 c 0,-0.0233 0.0286,-0.0423 0.0635,-0.0423 0.0349,0 0.0635,0.0191 0.0635,0.0423 0,0.0233 -0.0286,0.0423 -0.0635,0.0423 -0.0349,0 -0.0635,-0.019 -0.0635,-0.0423 z m 0.16859,-0.14938 c -0.0793,-0.12837 -0.0858,-0.1621 -0.0371,-0.19295 0.0325,-0.0206 0.0733,-0.0377 0.0908,-0.038 0.0526,-0.001 0.0356,0.0756 -0.0212,0.0955 -0.0346,0.0121 -0.0162,0.049 0.0529,0.10636 0.0786,0.0652 0.0936,0.10024 0.0583,0.13624 -0.0355,0.0361 -0.072,0.009 -0.14369,-0.10714 z"
       id="path1-7" /></g></svg>
