<?xml version="1.0" encoding="UTF-8" standalone="no"?>
<!-- Created with Inkscape (http://www.inkscape.org/) -->

<svg
   width="8.7409315mm"
   height="5.7760124mm"
   viewBox="0 0 8.7409315 5.7760124"
   version="1.1"
   id="svg1"
   xml:space="preserve"
   xmlns="http://www.w3.org/2000/svg"
   xmlns:svg="http://www.w3.org/2000/svg"><defs
     id="defs1" /><g
     id="layer1"
     transform="translate(-110.18083,-130.479)"><path
       style="fill:#000000"
       d="m 116.45038,136.23221 c -0.26969,-0.0484 -0.28452,-0.0704 -0.1812,-0.26858 0.11235,-0.21555 0.13296,-0.81788 0.0303,-0.88388 -0.19637,-0.12619 -0.2687,0.10284 -0.10644,0.33698 0.0601,0.0867 0.10922,0.17991 0.10922,0.20717 0,0.0983 -0.25458,0.18825 -0.45007,0.15894 -0.14896,-0.0223 -0.18493,-0.0153 -0.18493,0.0362 0,0.0352 -0.0637,0.11254 -0.14158,0.17193 -0.18167,0.13857 -0.51433,0.14649 -0.85166,0.0203 -0.2428,-0.0908 -0.27388,-0.13409 -0.17795,-0.24762 0.11111,-0.13151 0.23657,-0.58084 0.25876,-0.92674 l 0.0226,-0.3519 -0.13715,0.0132 c -0.13188,0.0127 -0.13766,0.0211 -0.15023,0.21866 -0.007,0.11299 0.0171,0.2939 0.0539,0.40202 0.0623,0.18294 0.0619,0.20029 -0.006,0.25004 -0.16181,0.11832 -0.60189,0.17903 -0.72627,0.10019 -0.0468,-0.0296 -0.0449,-0.0702 0.0106,-0.23367 0.11862,-0.34938 0.0699,-0.45193 -0.13393,-0.2819 -0.13851,0.11555 -0.13309,0.41659 0.0106,0.58734 0.0582,0.0692 0.10584,0.14378 0.10584,0.16578 0,0.10794 -0.55424,0.21231 -0.78317,0.14748 -0.16244,-0.046 -0.19232,-0.2149 -0.0663,-0.37505 0.12227,-0.15544 0.11593,-0.39546 -0.0142,-0.53583 -0.0559,-0.0603 -0.13688,-0.10726 -0.17991,-0.10427 -0.18891,0.0131 -0.31343,-0.0535 -0.33901,-0.1814 -0.0139,-0.0697 -0.0419,-0.13701 -0.0622,-0.14954 -0.0601,-0.0371 -0.042,0.2957 0.0266,0.49021 0.0349,0.099 0.0635,0.20351 0.0635,0.23228 0,0.0656 -0.48075,0.11465 -0.61689,0.0629 -0.12488,-0.0475 -0.14502,-0.19718 -0.0491,-0.36463 0.0712,-0.12432 0.1126,-0.498 0.0609,-0.54975 -0.0128,-0.0128 -0.0867,0.0212 -0.16415,0.0756 -0.0775,0.0544 -0.14519,0.1 -0.15042,0.10143 -0.0186,0.005 0.10771,0.93021 0.13685,1.00275 0.0431,0.10721 -0.0309,0.11949 -0.50835,0.0844 l -0.42333,-0.0311 0.0133,-0.12339 c 0.007,-0.0679 0.0483,-0.19209 0.0912,-0.27607 0.0679,-0.13314 0.10433,-0.3336 0.0903,-0.49745 -0.002,-0.0276 -0.0662,-0.0562 -0.14187,-0.0635 -0.094,-0.009 -0.15072,-0.0432 -0.17905,-0.10776 -0.0228,-0.052 -0.0942,-0.11289 -0.15875,-0.13538 -0.0746,-0.026 -0.11729,-0.0712 -0.11729,-0.12424 0,-0.0459 -0.0391,-0.17471 -0.087,-0.28635 -0.0704,-0.1643 -0.0777,-0.22045 -0.038,-0.29456 0.0372,-0.0695 0.037,-0.1139 -6.6e-4,-0.18435 -0.0398,-0.0743 -0.0365,-0.11284 0.0164,-0.19358 0.0363,-0.0554 0.0547,-0.13039 0.0408,-0.16658 -0.0488,-0.12706 0.024,-0.26044 0.19415,-0.35609 0.0938,-0.0527 0.19036,-0.13279 0.21449,-0.17788 0.0241,-0.0451 0.08,-0.082 0.12421,-0.082 0.0442,0 0.0924,-0.0381 0.10716,-0.0846 0.0148,-0.0465 0.0732,-0.0962 0.12986,-0.11042 0.0765,-0.0192 0.10305,-0.0546 0.10317,-0.13768 1.7e-4,-0.1231 0.14339,-0.387 0.21002,-0.387 0.0232,0 0.0814,-0.077 0.12935,-0.17104 0.083,-0.16262 0.25035,-0.2753 0.3548,-0.23884 0.0256,0.009 0.0919,-0.019 0.14746,-0.0621 0.11355,-0.0881 0.34337,-0.10391 0.41853,-0.0288 0.0379,0.0379 0.07,0.0237 0.13598,-0.0602 0.1815,-0.23074 0.46607,-0.18276 0.60651,0.10226 0.0383,0.0777 0.0715,0.11266 0.0738,0.0777 0.0218,-0.3291 0.19119,-0.57657 0.33421,-0.48818 0.0225,0.0139 0.0701,-0.0311 0.10574,-0.1001 0.0357,-0.069 0.10791,-0.13823 0.16056,-0.15394 0.0526,-0.0157 0.17703,-0.0682 0.27641,-0.11673 0.14164,-0.0691 0.2057,-0.0793 0.29634,-0.047 0.0844,0.0301 0.14874,0.0248 0.23835,-0.0195 0.0938,-0.0464 0.14078,-0.0494 0.19936,-0.0128 0.0422,0.0263 0.13259,0.0367 0.20096,0.023 0.15152,-0.0303 0.32149,0.1113 0.28219,0.23511 -0.038,0.11965 0.0924,0.14167 0.23116,0.0391 0.10034,-0.0742 0.16102,-0.086 0.34694,-0.0673 0.1826,0.0183 0.24178,0.007 0.31204,-0.0572 0.13704,-0.12604 0.3348,-0.14857 0.42182,-0.0481 0.0401,0.0463 0.13797,0.15434 0.21756,0.24014 l 0.14471,0.15599 0.12134,-0.12989 c 0.13655,-0.14619 0.21877,-0.16177 0.31989,-0.0606 0.0517,0.0517 0.0815,0.0571 0.11733,0.0212 0.0808,-0.0808 0.18789,-0.0541 0.2955,0.0738 0.0825,0.098 0.1343,0.12081 0.26492,0.11642 0.14,-0.005 0.17328,0.013 0.24159,0.12838 0.0436,0.0736 0.0875,0.17699 0.0977,0.22973 0.0101,0.0527 0.038,0.11538 0.0618,0.13921 0.0683,0.0683 0.0506,0.28684 -0.0304,0.37632 -0.0706,0.078 -0.0688,0.0856 0.0427,0.18157 0.12606,0.10843 0.20027,0.26354 0.20027,0.41857 0,0.0538 0.0301,0.12289 0.0669,0.15342 0.0422,0.035 0.0591,0.0956 0.0459,0.16394 -0.0128,0.066 0.006,0.13835 0.0476,0.18486 0.0568,0.0632 0.0595,0.0911 0.0157,0.16116 -0.0414,0.0662 -0.042,0.11493 -0.003,0.2231 0.0598,0.16534 -0.0109,0.35526 -0.15976,0.42947 -0.0508,0.0253 -0.17054,0.12663 -0.26617,0.22517 -0.15171,0.15633 -0.17306,0.20189 -0.16744,0.35741 0.004,0.098 -0.008,0.27651 -0.025,0.39661 -0.0433,0.30094 0.003,0.49776 0.15758,0.6742 0.13067,0.14882 0.13103,0.15056 0.0488,0.23276 -0.10481,0.10481 -0.49835,0.17209 -0.7175,0.12267 -0.22016,-0.0497 -0.2809,-0.13661 -0.20364,-0.2915 0.0326,-0.0652 0.0715,-0.2643 0.0866,-0.44232 l 0.0274,-0.32368 h -0.1324 c -0.17376,0 -0.20956,0.13218 -0.11384,0.42034 0.0389,0.11702 0.0591,0.23149 0.0449,0.2544 -0.0142,0.0229 -0.0917,0.054 -0.17242,0.0692 -0.17411,0.0327 -0.18368,0.0946 -0.0409,0.26438 0.13825,0.1643 0.1335,0.23626 -0.023,0.34768 -0.14234,0.10135 -0.49228,0.14149 -0.78135,0.0896 z m 0.54716,-0.25511 c 0.0126,-0.0204 -0.007,-0.0978 -0.0443,-0.17198 -0.045,-0.0902 -0.0665,-0.24437 -0.0651,-0.46571 l 0.002,-0.33092 -0.11779,0.009 c -0.20503,0.0161 -0.22473,0.05 -0.19449,0.33408 0.0193,0.18162 0.009,0.31419 -0.0339,0.43864 -0.0339,0.0981 -0.0514,0.18858 -0.0389,0.20108 0.038,0.038 0.46766,0.0254 0.49228,-0.0145 z m -0.39899,-0.0873 c 0,-0.0247 0.0388,-0.0449 0.0862,-0.0449 0.0733,0 0.0794,-0.0127 0.0404,-0.0855 -0.047,-0.0878 -0.0253,-0.16846 0.0453,-0.16846 0.0219,0 0.0398,0.0343 0.0398,0.0762 0,0.0419 0.0225,0.0987 0.0501,0.12629 0.0645,0.0645 0.0315,0.095 -0.13077,0.12061 -0.077,0.0122 -0.13099,0.002 -0.13099,-0.0242 z m 0.11404,-0.45294 c -0.0338,-0.0338 0.004,-0.0999 0.0578,-0.0999 0.0219,0 0.0398,0.0286 0.0398,0.0635 0,0.0655 -0.05,0.0841 -0.0976,0.0364 z m -1.42058,0.38332 c 0.0193,-0.0119 -0.0112,-0.0922 -0.0676,-0.17837 -0.0887,-0.13546 -0.10667,-0.22706 -0.13225,-0.6753 -0.0294,-0.51507 -0.0303,-0.51858 -0.13402,-0.51858 -0.09,0 -0.10079,0.0145 -0.0781,0.10476 0.0145,0.0576 0.0384,0.22013 0.0531,0.36114 0.0147,0.14102 0.0431,0.26645 0.063,0.27874 0.0688,0.0426 0.0384,0.18669 -0.0394,0.18669 -0.0512,0 -0.0991,0.0635 -0.1486,0.19713 -0.0402,0.10842 -0.0681,0.20086 -0.062,0.20542 0.13167,0.0992 0.41529,0.11914 0.54597,0.0384 z m -0.32033,-0.0551 c -0.0128,-0.0207 0.003,-0.059 0.0342,-0.0852 0.0432,-0.0359 0.0695,-0.033 0.10644,0.0114 0.0382,0.046 0.034,0.0649 -0.019,0.0852 -0.088,0.0338 -0.0941,0.0332 -0.12165,-0.0114 z m 0.004,-0.20235 c -0.0405,-0.0405 -0.0348,-0.0988 0.01,-0.0988 0.0208,0 0.0488,0.0286 0.0622,0.0635 0.0248,0.0645 -0.0203,0.0867 -0.0717,0.0353 z m -1.49568,0.0885 c 0.0563,-0.0216 0.0562,-0.0417 -8.9e-4,-0.1784 -0.0387,-0.0926 -0.0556,-0.21907 -0.0425,-0.3169 0.0191,-0.14211 0.009,-0.16884 -0.0815,-0.20991 -0.14934,-0.068 -0.19075,-0.003 -0.13593,0.21274 0.0253,0.0997 0.0565,0.17067 0.0694,0.15781 0.0129,-0.0129 0.0486,0.0367 0.0795,0.11009 0.0421,0.1 0.0441,0.14797 0.008,0.19121 -0.0516,0.0622 -0.008,0.0762 0.10367,0.0334 z m -0.23033,-0.0761 c 0.0265,-0.032 0.0355,-0.0914 0.0199,-0.13197 -0.0251,-0.0653 -0.0347,-0.0623 -0.0839,0.0264 -0.0306,0.0551 -0.0562,0.11451 -0.0571,0.13197 -0.002,0.0518 0.0691,0.0362 0.12105,-0.0264 z m 2.30519,-0.24306 c 0.10928,-0.33838 0.0992,-0.37614 -0.10086,-0.37614 h -0.17079 l 0.0283,0.22225 c 0.0297,0.2333 0.0812,0.37042 0.13901,0.37042 0.0189,0 0.0659,-0.0974 0.10434,-0.21653 z m 0.21148,0.12312 c 0.0229,-0.0875 0.005,-0.15423 -0.0305,-0.11473 -0.0431,0.0478 -0.0695,0.20814 -0.0342,0.20814 0.0221,0 0.0512,-0.042 0.0647,-0.0934 z m 0.22358,-0.0389 c -0.0146,-0.0728 -0.0265,-0.16801 -0.0265,-0.21166 0,-0.0564 -0.0306,-0.0794 -0.10584,-0.0794 -0.0658,0 -0.10583,0.024 -0.10583,0.0635 0,0.0349 0.0238,0.0587 0.0529,0.0529 0.0734,-0.0147 0.0952,0.22514 0.0245,0.26992 -0.0382,0.0242 -0.0171,0.0359 0.0654,0.0363 0.11382,6e-4 0.11999,-0.008 0.0953,-0.13165 z m 1.89882,0.0794 c -0.0107,-0.0291 -0.002,-0.0803 0.0193,-0.1137 0.033,-0.0519 0.049,-0.0522 0.10921,-0.002 0.0657,0.0545 0.0653,0.0624 -0.005,0.11369 -0.0706,0.0516 -0.0697,0.0551 0.0148,0.0551 0.0496,0 0.10019,-0.0161 0.11234,-0.0357 0.0419,-0.0679 -0.0273,-0.34528 -0.0861,-0.34528 -0.0319,0 -0.058,-0.0211 -0.058,-0.0469 0,-0.0258 0.0286,-0.0359 0.0635,-0.0225 0.0505,0.0194 0.0635,-0.0137 0.0635,-0.16134 0,-0.10214 0.0119,-0.21681 0.0265,-0.25483 0.022,-0.0574 0.006,-0.0645 -0.0952,-0.0419 -0.28398,0.0636 -0.26599,0.0295 -0.25702,0.48691 0.006,0.29809 0.0233,0.42104 0.0598,0.42122 0.0284,1.4e-4 0.0429,-0.0236 0.0322,-0.0527 z m 0.10672,-0.20108 c 0,-0.0233 0.0191,-0.0423 0.0423,-0.0423 0.0233,0 0.0423,0.019 0.0423,0.0423 0,0.0233 -0.019,0.0423 -0.0423,0.0423 -0.0233,0 -0.0423,-0.019 -0.0423,-0.0423 z m -6.62039,0.0318 c -0.0144,-0.0524 -0.0386,-0.2343 -0.0537,-0.40425 -0.0216,-0.2436 -0.0402,-0.30407 -0.088,-0.28575 -0.0333,0.0128 -0.0781,0.0233 -0.0994,0.0233 -0.0214,0 -0.0395,0.081 -0.0403,0.17991 -7.9e-4,0.099 -0.0373,0.25576 -0.0811,0.34845 -0.0438,0.0927 -0.0706,0.18319 -0.0596,0.20109 0.0111,0.0179 0.11646,0.0326 0.23422,0.0326 0.20159,0 0.21257,-0.006 0.18784,-0.0952 z m -0.19528,-0.0741 c 0,-0.0233 0.0297,-0.0423 0.066,-0.0423 0.0363,0 0.0542,0.0191 0.0398,0.0423 -0.0144,0.0233 -0.0441,0.0423 -0.066,0.0423 -0.0219,0 -0.0398,-0.0191 -0.0398,-0.0423 z m -0.0176,-0.19656 c -0.0354,-0.0923 0.0116,-0.13528 0.0616,-0.0562 0.0501,0.0792 0.0511,0.12577 0.003,0.12577 -0.0208,0 -0.0498,-0.0313 -0.0645,-0.0696 z m 5.97515,0.28922 c 0.0387,-0.0246 0.0314,-0.0507 -0.0285,-0.10195 -0.0709,-0.0607 -0.0834,-0.0613 -0.10507,-0.005 -0.0439,0.11432 0.0294,0.17291 0.13353,0.10677 z m -2.83826,-0.10324 c 0.0216,-0.0291 0.0317,-0.16203 0.0225,-0.2954 l -0.0168,-0.24248 -0.10064,0.0731 c -0.11919,0.0866 -0.12532,0.12067 -0.0375,0.20845 0.0701,0.0701 0.0685,0.22933 -0.002,0.22573 -0.0233,-0.001 -0.0424,-0.0337 -0.0425,-0.0723 -1.8e-4,-0.0692 -0.10511,-0.13839 -0.10623,-0.07 -3.2e-4,0.0194 -0.0121,0.0781 -0.0261,0.13053 -0.0229,0.0855 -0.0103,0.0953 0.1224,0.0953 0.0814,0 0.1656,-0.0238 0.18721,-0.0529 z m -2.11842,-0.3175 c -0.0144,-0.0873 -0.0264,-0.23971 -0.0267,-0.33867 -3.4e-4,-0.13149 -0.0175,-0.17991 -0.064,-0.17991 -0.048,0 -0.0635,0.0517 -0.0635,0.21166 0,0.12207 0.0192,0.21167 0.0453,0.21167 0.0249,0 0.0392,0.0429 0.0318,0.0953 -0.009,0.0636 -0.0382,0.0911 -0.0876,0.0828 -0.0407,-0.007 -0.0741,0.007 -0.0741,0.0318 0,0.0243 0.0596,0.0442 0.13254,0.0442 0.1296,0 0.13196,-0.004 0.1063,-0.15875 z m 4.97231,-0.003 c 0.0193,-0.0943 0.0116,-0.13441 -0.0257,-0.13441 -0.0506,0 -0.10359,0.1249 -0.10484,0.24694 -0.001,0.11001 0.1035,0.0198 0.13057,-0.11253 z m -0.84138,-0.0762 c 0.11111,0.0405 0.16186,0.0282 0.4139,-0.10041 0.045,-0.023 0.0595,-0.0842 0.0496,-0.21041 -0.01,-0.12247 0.008,-0.20245 0.0571,-0.25636 0.039,-0.0431 0.0598,-0.0964 0.0462,-0.11838 -0.0136,-0.022 0.0128,-0.0878 0.0587,-0.14616 0.0731,-0.0929 0.0757,-0.11262 0.0206,-0.15832 -0.0346,-0.0287 -0.0629,-0.11468 -0.0629,-0.19104 0,-0.11197 -0.0225,-0.14784 -0.11642,-0.18534 -0.064,-0.0256 -0.17574,-0.0828 -0.24826,-0.12708 -0.25007,-0.15283 -1.03353,-0.11823 -1.19445,0.0528 -0.12565,0.13351 -0.20944,0.19721 -0.25942,0.19721 -0.0564,0 -0.0578,-0.15586 -0.002,-0.1905 0.0233,-0.0144 0.0423,-0.0626 0.0423,-0.10724 0,-0.13678 0.38621,-0.29651 0.762,-0.31516 0.10478,-0.005 0.22189,-0.0231 0.26026,-0.0398 0.0456,-0.0198 0.0993,0.001 0.15506,0.0612 0.10225,0.10975 0.22329,0.0854 0.32161,-0.0646 0.0386,-0.0589 0.13931,-0.12195 0.23662,-0.14815 0.12511,-0.0337 0.16945,-0.0675 0.16945,-0.12924 0,-0.046 0.0215,-0.11809 0.0479,-0.16025 0.0395,-0.0632 0.0271,-0.0974 -0.0709,-0.19545 -0.0986,-0.0986 -0.13201,-0.11057 -0.19621,-0.0705 -0.0472,0.0295 -0.14589,0.0374 -0.25299,0.0203 -0.14344,-0.0229 -0.18622,-0.0135 -0.23366,0.0513 -0.0549,0.075 -0.19132,0.1013 -0.52886,0.10182 -0.1066,1.6e-4 -0.24686,0.0949 -0.24686,0.16678 0,0.018 0.0381,0.0672 0.0847,0.10938 0.10984,0.0994 0.10814,0.21967 -0.004,0.25514 -0.0612,0.0194 -0.12032,-0.002 -0.19274,-0.0701 -0.0688,-0.0646 -0.16522,-0.10176 -0.28215,-0.1087 -0.0977,-0.006 -0.19673,-0.012 -0.22001,-0.0137 -0.0233,-0.002 -0.10901,0.0128 -0.1905,0.0323 -0.11439,0.0274 -0.17117,0.0771 -0.24907,0.21822 -0.0978,0.17714 -0.10594,0.18193 -0.2654,0.15643 -0.14794,-0.0237 -0.16854,-0.0156 -0.20482,0.0798 -0.0502,0.13213 -0.0144,0.23383 0.0823,0.23383 0.10941,0 0.22263,0.14738 0.20669,0.26904 -0.0173,0.13224 0.21068,0.5353 0.30281,0.5353 0.0365,0 0.10486,-0.027 0.15191,-0.0599 0.0496,-0.0347 0.16476,-0.0558 0.27401,-0.0501 0.1528,0.008 0.1893,0.0253 0.19295,0.0917 0.008,0.1402 0.0666,0.23497 0.1706,0.27451 0.0687,0.0261 0.10006,0.0715 0.10006,0.14492 0,0.0921 0.0191,0.10707 0.13758,0.10823 0.0757,7.4e-4 0.17346,0.0285 0.21731,0.0617 0.0662,0.0501 0.10221,0.0512 0.21167,0.007 0.0937,-0.0381 0.16536,-0.0414 0.24721,-0.0116 z m -0.30577,-0.1877 c 0,-0.0247 0.0191,-0.0331 0.0423,-0.0187 0.0233,0.0144 0.0423,0.0346 0.0423,0.0448 0,0.0103 -0.019,0.0187 -0.0423,0.0187 -0.0233,0 -0.0423,-0.0202 -0.0423,-0.0448 z m -0.33867,-0.0801 c 0,-0.0454 -0.031,-0.0999 -0.0689,-0.12114 -0.053,-0.0296 -0.0565,-0.0462 -0.0154,-0.0717 0.0334,-0.0207 0.0799,0.002 0.12359,0.0597 0.0806,0.10681 0.17794,0.0876 0.2703,-0.0534 0.10022,-0.15296 0.26161,-0.1355 0.3701,0.04 0.0528,0.0854 0.077,0.16608 0.0559,0.18643 -0.0204,0.0197 -0.13963,0.0153 -0.26493,-0.01 -0.16885,-0.0339 -0.24814,-0.033 -0.30634,0.003 -0.11352,0.0709 -0.16435,0.0605 -0.16435,-0.0335 z m 0.54916,-0.15169 c -0.0661,-0.0796 -0.11039,-0.0787 -0.14176,0.003 -0.0163,0.0424 0.008,0.0775 0.0696,0.10068 0.10995,0.0414 0.14765,-0.0128 0.0722,-0.10373 z m 0.3334,0.12034 c -0.004,-0.0188 -0.008,-0.0628 -0.0106,-0.0978 -0.002,-0.0349 -0.047,-0.0696 -0.0994,-0.077 -0.10281,-0.0146 -0.1334,-0.0923 -0.0363,-0.0923 0.0324,0 0.0711,-0.0484 0.0859,-0.10757 0.0148,-0.0592 0.0443,-0.0968 0.0656,-0.0837 0.0212,0.0131 0.0758,-0.0161 0.12129,-0.0649 0.0533,-0.0572 0.0928,-0.0725 0.11106,-0.043 0.0275,0.0445 -0.0837,0.18797 -0.15396,0.19865 -0.0191,0.003 -0.0481,0.008 -0.0644,0.0106 -0.0163,0.003 -0.007,0.0281 0.0212,0.0561 0.0615,0.0615 0.0673,0.27266 0.008,0.30903 -0.0233,0.0144 -0.0452,0.0108 -0.0488,-0.008 z m -0.008,-0.54931 c -0.0155,-0.0155 -0.0282,-0.0479 -0.0282,-0.072 0,-0.0265 0.0197,-0.024 0.0501,0.006 0.0275,0.0275 0.0403,0.0599 0.0282,0.072 -0.012,0.012 -0.0346,0.009 -0.0501,-0.006 z m -0.59992,-0.0991 c -0.0378,-0.0612 0.0964,-0.18175 0.17062,-0.15328 0.10095,0.0387 0.0743,0.12074 -0.0287,0.0881 -0.0724,-0.023 -0.0857,-0.0149 -0.0648,0.0395 0.0285,0.0743 -0.0342,0.0952 -0.0771,0.0257 z m -0.46508,-0.0846 c -0.0144,-0.0233 -0.007,-0.0423 0.0162,-0.0423 0.0233,0 0.0541,0.019 0.0685,0.0423 0.0144,0.0233 0.007,0.0423 -0.0162,0.0423 -0.0233,0 -0.0541,-0.0191 -0.0685,-0.0423 z m 0.17524,0.013 c -0.0477,-0.0477 -0.029,-0.0976 0.0364,-0.0976 0.0349,0 0.0635,0.0179 0.0635,0.0398 0,0.0534 -0.0661,0.0916 -0.0999,0.0578 z m 0.84782,0.001 c -0.0487,-0.0487 -0.0308,-0.0988 0.0353,-0.0988 0.0349,0 0.0635,0.0286 0.0635,0.0635 0,0.0661 -0.0501,0.084 -0.0988,0.0353 z m -0.19756,-0.0988 c -0.0513,-0.0332 -0.0453,-0.0412 0.0317,-0.0417 0.0524,-3.6e-4 0.0953,0.0184 0.0953,0.0417 0,0.053 -0.0449,0.053 -0.127,0 z m -0.762,-0.0847 c 0,-0.0233 0.0392,-0.0423 0.0872,-0.0423 0.0479,0 0.0754,0.0191 0.061,0.0423 -0.0144,0.0233 -0.0536,0.0423 -0.0872,0.0423 -0.0336,0 -0.061,-0.019 -0.061,-0.0423 z m 0.55845,-0.003 c 0.008,-0.025 0.0333,-0.0455 0.0554,-0.0455 0.0221,0 0.047,0.0205 0.0554,0.0455 0.008,0.025 -0.0166,0.0455 -0.0554,0.0455 -0.0388,0 -0.0637,-0.0205 -0.0554,-0.0455 z m -0.32735,-0.0843 c -0.0153,-0.0248 -0.0177,-0.0553 -0.005,-0.0677 0.0303,-0.0303 0.11289,0.0231 0.11289,0.0731 0,0.0541 -0.0731,0.0505 -0.10757,-0.005 z m -1.28943,-0.11487 c -0.17766,-0.0277 -0.20106,-0.094 -0.0332,-0.094 0.0842,0 0.16277,-0.0238 0.17458,-0.0529 0.0149,-0.0368 0.0321,-0.0391 0.0564,-0.007 0.0192,0.025 0.071,0.0588 0.11512,0.0751 0.1662,0.0615 -0.0597,0.11876 -0.31298,0.0793 z m 1.143,-0.009 c 0,-0.0233 0.0191,-0.0423 0.0423,-0.0423 0.0233,0 0.0423,0.019 0.0423,0.0423 0,0.0233 -0.019,0.0423 -0.0423,0.0423 -0.0233,0 -0.0423,-0.0191 -0.0423,-0.0423 z m -0.88053,-0.1778 c -0.0721,-0.0721 -0.0635,-0.16308 0.0127,-0.13384 0.0622,0.0239 0.0801,-0.0182 0.0669,-0.15749 -0.005,-0.0514 0.0236,-0.0626 0.12212,-0.0481 0.13765,0.0202 0.16946,0.0808 0.0637,0.12141 -0.0409,0.0157 -0.0554,0.0542 -0.0395,0.10451 0.0174,0.0549 0.005,0.0797 -0.0411,0.0797 -0.0365,0 -0.0663,0.0191 -0.0663,0.0423 0,0.0574 -0.0567,0.0533 -0.11853,-0.008 z m 0.37253,-0.29037 c 0,-0.0246 0.0191,-0.033 0.0423,-0.0187 0.0233,0.0144 0.0423,0.0346 0.0423,0.0448 0,0.0103 -0.0191,0.0187 -0.0423,0.0187 -0.0233,0 -0.0423,-0.0202 -0.0423,-0.0448 z m 1.35467,-0.11863 c 0,-0.02 -0.0454,-0.0278 -0.10087,-0.0172 -0.0555,0.0106 -0.11376,-0.002 -0.1295,-0.027 -0.0165,-0.0267 0.004,-0.0478 0.048,-0.0498 0.0491,-0.002 0.0272,-0.025 -0.061,-0.0636 -0.0757,-0.0331 -0.13758,-0.0812 -0.13758,-0.10691 0,-0.029 0.0281,-0.0341 0.0741,-0.0134 0.0408,0.0183 0.12647,0.0326 0.1905,0.0318 0.064,-8.7e-4 0.11642,0.0147 0.11642,0.0347 0,0.0199 0.0381,0.0363 0.0847,0.0363 0.0943,0 0.11177,0.083 0.0339,0.16087 -0.0593,0.0593 -0.11853,0.0665 -0.11853,0.0143 z m 0.1909,-0.25038 -0.1266,-0.0662 0.12017,-0.0401 c 0.0915,-0.0305 0.13551,-0.0247 0.18453,0.0243 0.0354,0.0354 0.0515,0.0852 0.0357,0.11074 -0.0353,0.0571 -0.0546,0.0545 -0.21377,-0.0288 z m -3.40966,2.06662 c 0.0393,-0.0249 0.0819,-0.0228 0.11603,0.006 0.031,0.0257 0.11263,0.0325 0.19192,0.0159 0.0759,-0.0159 0.21992,-0.0328 0.32007,-0.0376 0.17859,-0.009 0.25326,-0.0636 0.2682,-0.19725 0.0102,-0.0916 0.0191,-0.13385 0.056,-0.26629 0.0237,-0.0852 0.0138,-0.13921 -0.0356,-0.19383 -0.0377,-0.0416 -0.0685,-0.11708 -0.0685,-0.16763 0,-0.0686 -0.0256,-0.0919 -0.10065,-0.0919 -0.0554,0 -0.12436,-0.0286 -0.15335,-0.0635 -0.029,-0.0349 -0.0932,-0.0638 -0.14277,-0.0641 -0.12533,-9e-4 -0.18343,-0.0457 -0.23495,-0.18121 -0.0578,-0.15203 -0.15485,-0.18555 -0.29592,-0.10222 -0.15858,0.0937 -0.55403,0.14408 -0.55403,0.0706 0,-0.0952 0.13564,-0.20982 0.24998,-0.21122 0.0604,-7.4e-4 0.14388,-0.0272 0.18546,-0.0587 0.0734,-0.0557 0.16107,-0.0489 0.45356,0.035 l 0.10584,0.0304 -0.10556,-0.0847 c -0.10123,-0.0812 -0.1021,-0.0858 -0.0212,-0.11232 0.0464,-0.0152 0.12734,-0.0482 0.17984,-0.0734 0.0946,-0.0454 0.0947,-0.0464 0.0123,-0.12316 -0.0457,-0.0426 -0.10294,-0.0774 -0.12719,-0.0774 -0.0243,0 -0.0441,-0.0286 -0.0441,-0.0635 0,-0.0746 0.0669,-0.0842 0.1092,-0.0157 0.0202,0.0327 0.0417,0.026 0.0681,-0.0212 0.0212,-0.0379 0.0757,-0.0689 0.12114,-0.0689 0.10225,0 0.10493,0.0361 0.008,0.11392 -0.0664,0.0536 -0.0573,0.0582 0.0878,0.0446 0.1426,-0.0134 0.16937,-7e-4 0.22488,0.10665 0.0513,0.0991 0.0744,0.11244 0.12388,0.0714 0.0335,-0.0278 0.0609,-0.0748 0.0609,-0.10439 0,-0.0296 0.0987,-0.10549 0.21932,-0.16856 0.19493,-0.10193 0.23666,-0.10948 0.37532,-0.0679 0.21804,0.0653 0.2854,0.0597 0.18603,-0.0154 -0.0452,-0.0342 -0.14296,-0.0628 -0.21726,-0.0635 -0.0743,-7.4e-4 -0.14686,-0.0204 -0.16125,-0.0437 -0.0146,-0.0237 0.0179,-0.0423 0.0737,-0.0423 0.0549,0 0.12191,-0.0221 0.14887,-0.049 0.0371,-0.0371 0.0648,-0.0359 0.1143,0.005 0.0359,0.0298 0.0677,0.0423 0.0706,0.0278 0.003,-0.0145 0.009,-0.0502 0.0125,-0.0793 0.0137,-0.10026 0.2362,0.01 0.2362,0.11666 0,0.0294 -0.04,0.0638 -0.0889,0.0766 -0.049,0.0128 -0.0764,0.0436 -0.061,0.0684 0.0505,0.0817 0.12768,0.0455 0.19534,-0.0918 0.0648,-0.1315 0.0635,-0.13766 -0.0484,-0.23187 -0.0633,-0.0532 -0.15089,-0.0968 -0.19473,-0.0968 -0.0438,0 -0.12094,-0.0289 -0.17132,-0.0642 -0.0932,-0.0653 -0.18994,-0.0457 -0.54108,0.10945 -0.0466,0.0206 -0.12051,0.0331 -0.16432,0.0278 -0.0526,-0.006 -0.10292,0.0368 -0.14817,0.12701 -0.0377,0.0751 -0.10184,0.13705 -0.14259,0.13758 -0.0836,10e-4 -0.096,-0.0906 -0.0293,-0.2153 0.0364,-0.068 0.0265,-0.0989 -0.0529,-0.16514 -0.0537,-0.0448 -0.13739,-0.0821 -0.1859,-0.0829 -0.0485,-7.7e-4 -0.10215,-0.0154 -0.1192,-0.0324 -0.017,-0.017 -0.14067,-0.0356 -0.2747,-0.0412 -0.23373,-0.01 -0.25043,-0.003 -0.40798,0.158 l -0.16428,0.16824 h 0.16984 c 0.19528,0 0.2642,0.0456 0.39119,0.25899 0.12429,0.20884 0.12074,0.33367 -0.009,0.33367 -0.11186,0 -0.17865,-0.0629 -0.20221,-0.1905 -0.0114,-0.0616 -0.0717,-0.0985 -0.22119,-0.13552 -0.11306,-0.028 -0.2415,-0.0834 -0.28543,-0.12313 -0.0659,-0.0596 -0.0987,-0.0637 -0.18752,-0.0232 -0.0592,0.027 -0.1531,0.0491 -0.20864,0.0491 -0.11536,0 -0.18315,0.14072 -0.11015,0.22867 0.0272,0.0328 0.0354,0.13164 0.0201,0.24302 -0.0197,0.14362 -0.01,0.20103 0.0423,0.24422 0.093,0.0772 0.0856,0.24066 -0.014,0.31044 -0.0544,0.0381 -0.0808,0.10375 -0.0782,0.19487 0.004,0.15187 -0.0309,0.20237 -0.15677,0.22507 -0.12165,0.0219 -0.12795,0.14625 -0.0113,0.22269 0.0847,0.0555 0.13643,0.0581 0.33416,0.0166 0.30921,-0.0649 0.38066,-0.0348 0.36788,0.15496 -0.006,0.0818 0.0114,0.17024 0.0376,0.19645 0.0262,0.0262 0.0368,0.0761 0.0234,0.11081 -0.02,0.0522 0.005,0.0582 0.14588,0.0344 0.1336,-0.0226 0.17556,-0.0145 0.19554,0.0375 0.0282,0.0736 0.14303,0.086 0.23833,0.0257 z m 0.0643,-0.21441 c -0.016,-0.0259 -0.0163,-0.0597 -7.3e-4,-0.0753 0.0442,-0.0442 0.29229,-0.0469 0.34493,-0.004 0.026,0.0213 0.0867,0.0337 0.13492,0.0276 0.0482,-0.006 0.0936,0.008 0.10089,0.0312 0.0189,0.0602 -0.54317,0.0798 -0.58001,0.0202 z m -0.42274,-0.0837 c 0.0144,-0.0233 0.0441,-0.0423 0.066,-0.0423 0.0219,0 0.0398,0.019 0.0398,0.0423 0,0.0233 -0.0297,0.0423 -0.066,0.0423 -0.0363,0 -0.0542,-0.0191 -0.0398,-0.0423 z m 0.16933,0 c -0.0144,-0.0233 0.004,-0.0423 0.0398,-0.0423 0.0363,0 0.066,0.019 0.066,0.0423 0,0.0233 -0.0179,0.0423 -0.0398,0.0423 -0.0219,0 -0.0516,-0.0191 -0.066,-0.0423 z m 0.73025,-0.0715 c -0.0407,-0.0106 -0.0741,-0.0561 -0.0741,-0.10093 0,-0.0448 -0.019,-0.0816 -0.0423,-0.0816 -0.0233,0 -0.0423,-0.0191 -0.0423,-0.0423 0,-0.0233 0.0217,-0.0423 0.0482,-0.0423 0.0265,0 0.0726,-0.0333 0.10238,-0.074 0.072,-0.0984 0.1357,-0.0298 0.07,0.0754 -0.0717,0.11485 -0.0644,0.15469 0.0333,0.18025 0.0466,0.0122 0.0847,0.043 0.0847,0.0684 0,0.0472 -0.0476,0.0517 -0.17992,0.0171 z m -0.43391,-0.0978 c 0.0144,-0.0233 0.0441,-0.0423 0.066,-0.0423 0.0219,0 0.0398,0.019 0.0398,0.0423 0,0.0233 -0.0297,0.0423 -0.066,0.0423 -0.0363,0 -0.0542,-0.0191 -0.0398,-0.0423 z m -0.1188,-0.32341 c -0.0338,-0.0338 0.004,-0.0999 0.0578,-0.0999 0.0219,0 0.0398,0.0286 0.0398,0.0635 0,0.0655 -0.0499,0.0841 -0.0976,0.0364 z m -0.1048,-0.23346 c 0.022,-0.0659 0.11668,-0.0775 0.12,-0.0146 10e-4,0.0233 -0.0295,0.0489 -0.0684,0.057 -0.0441,0.009 -0.0635,-0.007 -0.0516,-0.0423 z m -0.63365,-0.49006 c -0.0561,-0.0196 -0.0722,-0.14732 -0.0246,-0.19494 0.0299,-0.0299 0.18335,0.0899 0.18335,0.14323 0,0.0432 -0.0947,0.074 -0.15875,0.0517 z m 0.20735,-0.10673 c -0.0725,-0.0725 -0.059,-0.11634 0.0361,-0.11634 0.10005,0 0.11381,-0.10676 0.0185,-0.14334 -0.0364,-0.014 -0.0534,-0.046 -0.0379,-0.0712 0.0183,-0.0295 0.0574,-0.0146 0.11017,0.042 0.045,0.0483 0.1192,0.0878 0.16486,0.0878 0.048,0 0.083,0.0287 0.083,0.068 0,0.0406 -0.0237,0.0589 -0.0587,0.0455 -0.0391,-0.015 -0.0525,0.001 -0.0403,0.0484 0.0138,0.0531 -0.0124,0.073 -0.10435,0.0793 -0.0675,0.005 -0.14467,-0.0135 -0.1714,-0.0402 z m 0.2054,-0.30684 c 0,-0.0349 0.019,-0.0635 0.0423,-0.0635 0.0233,0 0.0423,0.0286 0.0423,0.0635 0,0.0349 -0.0191,0.0635 -0.0423,0.0635 -0.0233,0 -0.0423,-0.0286 -0.0423,-0.0635 z m -0.48234,-0.0459 c -0.0158,-0.0412 -0.006,-0.0606 0.0246,-0.0503 0.0633,0.0211 0.0981,0.11731 0.0425,0.11731 -0.0227,0 -0.0529,-0.0302 -0.0671,-0.067 z m 1.12592,-0.13843 c -0.0439,-0.0278 -0.0417,-0.0458 0.0106,-0.0892 0.0556,-0.0462 0.0655,-0.0408 0.0655,0.0355 0,0.10124 -5.5e-4,0.10163 -0.0761,0.0537 z m 0.13369,-0.15446 c -0.0354,-0.0924 0.0196,-0.27507 0.0828,-0.27507 0.0353,0 0.0534,0.0589 0.0521,0.16919 -0.002,0.17092 -0.085,0.23599 -0.13496,0.10588 z m -0.41744,-0.14807 c -0.0158,-0.0256 0.0419,-0.0423 0.14567,-0.0423 0.0945,0 0.17183,0.019 0.17183,0.0423 0,0.0233 -0.0656,0.0423 -0.14567,0.0423 -0.0801,0 -0.15744,-0.019 -0.17183,-0.0423 z m 1.397,0 c -0.0156,-0.0252 0.0348,-0.0423 0.1245,-0.0423 0.0829,0 0.15067,0.019 0.15067,0.0423 0,0.0233 -0.056,0.0423 -0.1245,0.0423 -0.0685,0 -0.13628,-0.019 -0.15067,-0.0423 z m 2.99271,2.22216 c 0.0615,-0.0707 0.11861,-0.0978 0.17108,-0.0812 0.11567,0.0367 0.20171,-0.0571 0.20171,-0.22001 0,-0.0935 0.0203,-0.14298 0.0586,-0.14298 0.0322,0 0.12655,-0.0752 0.20962,-0.16719 0.0831,-0.0919 0.20912,-0.19722 0.28009,-0.23392 0.15045,-0.0778 0.17012,-0.20894 0.0417,-0.27769 -0.0641,-0.0343 -0.0756,-0.061 -0.0431,-0.10019 0.0648,-0.0781 0.0246,-0.43981 -0.0591,-0.53237 -0.0528,-0.0583 -0.0609,-0.0994 -0.0304,-0.15387 0.0338,-0.0604 0.0166,-0.0878 -0.0914,-0.14624 -0.11862,-0.0641 -0.14605,-0.0653 -0.25329,-0.0103 -0.10655,0.0546 -0.12866,0.054 -0.19384,-0.005 -0.0967,-0.0876 -0.20069,-0.0845 -0.25294,0.008 -0.0353,0.062 -0.0559,0.0656 -0.12714,0.022 -0.0915,-0.056 -0.14906,-0.0128 -0.15136,0.11353 -6.2e-4,0.0338 -0.0487,0.0727 -0.10696,0.0864 -0.0642,0.0151 -0.11086,0.0595 -0.11864,0.11299 -0.0107,0.0737 0.005,0.0847 0.0952,0.0674 0.12394,-0.0237 0.31981,0.087 0.31981,0.18067 0,0.0695 -0.10781,0.0855 -0.14718,0.0218 -0.0155,-0.0251 -0.0611,-0.0261 -0.11892,-0.002 -0.0516,0.021 -0.20297,0.0502 -0.33649,0.0649 -0.13351,0.0146 -0.2538,0.0445 -0.26731,0.0663 -0.0424,0.0686 0.0256,0.20832 0.10133,0.20832 0.13634,0 0.26687,0.12773 0.25418,0.24872 -0.007,0.0622 0.0199,0.15845 0.0588,0.21389 0.0705,0.10073 0.0488,0.21571 -0.0527,0.27844 -0.0277,0.0171 -0.0265,0.0555 0.004,0.1117 0.0429,0.0801 0.0508,0.0811 0.12343,0.0154 0.0427,-0.0386 0.14804,-0.0758 0.23413,-0.0827 0.0861,-0.007 0.16933,-0.0331 0.18498,-0.0584 0.022,-0.0356 0.21327,-0.0436 0.29178,-0.0122 0.007,0.003 -0.008,0.0429 -0.0332,0.0895 -0.0256,0.0479 -0.0886,0.0847 -0.14513,0.0847 -0.0549,0 -0.11078,0.0286 -0.12418,0.0635 -0.0289,0.0754 -0.13992,0.0847 -0.16358,0.0137 -0.0107,-0.0321 -0.0383,-0.0364 -0.0776,-0.0119 -0.0336,0.0209 -0.10204,0.0326 -0.15221,0.0262 -0.0502,-0.006 -0.10367,0.008 -0.11891,0.0331 -0.0152,0.0247 -0.0647,0.0448 -0.10988,0.0448 -0.0452,0 -0.0822,0.017 -0.0822,0.0378 0,0.0709 0.1396,0.0916 0.28759,0.0428 0.12546,-0.0414 0.15346,-0.0384 0.18615,0.02 0.0551,0.0985 0.14778,0.0849 0.25414,-0.0374 z m 0.0531,-0.52405 c -0.009,-0.009 0.0234,-0.0724 0.0722,-0.14085 0.0679,-0.0954 0.0998,-0.11256 0.13633,-0.0736 0.0355,0.0379 0.0342,0.0559 -0.005,0.0703 -0.0291,0.0107 -0.0529,0.0369 -0.0529,0.0582 0,0.0585 0.11708,0.0466 0.13934,-0.0141 0.0147,-0.0402 0.032,-0.0411 0.0716,-0.004 0.0409,0.0384 0.0351,0.0581 -0.0271,0.0914 -0.0746,0.0399 -0.29825,0.0483 -0.33422,0.0126 z m 0.42555,-0.13211 c -0.0144,-0.0233 0.004,-0.0423 0.0398,-0.0423 0.0363,0 0.066,0.019 0.066,0.0423 0,0.0233 -0.0179,0.0423 -0.0398,0.0423 -0.0219,0 -0.0516,-0.0191 -0.066,-0.0423 z m -0.0635,-0.16853 c 0,-0.0879 0.1677,-0.15997 0.2516,-0.10812 0.0831,0.0514 0.0512,0.16122 -0.0399,0.13739 -0.0465,-0.0122 -0.0953,-0.005 -0.10833,0.0162 -0.042,0.0679 -0.10338,0.0409 -0.10338,-0.0455 z m -0.55033,-0.0431 c 0,-0.0233 0.0191,-0.0423 0.0423,-0.0423 0.0233,0 0.0423,0.019 0.0423,0.0423 0,0.0233 -0.019,0.0423 -0.0423,0.0423 -0.0233,0 -0.0423,-0.0191 -0.0423,-0.0423 z m 0.29633,-0.0423 c 0,-0.0233 0.0191,-0.0423 0.0423,-0.0423 0.0233,0 0.0423,0.0191 0.0423,0.0423 0,0.0233 -0.019,0.0423 -0.0423,0.0423 -0.0233,0 -0.0423,-0.019 -0.0423,-0.0423 z m 0.43036,-0.17189 c 0.008,-0.0532 0.0396,-0.10502 0.0706,-0.11526 0.0384,-0.0127 0.0519,0.0124 0.0423,0.078 -0.008,0.0532 -0.0396,0.10503 -0.0706,0.11527 -0.0384,0.0126 -0.0519,-0.0124 -0.0423,-0.078 z m -0.80077,-0.0279 c -0.0291,-0.0104 -0.0529,-0.0459 -0.0529,-0.0789 0,-0.0731 -0.0504,-0.0773 -0.11783,-0.01 -0.0276,0.0276 -0.0634,0.0368 -0.0797,0.0205 -0.0412,-0.0412 0.0519,-0.126 0.15573,-0.14185 0.0608,-0.009 0.0989,0.0198 0.12876,0.0984 0.0473,0.1243 0.0427,0.13912 -0.034,0.11171 z m 0.60548,-0.2199 c -0.0136,-0.0221 -0.007,-0.0513 0.0153,-0.0649 0.022,-0.0136 0.0512,-0.007 0.0649,0.0153 0.0136,0.022 0.007,0.0512 -0.0153,0.0649 -0.0221,0.0136 -0.0513,0.007 -0.0649,-0.0153 z m 0.27293,-0.0248 c 0,-0.0349 0.019,-0.0635 0.0423,-0.0635 0.0233,0 0.0423,0.0286 0.0423,0.0635 0,0.0349 -0.0191,0.0635 -0.0423,0.0635 -0.0233,0 -0.0423,-0.0286 -0.0423,-0.0635 z m -0.40216,-0.40217 c -0.0144,-0.0233 -0.006,-0.0423 0.0187,-0.0423 0.0247,0 0.0448,0.0191 0.0448,0.0423 0,0.0233 -0.008,0.0423 -0.0187,0.0423 -0.0103,0 -0.0304,-0.019 -0.0448,-0.0423 z m -6.57892,1.60135 c 0.0308,-0.0576 0.0692,-0.0733 0.13095,-0.0537 0.11386,0.0361 0.16,-0.0402 0.16082,-0.2661 5.2e-4,-0.14376 0.0215,-0.19257 0.10648,-0.24828 0.0582,-0.0381 0.10583,-0.10269 0.10583,-0.14344 0,-0.0407 0.0367,-0.12071 0.0815,-0.17769 0.0553,-0.0703 0.0691,-0.12312 0.043,-0.16445 -0.0212,-0.0335 -0.0388,-0.12813 -0.0392,-0.21033 -5.6e-4,-0.12779 -0.0195,-0.15661 -0.13097,-0.19866 -0.0967,-0.0365 -0.15711,-0.037 -0.23399,-0.002 -0.0759,0.0346 -0.11623,0.0346 -0.15058,3e-4 -0.0638,-0.0639 0.0358,-0.16039 0.20354,-0.19724 0.0865,-0.019 0.1717,-0.0897 0.26131,-0.21683 0.0826,-0.11718 0.16536,-0.18863 0.2185,-0.18863 0.092,0 0.11756,-0.0669 0.0359,-0.0942 -0.0324,-0.0108 -0.0141,-0.067 0.0528,-0.16228 0.0563,-0.0802 0.10676,-0.15321 0.1121,-0.16235 0.005,-0.009 0.0387,0.007 0.0742,0.0369 0.0531,0.0441 0.0645,0.0419 0.0645,-0.0123 0,-0.0362 0.0381,-0.0779 0.0847,-0.0927 0.0466,-0.0148 0.0847,-0.0591 0.0847,-0.0985 0,-0.0394 0.0412,-0.0974 0.0916,-0.12881 0.0818,-0.0511 0.0998,-0.0465 0.16839,0.0427 0.0423,0.0549 0.0773,0.12236 0.0778,0.1498 0.001,0.075 -0.1211,0.18218 -0.18171,0.15893 -0.0319,-0.0123 -0.0532,0.0139 -0.0532,0.0653 0,0.0472 0.005,0.0857 0.0107,0.0857 0.006,0 0.10182,-0.081 0.21321,-0.17992 0.18326,-0.16279 0.19649,-0.18658 0.139,-0.24996 -0.0349,-0.0385 -0.0978,-0.1195 -0.1396,-0.17992 -0.10659,-0.15397 -0.26278,-0.14627 -0.34727,0.0171 -0.0746,0.14419 -0.0689,0.14266 -0.2945,0.08 -0.14926,-0.0414 -0.17508,-0.0371 -0.23725,0.0397 -0.0433,0.0535 -0.1321,0.0913 -0.23432,0.0996 -0.12582,0.0103 -0.1679,0.0334 -0.17874,0.0982 -0.008,0.0466 -0.071,0.13273 -0.14046,0.19147 -0.10139,0.0858 -0.12675,0.14129 -0.12869,0.2818 -0.001,0.0963 0.0105,0.19584 0.0262,0.22129 0.0183,0.0296 -0.0176,0.0463 -0.0994,0.0463 -0.0817,0 -0.14333,0.0286 -0.17033,0.0791 -0.0233,0.0435 -0.1019,0.091 -0.17471,0.10555 -0.0788,0.0158 -0.14072,0.0583 -0.15297,0.10516 -0.0113,0.0433 -0.0872,0.11045 -0.16862,0.14928 -0.13019,0.0621 -0.14492,0.0849 -0.1221,0.18876 0.0192,0.0875 0.004,0.13839 -0.0603,0.19622 -0.10184,0.0922 -0.11116,0.20327 -0.0232,0.27629 0.0347,0.0288 0.0628,0.11209 0.0623,0.1851 -0.002,0.28386 0.0257,0.36292 0.16946,0.49129 0.10908,0.0974 0.17425,0.12523 0.254,0.10854 0.059,-0.0123 0.1332,-0.006 0.16488,0.0146 0.0813,0.0523 0.21242,0.009 0.26381,-0.0869 z m -0.40608,-0.084 c -0.0864,-0.0506 -0.14636,-0.11946 -0.14752,-0.16932 -3.6e-4,-0.0153 0.10473,-0.061 0.23353,-0.10147 0.23618,-0.0743 0.37503,-0.17291 0.17153,-0.12183 -0.1097,0.0275 -0.15384,-0.0339 -0.0642,-0.0893 0.0249,-0.0154 0.035,-0.0546 0.0225,-0.0872 -0.0259,-0.0674 0.0406,-0.0813 0.0805,-0.0169 0.0144,0.0233 0.0404,0.0423 0.0578,0.0423 0.061,0 0.30199,-0.2245 0.30199,-0.28131 0,-0.0315 0.0238,-0.0576 0.0529,-0.058 0.0358,-4.3e-4 0.0328,-0.0134 -0.009,-0.04 -0.0534,-0.0338 -0.0519,-0.0434 0.0103,-0.0673 0.04,-0.0153 0.0611,-0.0465 0.047,-0.0693 -0.0147,-0.0237 0.0157,-0.0354 0.071,-0.0273 0.12821,0.0188 0.16035,0.11998 0.0381,0.11998 -0.0756,0 -0.0839,0.0114 -0.0438,0.0597 0.0328,0.0396 0.035,0.0687 0.006,0.0864 -0.0237,0.0147 -0.0817,0.11372 -0.12873,0.22009 -0.0608,0.13754 -0.10399,0.18632 -0.14938,0.1689 -0.0351,-0.0135 -0.0638,-0.005 -0.0638,0.0178 0,0.0233 0.0286,0.0533 0.0635,0.0667 0.14389,0.0552 9.9e-4,0.29017 -0.20744,0.34108 -0.1974,0.0482 -0.26903,0.0495 -0.34289,0.006 z m -0.22225,-0.65939 c -0.0524,-0.0352 -0.0953,-0.0902 -0.0953,-0.12229 0,-0.0802 0.021,-0.074 0.14807,0.0437 0.12671,0.11743 0.0889,0.17371 -0.0528,0.0786 z m 0.73025,-0.13829 c -0.0144,-0.0233 -0.006,-0.0423 0.0187,-0.0423 0.0246,0 0.0448,0.019 0.0448,0.0423 0,0.0233 -0.008,0.0423 -0.0187,0.0423 -0.0103,0 -0.0304,-0.0191 -0.0448,-0.0423 z m -0.23284,-0.127 c 0,-0.0233 0.0191,-0.0423 0.0423,-0.0423 0.0233,0 0.0423,0.019 0.0423,0.0423 0,0.0233 -0.019,0.0423 -0.0423,0.0423 -0.0233,0 -0.0423,-0.0191 -0.0423,-0.0423 z m 0.18919,-0.17146 c -0.0402,-0.0651 0.0149,-0.10708 0.0692,-0.0528 0.0304,0.0304 0.0311,0.0541 0.002,0.072 -0.0237,0.0147 -0.0558,0.006 -0.0714,-0.0192 z m -0.48552,-0.11416 c 0,-0.0703 0.22056,-0.0475 0.24482,0.0252 0.0111,0.0333 -0.0279,0.0472 -0.11397,0.0407 -0.0752,-0.006 -0.13085,-0.0338 -0.13085,-0.0659 z m 0.84667,-0.89971 c 0,-0.0233 0.0297,-0.0423 0.066,-0.0423 0.0363,0 0.0542,0.0191 0.0398,0.0423 -0.0144,0.0233 -0.0441,0.0423 -0.066,0.0423 -0.0219,0 -0.0398,-0.019 -0.0398,-0.0423 z m 0.19792,-0.0279 c -0.0382,-0.0382 0.053,-0.14148 0.12476,-0.14148 0.0718,0 0.0751,0.051 0.008,0.11854 -0.0574,0.0574 -0.0918,0.0634 -0.13228,0.0229 z m 0.16234,-0.3115 c 0.0146,-0.0237 0.0443,-0.0321 0.066,-0.0187 0.0587,0.0363 0.0478,0.0617 -0.0266,0.0617 -0.0363,0 -0.054,-0.0194 -0.0394,-0.043 z m 0.14774,-0.0416 c 0,-0.0233 0.0286,-0.0423 0.0635,-0.0423 0.0349,0 0.0635,0.0191 0.0635,0.0423 0,0.0233 -0.0286,0.0423 -0.0635,0.0423 -0.0349,0 -0.0635,-0.019 -0.0635,-0.0423 z m 1.524,1.4455 c 0.0137,-0.0876 0.0636,-0.16299 0.1416,-0.2139 0.076,-0.0496 0.1029,-0.0895 0.073,-0.10798 -0.0726,-0.0448 -0.33831,0.1955 -0.31394,0.28396 0.0136,0.0494 -0.003,0.0741 -0.0511,0.0741 -0.0595,0 -0.0625,0.0109 -0.0177,0.0649 0.0779,0.0939 0.14387,0.0542 0.16817,-0.10107 z m 2.09668,-1.00567 c 0.0667,-0.0437 0.14356,-0.0583 0.21422,-0.0405 0.0649,0.0163 0.13606,0.006 0.17308,-0.0245 0.0346,-0.0287 0.15182,-0.0664 0.26053,-0.0839 0.10871,-0.0174 0.24978,-0.0446 0.31348,-0.0603 0.0965,-0.0238 0.14186,-0.003 0.27216,0.12773 0.1391,0.1391 0.1677,0.15115 0.25945,0.10935 0.0567,-0.0259 0.13743,-0.0361 0.17937,-0.0228 0.0419,0.0133 0.0885,0.004 0.10346,-0.0199 0.0369,-0.0597 0.2586,-0.0558 0.35804,0.006 0.0633,0.0395 0.0951,0.0384 0.14759,-0.005 0.0745,-0.0618 0.0903,-0.17218 0.0246,-0.17218 -0.0647,0 -0.0505,-0.0902 0.0279,-0.17676 0.0617,-0.0682 0.0635,-0.0981 0.0143,-0.24696 -0.0307,-0.0932 -0.0435,-0.18181 -0.0282,-0.19702 0.0565,-0.0565 -0.0715,-0.14126 -0.21344,-0.14126 -0.0996,0 -0.17072,-0.0296 -0.22121,-0.0919 -0.0564,-0.0697 -0.12735,-0.0943 -0.29323,-0.10175 -0.18632,-0.008 -0.226,0.004 -0.26731,0.0813 -0.0267,0.0501 -0.10626,0.16016 -0.17685,0.24449 l -0.12834,0.15331 -0.11345,-0.11098 c -0.11142,-0.10899 -0.11184,-0.11143 -0.0235,-0.13602 0.0833,-0.0232 0.0767,-0.0375 -0.09,-0.19458 -0.099,-0.0932 -0.17992,-0.19152 -0.17992,-0.21838 0,-0.0787 -0.0747,-0.0562 -0.14456,0.0435 -0.0451,0.0644 -0.0516,0.10814 -0.0215,0.1444 0.0298,0.0359 0.0275,0.0617 -0.008,0.0834 -0.029,0.0179 -0.074,-2.8e-4 -0.10475,-0.0424 -0.0297,-0.0406 -0.13558,-0.0921 -0.23536,-0.11452 -0.18026,-0.0405 -0.18261,-0.0395 -0.3615,0.15535 -0.19638,0.21388 -0.3305,0.24031 -0.33213,0.0654 -5.8e-4,-0.0625 -0.0361,-0.11692 -0.093,-0.14228 -0.0538,-0.024 -0.0974,-0.0872 -0.10489,-0.15203 -0.0106,-0.0918 -0.0348,-0.11123 -0.13987,-0.11251 -0.0699,-8.5e-4 -0.15201,-0.017 -0.18258,-0.0359 -0.0339,-0.0209 -0.0869,-0.006 -0.13588,0.0383 -0.0553,0.05 -0.11502,0.0639 -0.19188,0.0447 -0.0614,-0.0154 -0.13365,-0.01 -0.16063,0.0127 -0.027,0.0224 -0.11484,0.047 -0.19526,0.0547 -0.11965,0.0115 -0.16137,0.0429 -0.22953,0.1728 -0.0863,0.16448 -0.14492,0.18874 -0.28059,0.11613 -0.11727,-0.0628 -0.16495,0.0505 -0.11435,0.27163 0.0347,0.15182 0.0659,0.18982 0.20521,0.25016 0.0903,0.0391 0.18937,0.0712 0.22007,0.0712 0.0307,0 0.10035,0.0474 0.15476,0.1053 0.0663,0.0706 0.11484,0.0921 0.14717,0.0653 0.0265,-0.022 0.0882,-0.0296 0.13696,-0.0168 0.049,0.0128 0.13793,-0.009 0.19858,-0.0488 0.0633,-0.0415 0.22001,-0.0784 0.36965,-0.0872 0.20975,-0.0123 0.28023,8.2e-4 0.36585,0.0682 0.0583,0.0459 0.15174,0.0834 0.20759,0.0834 0.0712,0 0.12769,0.0443 0.18897,0.14817 0.10123,0.17157 0.093,0.1687 0.22841,0.08 z m 1.54398,-0.12519 c 0,-0.0454 0.0248,-0.0585 0.0787,-0.0414 0.0454,0.0144 0.10131,-0.002 0.13219,-0.0395 0.0406,-0.049 0.0412,-0.0645 0.002,-0.0645 -0.0281,0 -0.0431,-0.0238 -0.0334,-0.0529 0.0107,-0.0321 0.10339,-0.055 0.23636,-0.0584 0.16905,-0.004 0.21874,0.009 0.21874,0.0583 0,0.0509 -0.0349,0.0582 -0.1725,0.0362 -0.15655,-0.025 -0.17013,-0.0201 -0.14678,0.0535 0.0201,0.0634 -0.004,0.0913 -0.10898,0.12801 -0.17817,0.0621 -0.20674,0.0594 -0.20674,-0.0194 z m 0.381,-0.0236 c 0,-0.0204 0.0476,-0.037 0.10584,-0.037 0.0582,0 0.10583,0.0167 0.10583,0.037 0,0.0204 -0.0476,0.037 -0.10583,0.037 -0.0582,0 -0.10584,-0.0167 -0.10584,-0.037 z m -2.07433,-0.0794 c 0,-0.0233 0.019,-0.0423 0.0423,-0.0423 0.0233,0 0.0423,0.0191 0.0423,0.0423 0,0.0233 -0.019,0.0423 -0.0423,0.0423 -0.0233,0 -0.0423,-0.019 -0.0423,-0.0423 z m 0.32916,0.0187 c -0.013,-0.013 -0.0139,-0.0606 -0.002,-0.10584 0.0226,-0.0864 0.13863,-0.11598 0.13863,-0.0353 0,0.0289 0.0406,0.0367 0.10583,0.0204 0.14058,-0.0353 0.13832,0.0495 -0.003,0.1031 -0.1223,0.0465 -0.20467,0.0526 -0.23958,0.0177 z m 1.17896,-0.006 c -0.0133,-0.0133 -0.014,-0.0405 -0.002,-0.0606 0.0297,-0.0481 0.14452,-0.047 0.14452,0.001 0,0.0467 -0.10984,0.0922 -0.14288,0.0592 z m -0.78845,-0.18168 c 0,-0.0897 -0.0617,-0.11383 -0.10626,-0.0416 -0.0325,0.0525 -0.10541,0.0135 -0.10541,-0.0564 0,-0.0719 0.21554,-0.15819 0.32417,-0.12975 0.11084,0.029 0.14844,0.14542 0.0781,0.24167 -0.0722,0.0987 -0.19056,0.0901 -0.19056,-0.0139 z m -2.30126,0.013 c -0.0477,-0.0477 -0.029,-0.0976 0.0364,-0.0976 0.0349,0 0.0635,0.0179 0.0635,0.0398 0,0.0534 -0.0661,0.0916 -0.0999,0.0578 z m 0.14226,-0.013 c 0,-0.0233 0.019,-0.0423 0.0423,-0.0423 0.0233,0 0.0423,0.019 0.0423,0.0423 0,0.0233 -0.0191,0.0423 -0.0423,0.0423 -0.0233,0 -0.0423,-0.0191 -0.0423,-0.0423 z m 1.57689,-0.0106 c 0.0267,-0.0801 0.15877,-0.0915 0.15877,-0.0137 0,0.0393 -0.0362,0.0666 -0.0882,0.0666 -0.0517,0 -0.0809,-0.0219 -0.0706,-0.0529 z m -1.46048,-0.0756 c -0.10035,-0.11262 -0.0947,-0.12547 0.0554,-0.12547 0.0755,0 0.1186,0.0176 0.10333,0.0423 -0.0144,0.0233 -0.007,0.0423 0.0162,0.0423 0.0813,0 0.0965,-0.0891 0.032,-0.18751 -0.0711,-0.10846 -0.0454,-0.17677 0.0399,-0.10603 0.0632,0.0525 0.22946,-0.0336 0.22946,-0.11881 0,-0.0293 0.0177,-0.0533 0.0393,-0.0533 0.085,0 0.1623,0.13026 0.15584,0.26275 -0.006,0.12161 -0.0229,0.14111 -0.13272,0.15264 -0.0693,0.007 -0.14703,0.0405 -0.17282,0.0739 -0.0788,0.10199 -0.28177,0.11151 -0.36586,0.0172 z m 0.53975,-0.21013 c -0.0144,-0.0233 -0.0441,-0.0423 -0.066,-0.0423 -0.0219,0 -0.0398,0.019 -0.0398,0.0423 0,0.0233 0.0297,0.0423 0.066,0.0423 0.0363,0 0.0542,-0.019 0.0398,-0.0423 z m 0.77523,0.22508 c 0.0306,-0.0122 0.0671,-0.0107 0.0811,0.003 0.0141,0.0141 -0.0109,0.0241 -0.0556,0.0222 -0.0493,-0.002 -0.0594,-0.0121 -0.0256,-0.0256 z m 2.25972,-0.0166 c 0.008,-0.025 0.0333,-0.0455 0.0554,-0.0455 0.0221,0 0.047,0.0205 0.0554,0.0455 0.008,0.025 -0.0166,0.0455 -0.0554,0.0455 -0.0388,0 -0.0637,-0.0205 -0.0554,-0.0455 z m -0.32347,-0.03 c -0.0115,-0.0116 -0.0109,-0.0374 0.002,-0.0574 0.0297,-0.048 0.22918,-0.0472 0.22918,9.7e-4 0,0.0414 -0.1974,0.0898 -0.23069,0.0565 z m -1.10412,-0.22299 c -0.0402,-0.0651 0.0149,-0.10708 0.0692,-0.0528 0.0304,0.0304 0.0311,0.0541 0.002,0.072 -0.0237,0.0147 -0.0558,0.006 -0.0714,-0.0192 z m -0.49611,-0.0568 c -0.10826,-0.0822 -0.0905,-0.11605 0.0318,-0.0604 0.0582,0.0265 0.10584,0.0642 0.10584,0.0838 0,0.0506 -0.0517,0.0418 -0.13759,-0.0234 z m 1.20403,-0.0289 c 0.008,-0.025 0.0333,-0.0455 0.0554,-0.0455 0.0221,0 0.047,0.0205 0.0554,0.0455 0.008,0.025 -0.0166,0.0455 -0.0554,0.0455 -0.0388,0 -0.0637,-0.0205 -0.0554,-0.0455 z m -3.05611,-0.12515 c 0,-0.0546 0.12061,-0.10384 0.15935,-0.0651 0.0158,0.0158 6.8e-4,0.0464 -0.0336,0.0681 -0.0819,0.0518 -0.12577,0.0508 -0.12577,-0.003 z m 0.33867,-0.21284 c 0,-0.0247 0.0191,-0.0331 0.0423,-0.0187 0.0233,0.0144 0.0423,0.0346 0.0423,0.0448 0,0.0103 -0.019,0.0187 -0.0423,0.0187 -0.0233,0 -0.0423,-0.0202 -0.0423,-0.0448 z m -1.905,1.09258 c 0,-0.0175 -0.027,-0.0318 -0.06,-0.0318 -0.033,0 -0.0663,-0.0187 -0.0741,-0.0416 -0.017,-0.05 -0.25638,0.006 -0.27593,0.0651 -0.007,0.022 0.0819,0.04 0.19832,0.04 0.11642,0 0.21167,-0.0143 0.21167,-0.0318 z m 0.16933,-0.36792 c 0,-0.0219 -0.019,-0.0516 -0.0423,-0.066 -0.0233,-0.0144 -0.0423,0.004 -0.0423,0.0398 0,0.0363 0.0191,0.066 0.0423,0.066 0.0233,0 0.0423,-0.0179 0.0423,-0.0398 z"
       id="path2" /></g></svg>
