<?xml version="1.0" encoding="UTF-8" standalone="no"?>
<!-- Created with Inkscape (http://www.inkscape.org/) -->

<svg
   width="10.023879mm"
   height="5.4173856mm"
   viewBox="0 0 10.023879 5.4173857"
   version="1.1"
   id="svg1"
   xml:space="preserve"
   xmlns="http://www.w3.org/2000/svg"
   xmlns:svg="http://www.w3.org/2000/svg"><defs
     id="defs1" /><g
     id="layer1"
     transform="translate(-55.358127,-105.0185)"><g
       id="g10"><path
         style="fill:none;stroke:#000000;stroke-width:0.264583px;stroke-linecap:square;stroke-linejoin:miter;stroke-opacity:1"
         d="m 57.088553,106.05274 c 1.855083,0.92672 1.743892,1.6803 1.829416,1.88623 0.08552,0.20593 0.450996,0.93279 0.627031,1.02249 0.176035,0.0897 1.508738,0.29052 1.686158,0.21058 0.177397,-0.0799 0.946381,-0.71861 1.13557,-1.24837 0.134358,-0.37622 -0.09524,-0.79872 -0.06242,-1.19686 0.03161,-0.38346 -0.0038,-0.83646 0.248078,-1.1273 0.267499,-0.30886 1.14726,-0.4317 1.14726,-0.4317"
         id="path7" /><path
         style="fill:none;stroke:#000000;stroke-width:0.322006px;stroke-linecap:butt;stroke-linejoin:miter;stroke-opacity:1"
         d="m 55.407935,107.19354 c 2.79796,0.91006 2.630254,1.6501 2.759247,1.85233 0.128986,0.20223 0.680222,0.91603 0.945729,1.00412 0.265508,0.0881 2.275595,0.28532 2.543176,0.2068 0.267579,-0.0785 1.416992,-0.58918 1.712743,-1.22594 0.165566,-0.35647 -0.142373,-0.78529 -0.09415,-1.17536 0.04779,-0.38658 0.08719,-0.84365 0.374167,-1.10704 0.437511,-0.40155 1.730374,-0.42394 1.730374,-0.42394"
         id="path8" /><path
         style="fill:none;stroke:#000000;stroke-width:0.1;stroke-linecap:round;stroke-linejoin:miter;stroke-dasharray:none;stroke-opacity:1"
         d="m 55.927819,106.80936 c 0.208706,0.0631 0.840938,0.32151 1.052484,0.387 0.163347,0.10697 0.296205,0.22725 0.46701,0.3303 0.248793,0.0533 0.474666,0.22062 0.62087,0.4238 0.08514,0.1923 0.206839,0.368 0.30208,0.5529 0.107965,0.16643 0.334207,0.23349 0.397476,0.43106 0.104681,0.15753 0.235264,0.2975 0.345954,0.43614 0.134441,0.13258 0.348211,0.18509 0.51431,0.29046 0.118073,0.13999 0.415262,0.0607 0.603812,0.13264 0.238651,0.15298 0.534714,0.0904 0.797715,0.0614 0.212036,0.009 0.405635,-0.0921 0.613035,-0.1092 0.142509,-0.0283 0.291711,-0.11441 0.42176,-0.1987 0.179422,-0.1483 0.383288,-0.26719 0.52829,-0.4449 0.105146,-0.16668 0.215972,-0.30554 0.32248,-0.4764 0.0941,-0.20799 0.06879,-0.45586 0.07197,-0.6893 -0.01111,-0.28966 0.01612,-0.6052 0.11716,-0.87453 0.05606,-0.17503 0.117827,-0.35039 0.22058,-0.5003 0.179741,-0.15412 0.387591,-0.30711 0.569116,-0.4623 0.258752,-0.0911 0.521694,-0.13973 0.78725,-0.1873 0.04485,0.007 -0.0071,-0.0175 0.0213,-0.0106"
         id="path9" /><path
         style="fill:none;stroke:#000000;stroke-width:0.1;stroke-linecap:round;stroke-linejoin:miter;stroke-dasharray:none;stroke-opacity:1"
         d="m 56.46566,106.37772 c 0.277893,0.28062 0.973612,0.38056 1.17735,0.54325 0.172198,0.0909 0.299043,0.29368 0.31072,0.4411 0.06659,0.18748 0.295984,0.24813 0.4176,0.3959 0.129781,0.16514 0.281545,0.34391 0.32961,0.5409 0.03669,0.10032 0.09451,0.20832 0.14297,0.3009 0.07541,0.16614 0.256923,0.29933 0.38017,0.4453 0.09608,0.0581 0.2098,0.19631 0.30482,0.2538 0.137443,0.051 0.324627,0.0287 0.460868,0.0977 0.20913,0.0124 0.381649,0.0823 0.58173,0.0877 0.142793,0.0367 0.243908,0.0447 0.398117,0.0401 0.180875,-2.5e-4 0.365455,-0.0268 0.528623,-0.0876 0.153311,-0.1297 0.262042,-0.28972 0.449395,-0.33307 0.14458,-0.0589 0.274524,-0.26092 0.366945,-0.41123 0.07576,-0.10124 0.05858,-0.26442 0.11172,-0.3674 0.156789,-0.14052 0.323911,-0.28419 0.27424,-0.51884 -0.0057,-0.10362 0.01352,-0.21178 -0.01429,-0.31115 -0.05105,-0.1817 -0.03371,-0.57847 0.110562,-0.79737 0.128268,-0.25854 0.13221,-0.51653 0.338369,-0.70947 0.152216,-0.16452 0.452568,-0.23739 0.631014,-0.26044 0.132007,-0.0397 0.364443,-0.12446 0.485876,-0.18136"
         id="path10" /></g></g></svg>
