<?xml version="1.0" encoding="UTF-8" standalone="no"?>
<!-- Created with Inkscape (http://www.inkscape.org/) -->

<svg
   width="9.6662703mm"
   height="10.200023mm"
   viewBox="0 0 9.6662702 10.200023"
   version="1.1"
   id="svg1"
   xml:space="preserve"
   xmlns="http://www.w3.org/2000/svg"
   xmlns:svg="http://www.w3.org/2000/svg"><defs
     id="defs1" /><g
     id="layer1"
     transform="translate(-482.07732,403.40141)"><path
       style="fill:#ffffff;fill-opacity:0.760128;stroke:#dddddd;stroke-opacity:0.894658"
       d="m 482.07736,-393.60415 c 0,-0.34309 0.71602,-0.40276 4.83312,-0.40276 4.11711,0 4.83313,0.0597 4.83313,0.40276 0,0.34309 -0.71602,0.40276 -4.83313,0.40276 -4.1171,0 -4.83312,-0.0597 -4.83312,-0.40276 z m 0.85664,-1.14116 c 0.0681,-0.35347 0.35476,-0.46988 1.15716,-0.46988 0.80241,0 1.0891,0.11641 1.15717,0.46988 0.0757,0.39308 -0.11345,0.46989 -1.15717,0.46989 -1.04371,0 -1.23286,-0.0768 -1.15716,-0.46989 z m 2.90246,-0.0671 c 0,-0.44751 0.179,-0.53701 1.07402,-0.53701 0.89503,0 1.07403,0.0895 1.07403,0.53701 0,0.44752 -0.179,0.53702 -1.07403,0.53702 -0.89502,0 -1.07402,-0.0895 -1.07402,-0.53702 z m 2.95357,0 c 0,-0.44751 0.17901,-0.53701 1.07403,-0.53701 0.89502,0 1.07403,0.0895 1.07403,0.53701 0,0.44752 -0.17901,0.53702 -1.07403,0.53702 -0.89502,0 -1.07403,-0.0895 -1.07403,-0.53702 z m -5.37013,-3.69934 c 0,-2.20807 -0.10097,-3.03798 -0.42607,-3.50212 -0.33754,-0.48191 -0.3586,-0.68958 -0.10137,-0.99952 0.36153,-0.43563 1.86997,-0.53998 1.86997,-0.12937 0,0.17015 0.24124,0.17015 0.68875,0 0.89679,-0.34095 2.16587,-0.33371 2.81949,0.0161 0.60184,0.3221 0.68991,0.79608 0.14792,0.79608 -0.54114,0 -0.6948,0.87076 -0.69892,3.96047 l -0.004,2.75219 h -0.84654 -0.84655 l 0.1606,-2.88644 c 0.13007,-2.33786 0.0837,-2.98851 -0.24408,-3.42346 l -0.40468,-0.53702 -0.40012,0.53702 c -0.30984,0.41585 -0.38183,1.1884 -0.31904,3.424 l 0.0811,2.887 -0.73839,-5.5e-4 -0.73839,-5.5e-4 z m 5.63864,0.43565 c 0,-2.36443 0.0187,-2.44123 0.49103,-2.0138 0.27006,0.24441 0.63255,0.44438 0.80552,0.44438 0.21236,0 0.31449,0.65397 0.31449,2.0138 v 2.0138 h -0.80552 -0.80552 z"
       id="path6" /></g></svg>
