<?xml version="1.0" encoding="UTF-8" standalone="no"?>
<!-- Created with Inkscape (http://www.inkscape.org/) -->

<svg
        width="11.2357mm"
        height="5.8774672mm"
        viewBox="0 0 11.2357 5.8774672"
        version="1.1"
        id="svg1"
        xml:space="preserve"
        xmlns="http://www.w3.org/2000/svg"
        xmlns:svg="http://www.w3.org/2000/svg"><defs
     id="defs1" />
    <g
            id="layer1"
            transform="translate(-75.45705,-113.59968)"
            style="fill:transparent;fill-opacity:0.760128;stroke:#dddddd;stroke-width:0.05pt;stroke-opacity:0.894658"
    >
        <g
       id="g17"><g
         id="g15"
         transform="translate(20.098912,8.581184)"><g
           id="g14"><path

             d="m 57.088553,106.05274 c 1.855083,0.92672 1.743892,1.6803 1.829416,1.88623 0.08552,0.20593 0.450996,0.93279 0.627031,1.02249 0.176035,0.0897 1.508738,0.29052 1.686158,0.21058 0.177397,-0.0799 0.946381,-0.71861 1.13557,-1.24837 0.134358,-0.37622 -0.09524,-0.79872 -0.06242,-1.19686 0.03161,-0.38346 -0.0038,-0.83646 0.248078,-1.1273 0.267499,-0.30886 1.14726,-0.4317 1.14726,-0.4317"
             id="path11" /><path

            d="m 55.407935,107.19354 c 2.79796,0.91006 2.630254,1.6501 2.759247,1.85233 0.128986,0.20223 0.680222,0.91603 0.945729,1.00412 0.265508,0.0881 2.275595,0.28532 2.543176,0.2068 0.267579,-0.0785 1.416992,-0.58918 1.712743,-1.22594 0.165566,-0.35647 -0.142373,-0.78529 -0.09415,-1.17536 0.04779,-0.38658 0.08719,-0.84365 0.374167,-1.10704 0.437511,-0.40155 1.730374,-0.42394 1.730374,-0.42394"
            id="path12"/><path

            d="m 55.927819,106.80936 c 0.208706,0.0631 0.840938,0.32151 1.052484,0.387 0.163347,0.10697 0.296205,0.22725 0.46701,0.3303 0.248793,0.0533 0.474666,0.22062 0.62087,0.4238 0.08514,0.1923 0.206839,0.368 0.30208,0.5529 0.107965,0.16643 0.334207,0.23349 0.397476,0.43106 0.104681,0.15753 0.235264,0.2975 0.345954,0.43614 0.134441,0.13258 0.348211,0.18509 0.51431,0.29046 0.118073,0.13999 0.415262,0.0607 0.603812,0.13264 0.238651,0.15298 0.534714,0.0904 0.797715,0.0614 0.212036,0.009 0.405635,-0.0921 0.613035,-0.1092 0.142509,-0.0283 0.291711,-0.11441 0.42176,-0.1987 0.179422,-0.1483 0.383288,-0.26719 0.52829,-0.4449 0.105146,-0.16668 0.215972,-0.30554 0.32248,-0.4764 0.0941,-0.20799 0.06879,-0.45586 0.07197,-0.6893 -0.01111,-0.28966 0.01612,-0.6052 0.11716,-0.87453 0.05606,-0.17503 0.117827,-0.35039 0.22058,-0.5003 0.179741,-0.15412 0.387591,-0.30711 0.569116,-0.4623 0.258752,-0.0911 0.521694,-0.13973 0.78725,-0.1873 0.04485,0.007 -0.0071,-0.0175 0.0213,-0.0106"
            id="path13"/><path

            d="m 56.46566,106.37772 c 0.277893,0.28062 0.973612,0.38056 1.17735,0.54325 0.172198,0.0909 0.299043,0.29368 0.31072,0.4411 0.06659,0.18748 0.295984,0.24813 0.4176,0.3959 0.129781,0.16514 0.281545,0.34391 0.32961,0.5409 0.03669,0.10032 0.09451,0.20832 0.14297,0.3009 0.07541,0.16614 0.256923,0.29933 0.38017,0.4453 0.09608,0.0581 0.2098,0.19631 0.30482,0.2538 0.137443,0.051 0.324627,0.0287 0.460868,0.0977 0.20913,0.0124 0.381649,0.0823 0.58173,0.0877 0.142793,0.0367 0.243908,0.0447 0.398117,0.0401 0.180875,-2.5e-4 0.365455,-0.0268 0.528623,-0.0876 0.153311,-0.1297 0.262042,-0.28972 0.449395,-0.33307 0.14458,-0.0589 0.274524,-0.26092 0.366945,-0.41123 0.07576,-0.10124 0.05858,-0.26442 0.11172,-0.3674 0.156789,-0.14052 0.323911,-0.28419 0.27424,-0.51884 -0.0057,-0.10362 0.01352,-0.21178 -0.01429,-0.31115 -0.05105,-0.1817 -0.03371,-0.57847 0.110562,-0.79737 0.128268,-0.25854 0.13221,-0.51653 0.338369,-0.70947 0.152216,-0.16452 0.452568,-0.23739 0.631014,-0.26044 0.132007,-0.0397 0.364443,-0.12446 0.485876,-0.18136"
            id="path14"/></g></g><path

            d="m 82.629388,117.31306 c -0.682247,-0.45763 -1.328613,0.17401 -1.815159,0.18242 0.385817,-0.42411 0.943321,-1.03437 1.125603,-1.33713 0.845328,-0.0821 2.058544,0.1835 2.461152,1.46894 -0.152449,0.32514 -0.34105,0.90895 -0.594893,1.16892 -0.155169,-0.57466 -0.95529,-1.36455 -1.176703,-1.48315 z"
            id="path15"/><path

            d="m 82.526426,117.19141 c -0.643984,-0.10932 -1.452034,0.0174 -1.457399,0.12182 -0.08915,0.29834 -0.03641,0.33041 0.261043,0.43999 0.124528,0.0462 0.120593,0.0657 0.282854,-0.029 0.209581,-0.23873 0.957585,-0.0494 1.049816,0.61491 0.03122,0.22488 0.325132,0.34551 0.45409,0.58699 0.450693,0.32676 0.95412,-0.34754 0.802197,-0.21218 -0.257461,-0.90719 -1.001171,-1.34806 -1.392601,-1.52253 z"
            id="path15-6"/><path

            d="m 83.91819,118.72759 c 0.142058,0.0479 0.296634,0.0799 0.420441,0.15118 0.138272,0.0722 0.299488,0.12323 0.41916,0.2121 0.184824,0.0861 0.359571,0.18318 0.550465,0.26264 0.102591,0.0431 0.223278,0.0565 0.338325,0.0716 0.106585,0.005 0.21212,0.002 0.312375,-0.0241 0.11284,2e-4 0.22606,0.002 0.338745,9.6e-4 0.124901,-0.0171 0.223599,-0.0642 0.323482,-0.1229 0.01427,-0.0107 0.02663,-0.0225 0.04052,-0.0335"
            id="path16"/><path

            d="m 84.452212,117.71437 c 0.10424,0.0497 0.217665,0.0829 0.308513,0.15698 0.101462,0.075 0.21976,0.12795 0.307573,0.22023 0.135621,0.0894 0.263848,0.19021 0.403923,0.27272 0.07528,0.0448 0.163838,0.0587 0.248258,0.0743 0.07821,0.005 0.15565,0.002 0.229216,-0.025 0.0828,2.1e-4 0.165879,0.002 0.248566,10e-4 0.09165,-0.0178 0.164073,-0.0667 0.237366,-0.12762 0.01047,-0.0111 0.01954,-0.0234 0.02973,-0.0348"
            id="path16-7"/><path

            d="m 80.908803,117.47336 c -0.09009,-0.17773 -0.180182,-0.35548 -0.270284,-0.53322 -0.09022,-0.0823 -0.143581,-0.22612 -0.165249,-0.36817 -0.07037,-0.15585 -0.09296,-0.33913 -0.138407,-0.50973 -0.01976,-0.15492 -0.03112,-0.32088 -0.138218,-0.41531 -0.08997,-0.13841 -0.183744,-0.28323 -0.316121,-0.34596 -0.110655,-0.11592 -0.238376,-0.18376 -0.364769,-0.25875 -0.104072,-0.0766 -0.186961,-0.19796 -0.304615,-0.24205 -0.131827,-0.0383 -0.236617,-0.16036 -0.360755,-0.22277 -0.07382,0.0124 -0.162574,-0.0731 -0.225196,-0.14812 -0.03306,-0.0279 -0.07688,-0.0393 -0.07319,-0.10686"
            id="path17"/><path

            d="m 81.853454,116.29724 c -0.08582,-0.13148 -0.171646,-0.26294 -0.257474,-0.3944 -0.08758,-0.062 -0.137755,-0.16792 -0.156701,-0.27182 -0.06676,-0.11503 -0.08589,-0.24901 -0.1278,-0.37424 -0.01684,-0.11325 -0.02521,-0.2343 -0.129234,-0.3055 -0.08637,-0.1028 -0.17637,-0.21046 -0.305897,-0.25913 -0.107165,-0.087 -0.232158,-0.13895 -0.355362,-0.19677 -0.10122,-0.0584 -0.181007,-0.14848 -0.296287,-0.1833 -0.129395,-0.0308 -0.230686,-0.12216 -0.352027,-0.1705 -0.07302,0.007 -0.159122,-0.0568 -0.21981,-0.11259 -0.03207,-0.0212 -0.07511,-0.0307 -0.07033,-0.0796"
            id="path17-3"/></g></g></svg>
