<?xml version="1.0" encoding="UTF-8" standalone="no"?>
<!-- Created with Inkscape (http://www.inkscape.org/) -->

<svg
   width="35.442863mm"
   height="12.61982mm"
   viewBox="0 0 35.442863 12.61982"
   version="1.1"
   id="svg1"
   xml:space="preserve"
   xmlns="http://www.w3.org/2000/svg"
   xmlns:svg="http://www.w3.org/2000/svg"><defs
     id="defs1" /><g
     id="layer1"
     transform="translate(-649.34618,-15.730064)"><path
       style="fill:#ffffff;fill-opacity:0.760128;stroke:#dddddd;stroke-opacity:0.894658"
       d="m 665.45658,28.081371 c 0,-0.15171 0.76605,-0.26851 1.76114,-0.26851 1.10572,0 1.69938,0.0999 1.59519,0.26851 -0.0913,0.14768 -0.88378,0.26851 -1.76114,0.26851 -0.88446,0 -1.59519,-0.11964 -1.59519,-0.26851 z m -15.44664,-1.4097 c 0.10324,-0.47996 0.24838,-2.16805 0.32253,-3.75131 0.10491,-2.23989 0.0448,-3.05913 -0.2709,-3.69197 -0.37801,-0.75773 -0.37197,-0.8133 0.0883,-0.8133 0.27173,0 0.555,0.15103 0.62949,0.33563 0.10834,0.26851 0.13967,0.26851 0.15663,0 0.0117,-0.1846 0.19237,-0.33563 0.40158,-0.33563 0.20921,0 0.44167,0.15103 0.51657,0.33563 0.10255,0.25272 0.20757,0.23614 0.42514,-0.0671 0.25684,-0.358 0.31878,-0.358 0.55745,0 0.23867,0.35801 0.29834,0.35801 0.53702,0 0.23867,-0.358 0.30061,-0.358 0.55745,0 0.21757,0.30327 0.32259,0.31985 0.42514,0.0671 0.0749,-0.1846 0.29729,-0.33563 0.49419,-0.33563 0.19691,0 0.41896,0.15103 0.49344,0.33563 0.10835,0.26851 0.13967,0.26851 0.15663,0 0.0117,-0.1846 0.21537,-0.33563 0.45269,-0.33563 0.30849,0 0.3742,0.13394 0.23053,0.46988 -0.11053,0.25844 -0.258,0.80217 -0.32771,1.20828 -0.11061,0.64437 -0.0402,0.7384 0.55261,0.7384 0.37365,0 0.74031,0.15103 0.8148,0.33563 0.10834,0.26851 0.13967,0.26851 0.15663,0 0.0126,-0.19888 0.39499,-0.33563 0.93859,-0.33563 0.50457,0 0.98789,0.15103 1.07403,0.33563 0.1253,0.26851 0.18796,0.26851 0.31326,0 0.19959,-0.4277 1.51434,-0.43681 1.93772,-0.0134 0.25061,0.2506 0.32221,0.2506 0.32221,0 0,-0.17722 0.18124,-0.32221 0.40276,-0.32221 0.47294,0 0.55348,-1.44816 0.1409,-2.53334 -0.20336,-0.53486 -0.17836,-0.68874 0.11188,-0.68874 0.20555,0 0.43468,0.15103 0.50917,0.33563 0.10834,0.26851 0.13967,0.26851 0.15663,0 0.0117,-0.1846 0.19237,-0.33563 0.40158,-0.33563 0.20921,0 0.44133,0.15103 0.51581,0.33563 0.10835,0.26851 0.13967,0.26851 0.15663,0 0.0263,-0.41667 0.82672,-0.44983 0.82672,-0.0343 0,0.20175 0.13991,0.18527 0.42323,-0.0499 0.35073,-0.29108 0.4657,-0.28522 0.67126,0.0343 0.21555,0.33499 0.28054,0.33499 0.49609,0 0.20556,-0.31947 0.32053,-0.32533 0.67126,-0.0343 0.28332,0.23513 0.42323,0.25161 0.42323,0.0499 0,-0.41082 0.72783,-0.38301 0.8962,0.0343 0.10834,0.26851 0.13967,0.26851 0.15663,0 0.0117,-0.1846 0.19237,-0.33563 0.40158,-0.33563 0.20921,0 0.44133,0.15103 0.51581,0.33563 0.10835,0.26851 0.13968,0.26851 0.15663,0 0.0117,-0.1846 0.19237,-0.33563 0.40159,-0.33563 0.20921,0 0.44132,0.15103 0.51581,0.33563 0.10835,0.26851 0.13967,0.26851 0.15663,0 0.0117,-0.1846 0.26971,-0.33563 0.57344,-0.33563 0.51704,0 0.5256,0.038 0.13425,0.59676 -0.55426,0.79131 -0.5649,2.62532 -0.0152,2.62532 0.22151,0 0.40276,0.14499 0.40276,0.32221 0,0.2506 0.0716,0.2506 0.3222,0 0.17722,-0.17722 0.63636,-0.32221 1.02033,-0.32221 0.38396,0 0.84311,0.14499 1.02032,0.32221 0.25061,0.2506 0.32221,0.2506 0.32221,0 0,-0.43213 1.79538,-0.41989 1.97023,0.0134 0.10834,0.26851 0.13967,0.26851 0.15663,0 0.0117,-0.1846 0.32706,-0.33563 0.70089,-0.33563 0.88527,0 1.0746,-0.55518 0.54112,-1.58681 -0.36379,-0.70349 -0.37015,-0.82975 -0.0418,-0.82975 0.213,0 0.44856,0.15103 0.52346,0.33563 0.10255,0.25272 0.20757,0.23614 0.42514,-0.0671 0.25684,-0.358 0.31878,-0.358 0.55745,0 0.23868,0.35801 0.29834,0.35801 0.53702,0 0.23867,-0.358 0.30061,-0.358 0.55745,0 0.21757,0.30327 0.32259,0.31985 0.42514,0.0671 0.0749,-0.1846 0.29729,-0.33563 0.49419,-0.33563 0.19691,0 0.41896,0.15103 0.49344,0.33563 0.10835,0.26851 0.13967,0.26851 0.15663,0 0.0117,-0.1846 0.19237,-0.33563 0.40158,-0.33563 0.20922,0 0.44133,0.15103 0.51582,0.33563 0.10835,0.26851 0.13967,0.26851 0.15663,0 0.0117,-0.1846 0.25359,-0.33563 0.53763,-0.33563 0.48539,0 0.492,0.049 0.11007,0.81457 -0.3157,0.63284 -0.37484,1.42656 -0.26507,3.55771 0.0777,1.50873 0.22264,3.19625 0.32206,3.75005 l 0.18078,1.0069 h -3.25146 c -3.67503,0 -3.62096,0.0408 -2.84869,-2.14806 0.22151,-0.62785 0.40276,-1.67008 0.40276,-2.31606 v -1.17453 h -3.65612 -3.65612 l 0.16287,1.67817 c 0.0896,0.92299 0.23717,2.19169 0.32798,2.81932 l 0.16512,1.14116 h -1.63924 -1.63924 v -1.73007 c 0,-1.48342 -0.0851,-1.78966 -0.59676,-2.14806 -1.4993,-1.05015 -2.62532,-0.0778 -2.62532,2.26709 v 1.61104 h -1.64042 -1.64042 l 0.17195,-1.0069 c 0.0946,-0.5538 0.24225,-1.82249 0.32818,-2.81932 l 0.15624,-1.81243 h -3.55119 -3.55118 l 0.15624,1.81243 c 0.0859,0.99683 0.23361,2.26552 0.32818,2.81932 l 0.17194,1.0069 h -3.28193 -3.28193 z m 3.62823,-4.96738 c -0.002,-0.25843 -0.12309,-0.65112 -0.26851,-0.87264 -0.23501,-0.35801 -0.29377,-0.35801 -0.52879,0 -0.44864,0.68342 -0.31883,1.34253 0.2644,1.34253 0.334,0 0.53546,-0.17763 0.5329,-0.46989 z m 27.87952,-0.24779 c -0.12375,-1.04534 -0.75623,-1.13751 -0.75623,-0.11021 0,0.5725 0.12975,0.82789 0.42059,0.82789 0.29808,0 0.39585,-0.20906 0.33564,-0.71768 z m -15.79261,-1.18424 c 0,-1.0273 -0.63248,-0.93512 -0.75622,0.11021 -0.0602,0.50862 0.0375,0.71768 0.33563,0.71768 0.29085,0 0.42059,-0.25539 0.42059,-0.82789 z m 3.49059,0.0224 c 0,-0.53701 -0.13425,-0.80552 -0.40276,-0.80552 -0.26851,0 -0.40276,0.26851 -0.40276,0.80552 0,0.53702 0.13425,0.80552 0.40276,0.80552 0.26851,0 0.40276,-0.2685 0.40276,-0.80552 z m -12.72929,6.24279 c -0.47567,-2.84712 -0.49987,-4.09473 -0.0794,-4.09473 0.22696,0 0.4736,0.15103 0.54808,0.33563 0.10835,0.26851 0.13967,0.26851 0.15663,0 0.0117,-0.1846 0.19237,-0.33563 0.40158,-0.33563 0.20922,0 0.44167,0.15103 0.51658,0.33563 0.10254,0.25272 0.20756,0.23614 0.42513,-0.0671 0.25684,-0.35801 0.31878,-0.35801 0.55746,0 0.23867,0.358 0.29834,0.358 0.53701,0 0.23867,-0.35801 0.29834,-0.35801 0.53701,0 0.23868,0.358 0.29834,0.358 0.53702,0 0.23867,-0.35801 0.30061,-0.35801 0.55745,0 0.21757,0.30326 0.32259,0.31984 0.42514,0.0671 0.0749,-0.1846 0.32232,-0.33563 0.54982,-0.33563 0.42518,0 0.41648,0.40397 -0.0853,3.96047 l -0.161,1.14116 h -2.62748 -2.62749 z m 10.11504,0.81422 c 0.40815,-0.0617 1.01229,-0.0601 1.34254,0.004 0.33024,0.0637 -0.004,0.11422 -0.74209,0.11221 -0.73839,-0.002 -1.00859,-0.0542 -0.60045,-0.11588 z m 5.62351,-1.01946 c -0.38162,-1.42687 -0.43105,-3.88949 -0.0781,-3.88949 0.13537,0 0.30742,0.15103 0.38232,0.33563 0.10254,0.25272 0.20756,0.23614 0.42513,-0.0671 0.25685,-0.35801 0.31879,-0.35801 0.55746,0 0.23867,0.358 0.29834,0.358 0.53701,0 0.23867,-0.35801 0.30061,-0.35801 0.55746,0 0.21757,0.30326 0.32259,0.31984 0.42513,0.0671 0.0749,-0.1846 0.29729,-0.33563 0.4942,-0.33563 0.1969,0 0.41895,0.15103 0.49344,0.33563 0.10834,0.26851 0.13967,0.26851 0.15663,0 0.0117,-0.1846 0.19237,-0.33563 0.40158,-0.33563 0.20921,0 0.44133,0.15103 0.51582,0.33563 0.10834,0.26851 0.13967,0.26851 0.15662,0 0.0117,-0.1846 0.21697,-0.33563 0.45623,-0.33563 0.36938,0 0.4106,0.23302 0.27311,1.54391 -0.0891,0.84915 -0.23764,1.99702 -0.33016,2.55082 l -0.16822,1.0069 h -2.46575 -2.46575 z m -22.87876,-8.85687 c 0,-0.71812 0.70674,-0.93115 1.25853,-0.37936 0.2102,0.2102 0.3424,0.2102 0.47231,0 0.24842,-0.40195 1.67925,-0.36852 1.87163,0.0437 0.1253,0.26851 0.18795,0.26851 0.31326,0 0.19258,-0.41269 1.50829,-0.44285 1.90742,-0.0437 0.21019,0.2102 0.34239,0.2102 0.4723,0 0.0992,-0.16055 0.41493,-0.2919 0.70158,-0.2919 0.3769,0 0.52116,0.18581 0.52116,0.67126 v 0.67127 h -3.75909 -3.7591 z m 28.10371,0.49227 c -0.0985,-0.0985 -0.17901,-0.40053 -0.17901,-0.67127 0,-0.57415 1.1993,-0.7033 1.45441,-0.15663 0.12531,0.26851 0.18796,0.26851 0.31326,0 0.0862,-0.1846 0.49898,-0.33563 0.9174,-0.33563 0.41842,0 0.83125,0.15103 0.9174,0.33563 0.1253,0.26851 0.18795,0.26851 0.31326,0 0.19258,-0.41269 1.50829,-0.44285 1.90741,-0.0437 0.2102,0.2102 0.3424,0.2102 0.47231,0 0.0992,-0.16055 0.41493,-0.2919 0.70157,-0.2919 0.37691,0 0.52117,0.18581 0.52117,0.67126 v 0.67127 h -3.58009 c -1.96905,0 -3.66064,-0.0806 -3.75909,-0.179 z m -15.48389,-1.56628 c 0,-0.52145 0.13783,-0.67127 0.61757,-0.67127 0.33966,0 0.74892,0.13136 0.90946,0.2919 0.2102,0.2102 0.3424,0.2102 0.47231,0 0.24135,-0.3905 1.30412,-0.37162 1.70605,0.0303 0.25061,0.25061 0.39381,0.25061 0.64442,0 0.42259,-0.42259 1.47896,-0.41392 1.63565,0.0134 0.0985,0.26851 0.19422,0.26851 0.47884,0 0.43803,-0.41323 1.38263,-0.4365 1.7754,-0.0437 0.2102,0.2102 0.3424,0.2102 0.47231,0 0.0992,-0.16054 0.47534,-0.2919 0.83582,-0.2919 0.52012,0 0.65543,0.13858 0.65543,0.67127 v 0.67126 h -5.10163 -5.10163 z"
       id="path5" /></g></svg>
