<?xml version="1.0" encoding="UTF-8" standalone="no"?>
<!-- Created with Inkscape (http://www.inkscape.org/) -->

<svg
   width="6.520968mm"
   height="2.2412877mm"
   viewBox="0 0 6.520968 2.2412877"
   version="1.1"
   id="svg1"
   xml:space="preserve"
   xmlns="http://www.w3.org/2000/svg"
   xmlns:svg="http://www.w3.org/2000/svg"><defs
     id="defs1" /><g
     id="layer1"
     transform="translate(-121.89223,-159.8195)"><path
       style="fill:#000000"
       d="m 125.81626,162.03406 c -0.0338,-0.0338 0.004,-0.0999 0.0578,-0.0999 0.0219,0 0.0398,0.0286 0.0398,0.0635 0,0.0655 -0.05,0.0841 -0.0976,0.0364 z m -2.54639,-0.097 c -0.0289,-0.0468 0.0379,-0.0973 0.077,-0.0582 0.0403,0.0403 0.0327,0.0976 -0.0128,0.0976 -0.0219,0 -0.0508,-0.0177 -0.0642,-0.0394 z m 0.56969,-0.003 c 0,-0.0233 0.0286,-0.0423 0.0635,-0.0423 0.0349,0 0.0635,0.019 0.0635,0.0423 0,0.0233 -0.0286,0.0423 -0.0635,0.0423 -0.0349,0 -0.0635,-0.019 -0.0635,-0.0423 z m 1.10066,0 c 0,-0.0233 0.0179,-0.0423 0.0398,-0.0423 0.0219,0 0.0516,0.019 0.066,0.0423 0.0144,0.0233 -0.004,0.0423 -0.0398,0.0423 -0.0363,0 -0.066,-0.019 -0.066,-0.0423 z m 1.24884,0 c 0.0144,-0.0233 0.0441,-0.0423 0.066,-0.0423 0.0219,0 0.0398,0.019 0.0398,0.0423 0,0.0233 -0.0297,0.0423 -0.066,0.0423 -0.0363,0 -0.0542,-0.019 -0.0398,-0.0423 z m -1.92617,-0.0423 c 0,-0.0233 0.0286,-0.0423 0.0635,-0.0423 0.0349,0 0.0635,0.0191 0.0635,0.0423 0,0.0233 -0.0286,0.0423 -0.0635,0.0423 -0.0349,0 -0.0635,-0.019 -0.0635,-0.0423 z m 1.25589,0.0141 c -0.0155,-0.0155 -0.0282,-0.0479 -0.0282,-0.072 0,-0.0265 0.0197,-0.024 0.0501,0.006 0.0276,0.0275 0.0403,0.0599 0.0282,0.072 -0.012,0.012 -0.0346,0.009 -0.0501,-0.006 z m 1.07244,-0.0166 c 0,-0.0247 0.019,-0.0331 0.0423,-0.0187 0.0233,0.0144 0.0423,0.0346 0.0423,0.0448 0,0.0103 -0.0191,0.0187 -0.0423,0.0187 -0.0233,0 -0.0423,-0.0202 -0.0423,-0.0448 z m -0.92498,-0.0377 c 0.009,-0.0279 0.0307,-0.0494 0.0476,-0.0476 0.0506,0.005 0.0408,0.0633 -0.0138,0.0815 -0.0279,0.009 -0.0432,-0.006 -0.0339,-0.0339 z m 0.84032,-0.0868 c 0,-0.0233 0.0202,-0.0423 0.0448,-0.0423 0.0247,0 0.0331,0.019 0.0187,0.0423 -0.0144,0.0233 -0.0346,0.0423 -0.0448,0.0423 -0.0103,0 -0.0187,-0.019 -0.0187,-0.0423 z m -3.5326,-0.0384 c -0.0136,-0.0221 -0.007,-0.0512 0.0153,-0.0649 0.022,-0.0136 0.0512,-0.007 0.0649,0.0153 0.0136,0.0221 0.007,0.0513 -0.0153,0.0649 -0.0221,0.0136 -0.0513,0.007 -0.0649,-0.0153 z m 1.48686,-0.0227 c -0.089,-0.0317 -0.17166,-0.0675 -0.18359,-0.0794 -0.0119,-0.0119 -0.11555,0.006 -0.23026,0.0402 -0.12867,0.0382 -0.26915,0.051 -0.36674,0.0333 -0.15523,-0.0281 -0.30634,-0.14016 -0.30634,-0.22726 0,-0.0648 0.0836,-0.0538 0.10981,0.0145 0.0174,0.0453 0.0916,0.0537 0.32675,0.037 0.16735,-0.0119 0.40905,-0.0196 0.53711,-0.0172 0.12806,0.002 0.29951,0.003 0.381,0.002 0.24708,-0.005 0.54719,-0.003 0.60325,0.003 0.0291,0.003 0.13352,-0.007 0.23203,-0.0228 0.11294,-0.0182 0.22725,-0.009 0.3094,0.0251 0.10585,0.0438 0.17327,0.0437 0.35943,-0.001 0.15284,-0.0367 0.27288,-0.0422 0.36053,-0.0168 0.18775,0.0546 0.15778,0.12075 -0.0615,0.13565 -0.10327,0.007 -0.21067,0.0404 -0.23866,0.0741 -0.0605,0.0728 -0.33237,0.0808 -0.47891,0.0141 -0.0735,-0.0335 -0.17537,-0.0349 -0.3495,-0.005 -0.20153,0.0347 -0.2715,0.0301 -0.38847,-0.0257 -0.13218,-0.063 -0.15201,-0.0627 -0.26975,0.005 -0.14931,0.0857 -0.13854,0.0853 -0.34563,0.0115 z m 2.55374,-0.018 c 0,-0.0532 0.12422,-0.14907 0.15423,-0.11906 0.0139,0.0139 -0.004,0.0547 -0.0403,0.0907 -0.0736,0.0736 -0.11389,0.0836 -0.11389,0.0284 z m -4.50576,-0.0431 c -0.0129,-0.0208 0.004,-0.0486 0.0385,-0.0617 0.0662,-0.0254 0.12265,0.0274 0.0776,0.0725 -0.0383,0.0383 -0.0886,0.0336 -0.11605,-0.0108 z m -0.29727,-0.0434 c -0.0134,-0.0217 -0.005,-0.0514 0.0187,-0.066 0.0505,-0.0312 0.12769,0.008 0.12769,0.0656 0,0.0515 -0.11458,0.0519 -0.14636,4.3e-4 z m 5.18403,-0.003 c 0,-0.0233 0.0286,-0.0423 0.0635,-0.0423 0.0349,0 0.0635,0.019 0.0635,0.0423 0,0.0233 -0.0286,0.0423 -0.0635,0.0423 -0.0349,0 -0.0635,-0.019 -0.0635,-0.0423 z m 0.29633,-0.0423 c 0,-0.0233 0.0191,-0.0423 0.0423,-0.0423 0.0233,0 0.0423,0.019 0.0423,0.0423 0,0.0233 -0.019,0.0423 -0.0423,0.0423 -0.0233,0 -0.0423,-0.019 -0.0423,-0.0423 z m -0.46567,-0.0423 c 0,-0.0233 0.0191,-0.0423 0.0423,-0.0423 0.0233,0 0.0423,0.0191 0.0423,0.0423 0,0.0233 -0.019,0.0423 -0.0423,0.0423 -0.0233,0 -0.0423,-0.019 -0.0423,-0.0423 z m -4.18288,-0.0455 c 0.008,-0.025 0.0333,-0.0455 0.0554,-0.0455 0.0221,0 0.047,0.0205 0.0554,0.0455 0.008,0.025 -0.0166,0.0455 -0.0554,0.0455 -0.0388,0 -0.0637,-0.0205 -0.0554,-0.0455 z m 0.73795,-0.11159 c -0.0165,-0.0165 -0.18639,-0.0333 -0.37747,-0.0374 -0.19109,-0.004 -0.43906,-0.0217 -0.55106,-0.0392 -0.14208,-0.0223 -0.23529,-0.015 -0.30842,0.0241 -0.0832,0.0445 -0.13341,0.0457 -0.24388,0.006 -0.0765,-0.0277 -0.19964,-0.0503 -0.27366,-0.0503 -0.0914,0 -0.13457,-0.0204 -0.13457,-0.0635 0,-0.0404 0.0406,-0.0635 0.1115,-0.0635 0.0613,0 0.1854,-0.0221 0.27571,-0.0492 0.13009,-0.039 0.18607,-0.0375 0.26943,0.007 0.0579,0.031 0.11392,0.0476 0.12454,0.037 0.0106,-0.0106 0.0298,-0.13289 0.0426,-0.27171 0.0128,-0.13881 0.0423,-0.25874 0.0654,-0.2665 0.0232,-0.008 0.0421,-0.0378 0.0421,-0.0667 0,-0.0289 0.0465,-0.0962 0.10326,-0.1496 0.0833,-0.0783 0.16232,-0.10013 0.40901,-0.11318 0.29962,-0.0158 0.30823,-0.0134 0.43039,0.12138 0.0686,0.0757 0.15264,0.17927 0.18686,0.23025 0.0905,0.13485 0.16027,0.082 0.22223,-0.1684 0.0621,-0.25113 0.15013,-0.41111 0.22614,-0.41118 0.0286,-3e-5 0.10729,-0.0477 0.17494,-0.10584 0.13742,-0.11818 0.35279,-0.14148 0.39086,-0.0423 0.0134,0.0349 0.0747,0.0639 0.13625,0.0644 0.17363,0.001 0.32284,0.13967 0.32775,0.30358 0.015,0.49961 -0.004,0.45748 0.20472,0.45748 0.24225,0 0.41057,0.063 0.38013,0.14234 -0.0176,0.0458 -0.10696,0.0598 -0.3696,0.0579 -0.19055,-0.001 -0.52742,-0.001 -0.74861,6.8e-4 -0.22119,0.002 -0.51636,9e-5 -0.65594,-0.004 -0.1689,-0.005 -0.25385,0.01 -0.254,0.0426 -1.2e-4,0.0272 -0.0145,0.0637 -0.032,0.0811 -0.0175,0.0175 -0.0318,0.0455 -0.0318,0.0624 0,0.045 0.54824,0.0457 0.78717,0.001 0.12718,-0.0238 0.23442,-0.0231 0.2808,0.002 0.0923,0.0494 0.0982,0.12184 0.01,0.12184 -0.0359,0 -0.14482,0.0406 -0.24215,0.0903 -0.15906,0.0812 -0.19708,0.0851 -0.37571,0.0393 -0.14553,-0.0373 -0.2422,-0.0389 -0.36109,-0.006 -0.19308,0.0536 -0.20306,0.0542 -0.2418,0.0155 z m -1.33873,-0.13929 c 0,-0.0233 -0.019,-0.0423 -0.0423,-0.0423 -0.0233,0 -0.0423,0.019 -0.0423,0.0423 0,0.0233 0.0191,0.0423 0.0423,0.0423 0.0233,0 0.0423,-0.019 0.0423,-0.0423 z m 1.10066,-0.12414 c 0,-0.045 0.0381,-0.0939 0.0847,-0.10869 0.0466,-0.0148 0.0847,-0.0599 0.0847,-0.10022 0,-0.0403 0.0229,-0.0962 0.0508,-0.12415 0.0594,-0.0594 0.0116,-0.11934 -0.1143,-0.14347 -0.0494,-0.009 -0.0799,-0.0444 -0.0733,-0.084 0.0131,-0.078 -0.1013,-0.13728 -0.141,-0.073 -0.0149,0.0242 -0.0816,0.0309 -0.15244,0.0153 -0.10461,-0.023 -0.12981,-0.0127 -0.14908,0.061 -0.0127,0.0488 -0.0495,0.0887 -0.0817,0.0887 -0.0695,0 -0.0777,0.0678 -0.013,0.1078 0.0295,0.0182 0.0158,0.06 -0.0391,0.11891 -0.0812,0.0871 -0.0816,0.0945 -0.0101,0.18219 0.0763,0.0936 0.17438,0.12552 0.41647,0.13566 0.10975,0.005 0.13758,-0.0108 0.13758,-0.076 z m -0.29633,-0.10869 c -0.0745,-0.0793 -0.0833,-0.10583 -0.0351,-0.10583 0.0629,0 0.20444,0.12688 0.20444,0.18325 0,0.0584 -0.0731,0.025 -0.16933,-0.0774 z m 0.0839,-0.14877 c -0.0523,-0.0394 -0.0878,-0.0898 -0.0789,-0.11184 0.0245,-0.0609 0.376,0.0222 0.376,0.0888 0,0.0879 -0.19144,0.10273 -0.29713,0.023 z m -0.0627,-0.21106 c -0.0144,-0.0233 0.004,-0.0423 0.0398,-0.0423 0.0363,0 0.066,0.019 0.066,0.0423 0,0.0233 -0.0179,0.0423 -0.0398,0.0423 -0.0219,0 -0.0516,-0.019 -0.066,-0.0423 z m 1.92344,0.12957 c 0.0504,-0.0319 0.0513,-0.0499 0.005,-0.10518 -0.0446,-0.0538 -0.045,-0.0792 -0.002,-0.13102 0.0435,-0.0524 0.0406,-0.0785 -0.016,-0.14092 -0.0381,-0.0421 -0.0693,-0.1063 -0.0693,-0.14257 0,-0.0384 -0.0487,-0.0751 -0.11642,-0.088 -0.064,-0.0121 -0.15665,-0.0349 -0.20584,-0.0506 -0.0684,-0.0218 -0.0948,-0.008 -0.11245,0.0596 -0.0138,0.0528 -0.0575,0.0881 -0.10916,0.0881 -0.10661,0 -0.15902,0.076 -0.0959,0.13915 0.0685,0.0685 0.0582,0.10562 -0.0376,0.13601 -0.10661,0.0338 -0.10631,0.0666 0.002,0.18252 0.0735,0.0789 0.13158,0.0925 0.39159,0.092 0.16789,-3.6e-4 0.33261,-0.0179 0.36604,-0.0391 z m -0.4985,-0.0974 c -0.069,-0.069 -0.061,-0.11684 0.0196,-0.11684 0.0563,0 0.0591,-0.0115 0.016,-0.0635 -0.0429,-0.0517 -0.0408,-0.0635 0.0114,-0.0635 0.0353,0 0.0751,0.0286 0.0885,0.0635 0.0461,0.12015 0.0947,0.0633 0.0768,-0.0899 -0.0136,-0.11659 -0.004,-0.1488 0.0403,-0.13408 0.032,0.0106 0.0601,0.0559 0.0625,0.10053 0.002,0.0446 0.0179,0.12402 0.0346,0.17641 0.0167,0.0524 0.0147,0.0977 -0.004,0.10065 -0.019,0.003 -0.0749,0.01 -0.1241,0.0151 -0.0492,0.005 -0.10808,0.0212 -0.13081,0.0352 -0.0227,0.014 -0.0634,0.003 -0.0904,-0.0236 z m 0.52463,0.69111 c -0.0136,-0.0221 -0.007,-0.0512 0.0153,-0.0649 0.0221,-0.0136 0.0513,-0.007 0.0649,0.0153 0.0136,0.0221 0.007,0.0513 -0.0153,0.0649 -0.0221,0.0136 -0.0512,0.007 -0.0649,-0.0153 z m 0.45531,-0.0564 c -0.051,-0.0237 -0.10257,-0.0685 -0.11453,-0.0997 -0.0165,-0.0429 0.01,-0.0504 0.10722,-0.0309 0.0709,0.0142 0.25892,10e-4 0.41774,-0.0287 0.21847,-0.0412 0.33347,-0.0431 0.4724,-0.008 0.14819,0.0377 0.19517,0.0352 0.24348,-0.013 0.0675,-0.0672 0.0708,-0.34285 0.005,-0.42198 -0.0237,-0.0285 -0.0305,-0.0644 -0.0152,-0.0797 0.055,-0.055 0.14649,-0.026 0.24163,0.0766 l 0.0968,0.10449 0.0924,-0.12496 c 0.0508,-0.0687 0.14955,-0.15452 0.2194,-0.19064 0.11604,-0.06 0.12932,-0.0597 0.15376,0.004 0.0147,0.0383 -0.006,0.12472 -0.0455,0.19198 l -0.0722,0.12228 h 0.12939 c 0.17941,0 0.16846,0.10954 -0.0188,0.18777 -0.0815,0.0341 -0.14817,0.0798 -0.14817,0.10178 0,0.0219 0.20972,0.0536 0.46604,0.0703 0.41823,0.0273 0.56125,0.0663 0.49315,0.13439 -0.0126,0.0126 -0.40982,0.0275 -0.88265,0.0331 -0.626,0.007 -0.91329,-0.005 -1.05682,-0.0474 -0.14381,-0.042 -0.22821,-0.0457 -0.3121,-0.0138 -0.17504,0.0666 -0.36946,0.0797 -0.47257,0.0318 z m 1.53271,-0.23651 c -0.0118,-0.0308 0.0374,-0.14171 0.10945,-0.2464 0.072,-0.10468 0.12179,-0.1995 0.11058,-0.2107 -0.0302,-0.0302 -0.28412,0.29002 -0.28412,0.3584 0,0.0379 -0.03,0.0509 -0.0847,0.0367 -0.0595,-0.0156 -0.0847,-0.001 -0.0847,0.048 0,0.0498 0.037,0.0701 0.12747,0.0701 0.0884,0 0.12088,-0.0172 0.10596,-0.056 z m -1.58809,-0.007 c 0,-0.0233 0.0179,-0.0423 0.0398,-0.0423 0.0219,0 0.0516,0.019 0.066,0.0423 0.0144,0.0233 -0.004,0.0423 -0.0398,0.0423 -0.0363,0 -0.066,-0.019 -0.066,-0.0423 z m 0.48683,-0.0418 c -0.0144,-0.0233 0.004,-0.0423 0.0398,-0.0423 0.0363,0 0.066,0.019 0.066,0.0423 0,0.0233 -0.0179,0.0423 -0.0398,0.0423 -0.0219,0 -0.0516,-0.019 -0.066,-0.0423 z"
       id="path1-2" /></g></svg>
