<?xml version="1.0" encoding="UTF-8" standalone="no"?>
<!-- Created with Inkscape (http://www.inkscape.org/) -->

<svg
   width="11.119969mm"
   height="6.4441476mm"
   viewBox="0 0 11.119969 6.4441477"
   version="1.1"
   id="svg1"
   xml:space="preserve"
   xmlns="http://www.w3.org/2000/svg"
   xmlns:svg="http://www.w3.org/2000/svg"><defs
     id="defs1" /><g
     id="layer1"
     transform="translate(78.614026,-235.88295)"><path
       style="fill:#000000"
       d="m -77.242398,241.58871 c -0.09603,-0.40612 -0.382431,-0.98005 -0.636437,-1.27541 -0.915664,-1.06472 -0.979294,-1.37888 -0.172405,-0.85119 0.413218,0.27024 0.779951,0.45148 0.814961,0.40276 0.03501,-0.0487 0.33462,-0.48098 0.665798,-0.96059 0.331177,-0.4796 0.884656,-0.94291 1.229952,-1.02957 0.453122,-0.11373 0.675684,-0.41276 0.79986,-1.07467 0.09463,-0.5044 0.294532,-0.9171 0.444235,-0.9171 0.149702,0 0.196842,0.12191 0.104755,0.27091 -0.286699,0.46389 0.13554,1.30392 0.753613,1.49929 0.324723,0.10264 0.991158,0.49179 1.480967,0.86478 0.732197,0.55757 1.01868,0.6333 1.61104,0.42585 1.316039,-0.46088 0.956562,-2.44003 -0.396219,-2.18143 -0.336789,0.0644 -0.548456,0.0137 -0.47037,-0.11266 0.191565,-0.30996 1.106056,-0.2905 1.717149,0.0366 0.273645,0.14645 0.578418,0.63453 0.677273,1.08461 0.150794,0.68656 0.273213,0.78965 0.760219,0.64015 1.092613,-0.33541 -0.449972,0.70041 -2.305966,1.54842 -0.444938,0.20329 -0.742175,0.55408 -0.747909,0.88265 -0.0091,0.52124 -0.02414,0.51894 -0.341482,-0.0522 -0.451617,-0.81274 -2.045656,-1.95432 -2.721869,-1.94928 -0.303586,0.002 -0.717271,0.10883 -0.919301,0.23681 -0.296542,0.18786 -0.257736,0.34229 0.20138,0.80141 0.516016,0.51602 0.523928,0.56871 0.08539,0.56871 -0.265821,0 -0.624344,-0.14104 -0.796717,-0.31341 -0.419463,-0.41946 -0.701266,0.30394 -0.541759,1.39073 0.101695,0.69289 0.03329,0.80222 -0.501906,0.80222 -0.454646,0 -0.666143,-0.19662 -0.794256,-0.73839 z"
       id="path3" /></g></svg>
