<?xml version="1.0" encoding="UTF-8" standalone="no"?>
<!-- Created with Inkscape (http://www.inkscape.org/) -->

<svg
   width="33.795063mm"
   height="33.054714mm"
   viewBox="0 0 33.795063 33.054715"
   version="1.1"
   id="svg1"
   xml:space="preserve"
   sodipodi:docname="hd_5.svg"
   inkscape:version="1.3 (0e150ed6c4, 2023-07-21)"
   xmlns:inkscape="http://www.inkscape.org/namespaces/inkscape"
   xmlns:sodipodi="http://sodipodi.sourceforge.net/DTD/sodipodi-0.dtd"
   xmlns="http://www.w3.org/2000/svg"
   xmlns:svg="http://www.w3.org/2000/svg"><sodipodi:namedview
     id="namedview1"
     pagecolor="#ffffff"
     bordercolor="#666666"
     borderopacity="1.0"
     inkscape:showpageshadow="2"
     inkscape:pageopacity="0.0"
     inkscape:pagecheckerboard="0"
     inkscape:deskcolor="#d1d1d1"
     inkscape:document-units="mm"
     inkscape:zoom="0.66517117"
     inkscape:cx="63.141643"
     inkscape:cy="275.86884"
     inkscape:window-width="2560"
     inkscape:window-height="1371"
     inkscape:window-x="0"
     inkscape:window-y="32"
     inkscape:window-maximized="1"
     inkscape:current-layer="layer1" /><defs
     id="defs1" /><g
     id="layer1"
     transform="translate(-18.184318,-101.82418)"><g
       id="g32" /><path
       style="fill:#ffffff"
       d="m 24.197158,134.34225 c -0.67051,-0.29087 -1.73148,-0.91966 -2.35771,-1.39731 -0.71796,-0.54761 -1.60347,-0.86846 -2.39687,-0.86846 h -1.25826 v -2.29305 c 0,-1.26118 0.0951,-2.29306 0.21141,-2.29306 0.11627,0 1.14862,0.57848 2.2941,1.28551 1.61531,0.99703 1.99675,1.38907 1.69972,1.74696 -1.3562,1.63413 2.45226,3.76902 4.63741,2.59957 1.11181,-0.59503 0.79163,-1.67818 -1.08153,-3.65877 -1.95451,-2.0666 -2.14721,-2.76749 -0.97014,-3.52854 1.19634,-0.77351 3.37762,-0.21222 8.00945,2.061 2.20066,1.08004 4.45569,1.96372 5.01118,1.96372 1.4702,0 4.01008,-1.30392 5.21663,-2.67811 1.54136,-1.7555 1.92236,-3.58699 1.57113,-7.55245 -0.16327,-1.84326 -0.30147,-4.91309 -0.30713,-6.82184 -0.0101,-3.40431 0.009,-3.48737 1.02155,-4.35768 1.65782,-1.42547 4.14648,-0.69478 5.975,1.75432 0.58614,0.78508 0.6341,1.08371 0.29394,1.83029 -0.43374,0.95196 -1.85901,1.21392 -2.89105,0.53136 -0.44828,-0.29647 -0.39435,-0.45517 0.35277,-1.03812 0.72005,-0.56182 0.81057,-0.8042 0.49314,-1.32032 -0.90448,-1.47063 -3.05697,-0.67142 -3.48896,1.29543 -0.12244,0.55744 0.1853,2.68735 0.72104,4.9905 1.59624,6.86219 0.76622,11.54942 -2.41794,13.65448 -1.2583,0.83186 -1.77997,0.94686 -4.29527,0.94686 -2.8013,0 -2.96274,-0.0486 -7.48798,-2.25522 -2.69621,-1.31472 -4.85934,-2.16527 -5.18699,-2.03954 -0.99684,0.38252 -0.60253,1.70885 1.02546,3.44931 1.72364,1.84271 2.00057,3.00811 0.94236,3.96577 -0.81772,0.74004 -3.66002,0.75462 -5.33646,0.0274 z m 10.11927,-9.58881 c -0.9986,-0.51788 -3.07906,-1.09505 -5.11528,-1.41909 -1.88766,-0.3004 -3.49207,-0.59325 -3.56536,-0.65079 -0.0733,-0.0575 -0.15267,-1.73797 -0.17639,-3.73431 -0.0554,-4.66013 -0.91293,-6.67671 -4.15908,-9.78037 -1.22873,-1.17479 -2.10491,-2.1368 -1.94707,-2.1378 0.15785,-0.001 1.9041,0.68803 3.88056,1.53117 3.68782,1.5732 6.93669,2.52671 7.71978,2.26568 0.79608,-0.26536 0.0974,-5.58444 -1.02457,-7.8002 -0.27931,-0.55161 -0.42082,-1.08994 -0.31446,-1.1963 0.10635,-0.10636 1.74165,0.97039 3.634,2.39276 1.89234,1.42238 4.38302,3.07196 5.53484,3.66574 2.59916,1.33991 1.85946,1.57785 -1.25767,0.40457 -2.78787,-1.04935 -3.40713,-0.79667 -3.71744,1.51687 -0.24357,1.81596 0.19159,2.22795 2.04252,1.93381 1.55343,-0.24687 2.60139,0.58318 2.22135,1.75945 -0.86421,2.67477 0.41293,6.99034 2.87529,9.71588 1.49958,1.65985 1.44739,2.11558 -0.14781,1.29067 -3.13557,-1.62147 -5.17697,-4.70154 -5.6344,-8.5012 -0.15019,-1.24753 -0.35155,-2.34671 -0.44746,-2.44263 -0.0959,-0.0959 -1.73158,-0.65372 -3.63481,-1.23957 -3.46343,-1.06611 -5.49032,-1.34263 -5.49032,-0.74902 0,0.17389 0.55066,1.48357 1.22368,2.91041 0.74665,1.58293 1.33113,3.48213 1.49931,4.87183 l 0.27562,2.27758 2.12661,0.73209 c 2.2481,0.77392 4.38395,1.95743 5.10887,2.83091 0.2396,0.2887 0.37651,0.50237 0.30425,0.47484 -0.0723,-0.0275 -0.88882,-0.44288 -1.81456,-0.92298 z"
       id="path11" /></g></svg>
