<?xml version="1.0" encoding="UTF-8" standalone="yes"?>
<svg
   width="46mm"
   height="12mm"
   viewBox="0 0 46 12"
   version="1.1"
   xmlns="http://www.w3.org/2000/svg"
>
  <g
     id="layer1"
     transform="translate(-47,-73)">

        <rect
           style="fill:#5a3a5a;fill-opacity:1;stroke:#cacaca;stroke-width:0.5;stroke-linecap:round;stroke-linejoin:round;stroke-miterlimit:2;stroke-dasharray:none;stroke-opacity:1;paint-order:markers stroke fill"
           id="rect1"
           width="45.721096"
           height="2.0481591"
           x="46.92984"
           y="78.401543" />
        <path
           style="fill:#282828;stroke:#cacaca;stroke-width:0.176389"
           d="m 51.195124,74.176602 q 1.477259,0.143316 1.477259,0.225998 0.611849,0.137804 1.416625,0.865409 0,0.0441 0.496094,0.661459 0.380339,0.727605 0.617362,1.367015 0.363802,0.424436 0.363802,0.501607 -0.137804,0.308681 -0.341754,1.68672 l -0.20395,0.63941 q -0.192925,0.600826 -1.25126,1.70877 -0.854384,0.523655 -1.548916,0.589801 -0.716581,0 -1.416625,-0.275608 -0.540191,-0.20395 -1.135504,-0.931555 -0.325218,-0.28112 -0.523656,-0.821312 -0.209462,-0.501606 -0.523655,-0.611849 -0.03307,0 -0.137804,-0.137804 v -0.0441 q 0,-0.104731 0.523656,-0.84336 0.05512,-0.48507 0.931554,-1.824524 0.644923,-0.639411 1.025262,-0.639411 0.05512,0 0.341754,-0.02205 0.341753,0 0.959115,0.573264 0.137804,0.214974 0.297657,0.8158 0,0.0441 -0.02205,0.413412 0,0.121267 0.567752,0.270095 0.225999,0.165365 0.225999,0.479558 0,0.413412 -0.639411,0.617362 -0.159852,-0.02756 -0.270095,-0.02756 -0.159853,0 -0.159853,0.595313 -0.08819,0.09922 -0.617362,0.248047 h -0.02205 q -0.170877,0 -0.292145,-0.429948 -0.176389,-0.137804 -0.23151,-0.253559 v -0.06615 q 0.253559,-0.286632 0.253559,-0.363803 0,-0.09371 -0.391363,-0.20395 -0.270096,-0.248047 -0.270096,-0.573264 0,-0.479558 0.61185,-0.567752 0.126779,0 0.523655,0.181901 h 0.02756 q 0.110244,-0.05512 0.110244,-0.181901 v -0.06615 q 0,-0.683508 -0.589801,-0.915019 -0.0441,0 -0.25356,-0.0441 -0.529167,0 -0.815799,1.163066 0,0.06063 -0.159853,0.661459 0,1.774915 0.683508,2.596226 0.755166,0.661459 1.339454,0.661459 1.394577,0 1.70877,-2.756079 0.02205,-0.385851 0.02205,-0.595313 v -0.20395 q 0,-2.193839 -1.069359,-3.19154 -0.248047,-0.110243 -0.975652,-0.314193 -1.372527,0 -2.232424,1.229212 -0.815799,0.771702 -1.185114,0.771702 -0.104731,-0.0441 -0.115755,-0.08819 v -0.07166 q 0,-0.04961 0.20395,-0.363802 0.115755,-0.270096 0.159852,-0.661459 0,-0.733117 -0.270095,-1.207163 v -0.0441 q 0,-0.03307 0.06614,-0.06615 h 0.115756 q 0.760678,0.292144 0.931555,0.292144 0.165364,0 1.322918,-0.341754 0.275607,-0.06614 0.341753,-0.06614 z m 6.890198,1.615062 q 0.132292,0 0.286632,0.341754 0.512631,0.396875 0.512631,0.501606 0,0.0441 -0.418924,0.418924 -0.545704,0.711069 -0.666971,1.697745 v 0.07717 q 0,0.104731 0.07166,0.132292 0.03858,0 0.286632,-0.148828 h 0.07717 q 0.270096,0.06615 0.270096,0.264583 -0.121267,0.402388 -0.347266,0.402388 h -0.110243 q -0.573264,-0.15434 -0.573264,-0.705556 v -0.363803 q 0,-0.429948 0.380339,-1.394576 0,-0.115755 -0.115756,-0.170877 h -0.03858 q -0.15434,0 -0.457509,0.496094 -0.07717,0.20395 -0.07717,0.474046 0,0.352778 0.02205,0.501607 -0.02205,0.468533 -0.02205,0.937066 v 0.474046 q -0.03858,0.683508 -0.03858,0.76619 v 0.303169 q 0,0.181901 0.727605,0.68902 0.03859,0.06063 0.03859,0.115755 v 0.03858 q -0.53468,0.744141 -0.573265,0.744141 0,0.03859 -0.09371,0.03859 -0.110243,-0.04961 -0.363802,-0.45751 -0.56224,-0.396875 -0.68902,-0.573264 l -0.02205,-0.115755 v -0.07717 q 0,-0.110243 0.09922,-0.479557 0,-0.705557 0.03859,-1.65916 -0.02205,-0.137804 -0.02205,-0.231511 0.03859,-0.253559 0.03859,-0.496094 v -0.05512 q 0,-0.104731 -0.01654,-0.270095 0.01654,-0.03307 0.05512,-0.341754 0,-0.56224 -0.402387,-0.68902 -0.08268,-0.03858 -0.09371,-0.07717 v -0.01654 q 0,-0.03858 0.286632,-0.556728 0.12678,-0.402387 0.325217,-0.402387 0.12678,0.03858 0.45751,0.518143 0.198437,0.225998 0.286632,0.225998 0.248047,-0.03858 0.76619,-0.837848 0.06063,-0.03858 0.115755,-0.03858 z m 2.943493,0.110243 q 0.09922,0.0055 0.248047,0.308681 0.192925,0.297657 0.325217,0.446485 0.391363,0.391363 0.705556,0.48507 0.09371,0 0.143317,0.198437 -0.143317,0.639411 -0.214975,1.967841 0,0.01102 0.01654,0.104731 -0.01654,0.115755 -0.01654,0.253559 0,0.03858 0.01654,0.07166 -0.0441,0.744142 -0.09371,1.207163 0,0.33073 0.380339,0.61185 0.165365,0.165364 0.165365,0.237022 -0.01102,0.06615 -0.325218,0.214975 -0.325217,0.35829 -0.413411,0.35829 -0.132292,0 -0.468534,-0.468534 -0.220486,-0.187413 -0.220486,-0.286632 0.110243,-0.953603 0.110243,-1.008725 -0.01654,-0.286632 -0.01654,-0.341754 0,-0.08268 0.04961,-0.43546 -0.03307,-0.606337 -0.03307,-0.937067 l 0.07166,-0.915018 q 0,-0.369315 -0.270096,-0.48507 -0.15434,0 -0.468533,-0.363803 h -0.07166 q -0.341754,0 -0.429949,0.73863 v 0.126779 q 0,0.490582 0.501607,0.666971 0.237023,0.05512 0.237023,0.198438 0,0.03858 -0.308681,0.396875 -0.358291,0.567753 -0.358291,1.422137 0.06615,0.595313 0.396876,1.025262 v 0.09371 q -0.03307,0.05512 -0.56224,0.413412 -0.09371,0.214975 -0.214974,0.214975 -0.385852,-0.341754 -0.507119,-0.61185 -0.231511,-0.793751 -0.231511,-1.207163 v -0.237023 q 0.07166,-0.666971 0.380339,-1.113456 0.02205,0 0.176389,-0.181901 v -0.01654 q 0,-0.08819 -0.214974,-0.214974 -0.225998,-0.341754 -0.270096,-0.68902 0.01654,-0.396876 0.01654,-0.644923 0,-0.248047 0.451997,-0.380339 0.611849,-0.325217 0.92053,-0.826823 0.09371,-0.0441 0.214974,-0.308681 0.09371,-0.08819 0.181902,-0.08819 z m 3.439587,-0.02756 h 0.06063 q 0.09922,0 0.584289,0.463022 0.479558,0.303168 1.030774,0.303168 0.08268,0.06063 0.08268,0.121268 -0.08268,0.584289 -0.08268,0.810287 0,0.12678 0.02205,0.264584 0,0.01654 -0.02205,0.06063 0,2.232425 0.567752,4.282948 0.28112,0.738629 0.584289,1.069358 l 0.03858,0.09922 q -0.0441,0.319705 -0.341754,0.589801 -0.15434,0.06063 -0.325217,0.48507 l -0.137804,0.03858 H 66.5079 q -0.07166,0 -0.826823,-0.363802 Q 65.284201,83.878 64.181769,83.878 q -0.556728,0 -1.152041,0.341754 h -0.01654 q -0.143316,0 -0.143316,-0.143316 v -0.03858 q 0,-0.446485 0.363802,-0.584289 0.28112,-0.253559 0.644923,-0.363802 0.424436,-0.165365 0.507118,-0.165365 0.192926,0 0.424436,0.02205 0.170877,-0.02205 0.264584,-0.02205 0.523655,0 1.069359,0.4079 h 0.08268 q 0.03858,0 0.03858,-0.0441 v -0.01654 q 0,-0.06615 -0.220486,-0.363803 -0.242535,-0.479557 -0.650435,-1.984377 -0.303168,-1.185114 -0.303168,-3.593927 0,-0.110243 -0.523655,-0.303169 -0.121268,-0.143316 -0.220487,-0.143316 h -0.0441 q -0.154341,0 -0.181901,0.992189 v 0.06063 q 0,0.104731 0.02205,0.181901 -0.02205,0.104731 -0.02205,0.20395 v 0.06063 q 0.104731,1.030774 0.104731,2.320619 0,0.154341 0.424436,0.424436 0.242535,0.248047 0.242535,0.363803 0,0.07717 -0.242535,0.385851 -0.08268,0.380339 -0.286632,0.380339 h -0.03858 q -0.12678,0 -0.341754,-0.259072 -0.06615,-0.104731 -0.727605,-0.363802 -0.06063,-0.06063 -0.104731,-0.20395 0.0441,-0.308681 0.0441,-0.848872 -0.04961,-3.213589 -0.143316,-3.213589 0.03858,-0.187413 0.03858,-0.319705 -0.01654,-0.209462 -0.01654,-0.242535 0,-0.09371 0.622874,-0.242535 0.209462,-0.06063 0.771702,-0.68902 z m 3.963242,0.06063 q 0.126779,0 0.474045,0.457509 0.187414,0.20395 0.749654,0.336242 l 0.0441,0.09922 q -0.159852,0.35829 -0.159852,0.727605 l 0.02205,0.0441 -0.06063,1.12448 0.01654,0.08268 q 0,0.01654 -0.01654,0.05512 l 0.03859,0.810287 q -0.02205,0.275608 -0.02205,0.358291 0.02205,0.270096 0.02205,0.336241 -0.02205,0.237023 -0.02205,0.358291 l 0.09922,0.413412 q 0,0.04961 -0.474046,0.336241 -0.595313,0.468534 -0.595313,0.832336 -0.08268,0.132292 -0.137804,0.137804 -0.09371,0 -0.391363,-0.336242 -0.198438,-0.242534 -1.168578,-0.595313 -0.09922,-0.115755 -0.09922,-0.214974 0.09922,-0.512631 0.09922,-1.091407 0,-0.374827 -0.03858,-0.97014 0.03858,-0.192926 0.03858,-0.391363 v -0.297657 q 0,-0.286632 -0.03858,-0.771702 l 0.01654,-0.176389 q -0.03858,-0.413412 -0.137804,-0.755166 0,-0.02756 0.07717,-0.07717 1.008725,0 1.306381,-0.573264 0.303169,-0.259072 0.319706,-0.259072 z m -0.810288,2.193839 q 0.02205,0.931555 0.05512,1.107944 -0.03858,0.259071 -0.03858,0.694532 v 0.09922 q 0.01102,1.212675 0.694532,1.383552 h 0.03858 q 0.319705,0 0.319705,-0.61185 0.03307,-0.214974 0.05512,-0.771702 l -0.05512,-1.107944 q 0.01654,-0.170877 0.05512,-1.207163 0,-0.474045 -0.275608,-0.650434 -0.176389,-0.143317 -0.314193,-0.143317 h -0.08268 q -0.385851,0 -0.451997,1.207163 z m 2.949005,-2.182815 h 0.05512 q 0.225998,0 0.418924,0.474046 0.363802,0.380339 0.457509,0.380339 0.170877,0 0.297656,-0.556728 0.07717,-0.12678 0.259072,-0.159853 0.176389,0 0.617362,0.496095 0.176389,0.176389 0.573264,0.319705 0.06063,0.137804 0.06063,0.159852 -0.259072,0.529168 -0.259072,0.672484 v 0.953603 q 0,0.07166 -0.01654,0.181901 0.01654,0.02756 0.01654,0.115756 -0.03858,0.479557 -0.03858,0.617361 v 0.595314 q 0.07166,1.251259 0.396876,1.251259 0.259071,0.09922 0.259071,0.242535 0,0.06063 -0.220486,0.352779 -0.104731,0.380339 -0.237023,0.380339 -0.248047,-0.04961 -1.052822,-0.633899 -0.198438,-0.08268 -0.198438,-0.220486 0.176389,-0.418924 0.176389,-0.975652 0.01654,0 0.0441,-1.152041 -0.05512,-0.56224 -0.09922,-1.967841 -0.165364,-0.303168 -0.501606,-0.396875 h -0.01654 q -0.214975,0 -0.28112,0.43546 -0.01654,0.396876 -0.03859,1.212675 0,0.01654 0.02205,0.121268 -0.02205,0.104731 -0.02205,0.121267 0,0.110243 0.02205,0.496094 -0.02205,0.821312 -0.06063,1.570966 0,0.225998 0.297657,0.474045 v 0.03858 q 0,0.08819 -0.336242,0.396876 -0.253559,0.457509 -0.396875,0.457509 -0.09371,0 -0.28112,-0.496094 -0.237023,-0.187414 -0.237023,-0.297657 0.176389,-0.264584 0.176389,-0.89297 -0.01654,-0.490582 -0.01654,-0.975652 v -0.115755 q -0.08268,-0.68902 -0.08268,-1.868622 0,-0.407899 -0.396875,-0.518143 l -0.03858,-0.06063 v -0.07717 q 0.518143,-0.435461 0.518143,-0.837849 0.08819,-0.314193 0.159852,-0.314193 z m 5.20899,-0.0441 q 0.09922,0.0055 0.248047,0.308681 0.192925,0.297657 0.325217,0.446485 0.391363,0.391363 0.705556,0.48507 0.09371,0 0.143316,0.198437 -0.143316,0.639411 -0.214974,1.967841 0,0.01102 0.01654,0.104731 -0.01654,0.115755 -0.01654,0.253559 0,0.03858 0.01654,0.07166 -0.0441,0.744142 -0.09371,1.207163 0,0.33073 0.380339,0.61185 0.165365,0.165364 0.165365,0.237022 -0.01102,0.06615 -0.325218,0.214975 -0.325217,0.35829 -0.413411,0.35829 -0.132292,0 -0.468534,-0.468534 -0.220486,-0.187413 -0.220486,-0.286632 0.110243,-0.953603 0.110243,-1.008725 -0.01654,-0.286632 -0.01654,-0.341754 0,-0.08268 0.04961,-0.43546 -0.03307,-0.606337 -0.03307,-0.937067 l 0.07166,-0.915018 q 0,-0.369315 -0.270096,-0.48507 -0.15434,0 -0.468533,-0.363803 h -0.07166 q -0.341754,0 -0.429949,0.73863 v 0.126779 q 0,0.490582 0.501607,0.666971 0.237023,0.05512 0.237023,0.198438 0,0.03858 -0.308681,0.396875 -0.358291,0.567753 -0.358291,1.422137 0.06615,0.595313 0.396876,1.025262 v 0.09371 q -0.03307,0.05512 -0.56224,0.413412 -0.09371,0.214975 -0.214975,0.214975 -0.385851,-0.341754 -0.507118,-0.61185 -0.231511,-0.793751 -0.231511,-1.207163 v -0.237023 q 0.07166,-0.666971 0.380339,-1.113456 0.02205,0 0.176389,-0.181901 v -0.01654 q 0,-0.08819 -0.214974,-0.214974 -0.225998,-0.341754 -0.270096,-0.68902 0.01654,-0.396876 0.01654,-0.644923 0,-0.248047 0.451997,-0.380339 0.611849,-0.325217 0.92053,-0.826823 0.09371,-0.0441 0.214974,-0.308681 0.09371,-0.08819 0.181902,-0.08819 z m 2.116669,-1.521356 h 0.03307 q 0.05512,0 0.148828,0.391364 0.286632,0.51263 0.887457,1.069358 0.264584,0.198438 0.595313,0.683508 0.341754,0.446485 0.832336,0.948091 l 0.03307,0.07166 q -0.01654,0.490582 -0.04961,0.694532 l 0.01654,0.104731 q 0,0.490582 -0.06615,1.118968 0,0.08819 0.01654,0.259072 -0.01654,0.143316 -0.01654,0.237023 0,0.03307 0.01654,0.187413 l -0.08819,0.694532 v 0.137804 l 0.07166,0.4079 q 0,0.110243 -0.391363,0.15434 -0.259071,0.06615 -0.76619,0.556728 -0.170877,0.325218 -0.325217,0.325218 -0.09371,-0.03859 -0.352778,-0.45751 -0.121268,-0.143316 -0.429949,-0.391363 -0.115755,-0.198438 -0.115755,-0.308681 l 0.04961,-0.303168 -0.04961,-0.308681 q 0.03307,-0.132292 0.03307,-0.319706 v -0.391363 q -0.04961,-0.573264 -0.06615,-1.041798 0.01654,-0.08819 0.01654,-0.165364 0,-0.540192 -0.07166,-1.091408 0,-0.132292 0.325217,-0.187413 0.270096,-0.132292 0.529167,-0.336242 h 0.04961 q 0.02205,0 0.04961,0.04961 v 0.01654 q 0,0.187413 -0.03307,0.4079 l 0.03307,0.440972 q 0,0.09922 -0.01654,0.275608 0.01654,0.4079 0.01654,0.799263 0,0.07717 0.01654,0.165365 -0.01654,0.556728 -0.06615,1.091407 v 0.474046 q 0,0.154341 0.4079,0.479558 0.06063,0.03307 0.154341,0.03307 0.132291,-0.06063 0.132291,-0.220487 v -0.15434 q 0,-0.110243 -0.01654,-0.253559 0.04961,-0.286632 0.104731,-1.670184 v -0.319705 q 0,-0.192926 0.03307,-0.4079 0,-0.617362 -0.270096,-0.749654 -0.4079,-0.600825 -0.799263,-0.92053 -0.738629,-0.677996 -1.223699,-0.760678 -0.104731,-0.05512 -0.104731,-0.137804 0.143316,-0.170877 0.270096,-0.170877 h 0.01654 q 0.07166,0 0.187414,0.01654 0.104731,0 0.121267,-0.137804 v -0.03307 q -0.04961,-0.540192 -0.04961,-0.744142 0,-0.308681 0.170877,-0.308681 z m 4.514457,1.460722 q 0.159853,0 0.303169,0.540192 0.159852,0.242535 0.496094,0.440973 0.02205,0.03307 0.02205,0.07717 l -0.358291,0.402387 q -0.440972,0.854385 -0.440972,1.058335 -0.02205,0.0055 -0.02205,0.20395 0,0.09922 0.440973,0.214974 0.181901,0.159852 0.181901,0.341754 -0.137804,0.440972 -0.463021,0.440972 h -0.01654 q -0.297656,0 -0.523655,-0.479557 -0.06063,-0.242535 -0.06063,-0.380339 v -0.242535 q 0,-0.661459 0.220487,-1.135505 0,-0.110243 -0.07717,-0.143316 h -0.08268 q -0.396875,0.275608 -0.396875,0.600825 l -0.02205,0.121268 q 0.03858,1.030773 0.03858,3.081296 0,0.121268 0.440973,0.35829 0.292144,0.237023 0.297656,0.341754 0,0.05512 -0.35829,0.418924 -0.07166,0.237023 -0.198438,0.319706 h -0.02205 q -0.09371,0 -0.457509,-0.402388 -0.661459,-0.391363 -0.661459,-0.496094 0.08268,-1.444186 0.08268,-1.780427 -0.06063,-0.248048 -0.06063,-1.383552 v -0.336242 q 0,-0.253559 -0.02205,-0.622874 0,-0.23151 0.578776,-0.341754 0.771702,-0.446484 0.981165,-0.975652 0,-0.126779 0.159852,-0.242535 z m 4.525483,-1.444185 0.771703,0.286632 h 0.242535 l 0.440972,-0.110243 q 0.600826,0 0.8158,0.440973 l 0.02205,0.110243 v 0.08819 q -0.137804,0.48507 -0.396875,0.48507 h -0.06615 q -0.259071,0 -0.374827,-0.286632 l -0.0441,-0.02205 h -0.06615 q -0.242535,0.187414 -0.242535,0.529168 v 0.48507 q -0.15434,1.256772 -0.15434,1.543404 0,0.220486 0.529167,0.220486 h 0.992188 q 1.036286,-0.04961 1.036286,-0.176389 v -0.0441 q -0.330729,-0.292144 -0.330729,-0.440973 0.06063,-0.396875 0.396875,-0.396875 0.440973,0 0.727605,0.396875 0.02205,0.08819 0.02205,0.154341 0,0.292144 -0.286633,0.815799 -0.0441,0.09922 -0.06615,0.33073 0.132291,0.683507 0.132291,0.727605 -0.115755,0.727604 -0.573264,0.727604 -0.507119,0 -0.661459,-0.374826 v -0.154341 q 0,-0.237023 0.418924,-0.374827 l 0.02205,-0.0441 v -0.06615 q 0,-0.104731 -0.903994,-0.330729 -0.220487,-0.0441 -0.440973,-0.0441 H 88.23683 q -0.418924,0 -0.418924,0.418924 v 0.0441 q 0,0.292144 0.02205,0.837848 -0.01102,0.198438 -0.0441,0.198438 0.08819,0.259071 0.154341,0.837848 0.06615,0.418924 0.220486,0.418924 h 0.02205 q 0.137804,-0.242535 0.15434,-0.242535 l 0.08819,-0.02205 q 0.595313,0.192926 0.595313,0.33073 -0.25356,0.595313 -0.507119,0.595313 -0.248047,0.132292 -0.396875,0.132292 -0.159853,0 -0.683508,-0.308681 h -0.08819 q -0.573265,0.198437 -0.771703,0.198437 -0.490582,0 -0.771702,-0.286632 -0.115755,0 -0.132292,-0.308681 v -0.08819 q 0.06615,-0.418924 0.48507,-0.418924 h 0.0441 q 0.198437,0 0.463021,0.286632 h 0.08819 q 0.148829,0 0.352779,-2.315107 v -0.08819 q -0.0441,-0.374827 -0.352779,-0.374827 -0.07717,0 -0.617361,0.08819 -1.091408,0.02205 -1.411113,0.02205 -0.176389,0.03307 -0.176389,0.132292 0.198438,0.292144 0.198438,0.418924 0,0.292144 -0.617362,0.440973 -0.43546,0 -0.63941,-0.573265 v -0.176389 q 0,-0.385851 0.352778,-0.793751 v -0.08819 q -0.176389,-0.540192 -0.176389,-0.793751 0,-0.584289 0.705556,-0.683508 0.463021,0.03859 0.463021,0.374827 0.0441,0 0.0441,0.154341 v 0.0441 q 0,0.121267 -0.242535,0.352778 v 0.06615 q 0,0.121267 0.859896,0.198438 0.964628,0.198437 1.433161,0.198437 0.148829,-0.05512 0.17639,-0.15434 -0.02205,-0.490582 -0.02205,-0.793751 v -0.264583 q 0,-0.09371 0.02205,-0.242535 -0.198438,-1.113456 -0.264584,-1.344967 -0.07166,-0.0441 -0.132292,-0.0441 -0.05512,0.0055 -0.198438,0.330729 l -0.242535,0.06615 q -0.297656,0 -0.440972,-0.507119 0.09922,-0.63941 0.374827,-0.63941 0.05512,-0.02205 0.727604,-0.110243 z m -1.036285,2.248961 h 0.15434 q 0.374827,0 0.529167,0.551215 0,0.446485 -0.595313,0.529168 -0.440972,0 -0.507118,-0.551216 0,-0.418924 0.418924,-0.529167 z m 3.020663,0 q 0.248047,0 0.507118,0.485069 0.02205,0.03859 0.02205,0.110244 v 0.0441 q -0.137804,0.463021 -0.683508,0.463021 -0.413412,0 -0.463021,-0.48507 0,-0.413412 0.529167,-0.617361 z m -2.844274,2.513544 q 0.28112,0 0.595313,0.573264 v 0.0441 q 0,0.30868 -0.507119,0.440972 h -0.08819 q -0.639411,0 -0.639411,-0.463021 0,-0.347266 0.573265,-0.595313 z m 2.601739,0.15434 q 0.595313,0.121268 0.595313,0.418924 v 0.132292 q 0,0.374827 -0.727605,0.529167 -0.325218,0 -0.463022,-0.507118 0,-0.446485 0.595314,-0.573265 z"
           id="text1"
           aria-label="Dragonade*" />


  </g>
</svg>
