<?xml version="1.0" encoding="UTF-8" standalone="yes"?>
<svg
        width="25mm"
        height="30mm"
        viewBox="0 0 100 120"
        version="1.1"
        xmlns="http://www.w3.org/2000/svg">
    <g id="ed_7" class="icon ed"  transform="translate(50,50)">
        <g style="fill:#0080C0;stroke:#101010;stroke-width:3pt;stroke-linejoin:round;">
            <path style="stroke:#101010;stroke-width:2pt;" d="M -40,0 l 40,-40 40,40 -40,40 z"/>
            <circle style="fill:#502050;" r="33"/>
            <path style="fill:transparent;stroke:#F0C040;stroke-width:2pt;stroke-linejoin:bevel;"
                  d=" M 0,0
             M -20,-10 l 10,0 10,-10 10,10 10,0
             M -20,2 l 6,0 5,-5 5,5 8,0 5,-5 5,5 6,0
             M -20,12 l 5,4 5,-4 5,4 5,-4 5,4 5,-4 5,4 5,-4
            "/>
            <text x="38" y="-20"
                  style="font-weight:600;font-size:8pt;font-family:Neucha;fill:#101010;text-anchor:middle;stroke-width:0.25pt;">
                7
            </text>
            <circle cx="14" cy="38" r="3" style="fill:black; stroke-width:0"/>
            <circle cx="22" cy="38" r="3" style="fill:black; stroke-width:0"/>
            <circle cx="30" cy="38" r="3" style="fill:black; stroke-width:0"/>
            <circle cx="38" cy="14" r="3" style="fill:black; stroke-width:0"/>
            <circle cx="38" cy="22" r="3" style="fill:black; stroke-width:0"/>
            <circle cx="38" cy="30" r="3" style="fill:black; stroke-width:0"/>
            <circle cx="38" cy="38" r="3" style="fill:black; stroke-width:0"/>
        </g>
        <text style="font-weight:600;font-size:11pt;line-height:1.25;font-family:Neucha;fill:#101010;text-anchor:middle;"
              x="0" y="60">Déferlante
        </text>
    </g>
</svg>
