<?xml version="1.0" encoding="UTF-8" standalone="yes"?>
<svg
        width="25mm"
        height="30mm"
        viewBox="0 0 100 120"
        version="1.1"
        xmlns="http://www.w3.org/2000/svg">
    <g id="sd_4" class="icon sd"  transform = "translate(50,50)">
        <g style="fill:#502050;stroke:black;stroke-width:2pt;stroke-linejoin:round; stroke-linecap:round;">
            <path style="fill:#505050" d="M -30,-30 l 60,0 00,60 -60,0 z"/>
            <circle r="35"/>
            <path style="fill:transparent;stroke:#F0C040;stroke-width:2pt;"
                  d="M -5,0
                q 0,-10 5,-10 q 5,0 5,10 q 0,10 -5,10  q -5,0 -5,-10
                m -5,0 q 0,-20 10,-20 q 10,0 10,20 q 0,20 -10,20  q -10,0 -10,-20
                "/>
            <text x="38" y="-20"
                  style="font-weight:600;font-size:8pt;font-family:Neucha;fill:#101010;text-anchor:middle;stroke-width:0.25pt;">
                4
            </text>
            <circle cx="28" cy="38" r="3" style="fill:black; stroke-width:0"/>
            <circle cx="20" cy="38" r="3" style="fill:black; stroke-width:0"/>
            <circle cx="38" cy="28" r="3" style="fill:black; stroke-width:0"/>
            <circle cx="38" cy="20" r="3" style="fill:black; stroke-width:0"/>
        </g>
        <text style="font-weight:600;font-size:11pt;line-height:1.25;font-family:Neucha;fill:#101010;text-anchor:middle;"
              x="0" y="60">Couronne
        </text>
    </g>
</svg>
