<?xml version="1.0" encoding="UTF-8" standalone="yes"?>
<svg
        width="25mm"
        height="30mm"
        viewBox="-50 -50 100 120"
        version="1.1"
        xmlns="http://www.w3.org/2000/svg">
    <g id="sd_5" class="icon sd">
        <g style="fill:#502050;stroke:black;stroke-width:2pt;stroke-linejoin:round; stroke-linecap:round;">
            <path style="fill:#505050" d="M -30,-30 l 60,0 00,60 -60,0 z"/>
            <circle r="35"/>
            <path style="fill:transparent;stroke:#F0C040;stroke-width:2pt;"
                d="M -2,4
                m -10,8 l -2,-3 3,0 0,2 3,2 3,1 3,-2 -1,-4 1,-1 8,4 3,-1 3,-2 1,-6 -1,-8 3,-1 3,1 -1,2
                m -14,8 l -4,-4 -3,2 -6,-8 -8,-6 18,6 -3,-1 -4,-12 16,12 -2,2 0,2
                "/>
            <text x="38" y="-20"
                  style="font-weight:600;font-size:8pt;font-family:Neucha;fill:#101010;text-anchor:middle;stroke-width:0.25pt;">
                5
            </text>
            <circle cx="28" cy="38" r="3" style="fill:black; stroke-width:0"/>
            <circle cx="20" cy="38" r="3" style="fill:black; stroke-width:0"/>
            <circle cx="38" cy="28" r="3" style="fill:black; stroke-width:0"/>
            <circle cx="38" cy="20" r="3" style="fill:black; stroke-width:0"/>
        </g>
        <text style="font-weight:600;font-size:11pt;line-height:1.25;font-family:Neucha;fill:#101010;text-anchor:middle;"
              x="0" y="60">Dragon
        </text>
    </g>
</svg>
