<?xml version="1.0" encoding="UTF-8" standalone="yes"?>
<svg
        width="25mm"
        height="30mm"
        viewBox="0 0 100 120"
        version="1.1"
        xmlns="http://www.w3.org/2000/svg">
    <g id="tm_1" class="icon tm" transform="translate(50,50)">
        <g style="fill:#502050;stroke:black;stroke-width:3pt;stroke-linejoin:round;">
            <circle r="8" cx="-30" cy="30" style="fill:#F0F0F0; stroke-width:2pt;"/>
            <path style="fill:#505050" d="M -30,-30 l 60,0 00,60 -60,0 z"/>
            <path d="M -40,0 l 40,-40 40,40 -40,40 z"/>
            <path style="fill:transparent;stroke:#F0C040;stroke-width:2pt;stroke-linejoin:round;"
                  d="M -20,6 l 5,0 0,-18 6,-2 0,10 6,0 0,-10 6,0 0,10 6,0 0,-10 6,2 0,18 6,0 m -34,6 l 26,0 M 0,-28 l 2,2 -2,2 -2,-2 z"/>
            <text x="38" y="-20"
                  style="font-weight:600;font-size:8pt;font-family:Neucha;fill:#101010;text-anchor:middle;stroke-width:0.25pt;">
                1
            </text>
            <circle cx="28" cy="38" r="3" style="fill:black; stroke-width:0"/>
            <circle cx="38" cy="28" r="3" style="fill:black; stroke-width:0"/>
        </g>
        <text style="font-weight:600;font-size:11pt;line-height:1.25;font-family:Neucha;fill:#101010;text-anchor:middle;"
              x="0" y="60">Sanctuaire
        </text>
    </g>



</svg>
