<?xml version="1.0" encoding="UTF-8" standalone="no"?>
<svg
        width="400mm"
        height="240mm"
        viewBox="-50 -50 400 240"
        version="1.1"
        xmlns="http://www.w3.org/2000/svg"
>
    <g id="efficiency_scale" class="scale" transform="translate(0,0)">
        <g class="icon" style="stroke-width:3pt;stroke-linejoin:round; stroke-linecap:round;">
            <path style="fill:#c08020; stroke:#803010;" d="m 0,-38 l -25,5 3,45 22,27 22,-27 3,-45  z"/>
            <path style="fill:#401040; stroke:#401040;" d="M -30,-10 l 30,-30 30,30 -30,30 z"/>
            <path style="fill:transparent;stroke:#F0C040;stroke-width:3pt;"
                  d="M 0,0 m 0,-25 l -15,15 30,0 -15,15 "
            />
        </g>
        <text style="font-size:8pt;line-height:1.25;font-family:Neucha;fill:#101010;text-anchor:middle;"
              x="0" y="55" dy="0">Ecaille
        </text>
        <text style="font-size:8pt;line-height:1.25;font-family:Neucha;fill:#101010;text-anchor:middle;"
              x="0" y="55" dy="10">d'Efficacité
        </text>
    </g>
    <g id="protection_scale" class="scale" transform="translate(100,0)">
        <g class="icon" style="stroke-width:3pt;stroke-linejoin:round; stroke-linecap:round;">
            <path style="fill:#c08020; stroke:#803010;" d="m 0,-38 l -25,5 3,45 22,27 22,-27 3,-45  z"/>
            <path style="fill:#401040; stroke:#401040;" d="M -30,-10 l 30,-30 30,30 -30,30 z"/>
            <path style="fill:transparent;stroke:#F0C040;stroke-width:3pt;"
                  d="M 0,0 m 0,0 l -10,-10 10,-10 m 0,-10 l 20,20 -20 20   "
            />
        </g>
        <g class="info">
            <text style="font-size:8pt;line-height:1.25;font-family:Neucha;fill:#101010;text-anchor:middle;"
                  x="0" y="55" dy="0">Ecaille
            </text>
            <text style="font-size:8pt;line-height:1.25;font-family:Neucha;fill:#101010;text-anchor:middle;"
                  x="0" y="55" dy="10">de Protection
            </text>
        </g>
    </g>
    <g id="activity_scale" class="scale" transform="translate(200,0)">
        <g class="icon" style="stroke-width:3pt;stroke-linejoin:round; stroke-linecap:round;">
            <path style="fill:#c08020; stroke:#803010c0;" d="m 0,-38 l -25,5 3,45 22,27 22,-27 3,-45  z"/>
            <path style="fill:#401040; stroke:#401040;" d="M -30,-10 l 30,-30 30,30 -30,30 z"/>
            <path style="fill:transparent;stroke:#F0C040;stroke-width:3pt;"
                  d="M 0,0 m -10,0 l -10,-10 40,0 -10,10 M 0,0 m 0,-20 l -10,0 10,-10 10,10 -10,0"
            />
        </g>
        <g class="info">
            <text style="font-size:8pt;line-height:1.25;font-family:Neucha;fill:#101010;text-anchor:middle;"
                  x="0" y="55" dy="0">Ecaille
            </text>
            <text style="font-size:8pt;line-height:1.25;font-family:Neucha;fill:#101010;text-anchor:middle;"
                  x="0" y="55" dy="10">d'Activité
            </text>
        </g>
    </g>

    <g class="claw" transform="translate(300,0)">
        <g class="icon" style="stroke-width:3pt;stroke-linejoin:miter; stroke-linecap:miter;">
            <path style="fill:#606060; stroke:#303030;" d="m 0,-38 l -25,5 3,45 22,27 22,-27 3,-45  z"/>
            <path style="fill:#101010; stroke:#101010;" d="M -30,-10 l 30,-30 30,30 -30,30 z"/>
            <!--            <path style="fill:#401040; stroke:#401040;" d="M -30,-10 l 30,-30 30,30 -30,30 z" />-->
            <path style="fill:transparent;stroke:#F0C040;stroke-width:2pt;"
                  d="M 0,0 m -10,-15 l 0,-10 10,-10 10,10 q 0,20 -10,40 q 5,-30 -10,-30 z"
            />
        </g>
        <g class="info">
            <text style="font-size:8pt;line-height:1.25;font-family:Neucha;fill:#101010;text-anchor:middle;"
                  x="0" y="55" dy="0">Griffe
            </text>
            <text style="font-size:8pt;line-height:1.25;font-family:Neucha;fill:#101010;text-anchor:middle;"
                  x="0" y="55" dy="10">de Thanatos
            </text>
        </g>

    </g>


    <g id="gc_ge_efficiency" class="gc_ge_efficiency" transform="translate(0,120)">
        <g class="icon" style="stroke-width:3pt;stroke-linejoin:round; stroke-linecap:round;">
            <path style="fill:#401040C0;stroke:#401040;" d="m 0,-38 l -25,5 3,45 22,27 22,-27 3,-45  z"/>
            <path style="fill:#F0C040;stroke:#401040;stroke-width:3pt;"
                  d="M 0,0 l -18,-30 l -20,20 20,20 15,-10 6,0 15,10 l 20,-20 -20,-20 -18,30 "
            />

            <path style="fill:#401040; stroke:#401040;" d="M -30,-10 l 30,-30 30,30 -30,30 z"/>
            <path style="fill:transparent;stroke:#F0F0F0;stroke-width:3pt;"
                  d="M 0,0 m -10,-25 l 10,10 5,-5 -5,-5 -15,15 30,0 -15,15 -5,-5 5,-5 10,10 "
            />
        </g>
        <g class="info">
            <text style="font-size:8pt;line-height:1.25;font-family:Neucha;fill:#101010;text-anchor:middle;"
                  x="0" y="55" dy="0">Grande Ecaille
            </text>
            <text style="font-size:8pt;line-height:1.25;font-family:Neucha;fill:#101010;text-anchor:middle;"
                  x="0" y="55" dy="10">d'Efficacité
            </text>
        </g>
    </g>


    <g id="major_protection_scale" class="scale" transform="translate(100,120)">
        <g class="icon" style="stroke-width:3pt;stroke-linejoin:round; stroke-linecap:round;">
            <path style="fill:#401040C0; stroke:#401040;" d="m 0,-38 l -25,5 3,45 22,27 22,-27 3,-45  z"/>
            <path style="fill:#F0C040;stroke:#401040;stroke-width:3pt;"
                  d="M 0,0 l -18,-30 l -20,20 20,20 15,-10 6,0 15,10 l 20,-20 -20,-20 -18,30 "
            />

            <path style="fill:#401040; stroke:#401040;" d="M -30,-10 l 30,-30 30,30 -30,30 z"/>
            <path style="fill:transparent;stroke:#F0F0F0;stroke-width:3pt;"
                  d="M 0,0 m 0,0 l -10,-10 10,-10 m 0,-10 l 20,20 -20,20 -10,-10 10,-10 -10,-10 10,-10   "
            />
        </g>
        <g class="info">
            <text style="font-size:8pt;line-height:1.25;font-family:Neucha;fill:#101010;text-anchor:middle;"
                  x="0" y="55" dy="0">Grande Ecaille
            </text>
            <text style="font-size:8pt;line-height:1.25;font-family:Neucha;fill:#101010;text-anchor:middle;"
                  x="0" y="55" dy="10">de Protection
            </text>
        </g>
    </g>

    <g id="major_activity_scale" class="scale" transform="translate(200,120)">
        <g class="icon" style="stroke-width:3pt;stroke-linejoin:round; stroke-linecap:round;">
            <path style="fill:#401040C0; stroke:#401040;" d="m 0,-38 l -25,5 3,45 22,27 22,-27 3,-45  z"/>
            <path style="fill:#F0C040;stroke:#401040;stroke-width:3pt;"
                  d="M 0,0 l -18,-30 l -20,20 20,20 15,-10 6,0 15,10 l 20,-20 -20,-20 -18,30 "
            />

            <path style="fill:#401040; stroke:#401040;" d="M -30,-10 l 30,-30 30,30 -30,30 z"/>
            <path style="fill:transparent;stroke:#F0F0F0;stroke-width:3pt;"
                  d="M 0,0 m -5,-5 l -5,5 -10,-10 20,0 10,-10 -10,-10 -10,10 10,10 20,0 -10,10 -5,-5  "
            />
        </g>
        <g class="info">
            <text style="font-size:8pt;line-height:1.25;font-family:Neucha;fill:#101010;text-anchor:middle;"
                  x="0" y="55" dy="0">Grande Ecaille
            </text>
            <text style="font-size:8pt;line-height:1.25;font-family:Neucha;fill:#101010;text-anchor:middle;"
                  x="0" y="55" dy="10">d'Activité
            </text>
        </g>
    </g>

    <g id="gc_ge_efficiency" class="gc_ge_efficiency" transform="translate(300,120)">
        <g class="icon" style="stroke-width:3pt;stroke-linejoin:round; stroke-linecap:round;">
            <path style="fill:#404040;stroke:#101010;" d="m 0,-38 l -25,5 3,45 22,27 22,-27 3,-45  z"/>
            <path style="fill:#F0C040;stroke:#101010;stroke-width:3pt;"
                  d="M 0,0 l -18,-30 l -20,20 20,20 15,-10 6,0 15,10 l 20,-20 -20,-20 -18,30 "
            />
            <path style="fill:#101010; stroke:#101010;" d="M -30,-10 l 30,-30 30,30 -30,30 z"/>
            <path style="fill:transparent;stroke:#F0F0F0;stroke-width:2pt;"
                  d="M 0,0
                    m -10,-15 l 0,-10 10,-10 10,10 q 0,20 -10,40 q 5,-30 -10,-30 z
                    M -15,-8 l -5,5 -5,-5 5,-5 5,5
                    M 15,-8 l 5,5 5,-5 -5,-5 -5,5
                    "/>
        </g>
        <g class="info">
            <text style="font-size:8pt;line-height:1.25;font-family:Neucha;fill:#101010;text-anchor:middle;"
                  x="0" y="55" dy="0">Grande Griffe
            </text>
            <text style="font-size:8pt;line-height:1.25;font-family:Neucha;fill:#101010;text-anchor:middle;"
                  x="0" y="55" dy="10">de Thanatos
            </text>
        </g>
    </g>




</svg>
